<!-- https://feathericons.dev/?search=card-discover -->
<svg xmlns="http://www.w3.org/2000/svg" viewBox="0 0 56 32" width="56" height="32" fill="none">
  <rect fill="#fff" height="31" rx="5.5" width="55" x=".5" y=".5" />
  <path d="M33.056 16.004a3.754 3.754 0 1 1-7.508 0 3.754 3.754 0 0 1 7.508 0ZM23.373 19.667c-2.096 0-3.725-1.609-3.725-3.683 0-2.051 1.672-3.692 3.757-3.693.593 0 1.09.127 1.694.434v1.62c-.573-.56-1.07-.795-1.726-.795-1.291 0-2.306 1.07-2.306 2.424 0 1.429.984 2.434 2.37 2.434.624 0 1.111-.222 1.662-.773v1.62c-.626.295-1.134.412-1.726.412ZM17.184 15.16c-.826-.306-1.068-.508-1.068-.89 0-.444.432-.782 1.025-.782.413 0 .751.17 1.11.572l.72-.943a3.087 3.087 0 0 0-2.073-.783c-1.249 0-2.201.867-2.201 2.022 0 .973.443 1.47 1.736 1.935.539.19.813.317.951.402.275.18.413.434.413.73 0 .572-.454.996-1.069.996-.656 0-1.185-.329-1.502-.941l-.889.856c.634.93 1.396 1.343 2.443 1.343 1.43 0 2.434-.95 2.434-2.317 0-1.12-.464-1.628-2.03-2.2Z" fill="currentColor" />
  <path clip-rule="evenodd" d="M6 12.451h2.02c2.233 0 3.789 1.45 3.789 3.533a3.54 3.54 0 0 1-1.281 2.709c-.678.563-1.45.815-2.518.815H6V12.45Zm1.745 5.862c.89 0 1.45-.17 1.883-.56.476-.425.763-1.102.763-1.78 0-.675-.287-1.332-.763-1.756-.454-.411-.994-.57-1.883-.57h-.37v4.666h.37Z" fill="currentColor" fill-rule="evenodd" />
  <path d="M12.442 12.451h1.377v7.057h-1.377V12.45ZM36.012 17.191l-1.882-4.74h-1.504l2.995 7.238h.74l3.05-7.238h-1.493l-1.906 4.74ZM43.936 19.508h-3.903V12.45h3.903v1.196h-2.528v1.566h2.435v1.195h-2.435v1.905h2.528v1.195Z" fill="currentColor" />
  <path clip-rule="evenodd" d="M49.386 14.534c0-1.32-.91-2.083-2.497-2.083h-2.041v7.057h1.375v-2.835h.18l1.904 2.835H50l-2.221-2.973c1.036-.211 1.607-.92 1.607-2ZM46.625 15.7h-.402v-2.137h.424c.857 0 1.323.359 1.323 1.045 0 .71-.466 1.092-1.345 1.092Z" fill="currentColor" fill-rule="evenodd" />
  <path d="M56 20c-1.492 1.035-12.661 8.428-32 12h28.85c1.74 0 3.15-1.39 3.15-3.104V20Z" fill="currentColor" />
  <rect height="31" rx="5.5" stroke="currentColor" width="55" x=".5" y=".5" />
</svg>
