<!-- https://feathericons.dev/?search=visa -->
<svg xmlns="http://www.w3.org/2000/svg" viewBox="0 0 56 32" width="56" height="32" fill="none">
  <rect fill="#fff" height="31" rx="5.5" width="55" x=".5" y=".5" />
  <path d="M37.534 9.577A8.172 8.172 0 0 0 34.482 9c-3.36 0-5.726 1.845-5.74 4.484-.028 1.946 1.694 3.027 2.982 3.676 1.316.663 1.763 1.096 1.763 1.688-.013.907-1.063 1.326-2.043 1.326-1.358 0-2.086-.216-3.192-.72l-.448-.218-.476 3.043c.798.374 2.268.706 3.794.721 3.57 0 5.894-1.817 5.922-4.628.013-1.543-.896-2.725-2.856-3.691-1.19-.62-1.919-1.038-1.919-1.673.014-.577.617-1.167 1.96-1.167a5.638 5.638 0 0 1 2.534.519l.308.143.463-2.926ZM25.2 22.798h-3.402l2.128-13.552h3.402L25.2 22.798Z" fill="currentColor" />
  <path clip-rule="evenodd" d="M46.255 9.246h-2.631c-.812 0-1.428.245-1.779 1.124l-5.053 12.428h3.57l.714-2.033h4.368c.098.476.406 2.033.406 2.033H49L46.255 9.246Zm-4.2 8.75 1.359-3.79c-.006.01.039-.116.105-.305v-.002c.098-.278.242-.691.343-.991l.237 1.167s.645 3.244.785 3.922h-2.828Z" fill="currentColor" fill-rule="evenodd" />
  <path d="m18.956 9.246-3.332 9.241-.364-1.874v-.001l-1.19-6.227c-.196-.866-.798-1.11-1.54-1.14H7.056L7 9.52c1.335.351 2.53.858 3.575 1.488l3.033 11.776h3.598l5.348-13.538h-3.598Z" fill="currentColor" />
  <rect height="31" rx="5.5" stroke="currentColor" width="55" x=".5" y=".5" />
</svg>
