<svg width="24" height="24" viewBox="0 0 24 24" fill="none" xmlns="http://www.w3.org/2000/svg">
<g clip-path="url(#clip0_5922_184)">
<path d="M0 4V18.7626H7.1554C7.8167 18.7626 8.4632 18.6794 9.0851 18.5146C9.7139 18.3492 10.2756 18.0943 10.7643 17.7485C11.2493 17.4054 11.6427 16.9605 11.932 16.4116C12.2182 15.8696 12.3614 15.2246 12.3614 14.4762C12.3614 13.553 12.1424 12.7653 11.6939 12.1072C11.2479 11.453 10.5752 10.9933 9.6665 10.7326C10.3339 10.4165 10.8323 10.0099 11.1725 9.5149C11.5096 9.0182 11.6783 8.3975 11.6783 7.6542C11.6783 6.9669 11.5656 6.3865 11.3408 5.9224C11.1102 5.4515 10.7888 5.0772 10.3776 4.7958C9.96 4.515 9.4656 4.3101 8.8864 4.1873C8.3037 4.0612 7.6664 4.0001 6.96 4.0001L0 4ZM15.6674 4.9903V6.447H21.6518V4.9903H15.6674ZM3.2509 6.5143H6.2916C6.5789 6.5143 6.8599 6.5347 7.1275 6.5874C7.4003 6.634 7.6355 6.7214 7.8435 6.8469C8.0531 6.9674 8.2189 7.1399 8.3445 7.3601C8.4653 7.5804 8.5251 7.8639 8.5251 8.2075C8.5251 8.8264 8.344 9.2777 7.97 9.5501C7.5922 9.8276 7.1157 9.9648 6.5396 9.9648H3.2509V6.5143ZM18.7959 7.7707C17.9769 7.7707 17.2372 7.9169 16.5665 8.2067C15.896 8.4971 15.3202 8.8942 14.8347 9.3982C14.3501 9.8993 13.9812 10.4968 13.7147 11.1891C13.4535 11.8791 13.3205 12.6257 13.3205 13.4251C13.3205 14.2519 13.4489 15.0142 13.704 15.7037C13.962 16.396 14.3238 16.9859 14.7896 17.4847C15.2676 17.9814 15.8356 18.3631 16.5156 18.6344C17.1962 18.9034 17.9538 19.0392 18.7959 19.0392C20.0039 19.0392 21.0405 18.7621 21.8908 18.2066C22.7507 17.6538 23.381 16.7356 23.7966 15.4492H21.2116C21.1116 15.7799 20.8526 16.0982 20.4276 16.3959C19.9981 16.6947 19.4859 16.8451 18.8936 16.8451C18.0703 16.8451 17.4348 16.6283 16.9951 16.1989C16.5539 15.7695 16.2684 14.97 16.2684 14.1247H23.9814C24.0366 13.2956 23.9692 12.5029 23.7769 11.745C23.5831 10.9849 23.2736 10.3085 22.8376 9.716C22.4021 9.1229 21.8472 8.6493 21.1706 8.2995C20.4918 7.9452 19.7003 7.7707 18.7959 7.7707V7.7707ZM18.7072 9.9877C19.4281 9.9877 20.0198 10.1969 20.3684 10.5831C20.7187 10.9721 20.9749 11.5263 21.045 12.2746H16.2684C16.282 12.0661 16.3264 11.8302 16.4023 11.5701C16.4772 11.3033 16.6062 11.0537 16.7956 10.8171C16.9861 10.5845 17.2358 10.3861 17.5396 10.2275C17.8505 10.0667 18.2382 9.9878 18.7072 9.9878V9.9877ZM3.251 12.1836H6.7844C7.484 12.1836 8.0526 12.3438 8.4792 12.6672C8.9051 12.9952 9.1197 13.5357 9.1197 14.2964C9.1197 14.6849 9.0565 15.0058 8.9251 15.253C8.7941 15.5025 8.6145 15.6996 8.3971 15.8426C8.1799 15.9917 7.9218 16.0924 7.631 16.1563C7.3448 16.2202 7.0405 16.2483 6.7195 16.2483H3.2509L3.251 12.1836Z" fill="#1769FF"/>
</g>
<defs>
<clipPath id="clip0_5922_184">
<rect width="24" height="24" fill="white"/>
</clipPath>
</defs>
</svg>
