<svg width="24" height="24" viewBox="0 0 24 24" fill="none" xmlns="http://www.w3.org/2000/svg">
<g clip-path="url(#clip0_5922_309)">
<path fill-rule="evenodd" clip-rule="evenodd" d="M0.653961 3.27606C0 4.55953 0 6.23969 0 9.6V14.4C0 17.7603 0 19.4405 0.653961 20.7239C1.2292 21.8529 2.14708 22.7708 3.27606 23.346C4.55953 24 6.23969 24 9.6 24H14.4C17.7603 24 19.4405 24 20.7239 23.346C21.8529 22.7708 22.7708 21.8529 23.346 20.7239C24 19.4405 24 17.7603 24 14.4V9.6C24 6.23969 24 4.55953 23.346 3.27606C22.7708 2.14708 21.8529 1.2292 20.7239 0.653961C19.4405 0 17.7603 0 14.4 0H9.6C6.23969 0 4.55953 0 3.27606 0.653961C2.14708 1.2292 1.2292 2.14708 0.653961 3.27606ZM12.384 4.674L11.898 5.514L11.421 4.671C11.115 4.146 10.452 3.969 9.92698 4.269C9.40198 4.575 9.22499 5.238 9.52498 5.763L10.638 7.69501L7.07399 13.872H4.29C3.684 13.872 3.198 14.358 3.198 14.964C3.198 15.57 3.684 16.056 4.29 16.056H14.22C14.697 15.162 14.082 13.872 12.984 13.872H9.59698L14.28 5.766C14.58 5.241 14.403 4.572 13.878 4.272C13.353 3.972 12.684 4.149 12.384 4.674ZM6.63599 19.002L7.68599 17.181C7.11899 16.497 6.40199 16.287 5.51999 16.56L4.74 17.91C4.44 18.435 4.61699 19.104 5.14199 19.404C5.66699 19.704 6.33599 19.527 6.63599 19.002ZM19.569 13.878H16.728C16.5104 13.5013 16.3012 13.139 16.1003 12.791C14.9795 10.8499 14.117 9.35603 13.509 8.31301C12.864 8.85001 12.21 10.434 13.125 12.012C13.5217 12.7004 14.0077 13.5418 14.5824 14.5368C15.3027 15.7837 16.1622 17.2717 17.16 19.002C17.466 19.527 18.129 19.704 18.654 19.404C19.179 19.098 19.356 18.435 19.056 17.91L17.991 16.062H19.569C20.175 16.062 20.661 15.576 20.661 14.97C20.661 14.364 20.175 13.878 19.569 13.878Z" fill="url(#paint0_linear_5922_309)"/>
</g>
<defs>
<linearGradient id="paint0_linear_5922_309" x1="12" y1="0" x2="12" y2="24" gradientUnits="userSpaceOnUse">
<stop stop-color="#18BFFB"/>
<stop offset="1" stop-color="#2072F3"/>
</linearGradient>
<clipPath id="clip0_5922_309">
<rect width="24" height="24" fill="white"/>
</clipPath>
</defs>
</svg>
