<svg width="56" height="32" viewBox="0 0 56 32" fill="none" xmlns="http://www.w3.org/2000/svg">
<rect x="0.5" y="0.5" width="55" height="31" rx="5.5" fill="#687076"/>
<path d="M33.0558 16.0039C33.0558 18.0771 31.3751 19.7578 29.3019 19.7578C27.2286 19.7578 25.548 18.0771 25.548 16.0039C25.548 13.9307 27.2286 12.25 29.3019 12.25C31.3751 12.25 33.0558 13.9307 33.0558 16.0039Z" fill="white"/>
<path d="M23.3728 19.6667C21.2769 19.6667 19.6481 18.0584 19.6481 15.9842C19.6481 13.9326 21.3199 12.2916 23.4054 12.2912C23.9978 12.2912 24.4946 12.4182 25.0988 12.7247V14.3444C24.5264 13.7846 24.0295 13.5503 23.373 13.5503C22.0818 13.5503 21.0668 14.6192 21.0668 15.9739C21.0668 17.403 22.0507 18.408 23.437 18.408C24.0609 18.408 24.5482 18.1859 25.0986 17.6352V19.2556C24.4728 19.5502 23.9654 19.6667 23.3728 19.6667Z" fill="white"/>
<path d="M17.1842 15.1591C16.3582 14.8535 16.1157 14.6518 16.1157 14.2707C16.1157 13.8261 16.5479 13.4884 17.141 13.4884C17.5535 13.4884 17.8923 13.6578 18.251 14.0598L18.9711 13.1168C18.3793 12.5991 17.6712 12.3344 16.8975 12.3344C15.649 12.3344 14.6966 13.2014 14.6966 14.3564C14.6966 15.3286 15.14 15.8263 16.4327 16.2915C16.9716 16.4815 17.2459 16.6081 17.3843 16.6933C17.6593 16.8728 17.797 17.1272 17.797 17.4234C17.797 17.9952 17.3425 18.4187 16.7283 18.4187C16.0718 18.4187 15.543 18.0905 15.2262 17.4776L14.337 18.3339C14.9712 19.2647 15.7328 19.6774 16.7801 19.6774C18.2105 19.6774 19.2138 18.7264 19.2138 17.3604C19.2138 16.2392 18.75 15.7316 17.1842 15.1591Z" fill="white"/>
<path fill-rule="evenodd" clip-rule="evenodd" d="M6 12.4511H8.02047C10.2527 12.4511 11.8088 13.9019 11.8086 15.9842C11.8086 17.0227 11.3325 18.0269 10.5275 18.693C9.85016 19.2556 9.07845 19.5076 8.00978 19.5076H6V12.4511ZM7.7449 18.3129C8.63425 18.3129 9.19589 18.1426 9.62844 17.7521C10.1045 17.3285 10.3908 16.6515 10.3908 15.9739C10.3908 15.2981 10.1045 14.6411 9.62844 14.2174C9.17393 13.8058 8.63425 13.6468 7.7449 13.6468H7.37556V18.3129H7.7449Z" fill="white"/>
<path d="M12.442 12.4511H13.8185V19.5076H12.442V12.4511Z" fill="white"/>
<path d="M36.012 17.191L34.1302 12.4511H32.6265L35.6213 19.6887H36.3619L39.4103 12.4511H37.9183L36.012 17.191Z" fill="white"/>
<path d="M43.9364 19.5076H40.0327V12.4511H43.9364V13.6468H41.4081V15.2131H43.8432V16.4084H41.4081V18.3131H43.9364V19.5076Z" fill="white"/>
<path fill-rule="evenodd" clip-rule="evenodd" d="M49.386 14.5344C49.386 13.2133 48.476 12.4511 46.8887 12.4511H44.8478V19.5076H46.2226V16.6729H46.4021L48.3072 19.5076H50L47.7786 16.5348C48.8152 16.324 49.386 15.6149 49.386 14.5344ZM46.6248 15.6999H46.2228V13.5625H46.6465C47.5038 13.5625 47.9698 13.9218 47.9698 14.6085C47.9698 15.3179 47.5038 15.6999 46.6248 15.6999Z" fill="white"/>
<path d="M56 20C54.5081 21.0346 43.3389 28.4284 24 32H52.8506C54.5896 32 56 30.61 56 28.8957V20Z" fill="white"/>
<rect x="0.5" y="0.5" width="55" height="31" rx="5.5" stroke="#687076"/>
</svg>
