<svg width="56" height="32" viewBox="0 0 56 32" fill="none" xmlns="http://www.w3.org/2000/svg">
<rect x="0.5" y="0.5" width="55" height="31" rx="5.5" fill="white"/>
<path d="M17.3434 11.7397C16.6494 11.0642 15.7209 10.6931 14.7549 10.7121C12.9918 10.7121 11.5006 11.9205 10.966 13.5475L10.9639 13.5458C10.685 14.3999 10.6855 15.3199 10.966 16.1641C11.5006 17.7816 12.9918 18.99 14.7549 18.99C15.6646 18.99 16.4428 18.7521 17.0524 18.3335C17.7651 17.8577 18.2528 17.0965 18.4029 16.2497H14.7547V13.6141H21.1226C21.1977 14.0708 21.2352 14.5371 21.2352 15.0033C21.2352 17.0965 20.5037 18.8568 19.2282 20.0461C18.1121 21.0928 16.5744 21.7017 14.7549 21.7017C12.204 21.7017 9.86877 20.246 8.7246 17.9339V17.9243C7.75847 15.9928 7.75846 13.7093 8.7246 11.7778C9.86877 9.46569 12.204 8.00041 14.7549 8.00041C16.4337 7.98138 18.0468 8.61888 19.2753 9.77968L17.3434 11.7397Z" fill="#687076"/>
<path fill-rule="evenodd" clip-rule="evenodd" d="M26.448 20.8834V16.0499H28.9427C29.965 16.0499 30.8278 15.7074 31.5312 15.0318L31.7 14.8605C32.9848 13.4619 32.9004 11.283 31.5312 9.98897C30.8465 9.30391 29.9087 8.93283 28.9427 8.95186H24.9381V20.8834H26.448ZM26.4481 14.5845V10.4171H28.9807C29.5247 10.4171 30.0406 10.6264 30.4252 11.007C31.2412 11.8062 31.26 13.1383 30.4721 13.9661C30.0875 14.3752 29.5434 14.6036 28.9807 14.5845H26.4481Z" fill="#687076"/>
<path fill-rule="evenodd" clip-rule="evenodd" d="M38.7433 13.3572C38.0962 12.7577 37.2147 12.4533 36.0986 12.4533C34.6637 12.4533 33.5852 12.9861 32.8724 14.0422L34.2042 14.889C34.6919 14.1659 35.3577 13.8044 36.2018 13.8044C36.7364 13.8044 37.2522 14.0042 37.6554 14.3657C38.0493 14.7083 38.2744 15.203 38.2744 15.7263V16.0784C37.693 15.7549 36.9614 15.5836 36.0611 15.5836C35.0107 15.5836 34.1667 15.831 33.5383 16.3353C32.91 16.8396 32.5911 17.5056 32.5911 18.3524C32.5723 19.1231 32.9006 19.8558 33.482 20.3505C34.0729 20.8834 34.8232 21.1498 35.7047 21.1498C36.7457 21.1498 37.571 20.6836 38.1994 19.7511H38.265V20.8834H39.7093V15.85C39.7093 14.7939 39.3905 13.9566 38.7433 13.3572ZM34.6453 19.3801C34.3357 19.1517 34.1481 18.7806 34.1481 18.381C34.1481 17.9338 34.3545 17.5627 34.7578 17.2678C35.1706 16.9728 35.6864 16.8206 36.2961 16.8206C37.1403 16.8111 37.7969 17.0014 38.2659 17.3819C38.2659 18.029 38.0127 18.5903 37.5155 19.0661C37.0653 19.5228 36.4556 19.7797 35.8178 19.7797C35.3957 19.7892 34.983 19.6465 34.6453 19.3801Z" fill="#687076"/>
<path d="M48 12.7197L42.9544 24.4704H41.3975L43.2732 20.36L39.9626 12.7197H41.6039L43.9954 18.5808H44.0235L46.3587 12.7197H48Z" fill="#687076"/>
<rect x="0.5" y="0.5" width="55" height="31" rx="5.5" stroke="#687076"/>
</svg>
