<svg width="56" height="32" viewBox="0 0 56 32" fill="none" xmlns="http://www.w3.org/2000/svg">
<rect x="0.5" y="0.5" width="55" height="31" rx="5.5" fill="#687076"/>
<path d="M27.5661 21.5655V10.5227C30.6229 11.3052 32.5443 14.3485 31.7583 17.3918C31.2343 19.4786 29.6622 21.0438 27.5661 21.5655Z" fill="white"/>
<path d="M20.841 14.6094C20.055 17.6527 21.8891 20.7829 24.9459 21.5655V10.5227C22.9371 11.0444 21.365 12.6095 20.841 14.6094Z" fill="white"/>
<path fill-rule="evenodd" clip-rule="evenodd" d="M25.994 26H29.5748C35.1644 26 39.6186 21.5655 39.7932 16.0876V16.0006C39.7059 10.4357 35.1644 5.91428 29.5748 6.00123H25.5573C20.2298 6.17514 16.0376 10.6966 16.2123 16.0876C16.2123 21.4785 20.5791 25.913 25.994 26ZM17.9591 16.0006C17.9591 11.4791 21.7146 7.74022 26.2561 7.74022C30.7976 7.74022 34.5531 11.4791 34.5531 16.0006C34.5531 20.522 30.7976 24.2609 26.2561 24.2609C21.7146 24.2609 17.9591 20.522 17.9591 16.0006Z" fill="white"/>
<rect x="0.5" y="0.5" width="55" height="31" rx="5.5" stroke="#687076"/>
</svg>
