<svg width="56" height="32" viewBox="0 0 56 32" fill="none" xmlns="http://www.w3.org/2000/svg">
<rect x="0.5" y="0.5" width="55" height="31" rx="5.5" fill="#687076"/>
<path d="M20.5927 16.3686C21.861 16.3686 22.8892 15.3089 22.8892 14.0017C22.8892 12.6946 21.861 11.6349 20.5927 11.6349C19.3244 11.6349 18.2962 12.6946 18.2962 14.0017C18.2962 15.3089 19.3244 16.3686 20.5927 16.3686Z" fill="white"/>
<path d="M18.7479 17.3774H22.4374V24.1287H18.7479V17.3774Z" fill="white"/>
<path d="M32.226 14.2346H32.2378L32.226 14.2734V14.2346Z" fill="white"/>
<path d="M32.2378 14.2346L32.6025 13.0317H32.6401L32.9789 14.2346H32.2378Z" fill="white"/>
<path fill-rule="evenodd" clip-rule="evenodd" d="M36.2544 11.8289H35.2003V16.1746H37.8356C37.7226 20.9083 35.4261 24.1288 28.6873 24.1288H24.2825V16.1746H24.9602C26.1273 16.1746 26.8426 15.3598 26.8426 14.0018C26.8426 12.6438 26.1273 11.8289 24.9225 11.8289H24.2825V7.83247H28.6873C32.8285 7.83247 37.3838 9.15169 37.7979 15.0882H36.2544V11.8289ZM30.1179 16.1746V15.0882H28.5744V14.5062H29.9673V13.4198H28.5367V12.9154H30.0426V11.8289H27.4826V16.1746H30.1179ZM31.8495 11.8289L30.5694 16.1746H31.6989L31.9248 15.3598H33.3177L33.5436 16.1746H34.6354L33.3553 11.8289H31.8495Z" fill="white"/>
<path d="M24.2824 12.9154V15.0882H24.9225C25.3742 15.0882 25.7883 14.9718 25.7883 14.0018C25.7883 13.0318 25.3366 12.9154 24.9225 12.9154H24.2824Z" fill="white"/>
<path fill-rule="evenodd" clip-rule="evenodd" d="M28.6871 5H16V27H28.6871C35.9907 27 40.6213 23.3139 40.6213 15.9806C40.6213 9.85009 37.3084 5 28.6871 5ZM17.2048 25.7584V6.31922H28.6872C35.3131 6.31922 39.3791 9.42328 39.3791 16.0194C39.3791 22.4215 35.6143 25.7584 28.6872 25.7584H17.2048Z" fill="white"/>
<rect x="0.5" y="0.5" width="55" height="31" rx="5.5" stroke="#687076"/>
</svg>
