<!--

Sourced from The Wolf Kit https://figma.com/community/file/1203393186896008602
Licensed as CC BY 4.0

https://feathericons.dev/webmoney

-->
<svg xmlns="http://www.w3.org/2000/svg" viewBox="0 0 56 32" width="56" height="32" fill="none">
  <rect fill="#137ABE" height="32" rx="6" width="56" />
  <path d="m30.85 15.614-2.174-2.368-2.415 2.126 2.174 2.415 2.415-2.173ZM24.522 11.314l2.174 2.367 2.415-2.125-2.174-2.368-2.415 2.126ZM32.541 19.72l-2.174-2.367-2.415 2.174 2.174 2.367 2.415-2.174Z" fill="#fff" />
  <path d="m30.029 23.681-3.961-4.396 1.11-.966-2.801-3.092 1.11-.966-2.801-3.092 4.396-3.913 1.401 1.498L30.9 6.676l1.4 1.45.918-.822c-.193-.096-.434-.241-.628-.338-1.4-.58-2.898-.966-4.492-.966C22.54 6 18 10.493 18 16s4.541 10 10.145 10c1.836 0 3.527-.483 4.976-1.304.483-.29.918-.58 1.352-.87l-2.029-2.27-2.415 2.125Z" fill="#fff" />
  <path d="m28.966 10.155 1.594 1.787 1.836-1.594-1.642-1.788-1.788 1.595ZM34.039 13.923l-1.643-1.788-1.787 1.643 1.642 1.739 1.788-1.594ZM35.584 17.69l-1.642-1.787-1.787 1.595 1.642 1.835 1.788-1.642ZM35.681 11.797l-1.208 1.063 1.111 1.208 1.16-1.063-1.063-1.208ZM36.02 16.387l1.062 1.207 1.208-1.063-1.111-1.207-1.16 1.063ZM32.928 9.333l1.11 1.208 1.16-1.063-1.063-1.207-1.207 1.062ZM33.749 21.12l1.642 1.788 1.788-1.594-1.643-1.787-1.787 1.594Z" fill="#fff" />
  <rect height="31" rx="5.5" stroke="#000" stroke-opacity=".14" width="55" x=".5" y=".5" />
</svg>
