<svg width="24" height="24" viewBox="0 0 24 24" fill="none" xmlns="http://www.w3.org/2000/svg">
<g clip-path="url(#clip0_1428_79521)">
<path fill-rule="evenodd" clip-rule="evenodd" d="M8.00006 0C5.79205 0 4 1.79203 4 4.00003C4 6.20466 5.78657 7.99449 7.98994 7.99996C5.78657 8.00542 4 9.79535 4 12C4 14.208 5.79205 16 8.00006 15.9999H12.0001V12.0319C12.0173 14.2252 13.8027 16 16.0001 16C18.2081 16 20.0001 14.208 20.0001 12C20.0001 9.79535 18.2136 8.00542 16.0102 7.99996C18.2136 7.99449 20.0001 6.20466 20.0001 4.00003C20.0001 1.79203 18.2081 0 16.0001 0H8.00006ZM15.9848 7.99997H12.0001V11.968C12.0173 9.77981 13.7944 8.00817 15.9848 7.99997Z" fill="#687076"/>
<path d="M8.00006 24C10.2081 24 12.0001 22.208 12.0001 20V15.9999H8.00006C5.79205 15.9999 4 17.792 4 20C4 22.208 5.79205 24 8.00006 24Z" fill="#687076"/>
</g>
<defs>
<clipPath id="clip0_1428_79521">
<rect width="24" height="24" fill="white"/>
</clipPath>
</defs>
</svg>
