<svg width="24" height="24" viewBox="0 0 24 24" fill="none" xmlns="http://www.w3.org/2000/svg">
<g clip-path="url(#clip0_1428_79326)">
<path d="M0 9.6C0 6.23969 0 4.55953 0.653961 3.27606C1.2292 2.14708 2.14708 1.2292 3.27606 0.653961C4.55953 0 6.23969 0 9.6 0H14.4C17.7603 0 19.4405 0 20.7239 0.653961C21.8529 1.2292 22.7708 2.14708 23.346 3.27606C24 4.55953 24 6.23969 24 9.6V14.4C24 17.7603 24 19.4405 23.346 20.7239C22.7708 21.8529 21.8529 22.7708 20.7239 23.346C19.4405 24 17.7603 24 14.4 24H9.6C6.23969 24 4.55953 24 3.27606 23.346C2.14708 22.7708 1.2292 21.8529 0.653961 20.7239C0 19.4405 0 17.7603 0 14.4V9.6Z" fill="#222222"/>
<path d="M9.66671 20C11.1387 20 12.3334 18.8053 12.3334 17.3333V14.6666H9.66671C8.1947 14.6666 7 15.8613 7 17.3333C7 18.8053 8.1947 20 9.66671 20Z" fill="#0ACF83"/>
<path d="M7 12C7 10.528 8.1947 9.33328 9.66671 9.33328H12.3334V14.6666H9.66671C8.1947 14.6667 7 13.472 7 12Z" fill="#A259FF"/>
<path d="M7 6.66669C7 5.19469 8.1947 4 9.66671 4H12.3334V9.33328H9.66671C8.1947 9.33328 7 8.13869 7 6.66669Z" fill="#F24E1E"/>
<path d="M12.3334 4H15C16.472 4 17.6667 5.19469 17.6667 6.66669C17.6667 8.13869 16.472 9.33331 15 9.33331L12.3334 9.33328V4Z" fill="#FF7262"/>
<path d="M17.6667 12C17.6667 13.472 16.472 14.6667 15 14.6667C13.5279 14.6667 12.3333 13.472 12.3333 12C12.3333 10.528 13.5279 9.33331 15 9.33331C16.472 9.33331 17.6667 10.528 17.6667 12Z" fill="#1ABCFE"/>
</g>
<defs>
<clipPath id="clip0_1428_79326">
<rect width="24" height="24" fill="white"/>
</clipPath>
</defs>
</svg>
