<svg width="24" height="24" viewBox="0 0 24 24" fill="none" xmlns="http://www.w3.org/2000/svg">
<g clip-path="url(#clip0_1428_79317)">
<rect width="24" height="24" rx="12" fill="#222222"/>
<path d="M9.66345 19C10.9515 19 11.9968 17.9546 11.9968 16.6666V14.3333H9.66345C8.37544 14.3333 7.33008 15.3786 7.33008 16.6666C7.33008 17.9546 8.37544 19 9.66345 19Z" fill="#0ACF83"/>
<path d="M7.33008 12C7.33008 10.712 8.37544 9.66663 9.66345 9.66663H11.9968V14.3333H9.66345C8.37544 14.3333 7.33008 13.288 7.33008 12Z" fill="#A259FF"/>
<path d="M7.33008 7.33335C7.33008 6.04535 8.37544 5 9.66345 5H11.9968V9.66665H9.66345C8.37544 9.66665 7.33008 8.62135 7.33008 7.33335Z" fill="#F24E1E"/>
<path d="M11.9966 5H14.33C15.618 5 16.6633 6.04535 16.6633 7.33335C16.6633 8.62135 15.618 9.66665 14.33 9.66665H11.9966V5Z" fill="#FF7262"/>
<path d="M16.6633 12C16.6633 13.288 15.618 14.3333 14.33 14.3333C13.0419 14.3333 11.9966 13.288 11.9966 12C11.9966 10.712 13.0419 9.66663 14.33 9.66663C15.618 9.66663 16.6633 10.712 16.6633 12Z" fill="#1ABCFE"/>
</g>
<defs>
<clipPath id="clip0_1428_79317">
<rect width="24" height="24" fill="white"/>
</clipPath>
</defs>
</svg>
