<svg width="24" height="24" viewBox="0 0 24 24" fill="none" xmlns="http://www.w3.org/2000/svg">
<g clip-path="url(#clip0_1427_79302)">
<path fill-rule="evenodd" clip-rule="evenodd" d="M0.653961 3.27606C0 4.55953 0 6.23969 0 9.6V14.4C0 17.7603 0 19.4405 0.653961 20.7239C1.2292 21.8529 2.14708 22.7708 3.27606 23.346C4.55953 24 6.23969 24 9.6 24H14.4C17.7603 24 19.4405 24 20.7239 23.346C21.8529 22.7708 22.7708 21.8529 23.346 20.7239C24 19.4405 24 17.7603 24 14.4V9.6C24 6.23969 24 4.55953 23.346 3.27606C22.7708 2.14708 21.8529 1.2292 20.7239 0.653961C19.4405 0 17.7603 0 14.4 0H9.6C6.23969 0 4.55953 0 3.27606 0.653961C2.14708 1.2292 1.2292 2.14708 0.653961 3.27606ZM4.26429 20H7.58143V9.31762H4.26429V20ZM4 5.92111C4 6.98185 4.86036 7.86044 5.92107 7.86044C6.98143 7.86044 7.84214 6.98185 7.84214 5.92111C7.84214 5.4116 7.63974 4.92296 7.27947 4.56268C6.9192 4.2024 6.43057 4 5.92107 4C5.41157 4 4.92294 4.2024 4.56267 4.56268C4.2024 4.92296 4 5.4116 4 5.92111ZM16.6864 20H20V14.132C20 11.2605 19.3829 9.04976 16.0257 9.04976C14.4118 9.04976 13.33 9.93549 12.8871 10.7748H12.8407V9.31762H9.65929V20H12.9729V14.7106C12.9729 13.3177 13.2371 11.9712 14.9618 11.9712C16.6614 11.9712 16.6864 13.5606 16.6864 14.7999V20Z" fill="#687076"/>
</g>
<defs>
<clipPath id="clip0_1427_79302">
<rect width="24" height="24" fill="white"/>
</clipPath>
</defs>
</svg>
