<svg width="24" height="24" viewBox="0 0 24 24" fill="none" xmlns="http://www.w3.org/2000/svg">
<g clip-path="url(#clip0_1428_79875)">
<path d="M5.1401 15.1181C5.1401 16.4976 4.02514 17.6126 2.64561 17.6126C1.26608 17.6126 0.151123 16.4976 0.151123 15.1181C0.151123 13.7386 1.26608 12.6236 2.64561 12.6236H5.1401V15.1181ZM6.38734 15.1181C6.38734 13.7386 7.5023 12.6236 8.88183 12.6236C10.2614 12.6236 11.3763 13.7386 11.3763 15.1181V21.3543C11.3763 22.7339 10.2614 23.8488 8.88183 23.8488C7.5023 23.8488 6.38734 22.7339 6.38734 21.3543V15.1181Z" fill="#E01E5A"/>
<path d="M8.88193 5.10235C7.5024 5.10235 6.38744 3.98739 6.38744 2.60786C6.38744 1.22833 7.5024 0.113373 8.88193 0.113373C10.2615 0.113373 11.3764 1.22833 11.3764 2.60786V5.10235H8.88193ZM8.88193 6.36849C10.2615 6.36849 11.3764 7.48345 11.3764 8.86298C11.3764 10.2425 10.2615 11.3575 8.88193 11.3575H2.62681C1.24728 11.3575 0.132324 10.2425 0.132324 8.86298C0.132324 7.48345 1.24728 6.36849 2.62681 6.36849H8.88193Z" fill="#36C5F0"/>
<path d="M18.8788 8.86298C18.8788 7.48345 19.9938 6.36849 21.3733 6.36849C22.7528 6.36849 23.8678 7.48345 23.8678 8.86298C23.8678 10.2425 22.7528 11.3575 21.3733 11.3575H18.8788V8.86298ZM17.6316 8.86298C17.6316 10.2425 16.5166 11.3575 15.1371 11.3575C13.7575 11.3575 12.6426 10.2425 12.6426 8.86298V2.60786C12.6426 1.22833 13.7575 0.113373 15.1371 0.113373C16.5166 0.113373 17.6316 1.22833 17.6316 2.60786V8.86298V8.86298Z" fill="#2EB67D"/>
<path d="M15.1371 18.8598C16.5166 18.8598 17.6316 19.9748 17.6316 21.3543C17.6316 22.7339 16.5166 23.8488 15.1371 23.8488C13.7575 23.8488 12.6426 22.7339 12.6426 21.3543V18.8598H15.1371ZM15.1371 17.6126C13.7575 17.6126 12.6426 16.4976 12.6426 15.1181C12.6426 13.7386 13.7575 12.6236 15.1371 12.6236H21.3922C22.7717 12.6236 23.8867 13.7386 23.8867 15.1181C23.8867 16.4976 22.7717 17.6126 21.3922 17.6126H15.1371Z" fill="#ECB22E"/>
</g>
<defs>
<clipPath id="clip0_1428_79875">
<rect width="24" height="24" fill="white"/>
</clipPath>
</defs>
</svg>
