<svg width="24" height="24" viewBox="0 0 24 24" fill="none" xmlns="http://www.w3.org/2000/svg">
<g clip-path="url(#clip0_1428_79890)">
<path fill-rule="evenodd" clip-rule="evenodd" d="M12 0C5.37258 0 0 5.37258 0 12C0 18.6274 5.37258 24 12 24C18.6274 24 24 18.6274 24 12C24 5.37258 18.6274 0 12 0ZM9.92121 7.40158C9.00152 7.40158 8.25821 6.65827 8.25821 5.73858C8.25821 4.8189 9.00152 4.07559 9.92121 4.07559C10.8409 4.07559 11.5842 4.8189 11.5842 5.73858V7.40158H9.92121ZM9.92121 8.24567C10.8409 8.24567 11.5842 8.98898 11.5842 9.90866C11.5842 10.8284 10.8409 11.5717 9.92121 11.5717H5.75113C4.83144 11.5717 4.08813 10.8284 4.08813 9.90866C4.08813 8.98898 4.83144 8.24567 5.75113 8.24567H9.92121ZM7.42681 14.0787C7.42681 14.9984 6.68351 15.7417 5.76382 15.7417C4.84414 15.7417 4.10083 14.9984 4.10083 14.0787C4.10083 13.159 4.84414 12.4157 5.76382 12.4157H7.42681V14.0787ZM8.25831 14.0787C8.25831 13.159 9.00162 12.4157 9.9213 12.4157C10.841 12.4157 11.5843 13.159 11.5843 14.0787V18.2362C11.5843 19.1559 10.841 19.8992 9.9213 19.8992C9.00162 19.8992 8.25831 19.1559 8.25831 18.2362V14.0787ZM18.2489 8.24567C17.3293 8.24567 16.5859 8.98898 16.5859 9.90866V11.5717H18.2489C19.1686 11.5717 19.9119 10.8284 19.9119 9.90866C19.9119 8.98898 19.1686 8.24567 18.2489 8.24567ZM14.0915 11.5717C15.0111 11.5717 15.7545 10.8284 15.7545 9.90866V5.73858C15.7545 4.8189 15.0111 4.07559 14.0915 4.07559C13.1718 4.07559 12.4285 4.8189 12.4285 5.73858V9.90866C12.4285 10.8284 13.1718 11.5717 14.0915 11.5717ZM14.0915 16.5732C15.0111 16.5732 15.7545 17.3165 15.7545 18.2362C15.7545 19.1559 15.0111 19.8992 14.0915 19.8992C13.1718 19.8992 12.4285 19.1559 12.4285 18.2362V16.5732H14.0915ZM14.0915 15.7417C13.1718 15.7417 12.4285 14.9984 12.4285 14.0787C12.4285 13.159 13.1718 12.4157 14.0915 12.4157H18.2615C19.1812 12.4157 19.9245 13.159 19.9245 14.0787C19.9245 14.9984 19.1812 15.7417 18.2615 15.7417H14.0915Z" fill="#687076"/>
</g>
<defs>
<clipPath id="clip0_1428_79890">
<rect width="24" height="24" fill="white"/>
</clipPath>
</defs>
</svg>
