<svg width="56" height="32" viewBox="0 0 56 32" fill="none" xmlns="http://www.w3.org/2000/svg">
<path d="M22.5177 20.5292C22.592 23.6205 25.074 26.0684 28.0629 25.9985H28.1508C32.3301 25.9985 34.122 23.4388 34.4669 19.648C34.6495 18.7458 34.4264 17.8085 33.8718 17.0882C33.6961 16.8643 33.4594 16.7105 33.1889 16.6475L32.5058 16.4728L34.1288 8.17784C34.2844 7.24066 33.7366 6.32445 32.8507 6.05867C31.8634 5.80689 30.8625 6.38739 30.5447 7.38053L29.0907 12.5841L27.8938 7.46447C27.806 6.98887 27.5287 6.56923 27.1229 6.31744C26.7171 6.05168 26.2302 5.96076 25.7569 6.05168C25.2971 6.17757 24.9049 6.4923 24.6614 6.92592C24.4247 7.35956 24.3571 7.87011 24.4855 8.3457L25.1686 14.1717C24.6682 13.5422 23.7958 13.3883 23.1195 13.822L23.0317 13.9059C22.2946 14.5284 22.1119 15.6194 22.6056 16.4658C22.1796 16.4728 21.7738 16.6615 21.4966 16.9972L21.4087 17.0812C20.7527 17.9624 20.9015 19.2213 21.7468 19.9068L22.5177 20.5292ZM33.1009 17.4379C33.1889 17.4379 33.27 17.5288 33.3579 17.6128C33.6961 18.1932 33.8178 18.8857 33.6961 19.5571C33.4391 23.089 31.8161 25.2082 28.1508 25.2082C25.8651 25.2642 23.8634 23.6345 23.3697 21.3265L23.9648 21.942C24.6343 22.6064 25.6893 22.6064 26.352 21.942L26.44 21.8511C26.9404 21.3055 27.0418 20.4872 26.6969 19.8229C26.7848 19.8229 26.7848 19.7319 26.8659 19.7319L26.9539 19.641C27.1229 19.4661 27.292 19.3752 27.3799 19.1094C27.6639 19.2913 27.9885 19.4172 28.3199 19.4591L29.341 19.7249C28.4821 20.2634 27.9885 21.2497 28.0629 22.2848C28.0967 22.4805 28.2252 22.6484 28.401 22.7253C28.5903 22.6903 28.7527 22.5574 28.8271 22.3757C28.773 21.5084 29.2463 20.6971 30.024 20.3474C30.3756 20.2005 30.7543 20.1445 31.133 20.1725H31.2209C31.7349 20.2634 31.8161 19.5571 31.39 19.3752L28.4889 18.6689C28.1441 18.6129 27.8195 18.459 27.549 18.2282C27.549 18.1373 27.461 18.1373 27.3799 18.1373C27.0689 17.8085 26.9944 17.305 27.2108 16.8993C27.2988 16.5707 27.5693 16.3259 27.8938 16.2839C28.1102 16.193 28.3537 16.193 28.5769 16.2839H28.7459L33.1009 17.4379ZM26.0206 6.75807C26.2912 6.68813 26.5752 6.75108 26.7916 6.93292C27.035 7.07979 27.1974 7.34557 27.2176 7.63931L28.6715 14.1717V14.3466L28.7594 14.4374L28.8473 14.5284H29.1043C29.1923 14.5284 29.1923 14.5284 29.1923 14.4374L29.2801 14.3466V14.2557L31.1601 7.63931C31.2345 7.34557 31.4239 7.09378 31.6808 6.94691C31.9378 6.80003 32.2421 6.75807 32.5261 6.84899C32.7763 6.91893 32.9859 7.08679 33.1144 7.31759C33.2429 7.54839 33.2767 7.82115 33.2092 8.07993L31.5861 16.3748L28.6851 15.6684H28.516C28.1779 15.5774 27.8263 15.5774 27.4948 15.6684C27.0891 15.7383 26.751 15.9621 26.5278 16.2909L26.1018 15.4097L25.2497 8.26178V8.17085C25.1551 7.57637 25.4728 6.98887 26.0206 6.75807ZM23.4576 14.5284C24.0528 14.1787 24.5668 14.3536 25.0807 15.1439L25.5067 15.7593V15.8502L26.3587 17.1721C26.2438 17.7247 26.3723 18.3051 26.6969 18.7598C26.6089 18.8507 26.5278 19.0255 26.44 19.1094L26.352 19.2003C25.926 19.4801 25.3579 19.3682 25.074 18.9345L23.451 16.3748C22.9505 15.5844 23.0317 14.7872 23.4576 14.5284ZM22.0105 17.5288C22.3149 17.1721 22.8221 17.1022 23.2074 17.354L24.4044 19.2073C24.702 19.697 25.2159 19.9907 25.7704 20.0047C26.1085 20.3753 26.1085 20.9559 25.7704 21.3265C25.412 21.6762 24.8507 21.6762 24.4923 21.3265L22.4434 19.2073C21.7535 18.6758 21.6657 17.8785 22.0105 17.5288Z" fill="black"/>
<rect x="0.5" y="0.5" width="55" height="31" rx="5.5" stroke="#DFE3E6"/>
</svg>
