<svg width="56" height="32" viewBox="0 0 56 32" fill="none" xmlns="http://www.w3.org/2000/svg">
<rect width="56" height="32" rx="6" fill="#1A1919"/>
<path fill-rule="evenodd" clip-rule="evenodd" d="M24.8169 13.238H26.6032L26.8904 11.7674H25.1037L24.8169 13.238ZM24.6314 14.1839H26.4183L25.2832 19.9903C25.2004 20.0197 24.9446 20.123 24.5914 20.123C24.1148 20.123 23.6775 19.9342 23.6775 19.2649C23.6775 19.139 23.6918 18.9957 23.7237 18.8328C24.0787 17.0209 24.6314 14.1839 24.6314 14.1839ZM42.3729 14.0512C41.1838 14.0512 40.711 14.7589 40.4891 15.1897H40.4681L40.5366 14.1851H38.771C38.7594 14.406 38.683 15.1023 38.5698 15.7029C38.5698 15.7029 38.162 17.8105 38.0849 18.2141C38.0261 18.5223 37.9186 18.9781 37.9186 19.2426C37.9186 19.8057 38.1998 20.1231 38.8271 20.1231C39.1789 20.1231 39.4325 20.0253 39.5249 19.9903L40.1153 16.9664C40.2791 16.1314 40.8734 15.585 41.5801 15.585C42.1503 15.585 42.4229 16.0075 42.4229 16.3529C42.4229 16.6535 42.3486 16.9867 42.2912 17.2814L42.0372 18.5763C42.007 18.7318 41.9423 19.0304 41.9423 19.2646C41.9423 19.837 42.26 20.1231 42.8634 20.1231C43.1928 20.1231 43.4017 20.0394 43.5496 19.9903L44.0795 17.2795C44.1944 16.6668 44.2368 16.3442 44.2368 15.9543C44.2368 14.8317 43.5907 14.0512 42.3729 14.0512ZM34.4365 15.4553C33.4378 15.4553 32.8846 16.4926 32.8846 17.4174C32.8846 18.1973 33.2314 18.7195 34.0194 18.7195C34.9103 18.7195 35.6075 17.9493 35.6075 16.6346C35.6075 16.0331 35.2923 15.4553 34.4365 15.4553ZM33.9096 20.1233C31.9966 20.1233 31.0812 18.9576 31.0812 17.4717C31.0812 15.4329 32.4589 14.0512 34.588 14.0512C36.4353 14.0512 37.4162 15.1877 37.4162 16.6473C37.4162 18.8344 35.9447 20.1233 33.9096 20.1233ZM27.219 18.7252C27.1783 18.9342 27.1526 19.0806 27.1526 19.2605C27.1526 19.9261 27.5904 20.1231 28.0544 20.1231C28.4255 20.1231 28.6551 20.02 28.7391 19.9903L29.5981 15.589L30.9873 15.5888L31.2615 14.1839L29.8725 14.184L29.94 13.838C30.0657 13.189 30.3663 12.9037 30.8862 12.9037C31.2334 12.9037 31.5143 12.9665 31.6119 12.9923L31.8733 11.6563C31.7619 11.6277 31.2486 11.5 30.4888 11.5C29.2782 11.5 28.485 12.2471 28.2505 13.4505L28.1069 14.1839H27.2025L26.9281 15.5888H27.8331C27.8331 15.5888 27.4761 17.4087 27.219 18.7252ZM23.106 14.0514C22.2093 14.0514 21.7161 14.6841 21.5232 15.1888H21.5026L21.5717 14.1838H19.8053C19.7896 14.5322 19.7179 15.1211 19.5379 16.0471C19.3555 16.9855 19.1778 17.9216 18.9944 18.8326C18.9629 18.9883 18.949 19.1407 18.949 19.2696C18.949 19.7468 19.181 20.1226 19.8666 20.1226C20.2063 20.1226 20.4422 20.033 20.5554 19.9903L21.0809 17.2985C21.2702 16.2686 21.6141 15.5877 22.6117 15.5877C23.0655 15.5877 23.4965 15.6861 23.5869 15.713L23.8893 14.1643C23.824 14.1413 23.5621 14.0514 23.106 14.0514ZM49.0208 16.5373C49.1165 16.0049 48.8117 15.4553 48.1229 15.4553C47.2818 15.4553 46.9124 16.0392 46.7474 16.5373H49.0208ZM49.8183 18.698C49.8183 19.5055 49.0487 20.1248 47.686 20.1248C45.8027 20.1248 44.8817 18.9326 44.8817 17.4732C44.8817 16.0245 45.8281 14.0527 48.138 14.0527C49.661 14.0527 50.7998 14.8216 50.7998 16.5818C50.7998 17.0147 50.7049 17.4853 50.6642 17.6738H46.6158C46.609 18.0961 46.9594 18.8281 48.3666 18.8281C48.9937 18.8281 49.7038 18.603 49.8183 18.5456C49.8183 18.5895 49.8183 18.6689 49.8183 18.698ZM16.7384 16.5373C16.8338 16.0049 16.5291 15.4553 15.8403 15.4553C14.9992 15.4553 14.6299 16.0392 14.4648 16.5373H16.7384ZM17.5359 18.698C17.5359 19.5055 16.7663 20.1248 15.4038 20.1248C13.5203 20.1248 12.5995 18.9326 12.5995 17.4732C12.5995 16.0245 13.5457 14.0527 15.8558 14.0527C17.3787 14.0527 18.5176 14.8216 18.5176 16.5818C18.5176 17.0147 18.4227 17.4853 18.3818 17.6738H14.3336C14.3268 18.0961 14.677 18.8281 16.0842 18.8281C16.7113 18.8281 17.4215 18.603 17.5359 18.5456C17.5359 18.5895 17.5359 18.6689 17.5359 18.698ZM6.7998 12.2082H8.59718V17.9814C8.59718 18.8496 9.02239 19.2928 9.70501 19.2928C9.77463 19.2928 9.81568 19.2837 9.82921 19.2804C9.53 19.7405 9.14207 20.1179 8.25136 20.1179C7.30892 20.1179 6.7998 19.4531 6.7998 18.4554V12.2082Z" fill="white"/>
<path fill-rule="evenodd" clip-rule="evenodd" d="M9.25166 17.1407C9.15105 17.3004 9.09766 17.4852 9.09766 17.6739V17.991C9.09766 18.5763 9.40875 18.7861 9.7484 18.7861C10.0956 18.7861 10.2814 18.5468 10.4519 18.2748C10.7376 17.8194 14.2286 12.2081 14.2286 12.2081H12.3604L9.25166 17.1407Z" fill="#00A3DA"/>
<rect x="0.5" y="0.5" width="55" height="31" rx="5.5" stroke="black" stroke-opacity="0.14"/>
</svg>
