<svg width="56" height="32" viewBox="0 0 56 32" fill="none" xmlns="http://www.w3.org/2000/svg">
<rect width="56" height="32" rx="6" fill="#164193"/>
<path d="M10.6651 12.7071C10.6919 12.6003 10.7075 12.4227 10.6538 12.284C10.5275 11.9679 10.0836 11.7257 9.59739 11.4604C8.94666 11.1054 8.21998 10.7088 8.0768 10.0384C8.02087 9.75164 8.02642 9.52366 8.06548 9.27127C8.2171 8.33785 9.04885 8 10.0633 8C10.874 8 11.9943 8.19445 11.9943 9.44109V9.84242H10.5674V9.48437C10.5674 9.17915 10.3716 8.96894 10.0333 8.96894C9.67749 8.96894 9.55296 9.16805 9.51168 9.35518C9.49525 9.41911 9.49059 9.53632 9.51834 9.65485C9.58716 9.93958 10.0184 10.1668 10.5102 10.4259C11.1764 10.7769 11.9538 11.1865 12.0922 11.8769C12.1157 11.9974 12.1663 12.3204 12.0957 12.8161C11.9619 13.7683 11.1117 14.12 10.0728 14.12C9.00068 14.12 8 13.7373 8 12.4604V12.0194H9.53032L9.53476 12.5739C9.53476 12.8866 9.74897 13.0935 10.1052 13.0935C10.4904 13.0935 10.6191 12.8977 10.6651 12.7071Z" fill="white"/>
<path d="M15.385 8.70975L14.6041 13.8967H13.0602L14.1186 8.18255H16.6645L17.7213 13.8967H16.1823L15.4192 8.70975H15.385Z" fill="white"/>
<path d="M41.0341 8.18272L41.1104 12.6702H41.0796L39.7639 8.18272H37.6438V13.845H39.048L38.9674 9.1965H39.0038L40.4141 13.845H42.4505V8.18272H41.0341Z" fill="white"/>
<path fill-rule="evenodd" clip-rule="evenodd" d="M17.1379 16.9346V26.1523H18.599V22.9578C18.7628 23.2422 19.2168 23.5028 19.5406 23.6073C19.8701 23.7221 20.2183 23.7771 20.5795 23.7771C21.0758 23.7771 21.4543 23.6897 21.8588 23.5179C22.2641 23.3445 22.6328 23.0883 22.9567 22.7489C23.263 22.4346 23.5025 22.0568 23.6692 21.6277C23.8415 21.2006 23.928 20.7553 23.928 20.3029C23.928 19.3178 23.58 18.4858 22.9223 17.8015C22.2095 17.0609 21.3324 16.7839 20.5118 16.7839C20.1797 16.7839 19.8541 16.8374 19.5397 16.9408C19.2268 17.0472 18.8283 17.2816 18.6232 17.6121V16.9346H17.1379ZM19.0632 18.6579C19.4505 18.2612 19.9222 18.0925 20.4641 18.0925C21.0441 18.0925 21.5267 18.3193 21.8605 18.6743C22.249 19.0867 22.441 19.6659 22.441 20.3178C22.441 20.9129 22.2508 21.4672 21.8501 21.8752C21.5003 22.229 21.0408 22.4588 20.4749 22.4588C19.9173 22.4588 19.4374 22.3136 19.0485 21.8994C18.6627 21.4863 18.5131 20.8756 18.5131 20.2494C18.5131 19.6614 18.6669 19.0714 19.0632 18.6579Z" fill="white"/>
<path d="M35.3636 23.2456L34.1101 26.1522H35.6466L39.5552 16.9348H37.9809L36.0965 21.6727L34.0532 16.9348H32.4881L35.3636 23.2456Z" fill="white"/>
<path fill-rule="evenodd" clip-rule="evenodd" d="M30.1317 23.6553V22.9578C29.9683 23.2422 29.5144 23.5028 29.1914 23.6073C28.8615 23.7221 28.5099 23.7772 28.1521 23.7772C27.6558 23.7772 27.2777 23.6897 26.8715 23.5179C26.4673 23.3445 26.0988 23.0884 25.7754 22.7485C25.4677 22.4344 25.2282 22.0568 25.0626 21.6286C24.8897 21.1989 24.8013 20.7554 24.8013 20.303C24.8013 19.3176 25.1494 18.4858 25.808 17.8015C26.5221 17.061 27.3987 16.7839 28.2211 16.7839C28.551 16.7839 28.8766 16.8374 29.1914 16.942C29.5057 17.0472 29.9051 17.2816 30.1102 17.6121V16.9347H31.5932V23.6553H30.1317ZM26.8697 18.6743C26.4813 19.0865 26.291 19.6659 26.291 20.3178C26.291 20.9127 26.4813 21.4672 26.8819 21.8752C27.2313 22.2291 27.6904 22.4588 28.2562 22.4588C28.8152 22.4588 29.2937 22.3136 29.6809 21.8994C30.0698 21.4863 30.2163 20.8757 30.2163 20.2495C30.2163 19.6614 30.0642 19.0723 29.6691 18.6579C29.2791 18.2585 28.8089 18.0925 28.2675 18.0925C27.6862 18.0925 27.2045 18.3194 26.8697 18.6743Z" fill="white"/>
<path d="M22.7585 8.18275L22.0513 12.554H22.0227L21.319 8.18275H18.9873L18.8572 13.8967H20.2868L20.3223 8.75857H20.3543L21.3139 13.8967H22.761L23.717 8.75857H23.7448L23.7847 13.8967H25.2158L25.088 8.18275H22.7585Z" fill="white"/>
<path d="M34.0387 13.0397C34.4407 13.0397 34.5603 12.7675 34.5894 12.6297C34.6012 12.5684 34.6012 12.4845 34.6012 12.4108V8.18276H36.0527V12.2796C36.0527 12.3864 36.0412 12.6004 36.0365 12.6574C35.9386 13.7251 35.0907 14.0681 34.0387 14.0681C32.9887 14.0681 32.1448 13.7251 32.048 12.6574C32.0407 12.6004 32.0302 12.3864 32.0338 12.2796V8.18276H33.4804V12.4108C33.4755 12.4845 33.4826 12.5684 33.4917 12.6297C33.519 12.7675 33.6434 13.0397 34.0387 13.0397Z" fill="white"/>
<path d="M29.2405 12.2769C29.2978 12.4123 29.2738 12.587 29.2518 12.694C29.2083 12.8814 29.0767 13.072 28.7016 13.072C28.3462 13.072 28.1324 12.8689 28.1324 12.5588V12.009H26.6127V12.4489C26.6127 13.7138 27.6065 14.0891 28.672 14.0891C29.6914 14.0891 30.5347 13.7418 30.6698 12.7972C30.7384 12.3093 30.6885 11.9892 30.6625 11.8654C30.5257 11.1868 29.7605 10.7822 29.1031 10.4347C28.6147 10.1765 28.1859 9.94978 28.1184 9.66555C28.092 9.55479 28.0993 9.4347 28.1115 9.37276C28.1497 9.19163 28.274 8.99318 28.6283 8.99318C28.9631 8.99318 29.1564 9.19629 29.1564 9.50018V9.85268H30.5664V9.45623C30.5664 8.22447 29.459 8.03157 28.6609 8.03157C27.6534 8.03157 26.8283 8.35987 26.6822 9.28797C26.6363 9.53636 26.6305 9.76145 26.6933 10.0498C26.8337 10.713 27.5509 11.1056 28.194 11.4576C28.6757 11.7213 29.1158 11.9621 29.2405 12.2769Z" fill="white"/>
<path d="M46.5476 12.5683C46.5212 12.7242 46.3756 12.9821 45.964 12.9821C45.5487 12.9821 45.4048 12.7242 45.3767 12.5683C45.37 12.504 45.3667 12.4225 45.3667 12.3501V9.73632C45.3667 9.64331 45.37 9.54098 45.3878 9.46439C45.4204 9.32677 45.5447 9.05218 45.9549 9.05218C46.392 9.05218 46.5034 9.34208 46.5276 9.46439C46.5476 9.54564 46.5476 9.68327 46.5476 9.68327V10.0025H47.9887L47.9853 9.81645C47.9853 9.81645 47.9956 9.61734 47.9745 9.44087C47.873 8.36294 46.9811 8.02753 45.9662 8.02753C44.9551 8.02753 44.0912 8.36649 43.9671 9.44087C43.9522 9.53321 43.9407 9.71346 43.9407 9.81645V12.2205C43.9407 12.3275 43.9407 12.4063 43.9631 12.5983C44.0559 13.6329 44.9551 14.0094 45.9662 14.0094C46.9811 14.0094 47.8846 13.6329 47.9796 12.5983C47.9956 12.4063 48 12.3275 48 12.2205V10.6851H45.9762V11.5232H46.5602V12.3501C46.5607 12.4225 46.5567 12.504 46.5476 12.5683Z" fill="white"/>
<rect x="0.5" y="0.5" width="55" height="31" rx="5.5" stroke="black" stroke-opacity="0.14"/>
</svg>
