<svg width="56" height="32" viewBox="0 0 56 32" fill="none" xmlns="http://www.w3.org/2000/svg">
<rect width="56" height="32" rx="6" fill="#862165"/>
<path d="M35.446 10.7654C35.446 9.79069 36.2181 9 37.1688 9C38.1212 9 38.8927 9.79069 38.8927 10.7654C38.8927 11.7408 38.1212 12.5297 37.1688 12.5297C36.2181 12.5297 35.446 11.7408 35.446 10.7654Z" fill="white"/>
<path d="M40.3993 10.4438L43.8936 9.80332V23.5432H40.3993V10.4438Z" fill="white"/>
<path d="M45.5034 10.4438V23.5432H49V9.80332L45.5034 10.4438Z" fill="white"/>
<path d="M35.4218 13.4936V23.5432H38.9179V13.4936H35.4218Z" fill="white"/>
<path d="M28.5784 17.8897C28.5784 14.9379 30.2195 13.4529 33.4496 13.3462C33.4496 13.3462 34.033 13.3233 34.3774 13.3984V16.3358C32.3298 16.4081 32.1036 17.1655 32.1036 18.9321V23.5432H28.5784V17.8897Z" fill="white"/>
<path d="M23.9649 13.4821C23.9606 13.4935 23.9547 13.5093 23.9472 13.5295C23.822 13.866 23.2524 15.3974 21.9739 16.9809V9.80332L18.3659 10.5344V23.5432H21.9739V19.5215C23.0187 21.127 23.5349 23.5432 23.5349 23.5432H27.8557C27.4285 21.7233 25.559 18.3685 25.559 18.3685C27.2376 16.1885 27.9739 13.8669 28.0914 13.4821H23.9649Z" fill="white"/>
<path d="M10.8505 13.8743C10.8505 14.8175 11.874 14.8858 12.3157 14.915C15.5559 15.1375 17.487 16.7619 17.487 19.2612C17.487 21.4664 15.7603 23.6906 11.9081 23.6906C10.122 23.6906 8.59797 23.5105 7.24636 23.1464V19.9367C8.14892 20.3168 9.63603 20.7159 11.1679 20.7159C12.566 20.7159 13.3975 20.2423 13.3975 19.4372C13.3975 18.466 12.3891 18.4027 12.0025 18.3785L11.9983 18.3782C7.486 18.0634 7 15.3296 7 14.169C7 12.1536 8.3964 9.80332 12.3376 9.80332C14.6237 9.80332 15.856 10.1686 16.9176 10.5487L16.9708 10.5653V13.6828L16.931 13.6713C16.5049 13.4867 16.0044 13.3055 16.0044 13.3055C15.1052 13.0297 13.8476 12.7362 12.8756 12.7362C12.323 12.7362 10.8505 12.7362 10.8505 13.8743Z" fill="white"/>
<rect x="0.5" y="0.5" width="55" height="31" rx="5.5" stroke="black" stroke-opacity="0.14"/>
</svg>
