<svg width="24" height="24" viewBox="0 0 24 24" fill="none" xmlns="http://www.w3.org/2000/svg">
<g clip-path="url(#clip0_5922_432)">
<path fill-rule="evenodd" clip-rule="evenodd" d="M22.7466 4.83407C23.119 5.20883 23.3864 5.67482 23.5221 6.18541C24.0239 8.06996 24.0239 12 24.0239 12C24.0239 12 24.0239 15.93 23.5221 17.8145C23.3864 18.3251 23.119 18.7911 22.7466 19.1658C22.3743 19.5406 21.91 19.811 21.4003 19.95C19.5239 20.4545 12.0239 20.4545 12.0239 20.4545C12.0239 20.4545 4.52393 20.4545 2.64756 19.95C2.13786 19.811 1.67358 19.5406 1.30121 19.1658C0.928842 18.7911 0.661431 18.3251 0.525744 17.8145C0.0239258 15.93 0.0239258 12 0.0239258 12C0.0239258 12 0.0239258 8.06996 0.525744 6.18541C0.661431 5.67482 0.928842 5.20883 1.30121 4.83407C1.67358 4.4593 2.13786 4.18891 2.64756 4.04996C4.52393 3.54541 12.0239 3.54541 12.0239 3.54541C12.0239 3.54541 19.5239 3.54541 21.4003 4.04996C21.91 4.18891 22.3743 4.4593 22.7466 4.83407ZM15.8421 12L9.56934 8.43134V15.5686L15.8421 12Z" fill="#687076"/>
</g>
<defs>
<clipPath id="clip0_5922_432">
<rect width="24" height="24" fill="white"/>
</clipPath>
</defs>
</svg>
