<svg width="24" height="24" viewBox="0 0 24 24" fill="none" xmlns="http://www.w3.org/2000/svg">
<g clip-path="url(#clip0_5922_431)">
<path fill-rule="evenodd" clip-rule="evenodd" d="M16.9378 6.54844C15.6739 5.36678 13.987 4.72304 12.2418 4.7495C9.04807 4.7495 6.33568 6.86148 5.36856 9.70538V9.70545C4.85577 11.1957 4.85577 12.8095 5.36856 14.2998H5.37305C6.34465 17.1393 9.05255 19.2513 12.2463 19.2513C13.8948 19.2513 15.3101 18.838 16.4071 18.1079V18.105C17.6981 17.2672 18.5797 15.9489 18.8541 14.4586H12.2418V9.83774H23.7886C23.9325 10.6402 24 11.4603 24 12.276C24 15.9257 22.6693 19.0114 20.354 21.1013L20.3565 21.1032C18.3278 22.9374 15.5434 24 12.2418 24C7.61314 24 3.38036 21.4427 1.30221 17.3906V17.3906C-0.434073 14 -0.434069 10.0053 1.30222 6.61461H1.30225L1.30221 6.61458C3.38036 2.55813 7.61314 0.000808638 12.2418 0.000808638C15.2825 -0.0344648 18.2198 1.08547 20.4329 3.12251L16.9378 6.54844Z" fill="#687076"/>
</g>
<defs>
<clipPath id="clip0_5922_431">
<rect width="24" height="24" fill="white"/>
</clipPath>
</defs>
</svg>
