<svg xmlns="http://www.w3.org/2000/svg" viewBox="0 0 56 32" width="56" height="32" fill="none">
  <rect fill="#687076" height="31" rx="5.5" width="55" x=".5" y=".5" />
  <path fill="#687076" d="M35.667 5H21.001C14.925 5 10 9.925 10 16c0 6.076 4.925 11 11.001 11h14.666c6.075 0 11-4.924 11-11 0-6.075-4.925-11-11-11Z" />
  <path fill="#fff" d="M31.08 14.13c-.283-3.07-3.027-3.996-6.669-3.996h-10.29a9.029 9.029 0 0 1 6.88-3.178h14.666a9.028 9.028 0 0 1 6.878 3.177h-7.632L31.08 14.13ZM43.108 21.134l-4.877-5.8 4.704-4.71a8.997 8.997 0 0 1 1.776 5.375 8.994 8.994 0 0 1-1.603 5.135ZM18.41 14.002l-1.3 3.576h5.248c1.55 0 2.02-.642 2.367-1.878.344-1.223-.52-1.698-1.58-1.698h-4.734ZM30.891 16.5l4.054 5.123h7.8a9.031 9.031 0 0 1-7.078 3.421H21.001a9.033 9.033 0 0 1-7.08-3.422h9.167c4.6 0 7.053-1.63 7.803-5.122Z" />
  <rect height="31" rx="5.5" stroke="#687076" width="55" x=".5" y=".5" />
</svg>
