<svg xmlns="http://www.w3.org/2000/svg" viewBox="0 0 56 32" width="56" height="32" fill="none">
  <path d="M18.078 13.595c.478-6.157 2.98-8.02 9.495-8.094l.296-.001h.473c.826.01 1.586.049 2.287.12a2.048 2.048 0 0 0-.159.01c-.052.005-.118.009-.195.014-.771.045-2.715.161-4.494 2.31-1.052 1.271-1.156 5.641-1.156 5.641h-6.547ZM23.987 21.087a2.29 2.29 0 0 1-1.808.857v3.736c-2.618-1.057-3.798-3.26-4.106-7.324-.037-.49-.06-.92-.073-1.276l6.625-.003-.004.395c-.008.681-.023 2.005-.021 2.05.005.194-.044.855-.613 1.566ZM32.726 5.99c3.33.886 4.771 3.102 5.115 7.654.108 1.414.095 2.356.095 2.356s.013.942-.095 2.356c-.468 6.196-2.966 8.068-9.499 8.143h-.77c-1.133-.013-2.14-.081-3.041-.215h.011c.028 0 .055 0 .083-.003 1.182-.068 2.828-.98 3.807-3.1.428-.927.543-2.582.543-2.582v-3.522h3.751v-3.482h-3.75s-.003-.004-.004-.011v-.005c-.002-.002-.003-.005-.004-.009a.185.185 0 0 0-.004-.014l-.001-.011a.261.261 0 0 1-.01-.045v-.008a.666.666 0 0 1-.007-.042c-.002-.006-.002-.013-.003-.02v-.005l-.006-.052a.42.42 0 0 1-.002-.03v-.012a.948.948 0 0 1-.003-.05v-.127l.001-.014a1.12 1.12 0 0 1 .006-.1l.002-.017a1.93 1.93 0 0 1 .012-.104l.002-.01.001-.01a2.52 2.52 0 0 1 .023-.13c.064-.305.2-.68.472-1.104.732-1.14 2.81-1.085 3.209-1.064l.06.003h.006V5.99Z" fill="#659AD2" />
  <rect height="31" rx="5.5" stroke="#DFE3E6" width="55" x=".5" y=".5" />
</svg>
