<svg xmlns="http://www.w3.org/2000/svg" viewBox="0 0 56 32" width="56" height="32" fill="none">
  <rect fill="#fff" height="31" rx="5.5" width="55" x=".5" y=".5" />
  <path fill="#687076" d="M7 11h2.114v9.2H7V11ZM12.323 11h2.068a7.311 7.311 0 0 1-2.16 5.221l2.92 3.978h-2.605l-3.172-4.321.816-.612A5.293 5.293 0 0 0 12.323 11ZM17.757 11h-1.993v9.2h1.993V11ZM33.281 14.552c.483-.659 1.206-.89 1.966-.89 1.53 0 2.708 1.01 2.708 2.494v4.053h-1.9v-3.357c0-.928-.483-1.428-1.318-1.428-.779 0-1.428.472-1.428 1.437v3.338h-1.92v-6.361h1.892v.714Z" />
  <path clip-rule="evenodd" fill="#687076" fill-rule="evenodd" d="M23.785 13.838v.408a3.356 3.356 0 1 0-1.892 6.13c.705 0 1.354-.214 1.892-.585v.408h1.901v-6.361h-1.9Zm-1.734 4.813c-.955 0-1.725-.733-1.725-1.633 0-.899.77-1.632 1.725-1.632.955 0 1.725.733 1.725 1.633s-.77 1.632-1.725 1.632Z" />
  <path fill="#687076" d="M28.635 13.838v.825c.38-.491 1.095-.825 1.864-.825v1.854h-.018c-.751 0-1.837.538-1.837 1.54v2.967h-1.956v-6.361h1.947Z" />
  <path clip-rule="evenodd" fill="#687076" fill-rule="evenodd" d="M43.872 13.838v.408a3.356 3.356 0 1 0-1.892 6.13c.705 0 1.354-.214 1.892-.585v.408h1.9v-6.361h-1.9Zm-1.734 4.813c-.956 0-1.725-.733-1.725-1.633 0-.899.77-1.632 1.725-1.632.955 0 1.724.733 1.724 1.633.01.9-.77 1.632-1.724 1.632Z" />
  <path fill="#687076" d="M46.607 19.142a1.2 1.2 0 0 1 1.197-1.196c.658 0 1.196.528 1.196 1.196a1.2 1.2 0 0 1-1.196 1.197 1.2 1.2 0 0 1-1.197-1.197Z" />
  <rect height="31" rx="5.5" stroke="#687076" width="55" x=".5" y=".5" />
</svg>
