<svg xmlns="http://www.w3.org/2000/svg" viewBox="0 0 56 32" width="56" height="32" fill="none">
  <rect fill="#000" height="32" rx="6" width="56" />
  <path d="M28.017 22.85A9.137 9.137 0 0 1 22.108 25C17.078 25 13 20.97 13 16s4.078-9 9.108-9c2.255 0 4.318.81 5.909 2.15A9.137 9.137 0 0 1 33.925 7c5.03 0 9.108 4.03 9.108 9s-4.078 9-9.108 9a9.137 9.137 0 0 1-5.908-2.15Z" fill="#ED0006" />
  <path d="M28.017 22.85a8.937 8.937 0 0 0 3.2-6.85c0-2.743-1.242-5.2-3.2-6.85A9.137 9.137 0 0 1 33.925 7c5.03 0 9.108 4.03 9.108 9s-4.078 9-9.108 9a9.137 9.137 0 0 1-5.908-2.15Z" fill="#0099DF" />
  <path d="M28.017 22.85a8.937 8.937 0 0 0 3.2-6.85c0-2.743-1.242-5.2-3.2-6.85a8.937 8.937 0 0 0-3.2 6.85c0 2.743 1.241 5.2 3.2 6.85Z" fill="#6C6BBD" />
  <rect height="31" rx="5.5" stroke="#000" stroke-opacity=".14" width="55" x=".5" y=".5" />
</svg>
