<svg xmlns="http://www.w3.org/2000/svg" viewBox="0 0 56 32" width="56" height="32" fill="none">
  <path fill="#00579F" d="M34.482 9a8.17 8.17 0 0 1 3.052.577l-.463 2.926-.308-.143a5.638 5.638 0 0 0-2.534-.52c-1.343 0-1.946.591-1.96 1.168 0 .635.73 1.053 1.92 1.673 1.96.966 2.868 2.148 2.855 3.69C37.016 21.184 34.692 23 31.122 23c-1.526-.015-2.996-.347-3.794-.721l.476-3.043.448.217c1.106.505 1.834.72 3.192.72.98 0 2.03-.418 2.043-1.325 0-.592-.447-1.024-1.763-1.688-1.288-.649-3.01-1.73-2.982-3.676.014-2.639 2.38-4.484 5.74-4.484ZM21.798 22.798H25.2l2.128-13.552h-3.402l-2.128 13.552Z" />
  <path clip-rule="evenodd" fill="#00579F" fill-rule="evenodd" d="M46.255 9.246h-2.631c-.812 0-1.428.245-1.779 1.124l-5.053 12.428h3.57l.714-2.033h4.368c.098.476.406 2.033.406 2.033H49L46.255 9.246Zm-4.2 8.75 1.36-3.79c-.007.01.038-.116.104-.305.098-.28.243-.693.343-.993l.237 1.167s.645 3.244.785 3.922h-2.828Z" />
  <path fill="#00579F" d="m15.624 18.487 3.332-9.241h3.598l-5.348 13.538h-3.598l-3.052-11.852c2.156 1.168 4.088 3.518 4.704 5.68l.364 1.875Z" />
  <path fill="#FAA61A" d="M12.53 9.246H7.056L7 9.519c4.27 1.125 7.098 3.836 8.26 7.094l-1.19-6.228c-.196-.866-.798-1.11-1.54-1.14Z" />
  <rect height="31" rx="5.5" stroke="#DFE3E6" width="55" x=".5" y=".5" />
</svg>
