<!--

Sourced from The Wolf Kit https://figma.com/community/file/1203393186896008602
Licensed as CC BY 4.0

https://feathericons.dev/amex-minified-1

-->
<svg class="feather feather-AmexMinified1" xmlns="http://www.w3.org/2000/svg" viewBox="0 0 56 32" width="56" height="32" fill="none">
  <rect fill="#016FD0" height="32" rx="6" width="56" />
  <path clip-rule="evenodd" d="M10.191 10 5 21.826h6.215l.77-1.885h1.761l.771 1.886h6.84v-1.44l.61 1.44h3.54l.609-1.47v1.47h14.227l1.73-1.837 1.62 1.837 7.307.015-5.208-5.896L51 10h-7.194l-1.684 1.803L40.553 10H25.076l-1.33 3.053L22.387 10h-6.201v1.39l-.69-1.39h-5.303Zm1.203 1.68h3.03l3.443 8.019v-8.02h3.319l2.66 5.75 2.45-5.75H29.6v8.487h-2.01l-.016-6.65-2.93 6.65h-1.797l-2.945-6.65v6.65h-4.134l-.783-1.903H10.75l-.782 1.901H7.754l3.64-8.485Zm28.213 0h-8.17v8.48h8.043l2.593-2.81 2.499 2.81h2.612l-3.797-4.215 3.797-4.266h-2.499l-2.58 2.779-2.498-2.779Zm-26.74 1.435-1.394 3.39h2.788l-1.393-3.39Zm20.587 1.87v-1.55h5.098l2.224 2.477-2.323 2.492h-4.999v-1.692h4.457v-1.726h-4.457Z" fill="#fff" fill-rule="evenodd" />
  <rect height="31" rx="5.5" stroke="#000" stroke-opacity=".14" width="55" x=".5" y=".5" />
</svg>
