<svg xmlns="http://www.w3.org/2000/svg" viewBox="0 0 56 32" width="56" height="32" fill="none">
  <path clip-rule="evenodd" d="M26.448 20.883V16.05h2.495c1.022 0 1.885-.343 2.588-1.018l.169-.171a3.48 3.48 0 0 0-.169-4.872 3.56 3.56 0 0 0-2.588-1.037h-4.005v11.931h1.51Zm0-6.298v-4.168h2.532c.545 0 1.06.21 1.445.59.816.8.835 2.131.047 2.96a1.96 1.96 0 0 1-1.492.617h-2.532ZM38.743 13.357c-.647-.6-1.529-.904-2.645-.904-1.434 0-2.513.533-3.226 1.59l1.332.846c.488-.723 1.154-1.085 1.998-1.085.534 0 1.05.2 1.453.562a1.8 1.8 0 0 1 .62 1.36v.352c-.582-.323-1.314-.494-2.214-.494-1.05 0-1.895.247-2.523.751-.628.505-.947 1.17-.947 2.017a2.54 2.54 0 0 0 .89 1.998c.592.533 1.342.8 2.224.8 1.04 0 1.866-.466 2.494-1.399h.066v1.132h1.444V15.85c0-1.056-.319-1.893-.966-2.493Zm-4.098 6.023a1.24 1.24 0 0 1-.497-.999c0-.447.206-.818.61-1.113.412-.295.928-.447 1.538-.447.844-.01 1.5.18 1.97.56 0 .648-.253 1.21-.75 1.685-.45.457-1.06.714-1.698.714a1.827 1.827 0 0 1-1.173-.4Z" fill="#3C4043" fill-rule="evenodd" />
  <path d="M42.954 24.47 48 12.72h-1.641l-2.336 5.86h-.028l-2.391-5.86h-1.642l3.311 7.64-1.876 4.11h1.557Z" fill="#3C4043" />
  <path d="M21.235 15.003c0-.466-.037-.932-.112-1.389h-6.368v2.636h3.648a3.176 3.176 0 0 1-1.35 2.084v1.712h2.175c1.276-1.19 2.007-2.95 2.007-5.043Z" fill="#4285F4" />
  <path d="M14.755 21.702c1.82 0 3.357-.61 4.473-1.656l-2.176-1.712c-.61.418-1.387.656-2.297.656-1.763 0-3.254-1.208-3.789-2.826H8.725v1.77a6.735 6.735 0 0 0 6.03 3.768Z" fill="#34A853" />
  <path d="M10.966 16.164a4.19 4.19 0 0 1 0-2.626v-1.76H8.725a6.88 6.88 0 0 0 0 6.146l2.241-1.76Z" fill="#FBBC04" />
  <path d="M14.755 10.712a3.606 3.606 0 0 1 2.588 1.028l1.932-1.96A6.466 6.466 0 0 0 14.755 8c-2.551 0-4.886 1.466-6.03 3.778l2.241 1.77c.535-1.627 2.026-2.836 3.789-2.836Z" fill="#EA4335" />
  <rect height="31" rx="5.5" stroke="#DFE3E6" width="55" x=".5" y=".5" />
</svg>