<svg width="24" height="24" viewBox="0 0 24 24" fill="none" xmlns="http://www.w3.org/2000/svg">
<path d="M7.54752 21.5012C16.6042 21.5012 21.5578 13.9979 21.5578 7.49101C21.5578 7.27789 21.5578 7.06573 21.5434 6.85453C22.507 6.15748 23.3389 5.29441 24 4.30573C23.1014 4.70413 22.148 4.96528 21.1718 5.08045C22.1998 4.46514 22.9692 3.49723 23.3366 2.35693C22.3701 2.93054 21.3126 3.33475 20.2099 3.55213C19.4675 2.76271 18.4856 2.23997 17.4162 2.06481C16.3468 1.88966 15.2494 2.07184 14.294 2.58318C13.3385 3.09452 12.5782 3.9065 12.1307 4.89348C11.6833 5.88045 11.5735 6.98739 11.8186 8.04301C9.8609 7.94481 7.94576 7.43604 6.19745 6.54973C4.44915 5.66343 2.90676 4.41939 1.6704 2.89837C1.04073 3.98236 0.847872 5.2656 1.1311 6.48679C1.41433 7.70798 2.15234 8.77532 3.19488 9.47149C2.41123 9.44853 1.64465 9.23712 0.96 8.85517V8.91757C0.960311 10.0544 1.35385 11.1562 2.07387 12.0359C2.79389 12.9157 3.79606 13.5193 4.9104 13.7444C4.18548 13.9422 3.42487 13.9711 2.68704 13.8289C3.00181 14.8073 3.61443 15.6628 4.43924 16.2759C5.26405 16.889 6.25983 17.229 7.28736 17.2485C6.26644 18.0509 5.09731 18.6442 3.84687 18.9944C2.59643 19.3447 1.28921 19.4449 0 19.2894C2.25183 20.7344 4.87192 21.5009 7.54752 21.4974" fill="#1DA1F2"/>
</svg>
