<svg width="24" height="24" viewBox="0 0 24 24" fill="none" xmlns="http://www.w3.org/2000/svg">
<g clip-path="url(#clip0_5922_498)">
<path fill-rule="evenodd" clip-rule="evenodd" d="M0.653961 3.27606C0 4.55953 0 6.23969 0 9.6V14.4C0 17.7603 0 19.4405 0.653961 20.7239C1.2292 21.8529 2.14708 22.7708 3.27606 23.346C4.55953 24 6.23969 24 9.6 24H14.4C17.7603 24 19.4405 24 20.7239 23.346C21.8529 22.7708 22.7708 21.8529 23.346 20.7239C24 19.4405 24 17.7603 24 14.4V9.6C24 6.23969 24 4.55953 23.346 3.27606C22.7708 2.14708 21.8529 1.2292 20.7239 0.653961C19.4405 0 17.7603 0 14.4 0H9.6C6.23969 0 4.55953 0 3.27606 0.653961C2.14708 1.2292 1.2292 2.14708 0.653961 3.27606ZM12.1609 7.16633C13.3245 7.14869 14.449 7.57785 15.2917 8.36563L17.6217 6.08167C16.1463 4.72364 14.1881 3.97702 12.1609 4.00054C9.07521 4.00054 6.25352 5.70555 4.86808 8.40984C3.71069 10.6701 3.71064 13.3335 4.86792 15.5938C6.25336 18.2951 9.07521 20 12.161 20C14.3621 20 16.2183 19.2916 17.5707 18.0688L17.5692 18.0676C19.1128 16.6743 20 14.6172 20 12.184C20 11.6402 19.955 11.0935 19.859 10.5585H12.1611V13.639H16.5693C16.3864 14.6326 15.7987 15.5115 14.938 16.07V16.0718C14.2067 16.5586 13.2631 16.8342 12.1639 16.8342C10.0348 16.8342 8.22955 15.4262 7.58181 13.5332L7.57904 13.5332C7.23718 12.5397 7.23718 11.4631 7.57904 10.4696C8.22398 8.574 10.0321 7.16633 12.1609 7.16633Z" fill="#687076"/>
</g>
<defs>
<clipPath id="clip0_5922_498">
<rect width="24" height="24" fill="white"/>
</clipPath>
</defs>
</svg>
