<svg width="56" height="32" viewBox="0 0 56 32" fill="none" xmlns="http://www.w3.org/2000/svg">
<rect x="0.5" y="0.5" width="55" height="31" rx="5.5" fill="#687076"/>
<path d="M21.4472 7.00471C21.3812 7.01414 21.3105 7.02357 21.2445 7.03299C20.5846 7.11312 19.9908 7.35821 19.4534 7.7447C19.3403 7.82482 19.2366 7.90966 19.1188 7.99921C19.1094 7.97565 19.0999 7.95208 19.0999 7.93323C19.0811 7.80597 19.0622 7.674 19.0387 7.54674C19.0057 7.32993 18.8973 7.23566 18.6805 7.23566H18.1384C17.8132 7.23566 17.752 7.29694 17.752 7.62215V17.487C17.752 17.5342 17.752 17.5813 17.7567 17.6284C17.7661 17.7698 17.8509 17.8594 17.9876 17.8641C18.3175 17.8688 18.6522 17.8688 18.9821 17.8641C19.1188 17.8641 19.2036 17.7698 19.2178 17.6284C19.2225 17.5813 19.2225 17.5342 19.2225 17.487V14.0746C19.2743 14.117 19.3026 14.1406 19.3262 14.1642C20.1699 14.8665 21.1408 15.0974 22.2013 14.89C23.1628 14.7015 23.8321 14.1123 24.2657 13.2451C24.5956 12.5899 24.7323 11.8924 24.7512 11.1665C24.7747 10.3606 24.6946 9.56874 24.3694 8.81933C23.9688 7.89552 23.3042 7.28751 22.3003 7.08013C22.1494 7.04713 21.9939 7.03299 21.8384 7.00943C21.7064 7.00471 21.5791 7.00471 21.4472 7.00471ZM19.2131 8.97958C19.2131 8.90888 19.2319 8.86646 19.2932 8.82404C19.9389 8.37628 20.6506 8.14061 21.4424 8.20189C22.1447 8.25373 22.7197 8.5978 23.0214 9.42263C23.2052 9.92695 23.2523 10.4501 23.2523 10.978C23.2523 11.4682 23.2146 11.9489 23.0638 12.4203C22.7433 13.4242 22.008 13.806 21.056 13.7636C20.3961 13.7353 19.8211 13.4808 19.2932 13.1084C19.2366 13.066 19.2131 13.0283 19.2131 12.9529C19.2178 12.2883 19.2131 11.6284 19.2131 10.9639C19.2131 10.304 19.2178 9.64415 19.2131 8.97958ZM28.9083 7.00471C28.8611 7.00943 28.814 7.01885 28.7716 7.02357C28.3097 7.04713 27.8572 7.10369 27.4095 7.21681C27.1219 7.29222 26.8439 7.39592 26.5658 7.49018C26.3961 7.54674 26.3113 7.66929 26.316 7.8531C26.3207 8.00864 26.3113 8.16418 26.316 8.31972C26.3207 8.54596 26.415 8.60723 26.6365 8.55067C27.0041 8.4564 27.3718 8.35271 27.7441 8.28201C28.3238 8.17361 28.9083 8.12647 29.4974 8.21603C29.8038 8.26316 30.0913 8.35271 30.2893 8.61194C30.4637 8.83818 30.5296 9.10684 30.5391 9.38492C30.5532 9.77612 30.5485 10.1673 30.5532 10.5585C30.5532 10.5774 30.5485 10.6009 30.5438 10.6245C30.5202 10.6198 30.5014 10.6245 30.4825 10.6198C29.9876 10.502 29.488 10.4171 28.9743 10.3888C28.4417 10.3606 27.9138 10.3936 27.4047 10.5727C26.7967 10.7848 26.3065 11.1524 26.019 11.7463C25.7975 12.2082 25.7645 12.6984 25.8352 13.1932C25.9295 13.8531 26.2594 14.3621 26.8439 14.6874C27.4047 14.9984 28.0128 15.0361 28.6302 14.9419C29.3419 14.8335 29.9735 14.5318 30.5296 14.0746C30.5485 14.0558 30.5721 14.0416 30.6051 14.0228C30.6333 14.2019 30.6569 14.3716 30.6899 14.5412C30.7182 14.6874 30.8077 14.7816 30.9444 14.7863C31.1989 14.791 31.4582 14.791 31.7127 14.7863C31.8399 14.7816 31.9248 14.6968 31.9389 14.5648C31.9436 14.5224 31.9436 14.4753 31.9436 14.4328V9.43676C31.9436 9.23409 31.9342 9.03142 31.9012 8.82875C31.8117 8.22074 31.5524 7.72113 31.0057 7.39592C30.6899 7.20738 30.3411 7.11312 29.9782 7.06127C29.8085 7.03771 29.6388 7.02357 29.4692 7C29.2853 7.00471 29.0968 7.00471 28.9083 7.00471ZM30.5579 13.0236C30.5579 13.0848 30.5391 13.1273 30.4872 13.165C29.9593 13.5467 29.3796 13.8013 28.7245 13.8672C28.4558 13.8955 28.1871 13.8861 27.9326 13.7824C27.6357 13.6646 27.4424 13.4572 27.3482 13.1555C27.2539 12.8539 27.2539 12.5428 27.3435 12.2412C27.4613 11.85 27.7394 11.6284 28.1164 11.5059C28.4982 11.3833 28.8941 11.3645 29.2853 11.4022C29.6813 11.4352 30.0677 11.5106 30.4637 11.5625C30.5391 11.5719 30.5626 11.6096 30.5626 11.685C30.5579 11.9112 30.5626 12.1328 30.5626 12.359C30.5579 12.5805 30.5532 12.802 30.5579 13.0236ZM36.5815 13.3158C35.9735 11.6332 35.3655 9.9458 34.7575 8.26316C34.6632 7.9945 34.5595 7.73056 34.4605 7.46661C34.4087 7.32993 34.3097 7.24038 34.1589 7.24038C33.8007 7.23566 33.4424 7.23095 33.0795 7.23566C32.9617 7.23566 32.9051 7.32993 32.9287 7.44776C32.9523 7.54674 32.9805 7.64101 33.0183 7.73527C33.9421 10.0212 34.8706 12.3119 35.8038 14.5931C35.8839 14.7863 35.9028 14.9513 35.8132 15.1493C35.6577 15.4933 35.5351 15.8562 35.3749 16.2003C35.2335 16.5067 34.9978 16.7376 34.6585 16.8272C34.4181 16.8932 34.1777 16.9026 33.9326 16.879C33.8148 16.8696 33.697 16.8413 33.5791 16.8319C33.4189 16.8225 33.3388 16.8932 33.334 17.0581C33.3293 17.2137 33.3293 17.3692 33.334 17.5248C33.3388 17.784 33.4283 17.9018 33.6828 17.9442C33.9468 17.9914 34.2154 18.0338 34.4794 18.0385C35.2853 18.0574 35.9263 17.7321 36.3411 17.0299C36.5061 16.7518 36.6569 16.4595 36.7747 16.1626C37.8918 13.3441 38.9947 10.5208 40.1023 7.69756C40.1353 7.61273 40.1636 7.52789 40.1777 7.43833C40.1966 7.30636 40.1353 7.23095 40.0033 7.23095C39.6923 7.22624 39.3765 7.23095 39.0654 7.23095C38.891 7.23095 38.7685 7.30636 38.7025 7.47604C38.6789 7.54203 38.6506 7.6033 38.6271 7.66929C38.0803 9.23881 37.5336 10.8083 36.9868 12.3826C36.869 12.7219 36.7465 13.066 36.6239 13.4289C36.6051 13.3771 36.5956 13.3488 36.5815 13.3158Z" fill="white"/>
<path d="M14 19.2686C14.1084 19.0706 14.2451 19.0376 14.4572 19.1508C14.9474 19.4147 15.4281 19.6881 15.9277 19.9379C17.846 20.8994 19.8492 21.6158 21.9324 22.1201C22.9175 22.3558 23.9073 22.5443 24.9112 22.6763C26.3959 22.8743 27.89 22.9591 29.3888 22.9214C30.209 22.9025 31.0291 22.8365 31.8445 22.7423C34.5028 22.4265 37.0715 21.7619 39.5412 20.725C39.6779 20.6684 39.8193 20.6307 39.9702 20.6684C40.2859 20.7533 40.3943 21.0926 40.1634 21.3236C40.0314 21.4556 39.8665 21.564 39.7109 21.6724C38.2639 22.6669 36.685 23.388 35.0165 23.93C33.857 24.3024 32.6787 24.5805 31.4768 24.7596C30.6473 24.8821 29.8083 24.9669 28.9694 24.9858C28.9317 24.9858 28.8892 24.9952 28.8515 24.9999H27.857C27.8193 24.9952 27.7769 24.9858 27.7392 24.9858C27.5695 24.9764 27.3998 24.9717 27.2349 24.9669C26.4383 24.934 25.6465 24.8444 24.8594 24.7171C23.5679 24.505 22.3048 24.1798 21.0699 23.7321C18.52 22.8083 16.2341 21.4414 14.2074 19.6315C14.1225 19.5561 14.066 19.4524 14 19.3629V19.2686ZM42.8075 19.1225C42.7604 18.8868 42.5813 18.7973 42.3786 18.7313C42.0581 18.6229 41.7235 18.5757 41.3888 18.5475C40.7714 18.4956 40.154 18.5239 39.5412 18.637C38.8672 18.7643 38.2262 18.9811 37.6559 19.3723C37.5899 19.4194 37.524 19.4713 37.4815 19.5373C37.4485 19.5891 37.4391 19.6692 37.458 19.7258C37.4768 19.7965 37.557 19.8153 37.6277 19.8106C37.6606 19.8106 37.6984 19.8106 37.7313 19.8059C38.099 19.7682 38.4619 19.7258 38.8295 19.6881C39.3669 19.6362 39.9089 19.6032 40.4462 19.6457C40.6724 19.6598 40.9034 19.7116 41.1249 19.7729C41.3653 19.8389 41.4737 20.018 41.4831 20.2631C41.502 20.6402 41.4171 21.0031 41.3181 21.3613C41.1249 22.0871 40.8468 22.7894 40.5734 23.487C40.5546 23.5341 40.5357 23.5812 40.5263 23.6284C40.5027 23.7651 40.5829 23.8546 40.7196 23.8216C40.7997 23.8028 40.8892 23.7604 40.9458 23.7038C41.1532 23.5011 41.3653 23.2984 41.5444 23.0722C42.1477 22.2992 42.5012 21.4084 42.7086 20.4516C42.7463 20.282 42.7746 20.1076 42.8075 19.9379V19.1225Z" fill="white"/>
<rect x="0.5" y="0.5" width="55" height="31" rx="5.5" stroke="#687076"/>
</svg>
