<svg width="56" height="32" viewBox="0 0 56 32" fill="none" xmlns="http://www.w3.org/2000/svg">
<rect x="0.5" y="0.5" width="55" height="31" rx="5.5" fill="#687076"/>
<path d="M27.9524 8.92773C27.8331 9.01855 27.7168 9.1123 27.6025 9.20898C25.6552 10.8594 24.4229 13.2881 24.4229 16C24.4229 18.7109 25.6552 21.1396 27.6025 22.79C27.7168 22.8867 27.8331 22.9805 27.9524 23.0723C28.0707 22.9805 28.1881 22.8867 28.3024 22.79C30.2486 21.1396 31.482 18.7109 31.482 16C31.482 13.2881 30.2486 10.8594 28.3024 9.20898C28.1881 9.1123 28.0707 9.01855 27.9524 8.92773ZM33.6628 7C31.7717 7 30.012 7.55371 28.548 8.50391C28.6222 8.56348 28.6984 8.62207 28.7706 8.68359C30.9485 10.5283 32.1969 13.1953 32.1969 16C32.1969 18.8037 30.9485 21.4707 28.7716 23.3154C28.6984 23.376 28.6222 23.4355 28.548 23.4951C30.012 24.4453 31.7717 25 33.6628 25C38.7666 25 42.9038 20.9697 42.9038 16C42.9038 11.0293 38.7666 7 33.6628 7ZM27.1332 23.3154C27.2054 23.376 27.2816 23.4355 27.3568 23.4951C25.8918 24.4453 24.1331 25 22.241 25C17.1372 25 13 20.9697 13 16C13 11.0293 17.1372 7 22.241 7C24.1331 7 25.8918 7.55371 27.3568 8.50391C27.2816 8.56348 27.2054 8.62207 27.1332 8.68359C24.9563 10.5283 23.7079 13.1953 23.7079 16C23.7079 18.8047 24.9563 21.4707 27.1332 23.3154Z" fill="white"/>
<rect x="0.5" y="0.5" width="55" height="31" rx="5.5" stroke="#687076"/>
</svg>
