<!--

Sourced from The Wolf Kit https://figma.com/community/file/1203393186896008602
Licensed as CC BY 4.0

https://feathericons.dev/medium-square

-->
<svg xmlns="http://www.w3.org/2000/svg" viewBox="0 0 24 24" width="24" height="24" fill="none">
  <path clip-rule="evenodd" d="M.654 3.276C0 4.56 0 6.24 0 9.6v4.8c0 3.36 0 5.04.654 6.324a6 6 0 0 0 2.622 2.622C4.56 24 6.24 24 9.6 24h4.8c3.36 0 5.04 0 6.324-.654a6 6 0 0 0 2.622-2.622C24 19.44 24 17.76 24 14.4V9.6c0-3.36 0-5.04-.654-6.324A6 6 0 0 0 20.724.654C19.44 0 17.76 0 14.4 0H9.6C6.24 0 4.56 0 3.276.654A6 6 0 0 0 .654 3.276Zm11.02 12.447a5.1 5.1 0 0 0 1.481-3.608A5.1 5.1 0 0 0 8.078 7 5.1 5.1 0 0 0 3 12.115a5.1 5.1 0 0 0 5.078 5.115 5.1 5.1 0 0 0 3.597-1.507Zm4.511 1.207c1.402 0 2.535-2.16 2.535-4.815 0-2.655-1.133-4.815-2.535-4.815-1.402 0-2.542 2.16-2.542 4.815 0 2.655 1.14 4.815 2.542 4.815Zm3.923-.503c.494 0 .892-1.934.892-4.312 0-2.377-.398-4.313-.892-4.313-.495 0-.893 1.936-.893 4.313s.398 4.312.893 4.312Z" fill="#000" fill-rule="evenodd" />
</svg>
