<svg width="56" height="32" viewBox="0 0 56 32" fill="none" xmlns="http://www.w3.org/2000/svg">
<rect width="56" height="32" rx="6" fill="#333E47"/>
<path d="M31.2247 18.6431C32.0126 18.5487 33.76 18.3393 34.0721 18.7384C34.3844 19.1387 33.7253 20.7854 33.4305 21.5213C33.3411 21.7435 33.5326 21.8333 33.7343 21.6649C35.0428 20.5699 35.3814 18.2749 35.1135 17.9438C34.8476 17.615 32.5585 17.3318 31.1616 18.3131C30.9469 18.4638 30.9839 18.6722 31.2222 18.6434L31.2247 18.6431Z" fill="#F79C34"/>
<path d="M24.0319 22.6566C27.0785 22.6566 30.6163 21.699 33.0565 19.8981C33.4605 19.5996 33.1144 19.1529 32.7018 19.3276C29.9661 20.488 26.9928 21.0495 24.2881 21.0495C20.279 21.0495 16.3966 19.9493 13.2576 18.1227C12.983 17.9629 12.7795 18.2446 13.0077 18.4511C15.9174 21.0784 19.7623 22.6566 24.0319 22.6566Z" fill="#F79C34"/>
<path fill-rule="evenodd" clip-rule="evenodd" d="M11.834 17.3502C11.9309 17.4022 12.0551 17.3969 12.1411 17.3199L12.1441 17.3228C12.4034 17.0917 12.8755 16.682 13.1411 16.4594C13.247 16.3727 13.2279 16.2324 13.1452 16.1138C13.1197 16.0786 13.094 16.0441 13.0685 16.0097C12.8562 15.7244 12.6544 15.4532 12.6544 14.9092V12.8842C12.6544 12.8143 12.6548 12.7448 12.6552 12.6759C12.6597 11.8986 12.6639 11.1897 12.0832 10.6468C11.5961 10.1796 10.7963 10.0079 10.1701 10H10.0735C8.84988 10.0127 7.50353 10.4826 7.2181 11.9898C7.18742 12.1522 7.30563 12.2374 7.41225 12.2618L8.67219 12.3983C8.79003 12.3923 8.8757 12.276 8.89814 12.1589C9.00588 11.6325 9.44694 11.3785 9.94298 11.3785C10.2101 11.3785 10.5142 11.4769 10.6725 11.7163C10.8358 11.9557 10.8332 12.2733 10.8309 12.5596C10.8306 12.5933 10.8303 12.6265 10.8303 12.659V12.8278C10.7132 12.8409 10.5905 12.8533 10.4641 12.8662C9.77717 12.9359 8.98197 13.0166 8.38638 13.2782C7.57124 13.6298 7 14.3473 7 15.4026C7 16.7531 7.85143 17.4287 8.94565 17.4287C9.87003 17.4287 10.3751 17.2106 11.0888 16.4838C11.1243 16.5353 11.1562 16.5827 11.1863 16.6275C11.3559 16.88 11.467 17.0454 11.834 17.3502ZM10.8304 14.2175C10.8304 14.1953 10.8303 14.173 10.8303 14.1505V13.8689C9.89023 13.8689 8.89702 14.0701 8.89702 15.1774C8.89702 15.7404 9.18881 16.1201 9.6871 16.1201C10.0522 16.1201 10.3807 15.8949 10.5872 15.5295C10.8313 15.099 10.8309 14.6946 10.8304 14.2175Z" fill="white"/>
<path fill-rule="evenodd" clip-rule="evenodd" d="M29.1814 17.3199C29.0957 17.3969 28.9719 17.4022 28.8746 17.3502C28.5084 17.0458 28.3971 16.8804 28.2276 16.6284C28.1974 16.5835 28.1651 16.5355 28.1294 16.4838C27.416 17.2106 26.9106 17.4287 25.9862 17.4287C24.892 17.4287 24.0406 16.7531 24.0406 15.4026C24.0406 14.3473 24.6126 13.6298 25.427 13.2782C26.0226 13.0165 26.818 12.9358 27.5052 12.8661C27.6315 12.8533 27.7542 12.8409 27.8713 12.8278V12.659C27.8713 12.6268 27.8716 12.5941 27.8718 12.5608C27.8741 12.2742 27.8767 11.956 27.7131 11.7163C27.5548 11.4769 27.2511 11.3785 26.9836 11.3785C26.4875 11.3785 26.0472 11.6325 25.9387 12.1589C25.9159 12.276 25.8306 12.3923 25.7132 12.3983L24.4528 12.2618C24.3466 12.2374 24.2284 12.1522 24.2587 11.9898C24.5449 10.4826 25.8909 10.0127 27.1141 10H27.2107C27.8369 10.0079 28.6367 10.1796 29.1238 10.6468C29.7046 11.1895 29.7004 11.898 29.6958 12.6749C29.6954 12.7442 29.695 12.814 29.695 12.8842V14.9092C29.695 15.4532 29.8968 15.7244 30.1091 16.0097C30.1346 16.044 30.1604 16.0786 30.1858 16.1138C30.2692 16.2324 30.2876 16.3727 30.1817 16.4594C29.9161 16.682 29.4444 17.0917 29.1851 17.3228L29.1814 17.3199ZM27.8713 14.2157C27.8718 14.6936 27.8722 15.0985 27.6281 15.5295C27.4213 15.8949 27.0928 16.1201 26.7281 16.1201C26.2298 16.1201 25.938 15.7404 25.938 15.1774C25.938 14.0701 26.9308 13.8689 27.8713 13.8689L27.8713 14.2157Z" fill="white"/>
<path d="M14.3913 17.3363H15.6913C15.8297 17.3363 15.9419 17.2293 15.9419 17.0965L15.9427 13.5599L15.9426 13.4755C15.9413 12.7124 15.9396 11.7212 16.8405 11.7212C17.669 11.7212 17.655 12.6047 17.6436 13.3238C17.6423 13.4051 17.6411 13.4843 17.6411 13.5599L17.6426 17.0969C17.6426 17.2248 17.7454 17.3281 17.876 17.3363H19.1745C19.3129 17.3363 19.4251 17.2293 19.4251 17.0965V13.5599L19.425 13.4707C19.4241 13.0968 19.4229 12.5938 19.5463 12.282C19.6799 11.9453 20.0076 11.7347 20.3233 11.7347C20.6993 11.7347 20.9903 11.8611 21.0872 12.3108C21.1365 12.5264 21.13 13.0264 21.1258 13.3582C21.1247 13.4369 21.1239 13.5061 21.1239 13.5599L21.1242 17.0969C21.1242 17.2248 21.2267 17.3281 21.3577 17.3363H22.6558C22.7945 17.3363 22.9064 17.2293 22.9064 17.0965L22.9079 12.8861C22.9079 12.783 22.9097 12.6779 22.9114 12.5718C22.9219 11.9409 22.933 11.2752 22.5798 10.7942C22.2158 10.2888 21.6214 10.064 21.0752 10.064C20.311 10.064 19.5949 10.4571 19.2796 11.2996C18.9156 10.4571 18.4057 10.064 17.5928 10.064C16.7919 10.064 16.1974 10.4571 15.8821 11.2996H15.8574V10.4287C15.8495 10.3068 15.7478 10.211 15.6213 10.2046L14.4108 10.205C14.272 10.205 14.1598 10.3116 14.1598 10.4448L14.1586 17.1167C14.1687 17.2357 14.2675 17.3285 14.3913 17.3363Z" fill="white"/>
<path d="M31.2775 10.4287V11.3819C31.2782 11.5248 31.3878 11.6221 31.5243 11.6221L33.7569 11.6224L31.1929 15.3013C31.0369 15.5369 31.0339 15.8018 31.0339 15.9563V16.9233C31.0339 17.0636 31.1892 17.2237 31.3377 17.1444C32.7921 16.3719 34.5373 16.4471 35.8522 17.1362C36.0138 17.2203 36.1672 17.0584 36.1672 16.9181V15.9009C36.1541 15.7636 36.1088 15.6233 35.9405 15.5287C35.1938 15.1093 34.3248 14.9863 33.5033 15.0053L35.7168 11.845C35.9214 11.5611 36.037 11.3823 36.0385 11.245V10.4276C36.0385 10.2862 35.9285 10.187 35.792 10.187L31.5191 10.1874C31.3874 10.187 31.2782 10.2836 31.2775 10.4287Z" fill="white"/>
<path fill-rule="evenodd" clip-rule="evenodd" d="M39.7169 10.064C41.6461 10.064 42.6895 11.7212 42.6895 13.827C42.6895 15.862 41.5369 17.477 39.7169 17.477C37.8236 17.477 36.7923 15.8201 36.7923 13.7566C36.7923 11.6786 37.8356 10.064 39.7169 10.064ZM39.7285 11.426C38.7701 11.426 38.7095 12.7312 38.7095 13.5456L38.7095 13.5737C38.7093 14.3993 38.7091 16.1011 39.7169 16.1011C40.724 16.1011 40.7726 14.6971 40.7726 13.8408C40.7726 13.2793 40.7479 12.6052 40.5781 12.0717C40.4326 11.6082 40.1411 11.426 39.7285 11.426Z" fill="white"/>
<path d="M43.8963 17.3363H45.1917C45.3302 17.3363 45.4424 17.2293 45.4446 17.0965V13.5041C45.4446 13.0545 45.4689 12.6475 45.6511 12.2401C45.7966 11.9172 46.0881 11.7066 46.4034 11.7066C47.2316 11.7066 47.2236 12.614 47.2174 13.3279C47.2168 13.3882 47.2163 13.4472 47.2163 13.5041V17.1265C47.2305 17.2402 47.3274 17.3288 47.4479 17.3363H48.7509C48.8795 17.3363 48.9858 17.2447 49 17.1265V12.928C49 12.282 49 11.3838 48.6603 10.8503C48.2963 10.2746 47.7258 10.064 47.1434 10.064C46.2456 10.064 45.7364 10.499 45.3721 11.4118H45.3477V10.3913C45.3238 10.2877 45.2303 10.2106 45.1166 10.2046L43.9109 10.205C43.7799 10.205 43.6722 10.3004 43.661 10.4227L43.6632 17.0969C43.6632 17.2248 43.7665 17.3281 43.8963 17.3363Z" fill="white"/>
<rect x="0.5" y="0.5" width="55" height="31" rx="5.5" stroke="black" stroke-opacity="0.14"/>
</svg>
