<svg width="56" height="32" viewBox="0 0 56 32" fill="none" xmlns="http://www.w3.org/2000/svg">
<rect x="0.5" y="0.5" width="55" height="31" rx="5.5" fill="white"/>
<path d="M35.6673 5C32.845 5 23.8235 5 21.001 5C14.925 5 10 9.925 10 15.9996C10 22.0762 14.925 27 21.001 27C23.8235 27 32.845 27 35.6673 27C41.7419 27 46.6667 22.0762 46.6667 15.9996C46.6667 9.92481 41.7419 5 35.6673 5Z" fill="white"/>
<path d="M31.0796 14.1291C30.7973 11.0605 28.0532 10.1339 24.4111 10.1339C22.1935 10.1339 16.5508 10.1339 14.1214 10.1337C15.7819 8.18991 18.2495 6.95551 21.0009 6.95551H35.6672C38.4175 6.95551 40.8848 8.18991 42.5451 10.1333H34.9128L31.0796 14.1291Z" fill="#687076"/>
<path d="M43.108 21.1341L38.2309 15.3343L42.9353 10.6235C44.0504 12.1272 44.7112 13.9877 44.7112 15.9994C44.7112 17.9049 44.1181 19.6748 43.108 21.1341Z" fill="#687076"/>
<path d="M18.4106 14.0022L17.11 17.5783H22.3575C23.9085 17.5783 24.3779 16.9359 24.7252 15.6996C25.0688 14.4768 24.2056 14.0022 23.1454 14.0022H18.4106Z" fill="#687076"/>
<path d="M30.8911 16.4995L34.9446 21.6227H42.7458C41.0875 23.7063 38.531 25.0443 35.6673 25.0443H21.001C18.1365 25.0443 15.5793 23.7057 13.9209 21.6219H23.0877C27.6873 21.6219 30.1412 19.9924 30.8911 16.4995Z" fill="#687076"/>
<rect x="0.5" y="0.5" width="55" height="31" rx="5.5" stroke="#687076"/>
</svg>
