<svg width="56" height="32" viewBox="0 0 56 32" fill="none" xmlns="http://www.w3.org/2000/svg">
<rect x="0.5" y="0.5" width="55" height="31" rx="5.5" fill="white"/>
<path d="M12.4716 11.6011C12.9584 11.4415 13.4792 11.3548 14.0212 11.3548C16.3863 11.3548 18.3591 13.0029 18.8117 15.1922L22.1632 14.5218C21.3942 10.8009 18.0415 8 14.0212 8C13.1007 8 12.2148 8.14709 11.3877 8.41806L12.4716 11.6011Z" fill="#687076"/>
<path d="M8.48306 22.3844L10.4898 19.7933C9.59404 18.8873 9.02868 17.5646 9.02868 16.0902C9.02868 14.6169 9.59351 13.2941 10.489 12.3888L8.48122 9.79803C6.95916 11.3373 6 13.5858 6 16.0902C6 18.5958 6.96056 20.8451 8.48306 22.3844Z" fill="#687076"/>
<path d="M18.8127 16.9902C18.3586 19.1792 16.387 20.8252 14.024 20.8252C13.4819 20.8252 12.96 20.7383 12.4731 20.5782L11.3877 23.7629C12.216 24.0352 13.1023 24.1824 14.024 24.1824C18.0406 24.1824 21.3911 21.3834 22.1632 17.664L18.8127 16.9902Z" fill="#687076"/>
<path fill-rule="evenodd" clip-rule="evenodd" d="M38.2885 9.79803V19.0063L39.9409 19.6687L39.1592 21.4849L37.5251 20.828C37.1576 20.6739 36.909 20.4392 36.7201 20.174C36.5386 19.9028 36.4042 19.532 36.4042 19.0316V9.79803H38.2885ZM25.756 16.6419C25.797 14.0087 28.0396 11.9066 30.7607 11.947C33.0703 11.982 34.9839 13.5463 35.4866 15.6269L26.5539 19.3187C26.035 18.5517 25.7401 17.6289 25.756 16.6419ZM27.7998 17.0111C27.7876 16.9006 27.7789 16.7873 27.7822 16.673C27.8078 15.1216 29.1281 13.8836 30.7313 13.9093C31.604 13.9206 32.3788 14.307 32.9027 14.9051L27.7998 17.0111ZM32.7146 18.7207C32.1762 19.2271 31.4462 19.5356 30.6401 19.5245C30.0876 19.5156 29.5756 19.3556 29.1403 19.0891L28.0612 20.7518C28.8003 21.2035 29.6717 21.4708 30.6111 21.4849C31.9786 21.5045 33.2249 20.9851 34.1312 20.1274L32.7146 18.7207ZM45.1659 13.9092C44.844 13.9092 44.5346 13.9595 44.2456 14.0533L43.6026 12.1902C44.0934 12.0317 44.6189 11.9456 45.1659 11.9456C47.5525 11.9456 49.5435 13.585 50.0001 15.7628L48.0097 16.1552C47.7415 14.8735 46.5701 13.9092 45.1659 13.9092ZM41.8981 20.2881L43.243 18.8175C42.6423 18.3032 42.2641 17.5522 42.2641 16.7151C42.2641 15.8788 42.6423 15.1281 43.2424 14.6143L41.8966 13.1436C40.8762 14.0174 40.2333 15.2942 40.2333 16.7151C40.2333 18.1377 40.8767 19.414 41.8981 20.2881ZM45.1658 19.5219C46.5688 19.5219 47.7399 18.5585 48.0097 17.2787L49.9995 17.6728C49.5408 19.8482 47.5503 21.4853 45.1658 21.4853C44.6185 21.4853 44.0923 21.399 43.6002 21.2398L44.2447 19.3773C44.5342 19.4708 44.8437 19.5219 45.1658 19.5219Z" fill="#687076"/>
<rect x="0.5" y="0.5" width="55" height="31" rx="5.5" stroke="#687076"/>
</svg>
