<svg width="24" height="24" viewBox="0 0 24 24" fill="none" xmlns="http://www.w3.org/2000/svg">
<g clip-path="url(#clip0_5922_533)">
<path fill-rule="evenodd" clip-rule="evenodd" d="M0.653961 3.27606C0 4.55953 0 6.23969 0 9.6V14.4C0 17.7603 0 19.4405 0.653961 20.7239C1.2292 21.8529 2.14708 22.7708 3.27606 23.346C4.55953 24 6.23969 24 9.6 24H14.4C17.7603 24 19.4405 24 20.7239 23.346C21.8529 22.7708 22.7708 21.8529 23.346 20.7239C24 19.4405 24 17.7603 24 14.4V9.6C24 6.23969 24 4.55953 23.346 3.27606C22.7708 2.14708 21.8529 1.2292 20.7239 0.653961C19.4405 0 17.7603 0 14.4 0H9.6C6.23969 0 4.55953 0 3.27606 0.653961C2.14708 1.2292 1.2292 2.14708 0.653961 3.27606ZM9.18703 15.8004C9.18703 18.7621 10.9804 20 13.3864 20H16.0594V16.8532H14.6475C13.6525 16.8532 13.0279 16.4254 13.0279 15.1874V11.0572H15.9429V8.0723H13.0279V4H10.5296C10.4131 5.79331 9.40693 7.86406 7 8.48893V11.0572H9.18703V15.8004Z" fill="#687076"/>
</g>
<defs>
<clipPath id="clip0_5922_533">
<rect width="24" height="24" fill="white"/>
</clipPath>
</defs>
</svg>
