<svg width="24" height="24" viewBox="0 0 24 24" fill="none" xmlns="http://www.w3.org/2000/svg">
<g clip-path="url(#clip0_5922_590)">
<path fill-rule="evenodd" clip-rule="evenodd" d="M12 0C5.37258 0 0 5.37258 0 12C0 18.6274 5.37258 24 12 24C18.6274 24 24 18.6274 24 12C24 5.37258 18.6274 0 12 0ZM13.8664 4.00373C13.3459 4.00453 12.8244 4.00533 12.3005 4.01333C12.288 5.68825 12.2885 7.36317 12.2891 9.03972C12.2894 10.0457 12.2897 11.0524 12.2872 12.0599C12.2854 12.374 12.286 12.6876 12.2865 13.001C12.2881 13.8783 12.2896 14.754 12.2405 15.6332C12.2342 15.878 12.1098 16.0932 11.9895 16.3012C11.982 16.3141 11.9746 16.327 11.9672 16.3398C11.5805 16.9732 10.8672 17.4065 10.1205 17.4132C9.00055 17.5132 7.94723 16.5932 7.78723 15.4999C7.7862 15.4439 7.78436 15.3877 7.78251 15.3313C7.77248 15.0247 7.76231 14.7137 7.88057 14.4265C8.04723 13.9532 8.36723 13.5332 8.78722 13.2599C9.36721 12.8599 10.1405 12.7999 10.8005 13.0132C10.8005 12.5904 10.8079 12.1675 10.8152 11.7447C10.825 11.1809 10.8348 10.6171 10.8272 10.0533C9.38055 9.77993 7.8339 10.2399 6.72725 11.1999C5.75392 12.0266 5.12727 13.2399 5.00727 14.5065C4.99393 14.8332 5.0006 15.1665 5.01393 15.4999C5.15393 17.0598 6.10059 18.5131 7.44724 19.3065C8.26056 19.7865 9.21388 20.0465 10.1672 19.9931C11.7205 19.9665 13.2338 19.1331 14.1072 17.8532C14.6471 17.0865 14.9538 16.1598 15.0071 15.2265C15.0196 14.0141 15.0191 12.799 15.0186 11.583C15.0183 10.8533 15.018 10.1233 15.0205 9.39327C15.3671 9.61993 15.7205 9.83993 16.1005 10.0133C16.9738 10.4266 17.9404 10.6266 18.9004 10.6599V7.97328C17.8738 7.85995 16.8205 7.51996 16.0738 6.77996C15.3271 6.05997 14.9605 5.01999 14.9071 4C14.5604 4.00267 14.2136 4.0032 13.8664 4.00373Z" fill="#687076"/>
</g>
<defs>
<clipPath id="clip0_5922_590">
<rect width="24" height="24" fill="white"/>
</clipPath>
</defs>
</svg>
