<svg width="24" height="24" viewBox="0 0 24 24" fill="none" xmlns="http://www.w3.org/2000/svg">
<g clip-path="url(#clip0_1428_79887)">
<path fill-rule="evenodd" clip-rule="evenodd" d="M12 0C5.37258 0 0 5.37258 0 12C0 18.6274 5.37258 24 12 24C18.6274 24 24 18.6274 24 12C24 5.37258 18.6274 0 12 0ZM16.3433 14.0511L18.6294 12.7572C18.7633 12.6815 18.8748 12.5715 18.9523 12.4386C19.0299 12.3056 19.0707 12.1545 19.0707 12.0006C19.0707 11.8467 19.0299 11.6956 18.9523 11.5627C18.8748 11.4297 18.7633 11.3198 18.6294 11.244L16.3596 9.95951L14.2928 12.0134L16.3433 14.0511ZM6.5 5.87031C6.49985 5.75664 6.52204 5.64406 6.56533 5.53897L13.0795 12.0129L6.57233 18.4803C6.52625 18.3748 6.5 18.2569 6.5 18.1303V5.87031ZM15.5867 9.52142L13.6862 11.4103L7.24609 5.0093C7.43655 4.98098 7.63098 5.01778 7.79793 5.11371L15.5867 9.52142ZM7.26942 18.9937L13.6862 12.616L15.5703 14.4886L7.79793 18.8869C7.62643 18.9844 7.44326 19.0147 7.26942 18.9937Z" fill="#687076"/>
</g>
<defs>
<clipPath id="clip0_1428_79887">
<rect width="24" height="24" fill="white"/>
</clipPath>
</defs>
</svg>
