<svg width="24" height="24" viewBox="0 0 24 24" fill="none" xmlns="http://www.w3.org/2000/svg">
<path d="M24 11.9033C24 10.4482 22.819 9.26713 21.3638 9.26713C20.6467 9.26713 20.0141 9.5413 19.5501 10.0053C17.7575 8.7188 15.2689 7.87522 12.5272 7.76977L13.7293 2.13884L17.6309 2.96134C17.6731 3.95255 18.4956 4.75396 19.5079 4.75396C20.5413 4.75396 21.3849 3.91037 21.3849 2.87698C21.3849 1.84359 20.5413 1 19.5079 1C18.7698 1 18.1371 1.42179 17.8418 2.05448L13.4763 1.12654C13.3497 1.10545 13.2232 1.12654 13.1178 1.18981C13.0123 1.25308 12.949 1.35852 12.9069 1.48506L11.5782 7.76977C8.77329 7.85413 6.26362 8.67663 4.44991 10.0053C3.98594 9.56239 3.33216 9.26713 2.6362 9.26713C1.18102 9.26713 0 10.4482 0 11.9033C0 12.9789 0.632689 13.8858 1.56063 14.3076C1.51845 14.5606 1.49736 14.8348 1.49736 15.109C1.49736 19.1582 6.20035 22.4271 12.0211 22.4271C17.8418 22.4271 22.5448 19.1582 22.5448 15.109C22.5448 14.8348 22.5237 14.5817 22.4815 14.3286C23.3462 13.9069 24 12.9789 24 11.9033ZM5.96836 13.7803C5.96836 12.7469 6.81195 11.9033 7.84534 11.9033C8.87874 11.9033 9.72232 12.7469 9.72232 13.7803C9.72232 14.8137 8.87874 15.6573 7.84534 15.6573C6.81195 15.6573 5.96836 14.8137 5.96836 13.7803ZM16.4499 18.7364C15.1634 20.0228 12.717 20.1072 12 20.1072C11.283 20.1072 8.81546 20.0018 7.55009 18.7364C7.36028 18.5466 7.36028 18.2302 7.55009 18.0404C7.73989 17.8506 8.05624 17.8506 8.24605 18.0404C9.04745 18.8418 10.7768 19.1371 12.0211 19.1371C13.2654 19.1371 14.9736 18.8418 15.7961 18.0404C15.9859 17.8506 16.3023 17.8506 16.4921 18.0404C16.6397 18.2513 16.6397 18.5466 16.4499 18.7364ZM16.1125 15.6573C15.0791 15.6573 14.2355 14.8137 14.2355 13.7803C14.2355 12.7469 15.0791 11.9033 16.1125 11.9033C17.1459 11.9033 17.9895 12.7469 17.9895 13.7803C17.9895 14.8137 17.1459 15.6573 16.1125 15.6573Z" fill="#687076"/>
</svg>
