<svg width="24" height="24" viewBox="0 0 24 24" fill="none" xmlns="http://www.w3.org/2000/svg">
<g clip-path="url(#clip0_1428_79889)">
<path fill-rule="evenodd" clip-rule="evenodd" d="M12 0C5.37258 0 0 5.37258 0 12C0 18.6274 5.37258 24 12 24C18.6274 24 24 18.6274 24 12C24 5.37258 18.6274 0 12 0ZM16.2216 15.114C18.3249 12.4034 19.4143 10.2668 19.4843 8.70816L19.4929 8.70149C19.5829 6.61291 18.8129 5.54358 17.1644 5.50358C14.9458 5.42359 13.4471 6.68284 12.6565 9.26142C13.0631 9.08142 13.4585 9.00076 13.8411 9.00076C14.6538 9.00076 15.0131 9.46075 14.9171 10.3747C14.8691 10.9287 14.5118 11.7341 13.8425 12.7934C13.1698 13.8527 12.6671 14.3834 12.3325 14.3834C11.9025 14.3834 11.5078 13.5674 11.1485 11.9341C11.0272 11.4555 10.8112 10.2315 10.5012 8.26283C10.2139 6.43751 9.44789 5.58418 8.20323 5.70418C7.6773 5.75352 6.88664 6.23151 5.83398 7.14351C5.06118 7.84438 4.28316 8.53948 3.5 9.22875L4.25266 10.2001C4.96925 9.69742 5.38725 9.44542 5.50658 9.44542C6.05591 9.44542 6.56858 10.3081 7.04791 12.0307L8.32649 16.7732C8.97649 18.4979 9.75582 19.3605 10.6951 19.3605C12.2045 19.3605 14.043 17.9453 16.2216 15.114Z" fill="#1AB7EA"/>
</g>
<defs>
<clipPath id="clip0_1428_79889">
<rect width="24" height="24" fill="white"/>
</clipPath>
</defs>
</svg>
