<svg width="24" height="24" viewBox="0 0 24 24" fill="none" xmlns="http://www.w3.org/2000/svg">
<g clip-path="url(#clip0_1427_79287)">
<path d="M6.57899 8.12116C6.78789 7.45798 7.35703 6.66427 7.76943 6.46076C7.95213 6.37186 8.0878 6.35105 8.53155 6.3508C9.05367 6.3508 9.07987 6.35619 9.21555 6.49186C9.3042 6.5859 9.54444 7.09749 9.88901 7.92255C10.1814 8.63275 10.4217 9.23838 10.4217 9.26972C10.4217 9.41617 10.1293 9.88074 9.79522 10.2723C9.5655 10.5385 9.42983 10.742 9.42983 10.8153C9.42983 10.8831 9.59685 11.1963 9.80575 11.5044C10.3122 12.2616 11.2467 13.2013 11.9726 13.6818C12.5415 14.0577 13.5546 14.5485 13.7581 14.5485C13.9097 14.5485 14.1865 14.2769 14.7502 13.5674C14.9802 13.2804 15.1837 13.0715 15.262 13.0558C15.3299 13.0348 15.4971 13.061 15.6328 13.1131C16.0244 13.2645 18.0034 14.2303 18.1077 14.3244C18.3115 14.5122 18.1445 15.5878 17.8415 16.0264C17.3767 16.7053 16.0506 17.2849 15.1785 17.196C14.5416 17.1282 13.0379 16.6323 12.0615 16.1675C10.8084 15.567 9.48738 14.4703 8.41694 13.1286C7.80592 12.3662 7.18976 11.4368 6.92356 10.8833C6.56332 10.1315 6.43279 9.55184 6.46928 8.88352C6.48495 8.59626 6.53712 8.25169 6.57899 8.12116Z" fill="#25D366"/>
<path fill-rule="evenodd" clip-rule="evenodd" d="M0.605806 9.49943C1.58221 4.49228 5.57647 0.75908 10.709 0.0594094C11.4138 -0.0397727 13.3928 -0.00842734 14.0771 0.106429C14.7924 0.231572 15.7375 0.476959 16.3171 0.696386C20.1495 2.12168 22.9796 5.41652 23.7835 9.37944C24.1333 11.1077 24.0549 13.1337 23.5798 14.8357C22.4467 18.8665 19.1572 22.0411 15.0689 23.054C12.4061 23.7118 9.60747 23.4245 7.08552 22.2446L6.46936 21.9522L3.24261 22.9807C1.4725 23.5447 0.010708 23.9939 0.000177467 23.9833C-0.0103531 23.9728 0.449073 22.5683 1.02874 20.8714L2.07812 17.775L1.65519 16.9345C0.48042 14.5693 0.120177 12.0108 0.605806 9.49943ZM21.7783 9.09217C20.7498 5.33276 17.4811 2.46625 13.6331 1.94413C11.5341 1.66226 9.55506 1.98087 7.73278 2.89972C3.31559 5.1344 1.21144 10.241 2.80351 14.8565C3.00702 15.4465 3.55534 16.5588 3.89477 17.0704L4.16636 17.4777L3.56073 19.2529C3.22669 20.2293 2.9551 21.0492 2.9551 21.0701C2.9551 21.096 3.79558 20.8455 4.81901 20.5217C5.84757 20.1928 6.70397 19.9264 6.71965 19.9264C6.74071 19.9264 6.94422 20.0361 7.16879 20.1666C9.59669 21.6128 12.6251 21.9262 15.3559 21.0177C18.5516 19.9577 21.0106 17.3209 21.8356 14.0734C22.2378 12.4859 22.2169 10.6953 21.7783 9.09217Z" fill="#25D366"/>
</g>
<defs>
<clipPath id="clip0_1427_79287">
<rect width="24" height="24" fill="white"/>
</clipPath>
</defs>
</svg>
