<svg width="24" height="24" viewBox="0 0 24 24" fill="none" xmlns="http://www.w3.org/2000/svg">
<g clip-path="url(#clip0_5922_225)">
<path fill-rule="evenodd" clip-rule="evenodd" d="M0.653961 3.27606C0 4.55953 0 6.23969 0 9.6V14.4C0 17.7603 0 19.4405 0.653961 20.7239C1.2292 21.8529 2.14708 22.7708 3.27606 23.346C4.55953 24 6.23969 24 9.6 24H14.4C17.7603 24 19.4405 24 20.7239 23.346C21.8529 22.7708 22.7708 21.8529 23.346 20.7239C24 19.4405 24 17.7603 24 14.4V9.6C24 6.23969 24 4.55953 23.346 3.27606C22.7708 2.14708 21.8529 1.2292 20.7239 0.653961C19.4405 0 17.7603 0 14.4 0H9.6C6.23969 0 4.55953 0 3.27606 0.653961C2.14708 1.2292 1.2292 2.14708 0.653961 3.27606ZM11.6745 15.723C12.6265 14.764 13.159 13.4663 13.155 12.115C13.159 10.7637 12.6265 9.46603 11.6745 8.507C10.7225 7.54796 9.42882 7.00596 8.07752 7C6.72621 7.00596 5.43251 7.54796 4.48051 8.507C3.52851 9.46603 2.99603 10.7637 3.00002 12.115C2.99603 13.4663 3.52851 14.764 4.48051 15.723C5.43251 16.682 6.72621 17.224 8.07752 17.23C9.42882 17.224 10.7225 16.682 11.6745 15.723ZM16.185 16.93C17.5875 16.93 18.72 14.77 18.72 12.115C18.72 9.46 17.5875 7.3 16.185 7.3C14.7825 7.3 13.6425 9.46 13.6425 12.115C13.6425 14.77 14.7825 16.93 16.185 16.93ZM20.1075 16.4275C20.6025 16.4275 21 14.4925 21 12.115C21 9.7375 20.6025 7.8025 20.1075 7.8025C19.6125 7.8025 19.215 9.7375 19.215 12.115C19.215 14.4925 19.6125 16.4275 20.1075 16.4275Z" fill="black"/>
</g>
<defs>
<clipPath id="clip0_5922_225">
<rect width="24" height="24" fill="white"/>
</clipPath>
</defs>
</svg>
