<!--

Sourced from The Wolf Kit https://figma.com/community/file/1203393186896008602
Licensed as CC BY 4.0

https://feathericons.dev/apple-pay

-->
<svg xmlns="http://www.w3.org/2000/svg" viewBox="0 0 56 32" width="56" height="32" fill="none">
  <rect fill="#fff" height="31" rx="5.5" width="55" x=".5" y=".5" />
  <path clip-rule="evenodd" d="M15.309 10.206c-.469.579-1.219 1.035-1.969.97-.094-.782.273-1.613.703-2.126.469-.594 1.29-1.017 1.954-1.05.078.814-.227 1.612-.688 2.206Zm.68 1.124c-.661-.04-1.264.207-1.751.406-.314.129-.58.237-.781.237-.227 0-.503-.114-.813-.243-.407-.168-.872-.36-1.36-.351-1.117.016-2.156.676-2.726 1.726-1.172 2.1-.305 5.21.828 6.92.555.847 1.22 1.775 2.094 1.743.385-.015.662-.138.949-.265.33-.145.672-.297 1.208-.297.516 0 .844.148 1.159.29.299.134.586.264 1.013.256.906-.017 1.476-.847 2.031-1.694a7.589 7.589 0 0 0 .902-1.93l.005-.016-.022-.01c-.2-.096-1.73-.826-1.744-2.783-.015-1.642 1.213-2.474 1.406-2.605a.61.61 0 0 0 .024-.016c-.782-1.205-2-1.335-2.423-1.368Zm6.274 10.332V8.969h4.57c2.36 0 4.009 1.693 4.009 4.168 0 2.476-1.68 4.185-4.07 4.185h-2.618v4.34h-1.891Zm1.89-11.032h2.18c1.641 0 2.579.912 2.579 2.516s-.938 2.524-2.587 2.524h-2.172v-5.04Zm12.932 9.51c-.5.993-1.602 1.62-2.79 1.62-1.758 0-2.984-1.091-2.984-2.736 0-1.628 1.187-2.565 3.383-2.703l2.36-.147v-.7c0-1.034-.65-1.596-1.806-1.596-.953 0-1.648.513-1.789 1.295h-1.703c.055-1.645 1.54-2.841 3.547-2.841 2.165 0 3.57 1.18 3.57 3.012v6.318h-1.75V20.14h-.038Zm-2.282.113c-1.008 0-1.648-.504-1.648-1.278 0-.798.617-1.262 1.797-1.335l2.102-.139v.717c0 1.189-.97 2.035-2.25 2.035Zm9.876 1.906c-.758 2.222-1.625 2.955-3.469 2.955-.14 0-.61-.016-.719-.049v-1.522c.117.016.407.032.555.032.836 0 1.305-.366 1.594-1.319l.172-.561-3.204-9.241h1.977l2.227 7.498h.04l2.226-7.498H48l-3.32 9.705Z" fill="#687076" fill-rule="evenodd" />
  <rect height="31" rx="5.5" stroke="#687076" width="55" x=".5" y=".5" />
</svg>
