<!--

Sourced from The Wolf Kit https://figma.com/community/file/1203393186896008602
Licensed as CC BY 4.0

https://feathericons.dev/?search=card-ideal-1

-->
<svg xmlns="http://www.w3.org/2000/svg" viewBox="0 0 56 32" width="56" height="32" fill="none">
  <path d="M12.472 11.601a4.965 4.965 0 0 1 1.55-.246c2.364 0 4.337 1.648 4.79 3.837l3.351-.67C21.394 10.8 18.041 8 14.021 8c-.92 0-1.806.147-2.633.418l1.084 3.183Z" fill="#FECA2F" />
  <path d="m8.483 22.384 2.007-2.59c-.896-.907-1.461-2.23-1.461-3.704 0-1.473.565-2.796 1.46-3.701l-2.008-2.59C6.96 11.336 6 13.585 6 16.09c0 2.506.96 4.755 2.483 6.294" fill="#1BA7DE" />
  <path d="M18.813 16.99c-.454 2.19-2.426 3.835-4.789 3.835a4.96 4.96 0 0 1-1.55-.247l-1.086 3.185c.828.272 1.714.42 2.636.42 4.017 0 7.367-2.8 8.14-6.519l-3.351-.674Z" fill="#EC412A" />
  <path clip-rule="evenodd" d="M38.288 9.798v9.208l1.653.663-.782 1.816-1.634-.657a1.837 1.837 0 0 1-.805-.654c-.181-.271-.316-.642-.316-1.142V9.798h1.884Zm-12.532 6.844c.041-2.633 2.284-4.735 5.005-4.695 2.31.035 4.223 1.6 4.726 3.68l-8.933 3.692a4.627 4.627 0 0 1-.798-2.677Zm2.044.37a2.44 2.44 0 0 1-.018-.339c.026-1.551 1.346-2.79 2.95-2.764a2.928 2.928 0 0 1 2.17.996L27.8 17.011Zm4.915 1.709a2.955 2.955 0 0 1-3.575.368l-1.079 1.663c.74.452 1.61.719 2.55.733 1.368.02 2.614-.5 3.52-1.358l-1.416-1.406Zm12.45-4.812c-.321 0-.63.05-.92.144l-.642-1.863a5.082 5.082 0 0 1 1.563-.244c2.387 0 4.378 1.64 4.834 3.817l-1.99.392c-.268-1.281-1.44-2.246-2.844-2.246Zm-3.267 6.38 1.345-1.472a2.76 2.76 0 0 1-.979-2.102c0-.836.378-1.587.978-2.1l-1.345-1.471a4.692 4.692 0 0 0-1.664 3.571c0 1.423.644 2.7 1.665 3.573Zm3.268-.767c1.403 0 2.574-.963 2.844-2.243l1.99.394c-.46 2.175-2.45 3.812-4.834 3.812a5.078 5.078 0 0 1-1.566-.245l.645-1.863c.29.094.599.145.92.145Z" fill="#000" fill-rule="evenodd" />
  <rect height="31" rx="5.5" stroke="#DFE3E6" width="55" x=".5" y=".5" />
</svg>
