<svg width="24" height="24" viewBox="0 0 24 24" fill="none" xmlns="http://www.w3.org/2000/svg">
<g clip-path="url(#clip0_5922_306)">
<path d="M8.14467 14.2733C8.14467 15.2633 9.34267 16.5827 12.0247 16.5827L11.9887 16.5833C14.5353 16.5833 15.8033 15.3513 15.8033 13.7007C15.8033 12.6353 15.3147 11.504 13.3873 11.0713L11.6293 10.68C10.96 10.5273 10.1913 10.324 10.1913 9.68867C10.1913 9.05333 10.74 8.61067 11.7193 8.61067C12.8799 8.61067 13.2971 9.07849 13.6417 9.46497C13.8842 9.73696 14.0908 9.96867 14.4953 9.96867C15.0053 9.96867 15.464 9.66467 15.464 9.142C15.464 7.92467 13.516 7.00933 11.8687 7.00933C10.0767 7.00933 8.16933 7.772 8.16933 9.80333C8.16933 10.78 8.518 11.8213 10.438 12.304L12.822 12.9007C13.5453 13.08 13.7247 13.486 13.7247 13.8533C13.7247 14.464 13.1187 15.0607 12.0247 15.0607C10.7877 15.0607 10.3648 14.5103 10.0073 14.045C9.74557 13.7044 9.51887 13.4093 9.03333 13.4093C8.51867 13.4093 8.14467 13.7633 8.14467 14.2733Z" fill="#00AFF0"/>
<path fill-rule="evenodd" clip-rule="evenodd" d="M0.653961 3.27606C0 4.55953 0 6.23969 0 9.6V14.4C0 17.7603 0 19.4405 0.653961 20.7239C1.2292 21.8529 2.14708 22.7708 3.27606 23.346C4.55953 24 6.23969 24 9.6 24H14.4C17.7603 24 19.4405 24 20.7239 23.346C21.8529 22.7708 22.7708 21.8529 23.346 20.7239C24 19.4405 24 17.7603 24 14.4V9.6C24 6.23969 24 4.55953 23.346 3.27606C22.7708 2.14708 21.8529 1.2292 20.7239 0.653961C19.4405 0 17.7603 0 14.4 0H9.6C6.23969 0 4.55953 0 3.27606 0.653961C2.14708 1.2292 1.2292 2.14708 0.653961 3.27606ZM19.3587 13.4187L19.378 13.3287L19.388 13.348C19.7573 14.0173 19.9567 14.7667 19.9567 15.5253C19.9567 16.724 19.488 17.852 18.6487 18.6913C17.7993 19.54 16.682 20 15.4933 20C14.7147 20 13.9653 19.7987 13.2973 19.4193L13.3873 19.3993L13.2273 19.3687L13.3067 19.41C12.878 19.4893 12.428 19.5293 11.9887 19.5293C10.9707 19.5293 9.982 19.3307 9.05267 18.9307C8.154 18.5407 7.34533 18.0027 6.656 17.3027C5.95667 16.614 5.41667 15.8047 5.038 14.8967C4.64867 13.964 4.44867 12.9727 4.44867 11.9527C4.44867 11.5153 4.48733 11.0793 4.56333 10.6493L4.60333 10.726L4.576 10.5667L4.56333 10.6493C4.19533 9.98733 4 9.23933 4 8.47733C4 7.282 4.46467 6.15667 5.30867 5.31133C6.15267 4.46533 7.27333 4 8.466 4C9.198 4 9.91867 4.18267 10.5613 4.52667L10.482 4.54333L10.6413 4.56533L10.562 4.52533C11.028 4.436 11.5107 4.38933 11.9907 4.38933C13.0087 4.38933 13.9973 4.58867 14.876 5.00933C15.7747 5.38933 16.5733 5.938 17.2727 6.62667C17.9607 7.316 18.5113 8.12533 18.8907 9.024C19.2887 9.96267 19.4893 10.9513 19.4893 11.9707C19.4893 12.43 19.4487 12.8887 19.3687 13.3387C19.3636 13.3231 19.3562 13.3105 19.3487 13.298C19.3415 13.2857 19.3343 13.2735 19.3293 13.2587L19.3587 13.4187Z" fill="#00AFF0"/>
</g>
<defs>
<clipPath id="clip0_5922_306">
<rect width="24" height="24" fill="white"/>
</clipPath>
</defs>
</svg>
