<!-- https://feathericons.com/?search=card-sepa -->
<svg xmlns="http://www.w3.org/2000/svg" viewBox="0 0 56 32" width="56" height="32" fill="none">
  <rect fill="currentColor" height="31" rx="5.5" width="55" x=".5" y=".5" />
  <path clip-rule="evenodd" d="M28.969 21.835V10h5.755c.79 0 1.392.066 1.805.2.947.305 1.582.931 1.907 1.878.168.496.252 1.244.252 2.243 0 1.2-.093 2.063-.277 2.588-.37 1.039-1.13 1.637-2.276 1.792-.136.023-.71.044-1.723.06l-.513.019h-1.841v3.055h-3.09Zm3.089-5.8h1.925c.611-.024.982-.072 1.116-.148.183-.103.305-.31.366-.621.04-.207.059-.515.059-.924 0-.5-.039-.871-.117-1.113-.111-.34-.377-.547-.799-.622a6.036 6.036 0 0 0-.598-.017h-1.952v3.444Z" fill="#fff" fill-rule="evenodd" />
  <path d="M16.331 13.775h-2.873c0-.486-.056-.812-.166-.978-.171-.246-.643-.37-1.416-.37-.75 0-1.247.072-1.49.213-.243.142-.364.451-.364.928 0 .43.107.714.323.85.154.097.358.153.613.17l.58.042c1.242.085 2.017.145 2.327.18.982.101 1.694.37 2.136.807.348.34.555.786.62 1.336.04.328.059.7.059 1.114 0 .953-.088 1.65-.265 2.093-.32.811-1.039 1.324-2.157 1.539-.469.09-1.185.136-2.15.136-1.609 0-2.73-.098-3.364-.297-.777-.243-1.29-.736-1.537-1.478C7.067 19.647 7 18.959 7 17.996h2.874v.246c0 .514.143.844.43.992.197.101.437.154.718.16h1.056c.54 0 .883-.028 1.032-.085.264-.107.437-.28.52-.518.044-.147.066-.337.066-.57 0-.52-.184-.838-.553-.951-.137-.045-.778-.108-1.922-.187-.918-.068-1.556-.133-1.914-.196-.94-.182-1.568-.555-1.88-1.121-.275-.482-.413-1.21-.413-2.185 0-.742.074-1.337.223-1.784.149-.448.388-.788.719-1.02.484-.357 1.104-.566 1.859-.63a23.494 23.494 0 0 1 2.09-.084c1.206 0 2.066.071 2.578.213 1.251.346 1.876 1.317 1.876 2.912 0 .13-.01.326-.028.587Z" fill="#fff" />
  <path clip-rule="evenodd" d="M45.282 19.79h-4.13l-.555 2.045H37.4L40.849 10h4.66L49 21.835h-3.129l-.59-2.045Zm-.614-2.306-1.447-5.13-1.405 5.13h2.852Z" fill="#fff" fill-rule="evenodd" />
  <path d="M27.864 13.218c-.748-.948-1.885-1.553-3.159-1.553-1.504 0-2.818.846-3.524 2.102h6.383l-.766 1.695h-6.149a4.485 4.485 0 0 0 .024 1.05h5.65l-.767 1.696H21.3c.73 1.146 1.982 1.903 3.406 1.903 1.218 0 2.31-.554 3.058-1.431v2.078a5.728 5.728 0 0 1-3.255 1.01c-2.396 0-4.452-1.468-5.331-3.56h-2.033l.767-1.695h.839a5.864 5.864 0 0 1-.008-1.051h-1.67l.767-1.695h1.298c.854-2.146 2.937-3.662 5.37-3.662 1.564 0 2.981.626 4.023 1.641l-.666 1.472Z" fill="#fff" />
  <rect height="31" rx="5.5" stroke="currentColor" width="55" x=".5" y=".5" />
</svg>
