<!-- https://feathericons.dev/?search=unionpay -->
<svg xmlns="http://www.w3.org/2000/svg" viewBox="0 0 56 32" width="56" height="32" fill="none">
  <rect fill="currentColor" height="31" rx="5.5" width="55" x=".5" y=".5" />
  <path clip-rule="evenodd" d="M24.126 12.72h-.767l-.6 3.07h.767l.6-3.07Zm2.009 7.897-.224.896c-.053.15.02.212.213.206h.783l-.146.58h-1.497c-.282 0-.381-.183-.293-.54l.282-1.142h-.61l.156-.625h.621l.151-.608h-.584l.152-.626h2.447l-.157.626h-.986l-.152.608h.96l-.156.625h-.96Zm-1.904-8.27h-.772l.14-.746h.778l-.146.746Zm1.434 5.447.35-.569h.929l-.194.38h1.117l-.14.573h-1.331c-.151.253-.34.373-.569.356h-.694l.152-.603h.135c.125 0 .209-.046.245-.137Zm-1.158-3.088c0 .361.1.643.303.855.198.207.47.31.83.31.417 0 .777-.144 1.074-.43.297-.288.49-.678.58-1.171l.03-.23c.004-.057.008-.114.01-.166v-.046c0-.368-.103-.655-.302-.867-.198-.207-.474-.316-.819-.316-.422 0-.782.15-1.08.442-.297.293-.49.689-.584 1.188a1.058 1.058 0 0 0-.017.104l-.015.12c-.005.075-.01.144-.01.207Zm.871.333c-.093-.104-.135-.247-.135-.437 0-.04 0-.091.005-.137l.001-.01c.005-.044.01-.092.02-.14.062-.332.162-.58.297-.746a.638.638 0 0 1 .522-.247c.162 0 .287.052.376.155.088.11.13.253.13.442 0 .04 0 .092-.005.144-.005.051-.01.103-.021.155-.063.321-.157.568-.292.729a.638.638 0 0 1-.522.247c-.167 0-.287-.052-.376-.155Zm-4.518-2.003c.225-.264.496-.397.82-.397.291 0 .5.092.63.282.131.19.168.447.105.78l-.38 2.095h-.71l.344-1.9c.036-.195.026-.344-.031-.436-.058-.097-.157-.143-.308-.143a.631.631 0 0 0-.465.19.97.97 0 0 0-.25.521l-.318 1.768h-.71l.558-3.076h.694l-.078.442.1-.127Zm15.428.177c-.34-.292-.647-.47-1.247-.166-.814.419-1.492 3.604.746 2.56l.13.166.882.023.574-2.904-.762.075-.323.246Zm-.172 1.344c-.146.459-.46.763-.71.677-.245-.086-.334-.528-.188-.993.141-.46.46-.764.705-.678.245.087.339.534.193.993Zm-7.305-1.05a.97.97 0 0 0-.25.521l-.323 1.768h-.71l.558-3.076h.694l-.078.442.099-.127c.224-.264.5-.396.82-.396.291 0 .5.092.63.282.13.19.167.447.105.78l-.381 2.095h-.71l.345-1.9c.036-.195.03-.344-.026-.436-.058-.097-.162-.143-.308-.143a.63.63 0 0 0-.465.19Zm1.101 6.996c.11 0 .162-.035.162-.11l.063-.246h.662l-.088.356c-.073.298-.272.453-.595.47h-.428v.649c-.005.103.078.155.256.155h.396l-.13.517h-.96c-.267.017-.402-.127-.397-.425l.063-1.745h.798l-.016.379h.214Zm.674-4.707h.933l.334-1.802h1.08a1.64 1.64 0 0 0 1.132-.43c.319-.287.522-.666.61-1.143.014-.075.024-.15.033-.221l.004-.031c.005-.086.01-.16.01-.23v-.011c0-.362-.104-.637-.307-.827-.209-.19-.506-.287-.892-.287h-2.009l-.928 4.982Zm2.321-2.669h-.892l.276-1.458h.757c.25 0 .428.04.542.121.115.08.173.207.173.385 0 .034-.005.068-.01.103-.006.04-.011.08-.022.126-.047.247-.135.425-.27.545-.137.12-.32.178-.554.178Zm3.381 4.07.036.356c-.005.091.047.132.147.137h.156l-.156.603h-.647c-.246.012-.37-.092-.386-.316l-.032-.78h.882Zm6.543-12.191c1.069 0 1.737.953 1.497 2.13L40.68 24.881c-.24 1.142-1.242 2.06-2.28 2.118h-8.097c-1.054-.023-1.706-.964-1.466-2.13l.281-1.383h-.636l-.282 1.384c-.24 1.165.412 2.112 1.466 2.129h-8.609c-1.053-.023-1.706-.964-1.465-2.13l.845-4.12h-.741l-.845 4.12c-.24 1.166.417 2.113 1.466 2.13H13.2c-.85-.017-1.435-.631-1.508-1.48v-.328a2.27 2.27 0 0 1 .042-.316L15.382 7.13C15.627 5.953 16.994 5 18.064 5h7.075c-1.065.023-2.4.964-2.64 2.124l-.684 3.334h.74l.684-3.334c.24-1.16 1.576-2.101 2.64-2.124l8.588.006c-1.06.034-2.38.97-2.62 2.123l-.682 3.335h.636l.683-3.335c.24-1.153 1.56-2.089 2.62-2.123h7.727ZM30.836 19.56l.595-2.353h-1.55c-.423 0-.882.379-.882.379l.037-.367h-.82l-1.163 4.718c-.052.224.084.332.423.332h.876l.13-.51h-.343c-.09 0-.12-.046-.1-.138l.412-1.659h1.753c.37 0 .585-.132.632-.402Zm-2.118-.671H30.1l-.083.333c-.006.109-.068.149-.167.138h-1.247l.115-.471Zm.25-1.005h1.383l-.11.448s-.438-.006-.824 0c-.386.006-.616.19-.616.19l.167-.637Zm9.908-5.165.047 2.077.808-2.083h.82l-1.644 3.668c-.292.688-.574 1.09-.74 1.28l-.026.028c-.174.2-.508.584-1.258.557l.067-.528c.583-.197.932-1.007 1.146-1.504l.08-.183-.245-3.306.512-.006h.433Zm-4.738 9.286.173-.671h-.183l.866-3.38h.183l.182-.718h-1.158c-.344 0-.824.264-.824.264l.041-.264h-.934l-.182.717h.182l-.876 3.381h-.178l-.172.671h1.79l-.078.293h.907l.079-.293h.182Zm-1.695-.671.182-.695h.7l-.178.695h-.704Zm.532-2.038h.699s-.094.328-.177.695c-.308.017-.762.264-.762.264l.24-.959Zm.344-1.343h.7s-.105.373-.183.695c-.35.052-.757.224-.757.224l.24-.919Zm2.65 1.188h-.986l.168-.66h2.848l-.167.649h-.908l-.156.603h.908l-.167.648h-1.012l-.23.379h.496l.114.763c.016.08.079.115.183.115h.146l-.162.626h-.542c-.282.017-.428-.086-.439-.31l-.13-.695-.449.74c-.104.213-.27.31-.49.294h-.83l.162-.626h.261c.11 0 .198-.052.277-.155l.704-1.12h-.908l.167-.648h.986l.157-.603Zm-17.691-5.108.641-3.403h.976l-.647 3.443c-.11.58-.36 1.028-.751 1.35-.386.315-.882.47-1.492.47-.574 0-.997-.16-1.263-.482-.183-.224-.276-.517-.276-.867 0-.15.015-.304.046-.47l.647-3.444h.981l-.642 3.403c-.02.098-.026.184-.026.264 0 .178.042.322.12.43.115.167.308.248.57.248.302 0 .547-.08.74-.247.193-.167.318-.396.376-.695Z" fill="#fff" fill-rule="evenodd" />
  <rect height="31" rx="5.5" stroke="currentColor" width="55" x=".5" y=".5" />
</svg>
