<svg width="56" height="32" viewBox="0 0 56 32" fill="none" xmlns="http://www.w3.org/2000/svg">
<path d="M20.5927 16.3686C21.861 16.3686 22.8892 15.3089 22.8892 14.0017C22.8892 12.6946 21.861 11.6349 20.5927 11.6349C19.3244 11.6349 18.2962 12.6946 18.2962 14.0017C18.2962 15.3089 19.3244 16.3686 20.5927 16.3686Z" fill="black"/>
<path d="M18.7479 17.3774H22.4374V24.1287H18.7479V17.3774Z" fill="black"/>
<path fill-rule="evenodd" clip-rule="evenodd" d="M16 5H28.6871C37.3084 5 40.6213 9.85009 40.6213 15.9806C40.6213 23.3139 35.9907 27 28.6871 27H16V5ZM17.2048 6.31922V25.7584H28.6872C35.6143 25.7584 39.3791 22.4215 39.3791 16.0194C39.3791 9.42328 35.3131 6.31922 28.6872 6.31922H17.2048Z" fill="black"/>
<path fill-rule="evenodd" clip-rule="evenodd" d="M35.2 11.8289H36.2542V15.0882H37.7977C37.3836 9.15167 32.8283 7.83244 28.6871 7.83244H24.2823V11.8289H24.9223C26.127 11.8289 26.8423 12.6437 26.8423 14.0018C26.8423 15.3598 26.127 16.1746 24.96 16.1746H24.2823V24.1287H28.6871C35.4259 24.1287 37.7224 20.9083 37.8353 16.1746H35.2V11.8289ZM30.1177 15.0882V16.1746H27.4824V11.8289H30.0424V12.9153H28.5365V13.4197H29.9671V14.5062H28.5742V15.0882H30.1177ZM30.5692 16.1746L31.8492 11.8289H33.3551L34.6351 16.1746H33.5434L33.3175 15.3598H31.9245L31.6986 16.1746H30.5692ZM32.2375 14.2345H32.2258V14.2733L32.2375 14.2345ZM32.2375 14.2345H32.9787L32.6399 13.0317H32.6022L32.2375 14.2345ZM24.2822 15.0882V12.9153H24.9222C25.3364 12.9153 25.7881 13.0317 25.7881 14.0018C25.7881 14.9718 25.374 15.0882 24.9222 15.0882H24.2822Z" fill="#D50072"/>
<rect x="0.5" y="0.5" width="55" height="31" rx="5.5" stroke="#DFE3E6"/>
</svg>
