<svg width="56" height="32" viewBox="0 0 56 32" fill="none" xmlns="http://www.w3.org/2000/svg">
<rect width="56" height="32" rx="6" fill="black"/>
<path d="M28.0166 22.85C26.4261 24.1907 24.3629 25 22.1084 25C17.078 25 13 20.9706 13 16C13 11.0294 17.078 7 22.1084 7C24.3629 7 26.4261 7.80934 28.0166 9.15001C29.6071 7.80934 31.6703 7 33.9248 7C38.9552 7 43.0331 11.0294 43.0331 16C43.0331 20.9706 38.9552 25 33.9248 25C31.6703 25 29.6071 24.1907 28.0166 22.85Z" fill="#ED0006"/>
<path d="M28.0166 22.8499C29.975 21.1992 31.2168 18.7429 31.2168 16C31.2168 13.2571 29.975 10.8008 28.0166 9.15005C29.6071 7.80935 31.6703 7 33.9248 7C38.9553 7 43.0332 11.0294 43.0332 16C43.0332 20.9706 38.9553 25 33.9248 25C31.6703 25 29.6071 24.1906 28.0166 22.8499Z" fill="#F9A000"/>
<path d="M28.0166 22.85C29.975 21.1993 31.2168 18.7429 31.2168 16C31.2168 13.2571 29.975 10.8008 28.0166 9.15005C26.0582 10.8008 24.8164 13.2571 24.8164 16C24.8164 18.7429 26.0582 21.1993 28.0166 22.85Z" fill="#FF5E00"/>
<rect x="0.5" y="0.5" width="55" height="31" rx="5.5" stroke="black" stroke-opacity="0.14"/>
</svg>
