<svg width="56" height="32" viewBox="0 0 56 32" fill="none" xmlns="http://www.w3.org/2000/svg">
<rect width="56" height="32" rx="6" fill="#003087"/>
<path fill-rule="evenodd" clip-rule="evenodd" d="M14.4479 10.5692C13.8964 10.19 13.1768 10 12.2889 10H8.85174C8.57957 10 8.4292 10.1361 8.40064 10.4081L7.00438 19.1728C6.98987 19.2588 7.01141 19.3376 7.0688 19.4091C7.12586 19.4808 7.19763 19.5165 7.28358 19.5165H8.91622C9.20258 19.5165 9.35997 19.3807 9.38886 19.1084L9.77549 16.7455C9.78961 16.6309 9.83997 16.5378 9.92592 16.4661C10.0118 16.3946 10.1192 16.3477 10.2481 16.3263C10.377 16.3051 10.4986 16.2943 10.6133 16.2943C10.7278 16.2943 10.8638 16.3016 11.0216 16.3158C11.179 16.3301 11.2793 16.3371 11.3223 16.3371C12.5539 16.3371 13.5206 15.9901 14.2224 15.2952C14.924 14.6008 15.2751 13.6378 15.2751 12.4058C15.2751 11.5609 14.9992 10.9487 14.4479 10.569V10.5692ZM12.6758 13.2009C12.6039 13.7023 12.418 14.0315 12.1172 14.1891C11.8164 14.3469 11.3868 14.4254 10.8283 14.4254L10.1194 14.4468L10.4846 12.1482C10.5131 11.9908 10.6062 11.912 10.7638 11.912H11.1721C11.7447 11.912 12.1603 11.9945 12.4181 12.1589C12.6758 12.3237 12.7617 12.6712 12.6758 13.2009ZM31.5156 13.4589C31.5156 13.3875 31.4868 13.3193 31.4299 13.2551C31.3725 13.1906 31.308 13.1582 31.2365 13.1582H29.5824C29.4246 13.1582 29.2957 13.2302 29.1956 13.373L26.9185 16.7243L25.9733 13.502C25.9013 13.2731 25.744 13.1582 25.5007 13.1582H23.8893C23.8175 13.1582 23.7531 13.1905 23.6962 13.2551C23.6387 13.3193 23.6102 13.3876 23.6102 13.4589C23.6102 13.4878 23.7499 13.9101 24.0291 14.7264C24.3083 15.543 24.609 16.4238 24.9313 17.3691C25.2536 18.3142 25.4217 18.8157 25.4361 18.8725C24.2617 20.4768 23.6747 21.336 23.6747 21.4504C23.6747 21.6368 23.7676 21.7297 23.954 21.7297H25.6081C25.7655 21.7297 25.8944 21.6583 25.9948 21.515L31.4729 13.6092C31.5014 13.5809 31.5156 13.531 31.5156 13.4589ZM20.8817 13.1583H22.5144C22.6002 13.1583 22.6717 13.1942 22.729 13.2656C22.7861 13.3374 22.8075 13.416 22.7934 13.502L21.9127 19.1089C21.8697 19.3812 21.712 19.517 21.4401 19.517H19.9578C19.7716 19.517 19.6785 19.4028 19.6785 19.1734C19.6785 19.0446 19.707 18.8942 19.7645 18.7224C19.5067 19.009 19.1629 19.238 18.7333 19.4099C18.3038 19.5816 17.8882 19.6677 17.4874 19.6677C16.6566 19.6677 15.9944 19.4174 15.5003 18.9158C15.0062 18.4147 14.7591 17.7416 14.7591 16.8965C14.7591 15.8511 15.1206 14.9414 15.8439 14.1681C16.567 13.3947 17.4444 13.0079 18.4755 13.0079C19.4494 13.0079 20.1297 13.2947 20.5164 13.8674C20.5594 13.3947 20.6809 13.1583 20.8817 13.1583ZM18.3683 17.9275C18.8979 17.9275 19.3456 17.7525 19.7109 17.4012C20.0761 17.0507 20.2587 16.6101 20.2587 16.0802C20.2587 15.6648 20.1261 15.339 19.8613 15.1026C19.5961 14.8664 19.2631 14.7482 18.8623 14.7482C18.3323 14.7482 17.8882 14.9308 17.5304 15.296C17.1723 15.6612 16.9933 16.1091 16.9933 16.6386C16.9933 17.0401 17.1185 17.3552 17.3693 17.5838C17.6197 17.8131 17.9527 17.9275 18.3683 17.9275Z" fill="white"/>
<path fill-rule="evenodd" clip-rule="evenodd" d="M36.6934 10C37.5814 10 38.3009 10.19 38.8523 10.5692V10.569C39.4036 10.9486 39.6794 11.5609 39.6794 12.4058C39.6794 13.6378 39.3285 14.6008 38.6267 15.2952C37.9248 15.9901 36.9584 16.3371 35.7265 16.3371C35.6838 16.3371 35.5833 16.3301 35.4258 16.3158C35.2681 16.3016 35.1322 16.2943 35.0177 16.2943C34.9029 16.2943 34.7813 16.3051 34.6525 16.3263C34.5235 16.3477 34.4162 16.3946 34.3303 16.4661C34.2442 16.5378 34.1941 16.6309 34.1798 16.7455L33.7932 19.2373C33.7357 19.4235 33.6212 19.5165 33.4493 19.5165H31.6879C31.6019 19.5165 31.53 19.4808 31.4732 19.4091C31.4157 19.3376 31.3942 19.2588 31.4087 19.1728L32.8051 10.4081C32.8335 10.1361 32.9911 10 33.2776 10H36.6934ZM35.2327 14.4252C35.8626 14.4252 36.3354 14.3178 36.6505 14.1031C36.9653 13.8881 37.123 13.4801 37.123 12.8784C37.123 12.5921 37.0372 12.3736 36.8652 12.2231C36.6934 12.0728 36.5141 11.9835 36.3283 11.9547C36.1418 11.9261 35.8912 11.9118 35.5761 11.9118H35.1895C35.0318 11.9118 34.9387 11.9907 34.9103 12.148L34.5451 14.4467L35.2327 14.4252ZM50.7206 10H49.1312C48.9732 10 48.8802 10.0788 48.8518 10.2365L47.4554 19.1731L47.4339 19.2161C47.4339 19.2881 47.4625 19.3558 47.52 19.4202C47.5769 19.4846 47.6489 19.5168 47.7347 19.5168H49.1528C49.4244 19.5168 49.5748 19.381 49.6039 19.1087L51.0002 10.3224V10.3011C51.0001 10.1005 50.9067 10.0003 50.7206 10.0003V10ZM46.919 13.1583H45.2863C45.0856 13.1583 44.9643 13.3947 44.9213 13.8674C44.5485 13.2947 43.8687 13.0079 42.8803 13.0079C41.8492 13.0079 40.9719 13.3947 40.2488 14.1681C39.5255 14.9414 39.164 15.8511 39.164 16.8965C39.164 17.7416 39.411 18.4147 39.905 18.9158C40.3991 19.4174 41.0614 19.6677 41.8923 19.6677C42.3076 19.6677 42.73 19.5816 43.1597 19.4099C43.5893 19.238 43.9255 19.009 44.1695 18.7224C44.1695 18.7368 44.1548 18.801 44.1265 18.9156C44.0976 19.0303 44.0835 19.1166 44.0835 19.1734C44.0835 19.4028 44.1763 19.517 44.3628 19.517H45.8452C46.1169 19.517 46.2747 19.3812 46.3175 19.1089L47.1984 13.502C47.2125 13.416 47.1911 13.3374 47.1339 13.2656C47.0763 13.1942 47.0049 13.1583 46.919 13.1583ZM44.1156 17.3905C43.7504 17.7486 43.31 17.9275 42.7944 17.9275C42.3789 17.9275 42.0427 17.8131 41.7848 17.5838C41.5268 17.3552 41.3979 17.0401 41.3979 16.6386C41.3979 16.1091 41.577 15.6612 41.9352 15.296C42.2927 14.9308 42.7371 14.7483 43.267 14.7483C43.6677 14.7483 44.0007 14.8664 44.2659 15.1026C44.5306 15.339 44.6635 15.6648 44.6635 16.0802C44.6634 16.5957 44.4808 17.0327 44.1156 17.3905Z" fill="#009CDE"/>
<rect x="0.5" y="0.5" width="55" height="31" rx="5.5" stroke="black" stroke-opacity="0.14"/>
</svg>
