<svg width="56" height="32" viewBox="0 0 56 32" fill="none" xmlns="http://www.w3.org/2000/svg">
<rect x="0.5" y="0.5" width="55" height="31" rx="5.5" fill="white"/>
<path d="M31.8914 13.2096C31.8914 15.579 30.2303 17.2704 27.9089 17.2704H25.722C25.6978 17.2704 25.6739 17.2752 25.6516 17.2844C25.6293 17.2937 25.6091 17.3073 25.592 17.3244C25.575 17.3415 25.5615 17.3618 25.5524 17.3841C25.5432 17.4065 25.5385 17.4304 25.5387 17.4546V20.5687C25.5387 20.6174 25.5194 20.6641 25.485 20.6986C25.4507 20.7331 25.4041 20.7526 25.3554 20.7528H23.825C23.7886 20.7527 23.7531 20.7418 23.7229 20.7215C23.6927 20.7013 23.6691 20.6725 23.6551 20.639C23.6458 20.617 23.641 20.5934 23.6408 20.5696V9.3321C23.6407 9.30796 23.6454 9.28403 23.6545 9.26169C23.6637 9.23935 23.6772 9.21904 23.6942 9.20192C23.7112 9.18481 23.7315 9.17123 23.7538 9.16196C23.7761 9.15269 23.8 9.14792 23.8241 9.14792H27.9187C30.2303 9.14525 31.8914 10.8367 31.8914 13.2096ZM29.9829 13.2096C29.9829 11.8474 29.054 10.8518 27.7942 10.8518H25.722C25.6978 10.8518 25.6739 10.8566 25.6516 10.8658C25.6293 10.8751 25.6091 10.8887 25.592 10.9058C25.575 10.9229 25.5615 10.9432 25.5524 10.9655C25.5432 10.9879 25.5385 11.0118 25.5387 11.036V15.3726C25.5387 15.4212 25.558 15.4678 25.5924 15.5022C25.6267 15.5365 25.6733 15.5559 25.722 15.5559H27.7942C29.054 15.5648 29.9829 14.5682 29.9829 13.2096ZM32.3452 18.597C32.3293 18.2336 32.4045 17.872 32.5639 17.5451C32.7234 17.2181 32.962 16.9362 33.2581 16.725C33.8551 16.2757 34.7884 16.0434 36.1586 15.9954L37.6178 15.9438V15.5131C37.6178 14.6501 37.0395 14.2853 36.1106 14.2853C35.1817 14.2853 34.5927 14.6145 34.4574 15.1528C34.4464 15.1907 34.4231 15.2238 34.3913 15.247C34.3594 15.2702 34.3207 15.2821 34.2813 15.2809H32.8399C32.8134 15.2816 32.787 15.2765 32.7627 15.2659C32.7383 15.2553 32.7166 15.2394 32.6991 15.2194C32.6816 15.1995 32.6687 15.1759 32.6614 15.1504C32.654 15.1249 32.6524 15.098 32.6566 15.0718C32.8701 13.7959 33.9316 12.8261 36.1764 12.8261C38.5645 12.8261 39.4267 13.9383 39.4267 16.0612V20.5687C39.4262 20.6178 39.4063 20.6648 39.3713 20.6993C39.3362 20.7338 39.289 20.7531 39.2398 20.7528H37.7869C37.7383 20.7527 37.6916 20.7335 37.657 20.6995C37.64 20.6824 37.6265 20.6621 37.6173 20.6398C37.6082 20.6175 37.6035 20.5937 37.6036 20.5696V20.2323C37.6041 20.2045 37.5962 20.1771 37.5808 20.1538C37.5655 20.1306 37.5435 20.1125 37.5176 20.102C37.4918 20.0915 37.4634 20.089 37.4362 20.095C37.409 20.101 37.3842 20.115 37.3651 20.1354C36.9292 20.6096 36.2254 20.9521 35.0981 20.9521C33.4396 20.9521 32.3452 20.0891 32.3452 18.597ZM37.6178 17.6201V17.2704L35.728 17.37C34.7324 17.4208 34.1532 17.8345 34.1532 18.5312C34.1532 19.1611 34.6843 19.5099 35.6123 19.5099C36.8731 19.5099 37.6178 18.8292 37.6178 17.6201ZM40.8858 24.1588V22.8526C40.8861 22.8252 40.8924 22.7982 40.9043 22.7736C40.9162 22.7489 40.9333 22.7271 40.9545 22.7098C40.9758 22.6925 41.0005 22.68 41.0271 22.6733C41.0537 22.6667 41.0814 22.6659 41.1083 22.6711C41.3307 22.7129 41.5576 22.7343 41.7845 22.7352C42.1745 22.7542 42.5597 22.6417 42.8783 22.4159C43.1968 22.1901 43.4305 21.8639 43.5417 21.4895L43.636 21.1888C43.6497 21.1484 43.6497 21.1046 43.636 21.0643L40.6082 13.2879C40.5973 13.2597 40.5934 13.2293 40.5968 13.1992C40.6002 13.1692 40.6108 13.1404 40.6278 13.1154C40.6448 13.0904 40.6676 13.0698 40.6942 13.0555C40.7209 13.0413 40.7506 13.0337 40.7808 13.0334H42.2489C42.2864 13.0338 42.3229 13.0455 42.3537 13.0669C42.3845 13.0883 42.4081 13.1185 42.4215 13.1535L44.4777 18.6379C44.4906 18.6744 44.5145 18.7059 44.546 18.7282C44.5776 18.7505 44.6153 18.7625 44.6539 18.7625C44.6925 18.7625 44.7302 18.7505 44.7618 18.7282C44.7933 18.7059 44.8172 18.6744 44.8301 18.6379L46.6158 13.1687C46.6282 13.1313 46.652 13.0988 46.684 13.0758C46.7159 13.0528 46.7543 13.0404 46.7937 13.0405H48.3125C48.3429 13.0407 48.3729 13.0483 48.3998 13.0625C48.4266 13.0768 48.4497 13.0973 48.4669 13.1224C48.4841 13.1475 48.495 13.1764 48.4986 13.2066C48.5023 13.2368 48.4986 13.2674 48.4878 13.2959L45.2491 21.9317C44.5035 23.939 43.225 24.4524 41.8174 24.4524C41.5505 24.4595 41.2836 24.4275 41.0255 24.3572C40.9826 24.3458 40.9451 24.3197 40.9195 24.2834C40.894 24.2471 40.8821 24.203 40.8858 24.1588ZM13.8065 8.50019C11.8776 8.48645 10.0168 9.21243 8.60686 10.5288C8.54657 10.584 8.50898 10.6597 8.50141 10.7411C8.49385 10.8225 8.51685 10.9038 8.56594 10.9692L9.43877 12.1615C9.46707 12.2012 9.50372 12.2342 9.54615 12.2582C9.58857 12.2822 9.63574 12.2966 9.68434 12.3004C9.73294 12.3043 9.78179 12.2974 9.82744 12.2803C9.8731 12.2632 9.91445 12.2363 9.9486 12.2015C10.4556 11.6947 11.0585 11.2939 11.7221 11.0228C12.3858 10.7516 13.0968 10.6154 13.8136 10.6222C16.8067 10.6222 18.37 12.8751 18.37 15.0994C18.37 17.5177 16.7275 19.2189 14.3671 19.2527C12.5431 19.2527 11.1684 18.0436 11.1684 16.4465C11.1703 16.043 11.2617 15.645 11.4361 15.2811C11.6104 14.9172 11.8633 14.5966 12.1765 14.3422C12.2427 14.2869 12.2846 14.2078 12.2931 14.122C12.3016 14.0361 12.276 13.9503 12.2219 13.8831L11.3046 12.7247C11.2768 12.6897 11.2423 12.6605 11.2032 12.639C11.164 12.6176 11.1209 12.6041 11.0764 12.5996C11.032 12.595 10.9871 12.5994 10.9443 12.6125C10.9016 12.6256 10.8619 12.6471 10.8277 12.6758C10.2643 13.1296 9.80966 13.7039 9.49713 14.3564C9.18459 15.0089 9.02207 15.723 9.02148 16.4465C9.02148 19.1958 11.3579 21.3525 14.351 21.3703H14.3911C17.9447 21.3241 20.5143 18.6922 20.5143 15.095C20.5143 11.9008 18.1618 8.50019 13.8074 8.50019H13.8065Z" fill="#687076"/>
<rect x="0.5" y="0.5" width="55" height="31" rx="5.5" stroke="#687076"/>
</svg>
