<svg width="56" height="32" viewBox="0 0 56 32" fill="none" xmlns="http://www.w3.org/2000/svg">
<path fill-rule="evenodd" clip-rule="evenodd" d="M11.4031 9.40386C10.9809 8.92532 10.1528 8.90187 9.70711 9.3593C9.39864 9.65956 9.2966 10.1146 9.35994 10.531C9.51358 11.7789 9.66725 13.027 9.82558 14.2737C9.41624 13.9664 8.84621 13.8339 8.39817 14.1435C7.81055 14.4637 7.79413 15.2402 8.01581 15.7961C7.41646 15.9228 6.9039 16.4682 7.01533 17.1098C7.04803 17.5676 7.35375 17.8882 7.65402 18.2031C7.75225 18.3061 7.8499 18.4085 7.93722 18.5149C8.05099 19.3289 8.25156 20.1745 8.83448 20.7915C10.1974 22.3174 12.637 22.5297 14.3623 21.521C15.4062 20.8783 15.9164 19.6549 16.0994 18.4903L16.1064 18.4203C16.1683 17.8065 16.2346 17.1477 15.968 16.5738C15.795 16.2233 15.4347 16.0917 15.0866 15.9646C14.9839 15.9271 14.8823 15.89 14.7869 15.8477C14.9669 14.9587 15.1478 14.07 15.3288 13.1813C15.5097 12.2925 15.6906 11.4037 15.8707 10.5146C15.9715 10.1076 15.8707 9.65486 15.5716 9.35578C15.1048 8.8397 14.204 8.90539 13.7653 9.42146C13.5822 9.64832 13.5024 9.92968 13.4237 10.2073C13.401 10.287 13.3785 10.3665 13.3536 10.4442C13.2429 10.8103 13.1369 11.1778 13.0309 11.5452C12.8617 12.1314 12.6926 12.7175 12.5045 13.2979C12.3349 12.668 12.1887 12.0321 12.0425 11.3962C11.9763 11.1084 11.9101 10.8205 11.8418 10.5334C11.8247 10.4655 11.8089 10.3964 11.7931 10.327C11.7179 9.9963 11.6406 9.65683 11.4031 9.40386ZM10.1062 12.301C10.0333 11.7022 9.96032 11.1034 9.88422 10.5052C9.81033 10.144 9.94521 9.70999 10.3076 9.56103C10.6806 9.4109 11.1075 9.69122 11.1838 10.0712C11.3608 10.7637 11.5239 11.4596 11.6871 12.1553C11.8602 12.8937 12.0334 13.6321 12.223 14.3664C12.257 14.5646 12.4669 14.6244 12.6347 14.5517C12.7564 14.376 12.8123 14.169 12.8679 13.9632C12.8884 13.8873 12.9089 13.8116 12.9326 13.7377C13.0158 13.4534 13.0986 13.1689 13.1814 12.8843L13.1817 12.8834C13.4596 11.9287 13.7377 10.9735 14.0304 10.0232C14.1641 9.51177 14.93 9.34639 15.2443 9.78271C15.472 10.0381 15.3987 10.3851 15.3342 10.6905C15.3279 10.7203 15.3217 10.7496 15.3159 10.7785C15.173 11.4408 15.0399 12.1053 14.9068 12.7697C14.7099 13.7526 14.5131 14.7352 14.2849 15.7093L14.204 15.7516C13.872 15.6975 13.545 15.615 13.2181 15.5325C12.7575 15.4162 12.2971 15.3 11.823 15.2636C11.4348 15.2284 11.1005 15.4513 10.8143 15.6859C10.6231 15.4513 10.4578 15.1862 10.4296 14.8778C10.3156 14.0199 10.2109 13.1605 10.1062 12.301ZM8.80306 16.0251C8.58374 15.7104 8.35248 15.3784 8.41928 14.9786C8.47206 14.5599 9.04912 14.3241 9.36932 14.615C9.6021 14.8167 9.77095 15.0737 9.93956 15.3303C10.019 15.4512 10.0984 15.5721 10.1845 15.687C10.2248 15.7521 10.2713 15.8157 10.318 15.8796C10.4549 16.0669 10.5941 16.2574 10.588 16.4987C10.5809 16.8095 10.697 17.0957 10.8577 17.3549C10.6161 17.6294 10.1751 17.7947 9.87015 17.5191C9.63924 17.2726 9.45393 16.9899 9.26868 16.7073C9.16129 16.5435 9.05392 16.3797 8.9377 16.2231C8.89531 16.1575 8.84945 16.0917 8.80306 16.0251ZM11.5157 17.1637C11.0759 16.9925 11.0125 16.4283 11.2506 16.0682C11.4876 15.6917 11.9919 15.7821 12.3579 15.8665C12.8181 15.982 13.2808 16.0882 13.7435 16.1943C14.1921 16.2972 14.6409 16.4002 15.0872 16.5116C15.4977 16.6019 15.6396 17.0675 15.6513 17.4382C15.6572 18.4856 15.4332 19.5787 14.7986 20.4337C14.3213 21.0917 13.5343 21.4284 12.7519 21.5503C11.5837 21.7919 10.2994 21.4788 9.42562 20.6531C8.9764 20.2472 8.72775 19.6784 8.55064 19.1107C8.93301 19.4907 9.42914 19.8872 10.0074 19.7265C10.7393 19.5658 11.0946 18.7237 10.8483 18.0469C10.9003 18.01 10.9499 17.9593 11.0004 17.9079C11.1278 17.778 11.2603 17.6427 11.4477 17.7091C11.5344 17.7341 11.6208 17.7601 11.7071 17.786C11.9851 17.8694 12.2627 17.9528 12.549 18.0047C11.9896 18.4152 11.6799 19.1013 11.721 19.791C11.789 20.0396 12.223 20.0279 12.2136 19.7488C12.2957 19.2784 12.3954 18.7354 12.8481 18.4738C13.0973 18.2924 13.3906 18.2893 13.6836 18.2862C13.8415 18.2846 13.9993 18.2829 14.15 18.2533C14.2462 18.1114 14.2415 17.9789 14.1348 17.8534C13.7668 17.7299 13.3846 17.6536 13.0025 17.5774C12.4954 17.4762 11.9886 17.3751 11.5157 17.1637ZM7.64752 17.403C7.43288 17.0875 7.5056 16.5996 7.85981 16.4201C8.06624 16.3099 8.36885 16.3239 8.51077 16.5304C8.66029 16.7171 8.78964 16.9185 8.91896 17.1198C9.07873 17.3684 9.23847 17.6171 9.43618 17.8381C9.59239 18.0229 9.81777 18.0904 10.0413 18.1573C10.1299 18.1839 10.2182 18.2103 10.3018 18.2439C10.683 18.7459 10.0308 19.4626 9.48778 19.2151C9.25347 19.0573 9.05524 18.856 8.85704 18.6547C8.76059 18.5568 8.66414 18.4588 8.56355 18.3659C8.46237 18.2597 8.35577 18.1579 8.24911 18.0559C8.03427 17.8507 7.81916 17.6452 7.64752 17.403Z" fill="black"/>
<path d="M23.1463 12.7783C22.378 11.2594 19.9384 11.1738 19.0024 12.5601C18.4828 13.2955 18.4653 14.4027 19.1127 15.0678C19.5389 15.5225 20.1231 15.7008 20.7041 15.8781C20.9608 15.9564 21.2169 16.0345 21.4585 16.1363C21.8537 16.2923 21.9816 16.7919 21.8361 17.1637C21.6755 17.6012 21.1688 17.7771 20.7371 17.7279C20.1976 17.7033 19.7871 17.3185 19.4247 16.9596C19.3269 17.0617 19.223 17.1589 19.1191 17.2562C18.8741 17.4855 18.6289 17.715 18.4617 18.0082C19.1139 18.6803 20.0158 19.1436 20.9694 19.0884C21.8385 19.0873 22.7311 18.6639 23.1603 17.8862C23.5908 17.1109 23.5544 16.0307 22.9117 15.3798C22.4352 14.9011 21.779 14.7017 21.1467 14.5095C21.0786 14.4888 21.0108 14.4682 20.9436 14.4473C20.6245 14.3406 20.2176 14.1811 20.1777 13.7952C20.1014 13.3401 20.5073 12.9132 20.9635 12.9472C21.367 12.9088 21.6539 13.2006 21.9144 13.4655C21.9401 13.4917 21.9656 13.5177 21.991 13.543C22.1175 13.4596 22.2466 13.3801 22.3758 13.3008C22.6405 13.138 22.905 12.9754 23.1463 12.7783Z" fill="black"/>
<path d="M31.2309 12.1262C31.7645 11.7473 32.4389 11.6664 33.0758 11.6758C33.0946 12.1074 33.0958 12.5402 33.0782 12.9718C33.048 12.9767 33.0175 12.9814 32.9868 12.9861C32.6384 13.0402 32.2647 13.0981 32.0179 13.3729C31.672 13.7143 31.6938 14.2341 31.7128 14.6863L31.7153 14.7464C32.1105 14.4825 32.5668 14.3042 33.05 14.3359C33.0653 14.771 33.0676 15.2073 33.043 15.6437C32.4741 15.7093 31.8255 15.9967 31.7317 16.6301C31.6956 16.9965 31.7016 17.3648 31.7075 17.7331C31.7142 18.143 31.7208 18.5529 31.6695 18.9606C31.198 18.9688 30.7265 18.977 30.2562 18.9465C30.2267 17.764 30.2338 16.5808 30.2409 15.398V15.3973C30.2434 14.9826 30.2459 14.5675 30.2468 14.1529C30.2327 13.3729 30.5811 12.5754 31.2309 12.1262Z" fill="black"/>
<path d="M44.8868 12.3079C44.42 12.2857 43.9532 12.2868 43.4875 12.3068C43.4477 13.2685 43.456 14.2315 43.4642 15.1944C43.4677 15.5936 43.4711 15.9929 43.4711 16.392C43.4617 16.9432 43.5473 17.525 43.891 17.9754C44.4293 18.7155 45.3888 19.045 46.2802 18.9606C46.306 18.536 46.3072 18.1102 46.2849 17.6845C45.8732 17.6258 45.4064 17.5531 45.1554 17.1801C44.8668 16.7693 44.8871 16.2701 44.9071 15.7807C44.9147 15.5937 44.9223 15.4082 44.9126 15.2296C45.3161 15.4783 45.7653 15.6976 46.2544 15.6483C46.2661 15.2155 46.2673 14.7827 46.2579 14.3499C46.2185 14.3387 46.1786 14.3276 46.1384 14.3165C45.7727 14.215 45.3832 14.1069 45.1507 13.7846C44.8987 13.476 44.8982 13.0832 44.8977 12.699C44.8975 12.5664 44.8973 12.4347 44.8868 12.3079Z" fill="black"/>
<path fill-rule="evenodd" clip-rule="evenodd" d="M26.0548 13.8902C26.6413 13.767 27.2688 13.7846 27.8306 14.0087C28.8932 14.4403 29.6333 15.5979 29.5113 16.7497C29.3987 17.681 28.7314 18.5032 27.8763 18.8656C26.4571 19.5107 24.5383 18.746 24.1067 17.2095C23.6258 15.8079 24.618 14.1752 26.0548 13.8902ZM26.4079 15.171C26.0525 15.2625 25.7358 15.5064 25.5739 15.8372C25.1998 16.5222 25.5622 17.4957 26.3305 17.7044C27.0811 17.9742 28.0018 17.4417 28.0441 16.6207C28.2036 15.7246 27.2805 14.8965 26.4079 15.171Z" fill="black"/>
<path fill-rule="evenodd" clip-rule="evenodd" d="M38.992 16.1574C38.8442 14.6854 37.3194 13.6087 35.8826 13.8374C34.7332 13.9617 33.7105 14.8813 33.5322 16.0342C33.3351 17.03 33.8348 18.0833 34.6828 18.6204C35.6387 19.2679 36.9899 19.2433 37.9188 18.5583C38.6741 18.027 39.114 17.0769 38.992 16.1574ZM35.3126 17.4006C34.6183 16.7344 34.9479 15.3715 35.9131 15.1674C36.835 14.8871 37.7874 15.8102 37.5353 16.7415C37.3898 17.7455 35.9906 18.1044 35.3126 17.4006Z" fill="black"/>
<path d="M41.2309 14.4062C41.5687 14.0661 42.0191 13.8151 42.5117 13.8421C42.6692 14.1436 42.6433 14.5016 42.6177 14.8548C42.6052 15.0279 42.5928 15.1998 42.602 15.3633C42.0449 15.4173 41.4104 15.6718 41.2919 16.2864C41.2156 16.7753 41.2267 17.2697 41.2379 17.7644C41.2468 18.1586 41.2558 18.5531 41.2204 18.9453C40.7524 18.9782 40.2832 18.9688 39.8153 18.9582C39.7748 18.239 39.7815 17.5176 39.7883 16.7961C39.7925 16.3469 39.7967 15.8977 39.7895 15.449C39.7938 15.2812 39.7901 15.1131 39.7865 14.945C39.7792 14.6088 39.7719 14.2725 39.8282 13.9394C39.9005 13.9391 39.9729 13.9385 40.0453 13.9379C40.4283 13.9348 40.8117 13.9318 41.1934 13.9594C41.2028 14.0709 41.2216 14.2937 41.2309 14.4062Z" fill="black"/>
<path d="M48.9965 18.1583C49.0599 17.464 48.2377 16.9467 47.6278 17.2587C46.9956 17.5097 46.8912 18.4879 47.4682 18.8562C48.0312 19.289 48.9742 18.8785 48.9965 18.1583Z" fill="black"/>
<rect x="0.5" y="0.5" width="55" height="31" rx="5.5" stroke="#DFE3E6"/>
</svg>
