<svg width="56" height="32" viewBox="0 0 56 32" fill="none" xmlns="http://www.w3.org/2000/svg">
<rect x="0.5" y="0.5" width="55" height="31" rx="5.5" fill="white"/>
<path d="M30.8502 15.6135L28.6763 13.2464L26.2609 15.372L28.4348 17.7874L30.8502 15.6135Z" fill="#687076"/>
<path d="M24.5217 11.314L26.6957 13.6812L29.1111 11.5556L26.9372 9.18841L24.5217 11.314Z" fill="#687076"/>
<path d="M32.5411 19.7198L30.3671 17.3527L27.9517 19.5266L30.1256 21.8937L32.5411 19.7198Z" fill="#687076"/>
<path d="M30.029 23.6812L26.0676 19.285L27.1787 18.3188L24.3768 15.2271L25.4879 14.2609L22.686 11.1691L27.0821 7.25604L28.4831 8.75362L30.8986 6.67633L32.2995 8.1256L33.2174 7.30435C33.0242 7.20773 32.7826 7.0628 32.5894 6.96618C31.1884 6.38647 29.6908 6 28.0966 6C22.5411 6 18 10.4928 18 16C18 21.5072 22.5411 26 28.1449 26C29.9807 26 31.6715 25.5169 33.1208 24.6957C33.6039 24.4058 34.0386 24.1159 34.4734 23.8261L32.4444 21.5556L30.029 23.6812Z" fill="#687076"/>
<path d="M28.9662 10.1546L30.5604 11.942L32.3961 10.3478L30.7536 8.56039L28.9662 10.1546Z" fill="#687076"/>
<path d="M34.0386 13.9227L32.3961 12.1353L30.6087 13.7778L32.2512 15.5169L34.0386 13.9227Z" fill="#687076"/>
<path d="M35.5845 17.6908L33.942 15.9034L32.1546 17.4976L33.7971 19.3333L35.5845 17.6908Z" fill="#687076"/>
<path d="M35.6812 11.7971L34.4734 12.8599L35.5845 14.0676L36.744 13.0048L35.6812 11.7971Z" fill="#687076"/>
<path d="M36.0193 16.3865L37.0821 17.5942L38.2899 16.5314L37.1787 15.3237L36.0193 16.3865Z" fill="#687076"/>
<path d="M32.9275 9.33333L34.0386 10.5411L35.1981 9.47826L34.1353 8.27053L32.9275 9.33333Z" fill="#687076"/>
<path d="M33.7488 21.1208L35.3913 22.9082L37.1787 21.314L35.5362 19.5266L33.7488 21.1208Z" fill="#687076"/>
<rect x="0.5" y="0.5" width="55" height="31" rx="5.5" stroke="#687076"/>
</svg>
