<svg width="24" height="24" viewBox="0 0 24 24" fill="none" xmlns="http://www.w3.org/2000/svg">
<g clip-path="url(#clip0_5922_471)">
<path d="M6.38744 2.60789C6.38744 3.98742 7.5024 5.10238 8.88193 5.10238H11.3764V2.60789C11.3764 1.22836 10.2615 0.113403 8.88193 0.113403C7.5024 0.113403 6.38744 1.22836 6.38744 2.60789Z" fill="#687076"/>
<path d="M11.3764 8.86301C11.3764 7.48348 10.2615 6.36852 8.88193 6.36852H2.62681C1.24728 6.36852 0.132324 7.48348 0.132324 8.86301C0.132324 10.2425 1.24728 11.3575 2.62681 11.3575H8.88193C10.2615 11.3575 11.3764 10.2425 11.3764 8.86301Z" fill="#687076"/>
<path d="M2.64561 17.6126C4.02514 17.6126 5.1401 16.4977 5.1401 15.1181V12.6237H2.64561C1.26608 12.6237 0.151123 13.7386 0.151123 15.1181C0.151123 16.4977 1.26608 17.6126 2.64561 17.6126Z" fill="#687076"/>
<path d="M8.88183 12.6237C7.5023 12.6237 6.38734 13.7386 6.38734 15.1181V21.3544C6.38734 22.7339 7.5023 23.8489 8.88183 23.8489C10.2614 23.8489 11.3763 22.7339 11.3763 21.3544V15.1181C11.3763 13.7386 10.2614 12.6237 8.88183 12.6237Z" fill="#687076"/>
<path d="M18.8788 8.86301C18.8788 7.48348 19.9938 6.36852 21.3733 6.36852C22.7528 6.36852 23.8678 7.48348 23.8678 8.86301C23.8678 10.2425 22.7528 11.3575 21.3733 11.3575H18.8788V8.86301Z" fill="#687076"/>
<path d="M17.6316 8.86301C17.6316 10.2425 16.5166 11.3575 15.1371 11.3575C13.7575 11.3575 12.6426 10.2425 12.6426 8.86301V2.60789C12.6426 1.22836 13.7575 0.113403 15.1371 0.113403C16.5166 0.113403 17.6316 1.22836 17.6316 2.60789V8.86301Z" fill="#687076"/>
<path d="M17.6316 21.3544C17.6316 19.9748 16.5166 18.8599 15.1371 18.8599H12.6426V21.3544C12.6426 22.7339 13.7575 23.8489 15.1371 23.8489C16.5166 23.8489 17.6316 22.7339 17.6316 21.3544Z" fill="#687076"/>
<path d="M12.6426 15.1181C12.6426 16.4977 13.7575 17.6126 15.1371 17.6126H21.3922C22.7717 17.6126 23.8867 16.4977 23.8867 15.1181C23.8867 13.7386 22.7717 12.6237 21.3922 12.6237H15.1371C13.7575 12.6237 12.6426 13.7386 12.6426 15.1181Z" fill="#687076"/>
</g>
<defs>
<clipPath id="clip0_5922_471">
<rect width="24" height="24" fill="white"/>
</clipPath>
</defs>
</svg>
