<svg width="24" height="24" viewBox="0 0 24 24" fill="none" xmlns="http://www.w3.org/2000/svg">
<g clip-path="url(#clip0_1428_79496)">
<path d="M8.1944 8.6762H6.16727V10.9765H8.35973C8.7438 10.9765 9.06146 10.8851 9.31333 10.7001C9.56266 10.5185 9.6834 10.2176 9.6834 9.805C9.6834 9.57593 9.64353 9.38693 9.563 9.24007C9.47926 9.09327 9.36873 8.97827 9.229 8.89793C9.09033 8.81427 8.93353 8.756 8.75166 8.72493C8.57326 8.6898 8.38593 8.6762 8.1944 8.6762Z" fill="#687076"/>
<path d="M8.52293 12.4557H6.16733L6.16727 15.1655H8.47966C8.69366 15.1655 8.89653 15.1468 9.08733 15.1042C9.2812 15.0616 9.45326 14.9945 9.59806 14.8951C9.743 14.7997 9.86273 14.6683 9.95006 14.502C10.0377 14.3372 10.0798 14.1233 10.0798 13.8643C10.0798 13.3571 9.93673 12.9968 9.6528 12.7781C9.3684 12.5625 8.98933 12.4557 8.52293 12.4557Z" fill="#687076"/>
<path d="M17.5789 11.3887C17.3465 11.1313 16.9521 10.9918 16.4715 10.9918C16.1588 10.9918 15.9003 11.0445 15.6931 11.1517C15.4905 11.2574 15.3241 11.3897 15.1971 11.5447C15.0708 11.7025 14.9848 11.8689 14.9349 12.0467C14.8843 12.2201 14.8547 12.3774 14.8456 12.5164H18.03C17.9833 12.0175 17.8125 11.6481 17.5789 11.3887Z" fill="#687076"/>
<path fill-rule="evenodd" clip-rule="evenodd" d="M0.653961 3.27606C0 4.55953 0 6.23969 0 9.6V14.4C0 17.7603 0 19.4405 0.653961 20.7239C1.2292 21.8529 2.14708 22.7708 3.27606 23.346C4.55953 24 6.23969 24 9.6 24H14.4C17.7603 24 19.4405 24 20.7239 23.346C21.8529 22.7708 22.7708 21.8529 23.346 20.7239C24 19.4405 24 17.7603 24 14.4V9.6C24 6.23969 24 4.55953 23.346 3.27606C22.7708 2.14708 21.8529 1.2292 20.7239 0.653961C19.4405 0 17.7603 0 14.4 0H9.6C6.23969 0 4.55953 0 3.27606 0.653961C2.14708 1.2292 1.2292 2.14708 0.653961 3.27606ZM4 16.8417V7L8.64 7.00007C9.11093 7.00007 9.5358 7.0408 9.92426 7.12487C10.3104 7.20673 10.64 7.34333 10.9184 7.53053C11.1925 7.71813 11.4068 7.96767 11.5605 8.2816C11.7104 8.591 11.7855 8.97793 11.7855 9.43613C11.7855 9.93167 11.6731 10.3455 11.4483 10.6766C11.2215 11.0066 10.8893 11.2777 10.4443 11.4884C11.0501 11.6622 11.4986 11.9687 11.7959 12.4048C12.0949 12.8435 12.2409 13.3687 12.2409 13.9841C12.2409 14.4831 12.1455 14.9131 11.9547 15.2744C11.7618 15.6403 11.4995 15.9369 11.1762 16.1657C10.8504 16.3962 10.4759 16.5661 10.0567 16.6764C9.64213 16.7863 9.21113 16.8417 8.77026 16.8417H4ZM14.4449 8.63133V7.6602H18.4345V8.63133H14.4449ZM15.0443 9.80447C15.4915 9.61127 15.9846 9.5138 16.5306 9.5138C17.1335 9.5138 17.6612 9.63013 18.1137 9.86633C18.5648 10.0995 18.9347 10.4153 19.2251 10.8107C19.5157 11.2057 19.7221 11.6566 19.8513 12.1633C19.9795 12.6686 20.0244 13.1971 19.9876 13.7498H14.8456C14.8456 14.3133 15.0359 14.8463 15.3301 15.1326C15.6232 15.4189 16.0469 15.5634 16.5957 15.5634C16.9906 15.5634 17.3321 15.4631 17.6184 15.2639C17.9017 15.0655 18.0744 14.8533 18.1411 14.6328H19.8644C19.5873 15.4904 19.1671 16.1025 18.5939 16.4711C18.027 16.8414 17.3359 17.0261 16.5306 17.0261C15.9692 17.0261 15.4641 16.9356 15.0104 16.7563C14.5571 16.5754 14.1784 16.3209 13.8597 15.9898C13.5492 15.6573 13.308 15.264 13.136 14.8025C12.9659 14.3428 12.8803 13.8346 12.8803 13.2834C12.8803 12.7505 12.969 12.2527 13.1431 11.7927C13.3208 11.3312 13.5667 10.9329 13.8898 10.5988C14.2135 10.2628 14.5973 9.99807 15.0443 9.80447Z" fill="#687076"/>
</g>
<defs>
<clipPath id="clip0_1428_79496">
<rect width="24" height="24" fill="white"/>
</clipPath>
</defs>
</svg>
