<svg width="24" height="24" viewBox="0 0 24 24" fill="none" xmlns="http://www.w3.org/2000/svg">
<g clip-path="url(#clip0_1427_79316)">
<path d="M9.33335 12C9.33335 13.4727 10.5273 14.6666 12 14.6666C13.4728 14.6666 14.6667 13.4727 14.6667 12C14.6667 10.5272 13.4728 9.3333 12 9.3333C10.5273 9.3333 9.33335 10.5272 9.33335 12Z" fill="url(#paint0_linear_1427_79316)"/>
<path fill-rule="evenodd" clip-rule="evenodd" d="M15.2326 5.48809C14.3891 5.44959 14.136 5.44147 12 5.44147C9.86389 5.44147 9.61086 5.44959 8.76727 5.48809C7.9873 5.52368 7.56371 5.654 7.28181 5.76353C6.9084 5.90865 6.6419 6.08203 6.36193 6.36196C6.082 6.6419 5.90862 6.90843 5.76353 7.28181C5.65397 7.56371 5.52365 7.9873 5.48806 8.76727C5.44956 9.61086 5.44143 9.86389 5.44143 12C5.44143 14.136 5.44956 14.3891 5.48806 15.2326C5.52365 16.0126 5.65397 16.4362 5.76353 16.7181C5.90862 17.0915 6.082 17.358 6.36193 17.6379C6.6419 17.9179 6.9084 18.0913 7.28181 18.2364C7.56371 18.3459 7.9873 18.4763 8.76727 18.5118C9.61077 18.5503 9.86371 18.5585 12 18.5585C14.1362 18.5585 14.3892 18.5503 15.2326 18.5118C16.0126 18.4763 16.4362 18.3459 16.7181 18.2364C17.0915 18.0913 17.358 17.9179 17.6379 17.6379C17.9179 17.358 18.0913 17.0915 18.2364 16.7181C18.3459 16.4362 18.4763 16.0126 18.5118 15.2326C18.5503 14.3891 18.5585 14.136 18.5585 12C18.5585 9.86389 18.5503 9.61086 18.5118 8.76727C18.4763 7.9873 18.3459 7.56371 18.2364 7.28181C18.0913 6.90843 17.9179 6.6419 17.6379 6.36196C17.358 6.08203 17.0915 5.90865 16.7181 5.76353C16.4362 5.654 16.0126 5.52368 15.2326 5.48809ZM7.89192 12C7.89192 9.73112 9.73116 7.89187 12 7.89187C14.2688 7.89187 16.1081 9.73112 16.1081 12C16.1081 14.2688 14.2688 16.108 12 16.108C9.73116 16.108 7.89192 14.2688 7.89192 12ZM17.2304 7.72955C17.2304 8.25977 16.8005 8.68955 16.2704 8.68955C15.7402 8.68955 15.3104 8.25977 15.3104 7.72955C15.3104 7.19937 15.7402 6.76959 16.2704 6.76959C16.8005 6.76959 17.2304 7.19937 17.2304 7.72955Z" fill="url(#paint1_linear_1427_79316)"/>
<path fill-rule="evenodd" clip-rule="evenodd" d="M24 12C24 18.6274 18.6274 24 12 24C5.37258 24 0 18.6274 0 12C0 5.37258 5.37258 0 12 0C18.6274 0 24 5.37258 24 12ZM8.70158 4.04816C9.55486 4.00922 9.8273 4 12 4C14.1726 4 14.445 4.00922 15.2983 4.04816C16.1498 4.087 16.7314 4.22222 17.2402 4.42C17.7663 4.62444 18.2124 4.898 18.6572 5.34275C19.1019 5.78747 19.3755 6.23362 19.5799 6.75968C19.7777 7.26852 19.9129 7.85009 19.9518 8.70158C19.9907 9.55486 19.9999 9.8273 19.9999 12C19.9999 14.1726 19.9907 14.445 19.9518 15.2983C19.9129 16.1498 19.7777 16.7314 19.5799 17.2402C19.3755 17.7663 19.1019 18.2124 18.6572 18.6572C18.2124 19.1019 17.7663 19.3755 17.2402 19.5799C16.7314 19.7777 16.1498 19.9129 15.2983 19.9518C14.445 19.9907 14.1726 19.9999 12 19.9999C9.8273 19.9999 9.55486 19.9907 8.70158 19.9518C7.85009 19.9129 7.26852 19.7777 6.75965 19.5799C6.23359 19.3755 5.78743 19.1019 5.34272 18.6572C4.89797 18.2124 4.6244 17.7663 4.41997 17.2402C4.22219 16.7314 4.08697 16.1498 4.04812 15.2983C4.00919 14.445 4 14.1726 4 12C4 9.8273 4.00919 9.55486 4.04812 8.70158C4.08697 7.85009 4.22219 7.26852 4.41997 6.75968C4.6244 6.23362 4.89797 5.78747 5.34272 5.34275C5.78743 4.898 6.23359 4.62444 6.75965 4.42C7.26852 4.22222 7.85009 4.087 8.70158 4.04816Z" fill="url(#paint2_linear_1427_79316)"/>
</g>
<defs>
<linearGradient id="paint0_linear_1427_79316" x1="14.1005" y1="-1.27165" x2="7.08716" y2="21.8988" gradientUnits="userSpaceOnUse">
<stop stop-color="#515BD4"/>
<stop offset="0.26" stop-color="#9510B8"/>
<stop offset="0.66" stop-color="#E51804"/>
<stop offset="1" stop-color="#FFBF00"/>
</linearGradient>
<linearGradient id="paint1_linear_1427_79316" x1="14.1005" y1="-1.27165" x2="7.08716" y2="21.8988" gradientUnits="userSpaceOnUse">
<stop stop-color="#515BD4"/>
<stop offset="0.26" stop-color="#9510B8"/>
<stop offset="0.66" stop-color="#E51804"/>
<stop offset="1" stop-color="#FFBF00"/>
</linearGradient>
<linearGradient id="paint2_linear_1427_79316" x1="14.1005" y1="-1.27165" x2="7.08716" y2="21.8988" gradientUnits="userSpaceOnUse">
<stop stop-color="#515BD4"/>
<stop offset="0.26" stop-color="#9510B8"/>
<stop offset="0.66" stop-color="#E51804"/>
<stop offset="1" stop-color="#FFBF00"/>
</linearGradient>
<clipPath id="clip0_1427_79316">
<rect width="24" height="24" fill="white"/>
</clipPath>
</defs>
</svg>
