<svg width="24" height="24" viewBox="0 0 24 24" fill="none" xmlns="http://www.w3.org/2000/svg">
<g clip-path="url(#clip0_1428_79930)">
<path d="M23.9766 6.4168C23.8716 8.7548 22.2376 11.9597 19.0826 16.0256C15.8147 20.2726 13.0568 22.3955 10.7928 22.3955C9.3838 22.3955 8.2148 21.1015 7.2398 18.5145L5.3219 11.4007C4.6029 8.8167 3.8339 7.5227 3.0099 7.5227C2.8309 7.5227 2.2039 7.9007 1.129 8.6547L0 7.1977C1.17475 6.16378 2.34178 5.12111 3.501 4.0698C5.08 2.7018 6.266 1.9848 7.0549 1.9108C8.9219 1.7308 10.0709 3.0108 10.5019 5.7488C10.9669 8.7018 11.2909 10.5378 11.4729 11.2557C12.0118 13.7057 12.6038 14.9297 13.2488 14.9297C13.7508 14.9297 14.5048 14.1337 15.5138 12.5447C16.5178 10.9557 17.0538 9.7477 17.1258 8.9167C17.2698 7.5457 16.7308 6.8557 15.5118 6.8557C14.9378 6.8557 14.3448 6.9767 13.7348 7.2467C14.9208 3.3788 17.1688 1.4899 20.4967 1.6099C22.9696 1.6699 24.1246 3.2739 23.9896 6.4068L23.9766 6.4168Z" fill="#687076"/>
</g>
<defs>
<clipPath id="clip0_1428_79930">
<rect width="24" height="24" fill="white"/>
</clipPath>
</defs>
</svg>
