<svg width="24" height="24" viewBox="0 0 24 24" fill="none" xmlns="http://www.w3.org/2000/svg">
<g clip-path="url(#clip0_5922_223)">
<path d="M0 9.6C0 6.23969 0 4.55953 0.653961 3.27606C1.2292 2.14708 2.14708 1.2292 3.27606 0.653961C4.55953 0 6.23969 0 9.6 0H14.4C17.7603 0 19.4405 0 20.7239 0.653961C21.8529 1.2292 22.7708 2.14708 23.346 3.27606C24 4.55953 24 6.23969 24 9.6V14.4C24 17.7603 24 19.4405 23.346 20.7239C22.7708 21.8529 21.8529 22.7708 20.7239 23.346C19.4405 24 17.7603 24 14.4 24H9.6C6.23969 24 4.55953 24 3.27606 23.346C2.14708 22.7708 1.2292 21.8529 0.653961 20.7239C0 19.4405 0 17.7603 0 14.4V9.6Z" fill="#222222"/>
<path d="M4.03 16.0133C4.078 15.9359 4.15467 15.9306 4.262 15.9986C6.686 17.4053 9.32467 18.1093 12.1753 18.1093C14.0767 18.1093 15.954 17.7539 17.8067 17.0459L18.0167 16.9526C18.1087 16.9126 18.1727 16.8859 18.212 16.8659C18.3627 16.8073 18.472 16.8353 18.562 16.9526C18.642 17.0686 18.622 17.1766 18.482 17.2726C18.3113 17.3993 18.082 17.5459 17.8113 17.7086C16.982 18.2039 16.0513 18.5859 15.0213 18.8593C12.6088 19.511 10.0513 19.3763 7.72067 18.4746C6.38986 17.9532 5.16368 17.1967 4.10067 16.2413C4.034 16.1919 4 16.1413 4 16.0946C4 16.0633 4.014 16.0346 4.034 16.0079L4.03 16.0133ZM17.0167 16.2606C17.0367 16.2206 17.0667 16.1873 17.1047 16.1473C17.346 15.9853 17.5807 15.8739 17.8047 15.8139C18.1566 15.7246 18.5166 15.671 18.8793 15.6539C18.9727 15.6459 19.066 15.6539 19.1527 15.6739C19.586 15.7139 19.8527 15.7859 19.934 15.8939C19.976 15.9539 20 16.0459 20 16.1539V16.2539C20 16.5939 19.9007 16.9939 19.7173 17.4539C19.532 17.9139 19.2747 18.2859 18.9467 18.5739C18.898 18.6139 18.8533 18.6339 18.8153 18.6339C18.7953 18.6339 18.7753 18.6339 18.7553 18.6259C18.6953 18.5966 18.684 18.5459 18.7127 18.4659C19.0727 17.6259 19.25 17.0373 19.25 16.7059C19.25 16.6059 19.23 16.5259 19.192 16.4766C19.0953 16.3659 18.8253 16.3053 18.376 16.3053C18.214 16.3053 18.0207 16.3159 17.796 16.3359C17.554 16.3659 17.3293 16.3959 17.1293 16.4259C17.0693 16.4259 17.0307 16.4166 17.0093 16.3966C16.9893 16.3766 16.9853 16.3653 16.996 16.3453C16.996 16.3339 17 16.3253 17.0093 16.3033V16.2633L17.0167 16.2606Z" fill="#FF9900"/>
<path d="M8.40667 11.868C8.40667 11.198 8.57134 10.626 8.90201 10.15C9.23201 9.67662 9.68201 9.31662 10.262 9.07329C10.7927 8.84995 11.4327 8.68995 12.2033 8.59329C12.4633 8.56262 12.892 8.52462 13.4833 8.47729V8.23062C13.4833 7.61062 13.4133 7.19195 13.2833 6.98062C13.082 6.69395 12.7633 6.54729 12.3233 6.54729H12.202C11.882 6.57795 11.6047 6.67795 11.3713 6.85395C11.138 7.03395 10.988 7.27395 10.9213 7.58462C10.8813 7.78462 10.784 7.89462 10.6313 7.92462L8.95134 7.71462C8.78601 7.67462 8.70334 7.59462 8.70334 7.45462C8.70334 7.42395 8.70801 7.39462 8.71801 7.35462C8.88267 6.49462 9.28801 5.85462 9.93134 5.43462C10.582 5.02395 11.3313 4.78462 12.1913 4.73462H12.5513C13.6513 4.73462 14.5227 5.02395 15.1433 5.59462C15.2333 5.69462 15.3233 5.79462 15.4133 5.91462C15.4933 6.02462 15.5627 6.12395 15.602 6.21462C15.652 6.30395 15.702 6.43462 15.732 6.59462C15.772 6.76395 15.802 6.87462 15.822 6.93462C15.842 7.00395 15.8633 7.13462 15.8727 7.34462C15.8793 7.55329 15.886 7.67329 15.886 7.71329V11.2333C15.886 11.484 15.926 11.7133 15.996 11.924C16.066 12.1326 16.136 12.284 16.206 12.3733L16.546 12.8226C16.606 12.9133 16.6367 12.9933 16.6367 13.0626C16.6367 13.1426 16.5967 13.2133 16.5167 13.272C15.7167 13.972 15.2767 14.352 15.208 14.412C15.098 14.502 14.958 14.512 14.788 14.442C14.6646 14.3388 14.5475 14.2284 14.4373 14.1113L14.2307 13.88C14.1576 13.7886 14.0872 13.6952 14.0193 13.6L13.8193 13.31C13.2793 13.9006 12.7507 14.27 12.2193 14.42C11.89 14.52 11.4907 14.5713 10.9993 14.5713C10.2593 14.5713 9.63934 14.3426 9.15934 13.882C8.67934 13.422 8.43934 12.772 8.43934 11.922L8.40601 11.8713L8.40667 11.868ZM10.9087 11.576C10.9087 11.9533 11.002 12.256 11.192 12.4853C11.382 12.712 11.642 12.8266 11.962 12.8266C11.992 12.8266 12.0327 12.822 12.092 12.8133C12.152 12.8026 12.1813 12.798 12.2027 12.798C12.612 12.6913 12.9227 12.4293 13.152 12.0126C13.262 11.826 13.342 11.626 13.392 11.406C13.452 11.1926 13.472 11.0126 13.482 10.8726C13.492 10.7426 13.492 10.5126 13.492 10.2026V9.84262C12.932 9.84262 12.5027 9.88262 12.212 9.96262C11.362 10.2026 10.932 10.7426 10.932 11.5826L10.9087 11.5693V11.576Z" fill="white"/>
</g>
<defs>
<clipPath id="clip0_5922_223">
<rect width="24" height="24" fill="white"/>
</clipPath>
</defs>
</svg>
