<svg width="24" height="24" viewBox="0 0 24 24" fill="none" xmlns="http://www.w3.org/2000/svg">
<g clip-path="url(#clip0_5922_308)">
<path fill-rule="evenodd" clip-rule="evenodd" d="M0.653961 3.27606C0 4.55953 0 6.23969 0 9.6V14.4C0 17.7603 0 19.4405 0.653961 20.7239C1.2292 21.8529 2.14708 22.7708 3.27606 23.346C4.55953 24 6.23969 24 9.6 24H14.4C17.7603 24 19.4405 24 20.7239 23.346C21.8529 22.7708 22.7708 21.8529 23.346 20.7239C24 19.4405 24 17.7603 24 14.4V9.6C24 6.23969 24 4.55953 23.346 3.27606C22.7708 2.14708 21.8529 1.2292 20.7239 0.653961C19.4405 0 17.7603 0 14.4 0H9.6C6.23969 0 4.55953 0 3.27606 0.653961C2.14708 1.2292 1.2292 2.14708 0.653961 3.27606ZM4 20H7.42857V4H4V20ZM14.2946 4C17.4405 4 20 6.56717 20 9.72288C20 12.869 17.4405 15.4286 14.2946 15.4286C11.1388 15.4286 8.5714 12.869 8.5714 9.72288C8.5714 6.56717 11.1388 4 14.2946 4Z" fill="#FF424D"/>
</g>
<defs>
<clipPath id="clip0_5922_308">
<rect width="24" height="24" fill="white"/>
</clipPath>
</defs>
</svg>
