<!--

Sourced from The Wolf Kit https://figma.com/community/file/1203393186896008602
Licensed as CC BY 4.0

https://feathericons.dev/tumblr

-->
<svg xmlns="http://www.w3.org/2000/svg" viewBox="0 0 24 24" width="24" height="24" fill="none">
  <path clip-rule="evenodd" d="M.654 3.276C0 4.56 0 6.24 0 9.6v4.8c0 3.36 0 5.04.654 6.324a6 6 0 0 0 2.622 2.622C4.56 24 6.24 24 9.6 24h4.8c3.36 0 5.04 0 6.324-.654a6 6 0 0 0 2.622-2.622C24 19.44 24 17.76 24 14.4V9.6c0-3.36 0-5.04-.654-6.324A6 6 0 0 0 20.724.654C19.44 0 17.76 0 14.4 0H9.6C6.24 0 4.56 0 3.276.654A6 6 0 0 0 .654 3.276ZM9.187 15.8c0 2.962 1.793 4.2 4.2 4.2h2.672v-3.147h-1.412c-.995 0-1.62-.428-1.62-1.666v-4.13h2.916V8.072h-2.915V4H10.53C10.413 5.793 9.407 7.864 7 8.489v2.568h2.187V15.8Z" fill="#36465D" fill-rule="evenodd" />
</svg>
