<svg width="24" height="24" viewBox="0 0 24 24" fill="none" xmlns="http://www.w3.org/2000/svg">
<g clip-path="url(#clip0_1428_79901)">
<path fill-rule="evenodd" clip-rule="evenodd" d="M0.653961 3.27606C0 4.55953 0 6.23969 0 9.6V14.4C0 17.7603 0 19.4405 0.653961 20.7239C1.2292 21.8529 2.14708 22.7708 3.27606 23.346C4.55953 24 6.23969 24 9.6 24H14.4C17.7603 24 19.4405 24 20.7239 23.346C21.8529 22.7708 22.7708 21.8529 23.346 20.7239C24 19.4405 24 17.7603 24 14.4V9.6C24 6.23969 24 4.55953 23.346 3.27606C22.7708 2.14708 21.8529 1.2292 20.7239 0.653961C19.4405 0 17.7603 0 14.4 0H9.6C6.23969 0 4.55953 0 3.27606 0.653961C2.14708 1.2292 1.2292 2.14708 0.653961 3.27606ZM16.7494 14.3441L19.3621 12.8654C19.5152 12.7788 19.6426 12.6531 19.7312 12.5012C19.8198 12.3493 19.8665 12.1766 19.8665 12.0007C19.8665 11.8248 19.8198 11.6521 19.7312 11.5002C19.6426 11.3483 19.5152 11.2226 19.3621 11.136L16.7681 9.66801L14.4061 12.0154L16.7494 14.3441ZM5.5 4.99463C5.49982 4.86474 5.52519 4.73607 5.57467 4.61596L13.0194 12.0147L5.58267 19.4061C5.53 19.2854 5.5 19.1508 5.5 19.0061V4.99463ZM15.8848 9.16734L13.7127 11.326L6.35268 4.01062C6.57034 3.97827 6.79255 4.02031 6.98335 4.12996L15.8848 9.16734ZM6.37934 19.9928L13.7127 12.704L15.8661 14.8441L6.98335 19.8708C6.78735 19.9821 6.57801 20.0168 6.37934 19.9928Z" fill="#687076"/>
</g>
<defs>
<clipPath id="clip0_1428_79901">
<rect width="24" height="24" fill="white"/>
</clipPath>
</defs>
</svg>
