<svg width="24" height="24" viewBox="0 0 24 24" fill="none" xmlns="http://www.w3.org/2000/svg">
<g clip-path="url(#clip0_1428_79908)">
<path fill-rule="evenodd" clip-rule="evenodd" d="M12 0C5.37258 0 0 5.37258 0 12C0 18.6274 5.37258 24 12 24C18.6274 24 24 18.6274 24 12C24 5.37258 18.6274 0 12 0ZM9.91365 15.3253C9.91365 17.9168 11.4829 19 13.5881 19H15.927V16.2466H14.6916C13.8209 16.2466 13.2744 15.8722 13.2744 14.7889V11.1751H15.825V8.56327H13.2744V5H11.0884C10.9865 6.56915 10.1061 8.38105 8 8.92781V11.1751H9.91365V15.3253Z" fill="#36465D"/>
</g>
<defs>
<clipPath id="clip0_1428_79908">
<rect width="24" height="24" fill="white"/>
</clipPath>
</defs>
</svg>
