<svg width="56" height="32" viewBox="0 0 56 32" fill="none" xmlns="http://www.w3.org/2000/svg">
<rect x="0.5" y="0.5" width="55" height="31" rx="5.5" fill="#687076"/>
<path fill-rule="evenodd" clip-rule="evenodd" d="M15.3089 10.2064C14.8401 10.7845 14.0901 11.2405 13.34 11.1753C13.2462 10.3937 13.6134 9.56323 14.0432 9.0503C14.512 8.45594 15.3324 8.03257 15.9965 8C16.0747 8.81418 15.7699 9.61208 15.3089 10.2064ZM15.9885 11.33C15.3277 11.2904 14.7247 11.5371 14.2377 11.7364C13.9243 11.8646 13.6589 11.9732 13.457 11.9732C13.2304 11.9732 12.954 11.8588 12.6437 11.7303C12.2372 11.562 11.7723 11.3696 11.2849 11.3788C10.1675 11.3951 9.12836 12.0546 8.55798 13.1049C7.38597 15.2055 8.25326 18.3157 9.3862 20.0255C9.94095 20.8722 10.6051 21.8004 11.4802 21.7678C11.8652 21.7527 12.1421 21.6302 12.4287 21.5035C12.7587 21.3576 13.1015 21.206 13.6367 21.206C14.1534 21.206 14.4811 21.3536 14.7958 21.4953C15.095 21.6301 15.3823 21.7595 15.8088 21.7515C16.7152 21.7352 17.2855 20.9048 17.8403 20.058C18.439 19.1492 18.7021 18.2623 18.742 18.1277L18.7467 18.1121C18.7467 18.1121 18.7383 18.1076 18.7253 18.1014C18.5251 18.0059 16.9955 17.2762 16.9808 15.3195C16.9661 13.6771 18.1941 12.845 18.3874 12.714C18.3992 12.706 18.4071 12.7006 18.4107 12.6978C17.6293 11.4928 16.4104 11.3626 15.9885 11.33ZM22.2628 21.662V8.96885H26.8337C29.1933 8.96885 30.8419 10.6624 30.8419 13.1375C30.8419 15.6126 29.1621 17.3224 26.7712 17.3224H24.1537V21.662H22.2628ZM24.1533 10.6298H26.3333C27.9741 10.6298 28.9117 11.5417 28.9117 13.1456C28.9117 14.7496 27.9741 15.6696 26.3254 15.6696H24.1533V10.6298ZM37.0847 20.1395C36.5846 21.1328 35.4829 21.7597 34.2953 21.7597C32.5373 21.7597 31.3106 20.6687 31.3106 19.024C31.3106 17.3957 32.4982 16.4594 34.6938 16.3209L37.0534 16.1744V15.4742C37.0534 14.4402 36.4049 13.8784 35.2485 13.8784C34.2953 13.8784 33.5999 14.3913 33.4592 15.1729H31.7559C31.8106 13.5283 33.2952 12.3315 35.3032 12.3315C37.4675 12.3315 38.8739 13.512 38.8739 15.3439V21.662H37.1237V20.1395H37.0847ZM34.8032 20.2534C33.7953 20.2534 33.1546 19.7487 33.1546 18.9752C33.1546 18.1773 33.7719 17.7132 34.9517 17.6399L37.0535 17.5015V18.218C37.0535 19.4067 36.0846 20.2534 34.8032 20.2534ZM44.6793 22.1586C43.9214 24.3814 43.0541 25.1141 41.2102 25.1141C41.0695 25.1141 40.6007 25.0978 40.4913 25.0653V23.5427C40.6085 23.559 40.8976 23.5753 41.0461 23.5753C41.8821 23.5753 42.3509 23.2089 42.64 22.2563L42.8119 21.6946L39.6084 12.4536H41.5852L43.812 19.9522H43.8511L46.0779 12.4536H48L44.6793 22.1586Z" fill="white"/>
<rect x="0.5" y="0.5" width="55" height="31" rx="5.5" stroke="#687076"/>
</svg>
