<svg width="56" height="32" viewBox="0 0 56 32" fill="none" xmlns="http://www.w3.org/2000/svg">
<rect x="0.5" y="0.5" width="55" height="31" rx="5.5" fill="#687076"/>
<path d="M20.4066 8C21.2205 8 21.8817 8.66125 21.8817 9.47509C21.8817 10.2889 21.2205 10.9502 20.4066 10.9502C19.5928 10.9502 18.9315 10.2889 18.9315 9.47509C18.9315 8.66125 19.5928 8 20.4066 8Z" fill="white"/>
<path d="M7 8.50861V21.2249H9.88477V15.9058H14.6225V21.2249H17.4927V8.50861H14.6225V13.3989H9.88477V8.50861H7Z" fill="white"/>
<path fill-rule="evenodd" clip-rule="evenodd" d="M42.3295 17.5263C42.3659 17.3156 42.424 16.8868 42.424 16.3927C42.424 14.1111 41.2904 11.7858 38.3112 11.7858C35.1067 11.7858 33.6534 14.3727 33.6534 16.7125C33.6534 19.5972 35.4482 21.4138 38.5801 21.4138C39.8226 21.4138 40.978 21.2249 41.9226 20.8471L41.5448 18.9069C40.7745 19.154 39.9752 19.2848 38.9942 19.2848C37.6572 19.2848 36.4873 18.718 36.3929 17.5336H42.3295V17.5263ZM36.3638 15.5644C36.4365 14.7941 36.9306 13.6969 38.1368 13.6969C39.4593 13.6969 39.7572 14.8668 39.7572 15.5644H36.3638Z" fill="white"/>
<path d="M46.2098 21.2249H43.3395V15.0339C43.3395 13.6751 43.3032 12.7886 43.2669 11.9966H45.7374L45.8319 13.6969H45.9046C46.3769 12.3599 47.5105 11.7931 48.397 11.7931C48.6586 11.7931 48.7893 11.7931 49.0001 11.8294V14.5253C48.7966 14.489 48.5496 14.4526 48.2298 14.4526C47.1762 14.4526 46.4568 15.0194 46.2679 15.9059C46.2316 16.0948 46.2098 16.3201 46.2098 16.5454V21.2249Z" fill="white"/>
<path fill-rule="evenodd" clip-rule="evenodd" d="M21.8817 11.9893H18.9315V17.192C18.9315 19.2993 20.3994 21.3194 23.5893 21.3339L23.5888 21.4226C23.5817 22.6124 23.5748 23.7738 23.5748 24.8799H26.525C26.525 23.6955 26.525 22.5111 26.5104 21.3339H27.9056C33.9077 21.3339 33.4717 15.5208 32.2001 13.4934C30.9648 11.5242 27.2952 11.0156 26.1326 13.3408C26.089 12.8903 26.0381 12.4398 25.9873 11.9893H23.5239C23.6039 14.3291 23.6111 16.7415 23.6039 19.0813C22.4194 19.0813 21.8817 18.1585 21.8817 17.192V11.9893ZM27.9056 19.074H26.4668C26.4645 18.9761 26.4605 18.8773 26.4565 18.778C26.4484 18.5754 26.4402 18.3706 26.445 18.1657C26.4435 18.0151 26.4384 17.8499 26.433 17.6748C26.3878 16.2032 26.3213 14.0384 28.1527 14.0384C29.9329 14.0384 30.0056 16.2183 30.0056 17.1848C30.0056 18.1512 29.3516 19.074 27.9056 19.074Z" fill="white"/>
<rect x="0.5" y="0.5" width="55" height="31" rx="5.5" stroke="#687076"/>
</svg>
