<svg width="56" height="32" viewBox="0 0 56 32" fill="none" xmlns="http://www.w3.org/2000/svg">
<path d="M7.61228 13.1512C7.23297 13.1512 7.19556 13.0281 7.19556 12.1303V11.9771C7.19556 11.0763 7.23297 10.9544 7.61228 10.9544H16.2859C16.6666 10.9544 16.704 11.0763 16.704 11.9759V12.1291C16.704 13.0281 16.6659 13.1506 16.2859 13.1506L7.61228 13.1512ZM7.61228 9.1981C7.23297 9.1981 7.19556 9.07554 7.19556 8.17657V8.02337C7.19556 7.12133 7.23297 7 7.61228 7H16.2859C16.6666 7 16.704 7.12256 16.704 8.02337V8.17657C16.704 9.07554 16.6659 9.1981 16.2859 9.1981H7.61228ZM8.91166 20.938C8.91166 19.4502 9.688 18.6321 10.8561 18.6321C11.2971 18.6321 11.6502 18.7522 12.0918 18.9575C12.252 19.0335 12.3845 19.0028 12.5945 18.5377L12.7474 18.2215C12.8984 17.8404 12.9095 17.6829 12.7264 17.5983C12.185 17.3023 11.347 17.1154 10.6232 17.1154C8.56056 17.1154 7 18.6413 7 20.938C7 23.2342 8.56056 24.76 10.6225 24.76C11.347 24.76 12.2041 24.5737 12.7474 24.2759C12.9286 24.1932 12.9168 24.0339 12.7671 23.6527L12.6162 23.3187C12.4062 22.853 12.273 22.8267 12.1115 22.899C11.6699 23.1055 11.2978 23.2256 10.8561 23.2256C9.688 23.2256 8.91363 22.4253 8.91363 20.938H8.91166ZM33.4882 24.4083C33.4882 24.6105 33.4068 24.6657 32.7946 24.6657H32.7335C32.0884 24.6657 31.9985 24.6381 31.948 24.4904C31.9142 24.3902 31.8872 24.288 31.8673 24.1846C31.526 24.5658 31.1146 24.7692 30.4878 24.7692C28.968 24.7692 28.0545 23.7275 28.0545 22.0521C28.0545 20.2413 29.071 19.1689 30.5784 19.1689C31.003 19.1689 31.3941 19.2915 31.696 19.5145V17.1614C31.696 17.0039 31.7157 16.9383 32.5622 16.9383H32.6233C33.4068 16.9383 33.4876 17.0039 33.4876 17.1614L33.4882 24.4083ZM31.6967 20.8357C31.5932 20.7301 31.4672 20.6458 31.3269 20.5882C31.1866 20.5305 31.0349 20.5009 30.8816 20.5011C30.207 20.5011 29.8867 21.0483 29.8867 22.0533C29.8867 22.6293 30.0173 22.9952 30.207 23.187C30.3776 23.3849 30.6401 23.4487 30.8928 23.4487C31.2045 23.4487 31.4453 23.377 31.5569 23.244C31.656 23.1423 31.696 22.9848 31.696 22.622V20.8351L31.6967 20.8357ZM42.6206 24.4451C42.6206 24.6013 42.5399 24.6657 41.7543 24.6657H41.694C40.8487 24.6657 40.831 24.6013 40.831 24.4451V17.1614C40.831 17.0039 40.8487 16.9383 41.6933 16.9383H41.7537C42.5386 16.9383 42.6199 17.0039 42.6199 17.1614L42.6206 24.4451ZM36.318 22.5086C36.4177 23.1686 36.86 23.486 37.555 23.486C38.0898 23.486 38.5906 23.3757 39.1759 23.1423C39.298 23.0963 39.4076 23.1423 39.5369 23.5118L39.6288 23.7189C39.758 24.1001 39.7469 24.1846 39.6078 24.2575C38.9121 24.6197 38.1883 24.768 37.3831 24.768C35.6033 24.768 34.487 23.7569 34.487 22.0257C34.487 20.3424 35.5127 19.1689 37.2735 19.1689C39.0152 19.1689 39.909 20.3234 39.909 21.9228C39.909 22.4535 39.8598 22.5086 39.6583 22.5086H36.318ZM38.1174 21.4773C38.0898 20.9209 37.8483 20.4355 37.2544 20.4355C36.7393 20.4355 36.3665 20.7971 36.2963 21.4773H38.1174ZM45.4083 22.5086C45.5068 23.1686 45.9504 23.486 46.646 23.486C47.1763 23.486 47.6816 23.3757 48.265 23.1423C48.3844 23.0963 48.4973 23.1423 48.6272 23.5118L48.7185 23.7189C48.8478 24.1001 48.8373 24.1846 48.6988 24.2575C48.0032 24.6197 47.278 24.768 46.4721 24.768C44.6917 24.768 43.5768 23.7569 43.5768 22.0257C43.5768 20.3424 44.6005 19.1689 46.3619 19.1689C48.1049 19.1689 49 20.3234 49 21.9228C49 22.4535 48.9495 22.5086 48.748 22.5086H45.4083ZM47.2098 21.4773C47.1769 20.9209 46.9374 20.4355 46.3435 20.4355C45.8303 20.4355 45.4563 20.7971 45.3867 21.4773H47.2098ZM25.1906 20.8725C25.0999 20.7607 24.9829 20.67 24.8486 20.6073C24.7143 20.5446 24.5664 20.5116 24.4162 20.5109C23.7416 20.5109 23.4207 21.0594 23.4207 22.0349C23.4207 22.8622 23.6596 23.4768 24.3946 23.4768C24.6676 23.4768 24.8671 23.4119 25.0095 23.2801C25.1394 23.1515 25.1906 22.9737 25.1906 22.5852V20.8725ZM27.0018 24.4083C27.0018 24.6105 26.9224 24.6657 26.3088 24.6657H26.2262C25.583 24.6657 25.4925 24.6381 25.4426 24.4904C25.4081 24.3904 25.3811 24.2882 25.3619 24.1846C25.0206 24.5658 24.6072 24.7692 23.9824 24.7692C22.5236 24.7692 21.5871 23.7446 21.5871 22.0729C21.5871 20.2131 22.7447 19.1689 24.1137 19.1689C24.6676 19.1689 25.1492 19.3846 25.4117 19.691L25.4426 19.4581C25.4511 19.3478 25.4833 19.2743 26.1448 19.2743H26.2163C26.9014 19.2743 27.0005 19.319 27.0005 19.4888V24.4083H27.0018ZM18.6025 17.7025C19.2758 17.7025 19.3165 17.7104 19.3165 17.9151V19.2731H20.4748C20.6349 19.2731 20.6848 19.3006 20.6848 19.8117V19.8871C20.6848 20.3969 20.6349 20.4264 20.4748 20.4264H19.3165V22.8634C19.3165 23.2716 19.3959 23.486 19.7982 23.486C20.0082 23.486 20.1919 23.4487 20.3731 23.3941C20.5634 23.3261 20.6356 23.4119 20.7655 23.8384L20.7957 23.9407C20.9361 24.4083 20.8948 24.4451 20.7156 24.5272C20.3534 24.6853 19.8691 24.7692 19.4169 24.7692C17.9883 24.7692 17.586 24.1001 17.586 22.9357V20.4264H16.9113C16.7407 20.4264 16.6981 20.3957 16.6981 19.8871V19.8117C16.6981 19.3006 16.7401 19.2743 16.9113 19.2743H17.666C17.7481 18.8374 17.8872 18.2221 17.9784 17.9151C18.0289 17.738 18.0591 17.7025 18.6025 17.7025ZM14.8592 19.2743C15.6448 19.2743 15.7143 19.3374 15.7143 19.4967V24.4451C15.7143 24.6105 15.6448 24.6657 14.8592 24.6657H14.8081C13.9438 24.6657 13.9241 24.6105 13.9241 24.4451V19.4967C13.9241 19.3374 13.9438 19.2743 14.8081 19.2743H14.8592ZM14.8081 16.8556C15.3751 16.8556 15.7859 17.2643 15.7859 17.7288C15.7833 17.8452 15.756 17.96 15.7056 18.0665C15.6551 18.1729 15.5825 18.269 15.4919 18.349C15.3081 18.5114 15.062 18.5996 14.8081 18.5941C14.2476 18.5941 13.8322 18.1854 13.8322 17.7288C13.8322 17.2631 14.2476 16.8556 14.8081 16.8556Z" fill="#EE293D"/>
<rect x="0.5" y="0.5" width="55" height="31" rx="5.5" stroke="#DFE3E6"/>
</svg>
