<svg width="56" height="32" viewBox="0 0 56 32" fill="none" xmlns="http://www.w3.org/2000/svg">
<path d="M28.0004 5C34.0746 5 39.0005 9.92563 39.0005 16C39.0005 17.2142 38.8038 18.382 38.4403 19.4746H35.1505V10.2194L28.0004 17.3696L20.8503 10.2194V19.4746H17.5603C17.1967 18.382 16.9999 17.2142 16.9999 16C16.9999 9.92563 21.9259 5 28.0004 5Z" fill="#FF6600"/>
<path d="M29.6449 19.0133L32.7653 15.8927V21.7164H33.9582H35.151H37.4004C35.4694 24.8844 31.9818 27.0001 28.0009 27.0001C24.02 27.0001 20.5322 24.8844 18.6013 21.7164H20.851H22.9845H23.2363V15.8927L26.3569 19.0133L28.0009 20.6571L29.6447 19.0133H29.6449Z" fill="#4C4C4C"/>
<rect x="0.5" y="0.5" width="55" height="31" rx="5.5" stroke="#DFE3E6"/>
</svg>
