<svg width="56" height="32" viewBox="0 0 56 32" fill="none" xmlns="http://www.w3.org/2000/svg">
<path d="M17.6905 5.00134H26.2176C27.4079 5.00134 28.1482 6.00008 27.8705 7.22946L23.9006 24.7754C23.6204 26.0005 22.4286 27.0001 21.2375 27.0001H12.7112C11.5226 27.0001 10.7806 26.0005 11.0582 24.7754L15.0299 7.22946C15.3076 6.00008 16.4987 5.00134 17.6905 5.00134Z" fill="#E21836"/>
<path d="M25.5073 5H35.3133C36.5034 5 35.9667 5.99874 35.6868 7.22812L31.7174 24.7741C31.4389 25.9992 31.5258 26.9988 30.3332 26.9988H20.5272C19.3346 26.9988 18.5966 25.9992 18.8768 24.7741L22.8459 7.22812C23.1277 5.99874 24.3164 5 25.5073 5Z" fill="#00447C"/>
<path d="M34.9249 5H43.452C44.644 5 45.3843 5.99874 45.1043 7.22812L41.135 24.7741C40.8548 25.9992 39.6622 26.9988 38.4704 26.9988H29.9473C28.7547 26.9988 28.015 25.9992 28.2943 24.7741L32.2643 7.22812C32.542 5.99874 33.7323 5 34.9249 5Z" fill="#007B84"/>
<path d="M19.9169 10.6229C19.04 10.6321 18.7811 10.6229 18.6983 10.6028C18.6665 10.7583 18.0748 13.5682 18.0731 13.5705C17.9457 14.139 17.853 14.5443 17.5382 14.8059C17.3594 14.958 17.1507 15.0314 16.9088 15.0314C16.5199 15.0314 16.2934 14.8327 16.2554 14.4557L16.2481 14.3262C16.2481 14.3262 16.3666 13.5648 16.3666 13.5605C16.3666 13.5605 16.9876 10.9999 17.0988 10.6614C17.1046 10.6422 17.1063 10.6321 17.1077 10.6229C15.8989 10.6338 15.6846 10.6229 15.6699 10.6028C15.6618 10.6304 15.6318 10.7891 15.6318 10.7891L14.9977 13.6752L14.9433 13.9199L14.8379 14.7206C14.8379 14.958 14.8832 15.1519 14.9734 15.3158C15.2623 15.8355 16.0864 15.9133 16.5526 15.9133C17.1532 15.9133 17.7167 15.782 18.0975 15.5421C18.7584 15.1401 18.9313 14.5117 19.0855 13.9533L19.157 13.6668C19.157 13.6668 19.7968 11.0074 19.9055 10.6614C19.9096 10.6422 19.9113 10.6321 19.9169 10.6229ZM22.0936 12.7683C21.9393 12.7683 21.6575 12.8068 21.4044 12.9345C21.3125 12.9831 21.2256 13.0392 21.134 13.095L21.2167 12.7876L21.1714 12.7358C20.6345 12.8477 20.5144 12.8627 20.0185 12.9345L19.9769 12.963C19.9193 13.4545 19.8682 13.824 19.6548 14.79C19.5735 15.146 19.4891 15.5054 19.4045 15.8606L19.4274 15.9057C19.9355 15.8781 20.0898 15.8781 20.5314 15.8856L20.5672 15.8456C20.6233 15.5497 20.6306 15.4804 20.7549 14.8811C20.8133 14.597 20.9351 13.9727 20.9951 13.7504C21.1055 13.6977 21.2144 13.6459 21.3183 13.6459C21.5659 13.6459 21.5357 13.8682 21.5262 13.9568C21.5156 14.1055 21.4254 14.5912 21.3329 15.0082L21.2711 15.2773C21.2281 15.4761 21.1809 15.6693 21.1379 15.8664L21.1566 15.9057C21.6575 15.8781 21.8103 15.8781 22.238 15.8856L22.2883 15.8456C22.3656 15.3835 22.3883 15.2598 22.5255 14.5869L22.5945 14.2778C22.7285 13.6727 22.7959 13.3659 22.6944 13.116C22.5872 12.8359 22.3299 12.7683 22.0936 12.7683ZM24.5251 13.4018C24.2589 13.4544 24.0891 13.4895 23.9203 13.5122C23.753 13.5398 23.5899 13.5648 23.3325 13.6016L23.3122 13.6207L23.2935 13.6359C23.2667 13.8331 23.248 14.0037 23.2124 14.2041C23.1823 14.4115 23.1359 14.647 23.0605 14.9855C23.0021 15.2446 22.9719 15.3349 22.9387 15.426C22.9063 15.5172 22.8705 15.6057 22.8048 15.8606L22.8202 15.8841L22.8331 15.9057C23.0736 15.8939 23.2309 15.8856 23.3926 15.8841C23.5541 15.8781 23.7214 15.8841 23.9804 15.8856L24.003 15.8666L24.0274 15.8456C24.0648 15.6158 24.0704 15.554 24.0932 15.4419C24.1159 15.3216 24.155 15.1552 24.2508 14.7106C24.2961 14.5017 24.3466 14.2936 24.3936 14.0805C24.4424 13.8682 24.4935 13.6592 24.5422 13.4504L24.5349 13.4251L24.5251 13.4018ZM24.5308 12.5477C24.2889 12.4007 23.8643 12.4473 23.5785 12.6504C23.2935 12.8493 23.2611 13.1317 23.5022 13.2807C23.74 13.4236 24.1663 13.381 24.4495 13.1763C24.7339 12.973 24.7694 12.6931 24.5308 12.5477ZM25.9939 15.9518C26.4834 15.9518 26.9851 15.8129 27.3628 15.4008C27.6533 15.0666 27.7865 14.5694 27.8327 14.3647C27.983 13.686 27.8659 13.3691 27.719 13.1761C27.4958 12.882 27.1013 12.7876 26.6921 12.7876C26.446 12.7876 25.8599 12.8126 25.402 13.2472C25.0732 13.5606 24.9212 13.986 24.8296 14.3938C24.7371 14.8093 24.6307 15.5572 25.2989 15.8356C25.5051 15.9267 25.8023 15.9518 25.9939 15.9518ZM25.9557 14.4248C26.0685 13.9109 26.2018 13.4795 26.5418 13.4795C26.8082 13.4795 26.8276 13.8005 26.7091 14.3161C26.6879 14.4306 26.5906 14.8561 26.4591 15.0373C26.3672 15.1711 26.2585 15.2521 26.1384 15.2521C26.1026 15.2521 25.89 15.2521 25.8867 14.9271C25.885 14.7667 25.9168 14.6028 25.9557 14.4248ZM29.0562 15.8857L29.0945 15.8457C29.1487 15.5498 29.1577 15.4802 29.2778 14.8812C29.3379 14.597 29.4622 13.9727 29.5206 13.7504C29.6311 13.6976 29.7382 13.6458 29.8454 13.6458C30.0913 13.6458 30.0614 13.8681 30.0516 13.9567C30.0427 14.1056 29.9525 14.591 29.8583 15.008L29.7999 15.2772C29.7552 15.4762 29.7066 15.6692 29.6636 15.8664L29.6823 15.9058C30.1848 15.8782 30.3318 15.8782 30.762 15.8857L30.814 15.8457C30.8894 15.3833 30.9098 15.2597 31.0511 14.587L31.1184 14.2776C31.2531 13.6725 31.3213 13.3659 31.2215 13.116C31.1112 12.836 30.8522 12.7684 30.6192 12.7684C30.4648 12.7684 30.1815 12.8067 29.9298 12.9346C29.8398 12.9832 29.7496 13.039 29.6611 13.0951L29.7382 12.7876L29.6968 12.7356C29.1602 12.8477 29.0375 12.8627 28.5423 12.9346L28.5042 12.9631C28.4442 13.4545 28.3953 13.8238 28.1819 14.79C28.1006 15.146 28.0162 15.5055 27.9318 15.8606L27.9545 15.9058C28.4635 15.8782 28.6154 15.8782 29.0562 15.8857ZM32.7486 15.9057C32.7802 15.7469 32.9679 14.806 32.9696 14.806C32.9696 14.806 33.1294 14.1155 33.1392 14.0905C33.1392 14.0905 33.1895 14.0186 33.2398 13.9902H33.3138C34.0119 13.9902 34.8003 13.9902 35.4182 13.5222C35.8386 13.2013 36.1261 12.7274 36.2543 12.1514C36.2876 12.0102 36.3121 11.8423 36.3121 11.6743C36.3121 11.4537 36.2691 11.2355 36.1448 11.065C35.8297 10.6112 35.2022 10.6028 34.4779 10.5994C34.4756 10.5994 34.1208 10.6028 34.1208 10.6028C33.1936 10.6146 32.8218 10.6112 32.669 10.5919C32.6562 10.6615 32.6318 10.7851 32.6318 10.7851C32.6318 10.7851 32.2997 12.3697 32.2997 12.3722C32.2997 12.3722 31.5049 15.7412 31.4675 15.8999C32.2771 15.8899 32.609 15.8899 32.7486 15.9057ZM33.3641 13.0909C33.3641 13.0909 33.7172 11.5096 33.7155 11.5156L33.727 11.4345L33.7319 11.3726L33.8731 11.3876C33.8731 11.3876 34.6013 11.452 34.6184 11.4537C34.9058 11.5682 35.0243 11.8632 34.9416 12.2484C34.8661 12.6003 34.6444 12.8962 34.3594 13.0391C34.1248 13.1602 33.8373 13.1703 33.5411 13.1703H33.3495L33.3641 13.0909ZM35.5627 14.4541C35.4694 14.8636 35.3621 15.6116 36.027 15.8781C36.239 15.971 36.429 15.9986 36.6221 15.9885C36.826 15.9772 37.0149 15.8719 37.1899 15.7205C37.1741 15.7827 37.1583 15.845 37.1425 15.9075L37.1726 15.9475C37.6509 15.9267 37.7993 15.9267 38.3174 15.9308L38.3644 15.894C38.44 15.4361 38.5113 14.9915 38.708 14.1156C38.8038 13.696 38.8994 13.2805 38.9977 12.8627L38.9823 12.8167C38.4473 12.9187 38.3043 12.9406 37.7897 13.0157L37.7506 13.0484C37.7454 13.091 37.74 13.1318 37.7351 13.1727C37.655 13.0396 37.5391 12.926 37.3601 12.8552C37.1313 12.7625 36.5938 12.8819 36.1318 13.315C35.8071 13.6241 35.6512 14.0478 35.5627 14.4541ZM36.6863 14.4791C36.8008 13.9744 36.9324 13.5473 37.2732 13.5473C37.4888 13.5473 37.6022 13.7521 37.5792 14.1013C37.5609 14.1883 37.5411 14.2801 37.5176 14.3839C37.4836 14.5339 37.4466 14.6826 37.4106 14.8315C37.374 14.9333 37.3314 15.0294 37.2847 15.0934C37.197 15.2213 36.9883 15.3007 36.8681 15.3007C36.8341 15.3007 36.6237 15.3007 36.6165 14.9815C36.6148 14.8225 36.6466 14.6588 36.6863 14.4791ZM42.5537 12.8126L42.5124 12.764C41.983 12.8744 41.8872 12.892 41.4009 12.9596L41.3651 12.9964C41.3634 13.0024 41.362 13.0116 41.3595 13.0199L41.3578 13.0116C40.9958 13.8715 41.0064 13.686 40.7116 14.3629C40.71 14.3321 40.71 14.3128 40.7083 14.2801L40.6345 12.8126L40.5882 12.764C40.0337 12.8744 40.0206 12.892 39.5085 12.9596L39.4686 12.9964C39.4629 13.0139 39.4629 13.0332 39.4596 13.0541L39.4629 13.0616C39.527 13.3984 39.5116 13.3233 39.5758 13.8548C39.6057 14.1156 39.6456 14.3779 39.6756 14.6355C39.7261 15.0666 39.7543 15.2788 39.8161 15.9368C39.4702 16.5243 39.3883 16.7466 39.0554 17.2622L39.0577 17.2673L38.8232 17.649C38.7964 17.6893 38.7721 17.7169 38.738 17.7286C38.7006 17.7477 38.6519 17.7511 38.5844 17.7511H38.4545L38.2614 18.4122L38.9238 18.424C39.3127 18.4223 39.5571 18.235 39.6887 17.9834L40.1052 17.2487H40.0985L40.1424 17.1969C40.4225 16.576 42.5537 12.8126 42.5537 12.8126ZM35.5627 21.4954H35.2817L36.3217 17.9542H36.6667L36.7763 17.5894L36.7869 17.9951C36.774 18.2459 36.9656 18.4682 37.469 18.4314H38.0512L38.2515 17.7495H38.0325C37.9065 17.7495 37.8481 17.7167 37.8554 17.6466L37.8448 17.2338H36.7667V17.236C36.4181 17.2435 35.3773 17.2704 35.1665 17.3282C34.9115 17.3958 34.6428 17.5948 34.6428 17.5948L34.7484 17.2296H33.7399L33.5298 17.9542L32.4758 21.5495H32.2713L32.0707 22.2265H34.0793L34.012 22.4522H35.0017L35.0674 22.2265H35.3451L35.5627 21.4954ZM34.7386 18.6738C34.5771 18.7198 34.2766 18.8593 34.2766 18.8593L34.5438 17.9542H35.3451L35.1518 18.6136C35.1518 18.6136 34.9042 18.6286 34.7386 18.6738ZM34.754 19.9667C34.754 19.9667 34.5023 19.9992 34.3366 20.0377C34.1735 20.0886 33.8675 20.2491 33.8675 20.2491L34.1435 19.3073H34.9489L34.754 19.9667ZM34.305 21.5037H33.5013L33.7343 20.7089H34.5355L34.305 21.5037ZM36.2406 19.3073H37.3991L37.2326 19.8623H36.0587L35.8825 20.4691H36.9096L36.1319 21.5964C36.0774 21.6792 36.0286 21.7085 35.9743 21.7318C35.9199 21.7603 35.8484 21.7936 35.7657 21.7936H35.4807L35.2849 22.4582H36.0302C36.4177 22.4582 36.6465 22.2768 36.8155 22.0386L37.3488 21.2872L37.4633 22.0502C37.4876 22.1931 37.5874 22.2768 37.6549 22.3093C37.7295 22.3478 37.8067 22.4139 37.9156 22.4237C38.0324 22.4289 38.1168 22.4329 38.1729 22.4329H38.5391L38.759 21.6892H38.6145C38.5316 21.6892 38.3888 21.6749 38.3645 21.6482C38.3402 21.6156 38.3402 21.5656 38.3271 21.4894L38.2109 20.7247H37.7352L37.9438 20.4691H39.1154L39.2956 19.8623H38.2109L38.3799 19.3073H39.4613L39.6618 18.6228H36.4378L36.2406 19.3073ZM26.4558 21.6583L26.7262 20.7323H27.8375L28.0406 20.0436H26.9282L27.098 19.4736H28.185L28.3864 18.8067H25.6666L25.4694 19.4736H26.0873L25.9225 20.0436H25.3029L25.0975 20.744H25.7152L25.3548 21.9691C25.3062 22.1313 25.3777 22.1932 25.423 22.2685C25.4694 22.3419 25.5163 22.3904 25.6219 22.418C25.7308 22.4431 25.8054 22.458 25.9069 22.458H27.1597L27.383 21.6951L26.8276 21.7736C26.7204 21.7736 26.4234 21.7603 26.4558 21.6583ZM26.5832 17.2254L26.3016 17.7494C26.2413 17.8638 26.1871 17.9349 26.1383 17.9676C26.0952 17.9952 26.01 18.0068 25.8866 18.0068H25.7396L25.5432 18.6771H26.0312C26.2659 18.6771 26.4461 18.5885 26.5321 18.5442C26.6246 18.4933 26.6489 18.5224 26.7204 18.4514L26.8852 18.3044H28.4091L28.6114 17.6065H27.4959L27.6906 17.2254H26.5832ZM28.833 21.6717C28.807 21.6332 28.8257 21.5654 28.8654 21.4242L29.2819 20.005H30.7636C30.9796 20.0018 31.1355 19.9993 31.2369 19.9918C31.3458 19.98 31.4643 19.94 31.5933 19.8681C31.7266 19.7928 31.7947 19.7134 31.8523 19.6223C31.9165 19.5313 32.0196 19.3324 32.1082 19.0255L32.6317 17.2296L31.0941 17.2388C31.0941 17.2388 30.6206 17.3107 30.4122 17.3901C30.2018 17.4787 29.9013 17.726 29.9013 17.726L30.0401 17.2337H29.0903L27.7605 21.7736C27.7134 21.9499 27.6818 22.0778 27.6745 22.1546C27.672 22.2374 27.7759 22.3194 27.8433 22.3812C27.9229 22.443 28.0405 22.433 28.1534 22.443C28.272 22.4522 28.4408 22.458 28.6738 22.458H29.4037L29.6278 21.6792L28.9743 21.7428C28.9045 21.7428 28.854 21.7043 28.833 21.6717ZM29.5507 19.0465H31.107L31.0081 19.3657C30.9941 19.3732 30.9609 19.3499 30.8025 19.3692H29.4549L29.5507 19.0465ZM29.8624 17.9759H31.4319L31.319 18.3604C31.319 18.3604 30.5793 18.3529 30.4608 18.3753C29.9396 18.4682 29.6351 18.7549 29.6351 18.7549L29.8624 17.9759ZM31.0429 20.4347C31.03 20.4824 31.0096 20.5115 30.9812 20.5333C30.9496 20.5543 30.8984 20.5618 30.8222 20.5618H30.6004L30.6135 20.173H29.6911L29.6537 22.0736C29.6522 22.2107 29.6651 22.2901 29.7626 22.3537C29.8601 22.433 30.1604 22.4431 30.5647 22.4431H31.1427L31.3513 21.7317L30.8482 21.7602L30.6808 21.7702C30.658 21.7602 30.6362 21.751 30.6118 21.7259C30.5906 21.7043 30.5549 21.7176 30.5607 21.5804L30.5647 21.0933L31.0924 21.0708C31.3773 21.0708 31.4991 20.9754 31.603 20.8844C31.7022 20.7974 31.7346 20.6972 31.772 20.5618L31.8605 20.1305H31.1354L31.0429 20.4347Z" fill="#FEFEFE"/>
<rect x="0.5" y="0.5" width="55" height="31" rx="5.5" stroke="#DFE3E6"/>
</svg>
