<svg width="56" height="32" viewBox="0 0 56 32" fill="none" xmlns="http://www.w3.org/2000/svg">
<rect width="56" height="32" rx="6" fill="black"/>
<path d="M28.0002 5C34.0742 5 39 9.92551 39 15.9997C39 17.2139 38.8033 18.3817 38.4399 19.4742H35.1501V10.2192L28.0002 17.3692L20.8503 10.2192V19.4742H17.5604C17.1968 18.3817 17 17.2139 17 15.9997C17 9.92551 21.9259 5 28.0002 5Z" fill="#FF6600"/>
<path d="M29.6446 19.0128L32.765 15.8923V21.7159H33.9578H35.1506H37.3999C35.469 24.8838 31.9815 26.9994 28.0007 26.9994C24.0199 26.9994 20.5321 24.8838 18.6013 21.7159H20.8509H22.9844H23.2362V15.8923L26.3567 19.0128L28.0007 20.6566L29.6444 19.0128H29.6446Z" fill="#4C4C4C"/>
<rect x="0.5" y="0.5" width="55" height="31" rx="5.5" stroke="black" stroke-opacity="0.14"/>
</svg>
