<svg width="56" height="32" viewBox="0 0 56 32" fill="none" xmlns="http://www.w3.org/2000/svg">
<rect x="0.5" y="0.5" width="55" height="31" rx="5.5" fill="#687076"/>
<g clip-path="url(#clip0_1521_87172)">
<path d="M26.6134 18.8461C27.5982 19.1062 29.7505 19.6747 30.0927 18.2996C30.4433 16.8937 28.356 16.4253 27.3374 16.1968C27.2236 16.1712 27.1231 16.1487 27.0409 16.1282L26.3781 18.785C26.4457 18.8018 26.5248 18.8227 26.6134 18.8461Z" fill="white"/>
<path d="M27.5421 14.9638C28.3631 15.1829 30.1541 15.6609 30.466 14.4111C30.7846 13.1328 29.0439 12.7475 28.1938 12.5593C28.0982 12.5381 28.0138 12.5195 27.945 12.5023L27.3441 14.912C27.4008 14.9261 27.4674 14.9439 27.5421 14.9638Z" fill="white"/>
<path fill-rule="evenodd" clip-rule="evenodd" d="M25.3386 26.6706C31.2322 28.1402 37.2007 24.5538 38.6699 18.6609C40.1391 12.7677 36.5531 6.79812 30.6598 5.32893C24.768 3.85974 18.7994 7.44643 17.3309 13.34C15.8611 19.2326 19.4474 25.2015 25.3386 26.6706ZM30.431 11.6574C31.9548 12.1823 33.0692 12.9691 32.8503 14.4328C32.6918 15.5043 32.0978 16.023 31.3092 16.2048C32.3921 16.7686 32.9431 17.6331 32.4182 19.1319C31.7668 20.9933 30.2192 21.1504 28.1612 20.7609L27.6617 22.7625L26.4548 22.4618L26.9477 20.4869C26.6349 20.4092 26.3152 20.3267 25.9859 20.2374L25.4913 22.2215L24.2857 21.9207L24.7852 19.9153C24.6726 19.8864 24.5592 19.8568 24.445 19.8271C24.2735 19.7823 24.1002 19.7372 23.9248 19.6932L22.3542 19.3017L22.9534 17.9201C22.9534 17.9201 23.8426 18.1566 23.8306 18.1391C24.1723 18.2237 24.3239 18.0009 24.3837 17.8524L25.173 14.6882C25.2026 14.6953 25.2317 14.7026 25.2597 14.7096C25.2735 14.7131 25.2872 14.7165 25.3005 14.7198C25.2524 14.7006 25.2087 14.6882 25.175 14.6796L25.7381 12.4208C25.7529 12.1644 25.6645 11.8409 25.1757 11.7189C25.1946 11.7062 24.2991 11.5009 24.2991 11.5009L24.6202 10.2119L26.2846 10.6275L26.2833 10.6337C26.5335 10.6959 26.7913 10.755 27.054 10.8148L27.5486 8.83276L28.7548 9.13354L28.2701 11.0768C28.594 11.1507 28.9198 11.2253 29.2371 11.3043L29.7184 9.37382L30.9253 9.6746L30.431 11.6574Z" fill="white"/>
</g>
<rect x="0.5" y="0.5" width="55" height="31" rx="5.5" stroke="#687076"/>
<defs>
<clipPath id="clip0_1521_87172">
<rect width="22" height="22" fill="white" transform="translate(17 5)"/>
</clipPath>
</defs>
</svg>
