<svg width="56" height="32" viewBox="0 0 56 32" fill="none" xmlns="http://www.w3.org/2000/svg">
<rect x="0.5" y="0.5" width="55" height="31" rx="5.5" fill="white"/>
<path d="M26.6032 13.238H24.8169L25.1037 11.7674H26.8904L26.6032 13.238Z" fill="#687076"/>
<path d="M26.4183 14.1839H24.6314C24.6314 14.1839 24.0787 17.0209 23.7237 18.8328C23.6918 18.9957 23.6775 19.139 23.6775 19.2649C23.6775 19.9342 24.1148 20.123 24.5914 20.123C24.9188 20.123 25.1625 20.0342 25.2623 19.9979C25.2702 19.995 25.2772 19.9925 25.2832 19.9903L26.4183 14.1839Z" fill="#687076"/>
<path d="M40.4891 15.1897C40.711 14.7589 41.1838 14.0512 42.3729 14.0512C43.5907 14.0512 44.2368 14.8317 44.2368 15.9543C44.2368 16.3442 44.1944 16.6668 44.0795 17.2795L43.5496 19.9903C43.5349 19.9952 43.5196 20.0004 43.5036 20.0059C43.3589 20.0552 43.1601 20.1231 42.8634 20.1231C42.26 20.1231 41.9423 19.837 41.9423 19.2646C41.9423 19.0547 41.9942 18.7931 42.0268 18.6292C42.0305 18.6102 42.0341 18.5925 42.0372 18.5763L42.2911 17.2814C42.298 17.2462 42.3051 17.2105 42.3123 17.1744C42.3652 16.9077 42.4229 16.6177 42.4229 16.3529C42.4229 16.0075 42.1503 15.585 41.5801 15.585C40.8734 15.585 40.2791 16.1314 40.1153 16.9664L39.5249 19.9903L39.5218 19.9915C39.4271 20.0274 39.1751 20.1231 38.8271 20.1231C38.1998 20.1231 37.9186 19.8057 37.9186 19.2426C37.9186 19.0347 37.985 18.7087 38.042 18.429C38.0575 18.3528 38.0723 18.2801 38.0849 18.2141C38.162 17.8105 38.5698 15.7029 38.5698 15.7029C38.683 15.1023 38.7594 14.406 38.771 14.1851H40.5366L40.4681 15.1897H40.4891Z" fill="#687076"/>
<path fill-rule="evenodd" clip-rule="evenodd" d="M31.0812 17.4717C31.0812 18.9576 31.9966 20.1233 33.9096 20.1233C35.9447 20.1233 37.4162 18.8344 37.4162 16.6473C37.4162 15.1877 36.4353 14.0512 34.588 14.0512C32.4589 14.0512 31.0812 15.4329 31.0812 17.4717ZM32.8846 17.4174C32.8846 16.4926 33.4378 15.4553 34.4365 15.4553C35.2923 15.4553 35.6075 16.0331 35.6075 16.6346C35.6075 17.9493 34.9102 18.7195 34.0194 18.7195C33.2314 18.7195 32.8846 18.1973 32.8846 17.4174Z" fill="#687076"/>
<path d="M27.1526 19.2605C27.1526 19.0806 27.1783 18.9342 27.219 18.7252C27.4761 17.4087 27.8331 15.5888 27.8331 15.5888H26.9281L27.2025 14.1839H28.1069L28.2505 13.4505C28.485 12.2471 29.2782 11.5 30.4888 11.5C31.2486 11.5 31.7619 11.6277 31.8733 11.6563L31.6119 12.9923C31.5143 12.9665 31.2334 12.9037 30.8862 12.9037C30.3663 12.9037 30.0657 13.189 29.94 13.838L29.8725 14.184L31.2615 14.1839L30.9873 15.5888L29.5981 15.589L28.7391 19.9903C28.7302 19.9935 28.7196 19.9975 28.7074 20.0021C28.6047 20.0408 28.386 20.1231 28.0544 20.1231C27.5904 20.1231 27.1526 19.9261 27.1526 19.2605Z" fill="#687076"/>
<path d="M21.5232 15.1888C21.7161 14.6841 22.2093 14.0514 23.106 14.0514C23.5621 14.0514 23.824 14.1413 23.8893 14.1643L23.5869 15.713C23.4965 15.6861 23.0655 15.5877 22.6117 15.5877C21.6141 15.5877 21.2702 16.2686 21.0809 17.2985L20.5554 19.9903L20.5535 19.991C20.4396 20.034 20.2044 20.1226 19.8666 20.1226C19.181 20.1226 18.949 19.7468 18.949 19.2696C18.949 19.1407 18.9629 18.9883 18.9944 18.8326C19.1254 18.1816 19.2536 17.5179 19.3826 16.8496C19.4342 16.5827 19.4859 16.315 19.5379 16.0471C19.7179 15.1211 19.7896 14.5322 19.8053 14.1838H21.5717L21.5026 15.1888H21.5232Z" fill="#687076"/>
<path fill-rule="evenodd" clip-rule="evenodd" d="M47.6861 20.1248C49.0487 20.1248 49.8183 19.5055 49.8183 18.698V18.5456C49.7038 18.603 48.9937 18.8281 48.3666 18.8281C46.9594 18.8281 46.609 18.0961 46.6158 17.6738H50.6642C50.7049 17.4853 50.7998 17.0147 50.7998 16.5818C50.7998 14.8216 49.661 14.0527 48.138 14.0527C45.8281 14.0527 44.8817 16.0245 44.8817 17.4732C44.8817 18.9326 45.8027 20.1248 47.6861 20.1248ZM48.1229 15.4553C48.8117 15.4553 49.1165 16.0049 49.0208 16.5373H46.7474C46.9124 16.0392 47.2818 15.4553 48.1229 15.4553Z" fill="#687076"/>
<path fill-rule="evenodd" clip-rule="evenodd" d="M15.4038 20.1248C16.7663 20.1248 17.5359 19.5055 17.5359 18.698V18.5456C17.4214 18.603 16.7113 18.8281 16.0842 18.8281C14.677 18.8281 14.3268 18.0961 14.3336 17.6738H18.3818C18.4227 17.4853 18.5176 17.0147 18.5176 16.5818C18.5176 14.8216 17.3787 14.0527 15.8558 14.0527C13.5457 14.0527 12.5995 16.0245 12.5995 17.4732C12.5995 18.9326 13.5203 20.1248 15.4038 20.1248ZM15.8403 15.4553C16.5291 15.4553 16.8338 16.0049 16.7384 16.5373H14.4648C14.6299 16.0392 14.9992 15.4553 15.8403 15.4553Z" fill="#687076"/>
<path d="M8.59718 12.2082H6.7998V18.4554C6.7998 19.4531 7.30892 20.1179 8.25136 20.1179C9.14207 20.1179 9.53 19.7405 9.82921 19.2804C9.81568 19.2837 9.77463 19.2928 9.70501 19.2928C9.02239 19.2928 8.59718 18.8496 8.59718 17.9814V12.2082Z" fill="#687076"/>
<path d="M9.09787 17.4889C9.09787 17.4211 9.11706 17.3547 9.15321 17.2973L12.3606 12.2082H14.2288C14.2288 12.2082 10.7378 17.8194 10.4521 18.2749C10.2816 18.5468 10.0958 18.7861 9.74862 18.7861C9.40896 18.7861 9.09787 18.5764 9.09787 17.9911V17.4889Z" fill="#687076"/>
<rect x="0.5" y="0.5" width="55" height="31" rx="5.5" stroke="#687076"/>
</svg>
