<svg width="24" height="24" viewBox="0 0 24 24" fill="none" xmlns="http://www.w3.org/2000/svg">
<g clip-path="url(#clip0_5922_493)">
<path fill-rule="evenodd" clip-rule="evenodd" d="M0.653961 3.27606C0 4.55953 0 6.23969 0 9.6V14.4C0 17.7603 0 19.4405 0.653961 20.7239C1.2292 21.8529 2.14708 22.7708 3.27606 23.346C4.55953 24 6.23969 24 9.6 24H14.4C17.7603 24 19.4405 24 20.7239 23.346C21.8529 22.7708 22.7708 21.8529 23.346 20.7239C24 19.4405 24 17.7603 24 14.4V9.6C24 6.23969 24 4.55953 23.346 3.27606C22.7708 2.14708 21.8529 1.2292 20.7239 0.653961C19.4405 0 17.7603 0 14.4 0H9.6C6.23969 0 4.55953 0 3.27606 0.653961C2.14708 1.2292 1.2292 2.14708 0.653961 3.27606ZM16.8118 15.3157C19.1781 12.2663 20.4036 9.86266 20.4823 8.10918L20.4921 8.10168C20.5933 5.75202 19.7271 4.54903 17.8724 4.50403C15.3765 4.41403 13.6905 5.8307 12.801 8.7316C13.2585 8.5291 13.7033 8.43835 14.1338 8.43835C15.048 8.43835 15.4522 8.95585 15.3442 9.98409C15.2902 10.6073 14.8883 11.5133 14.1353 12.7051C13.3785 13.8968 12.813 14.4938 12.4365 14.4938C11.9528 14.4938 11.5088 13.5758 11.1046 11.7383C10.9681 11.1999 10.7251 9.82291 10.3764 7.60818C10.0531 5.5547 9.19137 4.59471 7.79113 4.72971C7.19946 4.78521 6.30997 5.32295 5.12573 6.34894C4.25632 7.13742 3.38106 7.91941 2.5 8.69485L3.34674 9.78759C4.15291 9.2221 4.62316 8.9386 4.75741 8.9386C5.3754 8.9386 5.95215 9.90909 6.49139 11.8471L7.92981 17.1824C8.66105 19.1226 9.53779 20.0931 10.5945 20.0931C12.2925 20.0931 14.3609 18.5009 16.8118 15.3157Z" fill="#687076"/>
</g>
<defs>
<clipPath id="clip0_5922_493">
<rect width="24" height="24" fill="white"/>
</clipPath>
</defs>
</svg>
