<svg xmlns="http://www.w3.org/2000/svg" viewBox="0 0 24 24" width="24" height="24">
  <path fill="#EA4C89" d="M19.682 11.932a7.652 7.652 0 0 0-1.737-4.783c-.166.214-1.455 1.874-4.286 3.026a22.818 22.818 0 0 1 .578 1.283c.031.078.062.156.096.23 2.487-.314 4.956.167 5.323.239l.026.005ZM17.096 6.26A7.67 7.67 0 0 0 12 4.328c-.625 0-1.23.068-1.806.205l.01.013c.245.334 1.619 2.207 2.86 4.487 2.733-1.025 3.895-2.577 4.032-2.773ZM11.58 9.491A48.524 48.524 0 0 0 8.73 5.05a7.723 7.723 0 0 0-4.256 5.378h.02c.43 0 3.556.003 7.086-.937ZM4.308 11.775v.235a7.67 7.67 0 0 0 1.972 5.134c.176-.293 2.284-3.787 6.247-5.066l.15-.043.153-.045c-.196-.439-.4-.878-.625-1.308-3.836 1.152-7.565 1.103-7.897 1.093ZM7.285 18.072A7.633 7.633 0 0 0 12 19.692a7.56 7.56 0 0 0 3.007-.615 31.774 31.774 0 0 0-1.64-5.828.17.17 0 0 1-.025.01.161.161 0 0 0-.024.01c-4.334 1.513-5.896 4.52-6.033 4.803ZM14.792 12.898c1.005 2.763 1.415 5.008 1.493 5.476a7.621 7.621 0 0 0 3.29-5.144c-.264-.088-2.372-.713-4.783-.332Z" />
  <path clip-rule="evenodd" fill="#EA4C89" fill-rule="evenodd" d="M.654 3.276C0 4.56 0 6.24 0 9.6v4.8c0 3.36 0 5.04.654 6.324a6 6 0 0 0 2.622 2.622C4.56 24 6.24 24 9.6 24h4.8c3.36 0 5.04 0 6.324-.654a6 6 0 0 0 2.622-2.622C24 19.44 24 17.76 24 14.4V9.6c0-3.36 0-5.04-.654-6.324A6 6 0 0 0 20.724.654C19.44 0 17.76 0 14.4 0H9.6C6.24 0 4.56 0 3.276.654A6 6 0 0 0 .654 3.276ZM3 12c0-4.969 4.031-9 9-9 4.959 0 9 4.031 9 9s-4.041 9-9 9c-4.969 0-9-4.031-9-9Z" />
</svg>