<svg xmlns="http://www.w3.org/2000/svg" viewBox="0 0 24 24" width="24" height="24">
  <path fill="#222" d="M0 9.6c0-3.36 0-5.04.654-6.324A6 6 0 0 1 3.276.654C4.56 0 6.24 0 9.6 0h4.8c3.36 0 5.04 0 6.324.654a6 6 0 0 1 2.622 2.622C24 4.56 24 6.24 24 9.6v4.8c0 3.36 0 5.04-.654 6.324a6 6 0 0 1-2.622 2.622C19.44 24 17.76 24 14.4 24H9.6c-3.36 0-5.04 0-6.324-.654a6 6 0 0 1-2.622-2.622C0 19.44 0 17.76 0 14.4V9.6Z" />
  <path fill="#0ACF83" d="M9.667 20a2.668 2.668 0 0 0 2.666-2.667v-2.666H9.667a2.668 2.668 0 0 0 0 5.333Z" />
  <path fill="#A259FF" d="M7 12a2.668 2.668 0 0 1 2.667-2.667h2.666v5.334H9.667A2.668 2.668 0 0 1 7 12Z" />
  <path fill="#F24E1E" d="M7 6.667A2.668 2.668 0 0 1 9.667 4h2.666v5.333H9.667A2.668 2.668 0 0 1 7 6.667Z" />
  <path fill="#FF7262" d="M12.333 4H15a2.668 2.668 0 0 1 0 5.333h-2.667V4Z" />
  <path fill="#1ABCFE" d="M17.667 12a2.668 2.668 0 0 1-5.334 0 2.668 2.668 0 0 1 5.334 0Z" />
</svg>