<svg xmlns="http://www.w3.org/2000/svg" viewBox="0 0 24 24" width="24" height="24">
  <path clip-rule="evenodd" fill="#687076" fill-rule="evenodd" d="M8 0C5.792 0 4 1.792 4 4a4.001 4.001 0 0 0 3.99 4A4.002 4.002 0 0 0 4 12c0 2.208 1.792 4 4 4h4v-3.968A4.002 4.002 0 0 0 16 16c2.208 0 4-1.792 4-4a4.001 4.001 0 0 0-3.99-4A4.001 4.001 0 0 0 20 4c0-2.208-1.792-4-4-4H8Zm7.985 8H12v3.968A4.002 4.002 0 0 1 15.985 8Z" />
  <path fill="#687076" d="M8 24c2.208 0 4-1.792 4-4v-4H8c-2.208 0-4 1.792-4 4s1.792 4 4 4Z" />
</svg>