<svg xmlns="http://www.w3.org/2000/svg" viewBox="0 0 24 24" width="24" height="24">
  <path clip-rule="evenodd" fill="#687076" fill-rule="evenodd" d="M12 0C5.373 0 0 5.373 0 12s5.373 12 12 12 12-5.373 12-12S18.627 0 12 0Zm4.343 14.051 2.286-1.294a.869.869 0 0 0 0-1.513L16.36 9.96l-2.066 2.053 2.05 2.038ZM6.5 5.871c0-.114.022-.227.065-.332l6.514 6.474-6.507 6.467a.87.87 0 0 1-.072-.35V5.87Zm9.087 3.65-1.9 1.89-6.44-6.402a.855.855 0 0 1 .55.105l7.79 4.407Zm-8.318 9.473 6.417-6.378 1.884 1.873-7.772 4.398a.852.852 0 0 1-.529.107Z" />
</svg>