<svg xmlns="http://www.w3.org/2000/svg" viewBox="0 0 24 24" width="24" height="24">
  <path clip-rule="evenodd" fill="#0A66C2" fill-rule="evenodd" d="M24 12c0 6.627-5.373 12-12 12S0 18.627 0 12 5.373 0 12 0s12 5.373 12 12ZM5.231 19h2.903V9.653H5.23V19ZM5 6.681c0 .928.753 1.697 1.68 1.697.929 0 1.682-.769 1.682-1.697a1.681 1.681 0 1 0-3.362 0ZM16.1 19H19v-5.134c0-2.513-.54-4.447-3.477-4.447-1.413 0-2.36.775-2.747 1.509h-.04V9.653H9.952V19h2.9v-4.628c0-1.219.23-2.397 1.74-2.397 1.487 0 1.509 1.39 1.509 2.475V19Z" />
</svg>