<svg xmlns="http://www.w3.org/2000/svg" viewBox="0 0 24 24" width="24" height="24">
  <path clip-rule="evenodd" fill="#687076" fill-rule="evenodd" d="M12 0C5.373 0 0 5.373 0 12s5.373 12 12 12 12-5.373 12-12S18.627 0 12 0Zm-.325 15.723a5.1 5.1 0 0 0 1.48-3.608A5.1 5.1 0 0 0 8.078 7 5.1 5.1 0 0 0 3 12.115a5.1 5.1 0 0 0 5.078 5.115 5.1 5.1 0 0 0 3.597-1.507Zm4.51 1.207c1.402 0 2.535-2.16 2.535-4.815 0-2.655-1.133-4.815-2.535-4.815-1.402 0-2.542 2.16-2.542 4.815 0 2.655 1.14 4.815 2.542 4.815Zm3.923-.503c.494 0 .892-1.934.892-4.312 0-2.377-.398-4.313-.892-4.313-.495 0-.893 1.936-.893 4.313s.398 4.312.893 4.312Z" />
</svg>