<svg xmlns="http://www.w3.org/2000/svg" viewBox="0 0 24 24" width="24" height="24">
  <path fill="#222" d="M0 9.6c0-3.36 0-5.04.654-6.324A6 6 0 0 1 3.276.654C4.56 0 6.24 0 9.6 0h4.8c3.36 0 5.04 0 6.324.654a6 6 0 0 1 2.622 2.622C24 4.56 24 6.24 24 9.6v4.8c0 3.36 0 5.04-.654 6.324a6 6 0 0 1-2.622 2.622C19.44 24 17.76 24 14.4 24H9.6c-3.36 0-5.04 0-6.324-.654a6 6 0 0 1-2.622-2.622C0 19.44 0 17.76 0 14.4V9.6Z" />
  <path fill="#FEBA08" d="M12.75 12.746h6v6h-6z" />
  <path fill="#05A6F0" d="M5.25 12.685h6v6h-6z" />
  <path fill="#80BC06" d="M12.75 5.254h6v6h-6z" />
  <path fill="#F25325" d="M5.25 5.254h6v6h-6z" />
</svg>