<svg xmlns="http://www.w3.org/2000/svg" viewBox="0 0 24 24" width="24" height="24">
  <path fill="#687076" d="M8.145 14.273c0 .99 1.198 2.31 3.88 2.31h-.036c2.546 0 3.814-1.232 3.814-2.882 0-1.066-.488-2.197-2.416-2.63l-1.758-.391c-.669-.153-1.438-.356-1.438-.991 0-.636.549-1.078 1.528-1.078 1.16 0 1.578.467 1.923.854.242.272.449.504.853.504.51 0 .969-.304.969-.827 0-1.217-1.948-2.133-3.595-2.133-1.792 0-3.7.763-3.7 2.794 0 .977.349 2.018 2.269 2.501l2.384.597c.723.179.903.585.903.952 0 .611-.606 1.208-1.7 1.208-1.237 0-1.66-.55-2.018-1.016-.261-.34-.488-.636-.974-.636-.514 0-.888.354-.888.864Z" />
  <path clip-rule="evenodd" fill="#687076" fill-rule="evenodd" d="M.654 3.276C0 4.56 0 6.24 0 9.6v4.8c0 3.36 0 5.04.654 6.324a6 6 0 0 0 2.622 2.622C4.56 24 6.24 24 9.6 24h4.8c3.36 0 5.04 0 6.324-.654a6 6 0 0 0 2.622-2.622C24 19.44 24 17.76 24 14.4V9.6c0-3.36 0-5.04-.654-6.324A6 6 0 0 0 20.724.654C19.44 0 17.76 0 14.4 0H9.6C6.24 0 4.56 0 3.276.654A6 6 0 0 0 .654 3.276ZM19.359 13.42l.019-.09.01.019c.37.67.569 1.419.569 2.177a4.456 4.456 0 0 1-1.308 3.166A4.427 4.427 0 0 1 15.493 20a4.427 4.427 0 0 1-2.196-.58l.09-.02-.16-.031.08.041c-.429.08-.879.12-1.318.12a7.383 7.383 0 0 1-2.936-.6 7.55 7.55 0 0 1-2.397-1.627 7.286 7.286 0 0 1-1.618-2.406 7.608 7.608 0 0 1-.475-4.248l.04.077-.027-.16-.013.083A4.473 4.473 0 0 1 4 8.477c0-1.195.465-2.32 1.309-3.166a4.444 4.444 0 0 1 5.253-.785l-.08.017.16.022-.08-.04c.466-.089.949-.136 1.429-.136 1.018 0 2.006.2 2.885.62.899.38 1.697.929 2.397 1.618a7.547 7.547 0 0 1 2.216 5.344c0 .459-.04.918-.12 1.368a.195.195 0 0 0-.02-.041c-.008-.012-.015-.024-.02-.04l.03.16Z" />
</svg>