<svg xmlns="http://www.w3.org/2000/svg" viewBox="0 0 24 24" width="24" height="24">
  <path fill="#E01E5A" d="M5.14 15.118a2.492 2.492 0 0 1-2.494 2.495A2.492 2.492 0 0 1 .15 15.118a2.492 2.492 0 0 1 2.495-2.494H5.14v2.494Zm1.247 0a2.492 2.492 0 0 1 2.495-2.494 2.492 2.492 0 0 1 2.494 2.494v6.236a2.492 2.492 0 0 1-2.494 2.495 2.492 2.492 0 0 1-2.495-2.495v-6.236Z" />
  <path fill="#36C5F0" d="M8.882 5.102a2.492 2.492 0 0 1-2.495-2.494A2.492 2.492 0 0 1 8.882.113a2.492 2.492 0 0 1 2.494 2.495v2.494H8.882Zm0 1.266a2.492 2.492 0 0 1 2.494 2.495 2.492 2.492 0 0 1-2.494 2.495H2.627A2.492 2.492 0 0 1 .132 8.863a2.492 2.492 0 0 1 2.495-2.495h6.255Z" />
  <path fill="#2EB67D" d="M18.879 8.863a2.492 2.492 0 0 1 2.494-2.495 2.492 2.492 0 0 1 2.495 2.495 2.492 2.492 0 0 1-2.495 2.495H18.88V8.863Zm-1.247 0a2.492 2.492 0 0 1-2.495 2.495 2.492 2.492 0 0 1-2.494-2.495V2.608A2.492 2.492 0 0 1 15.137.113a2.492 2.492 0 0 1 2.495 2.495v6.255Z" />
  <path fill="#ECB22E" d="M15.137 18.86a2.492 2.492 0 0 1 2.495 2.494 2.492 2.492 0 0 1-2.495 2.495 2.492 2.492 0 0 1-2.494-2.495V18.86h2.494Zm0-1.247a2.492 2.492 0 0 1-2.494-2.495 2.492 2.492 0 0 1 2.494-2.494h6.255a2.492 2.492 0 0 1 2.495 2.494 2.492 2.492 0 0 1-2.495 2.495h-6.255Z" />
</svg>