<svg xmlns="http://www.w3.org/2000/svg" viewBox="0 0 24 24" width="24" height="24">
  <path d="M0 12C0 5.373 5.373 0 12 0s12 5.373 12 12-5.373 12-12 12S0 18.627 0 12Z" />
  <path fill="#fff" d="M12.3 4.013C13.175 4 14.04 4.007 14.907 4c.053 1.02.42 2.06 1.167 2.78.746.74 1.8 1.08 2.826 1.193v2.687c-.96-.033-1.926-.233-2.8-.647a8.238 8.238 0 0 1-1.08-.62c-.006 1.947.007 3.893-.013 5.833a5.093 5.093 0 0 1-.9 2.627c-.873 1.28-2.386 2.113-3.94 2.14-.953.054-1.906-.206-2.72-.686-1.346-.794-2.293-2.247-2.433-3.807a12.36 12.36 0 0 1-.007-.993 5.003 5.003 0 0 1 1.72-3.307c1.107-.96 2.654-1.42 4.1-1.147.014.987-.027 1.974-.027 2.96-.66-.213-1.433-.153-2.013.247-.42.273-.74.693-.906 1.167-.14.34-.1.713-.094 1.073.16 1.093 1.214 2.013 2.333 1.913.747-.006 1.46-.44 1.847-1.073.127-.22.267-.447.274-.707.066-1.193.04-2.38.046-3.573.007-2.687-.007-5.367.013-8.047Z" />
</svg>