<svg xmlns="http://www.w3.org/2000/svg" viewBox="0 0 24 24" width="24" height="24" fill="none">
  <path fill="#222" d="M0 9.6c0-3.36 0-5.04.654-6.324A6 6 0 0 1 3.276.654C4.56 0 6.24 0 9.6 0h4.8c3.36 0 5.04 0 6.324.654a6 6 0 0 1 2.622 2.622C24 4.56 24 6.24 24 9.6v4.8c0 3.36 0 5.04-.654 6.324a6 6 0 0 1-2.622 2.622C19.44 24 17.76 24 14.4 24H9.6c-3.36 0-5.04 0-6.324-.654a6 6 0 0 1-2.622-2.622C0 19.44 0 17.76 0 14.4V9.6Z" />
  <path fill="#F90" d="M4.03 16.013c.048-.077.125-.082.232-.014 2.424 1.406 5.063 2.11 7.913 2.11 1.902 0 3.779-.355 5.632-1.063l.21-.093c.092-.04.156-.067.195-.087.15-.059.26-.03.35.087.08.116.06.224-.08.32-.17.126-.4.273-.67.436-.83.495-1.76.877-2.79 1.15-2.413.652-4.97.517-7.301-.384A11.92 11.92 0 0 1 4.1 16.24c-.067-.049-.101-.1-.101-.146 0-.032.014-.06.034-.087l-.004.005Zm12.987.248c.02-.04.05-.074.088-.114.241-.162.476-.273.7-.333.352-.09.712-.143 1.074-.16a.887.887 0 0 1 .274.02c.433.04.7.112.781.22.042.06.066.152.066.26v.1c0 .34-.1.74-.283 1.2-.185.46-.442.832-.77 1.12-.049.04-.094.06-.132.06-.02 0-.04 0-.06-.008-.06-.03-.071-.08-.042-.16.36-.84.537-1.429.537-1.76 0-.1-.02-.18-.058-.23-.097-.11-.367-.17-.816-.17-.162 0-.355.01-.58.03-.242.03-.467.06-.667.09-.06 0-.098-.01-.12-.03-.02-.02-.024-.03-.013-.05 0-.012.004-.02.013-.043v-.04l.008-.002Z" />
  <path fill="#fff" d="M8.407 11.868c0-.67.164-1.242.495-1.718a3.05 3.05 0 0 1 1.36-1.077c.53-.223 1.17-.383 1.941-.48.26-.03.689-.068 1.28-.116v-.246c0-.62-.07-1.039-.2-1.25-.201-.287-.52-.434-.96-.434h-.121c-.32.031-.597.131-.83.307-.234.18-.384.42-.45.73-.04.2-.138.31-.29.34l-1.68-.21c-.166-.04-.249-.12-.249-.26 0-.03.005-.06.015-.1.165-.86.57-1.5 1.213-1.92.651-.41 1.4-.65 2.26-.7h.36c1.1 0 1.972.29 2.592.86.09.1.18.2.27.32.08.11.15.21.189.3.05.09.1.22.13.38.04.17.07.28.09.34.02.07.041.2.05.41.007.21.014.33.014.37v3.52c0 .25.04.48.11.69.07.209.14.36.21.45l.34.449c.06.09.09.17.09.24 0 .08-.04.15-.12.209-.8.7-1.24 1.08-1.308 1.14-.11.09-.25.1-.42.03a4.044 4.044 0 0 1-.35-.33l-.207-.232a6.256 6.256 0 0 1-.212-.28l-.2-.29c-.54.59-1.068.96-1.6 1.11-.329.1-.728.151-1.22.151-.74 0-1.36-.228-1.84-.689-.48-.46-.72-1.11-.72-1.96l-.033-.05v-.004Zm2.502-.292c0 .377.093.68.283.91.19.226.45.34.77.34.03 0 .07-.004.13-.013.06-.01.09-.015.11-.015.41-.107.72-.369.95-.785.11-.187.19-.387.24-.607.06-.213.08-.393.09-.533.01-.13.01-.36.01-.67v-.36c-.56 0-.99.04-1.28.12-.85.24-1.28.78-1.28 1.62l-.023-.014v.007Z" />
</svg>
