<svg xmlns="http://www.w3.org/2000/svg" viewBox="0 0 24 24" width="24" height="24" fill="none">
  <path clip-rule="evenodd" fill="#555" fill-rule="evenodd" d="M12 0C5.373 0 0 5.373 0 12s5.373 12 12 12 12-5.373 12-12S18.627 0 12 0Zm4.793 16.764c.29-.414.54-.865.752-1.354.088-.207.17-.423.247-.649a3.188 3.188 0 0 1-.97-.636c-.636-.59-.96-1.333-.97-2.227-.01-1.146.511-2.04 1.564-2.679-.588-.836-1.473-1.3-2.65-1.396-.435-.037-.966.057-1.595.283-.664.244-1.057.367-1.172.367-.155 0-.508-.105-1.058-.311-.551-.206-.995-.31-1.333-.31a3.43 3.43 0 0 0-1.724.486 3.571 3.571 0 0 0-1.275 1.29C6.203 10.306 6 11.115 6 12.053c0 .82.15 1.665.45 2.539.28.809.638 1.518 1.073 2.13.405.573.743.977 1.014 1.213.424.394.848.582 1.274.564.28-.01.647-.106 1.101-.29.454-.183.879-.274 1.275-.274.377 0 .79.091 1.239.274.447.184.832.275 1.15.275.445-.01.86-.193 1.247-.549.25-.216.574-.607.97-1.171ZM14.078 6.739c.51-.605.766-1.259.766-1.959 0-.093-.004-.186-.015-.28-.355.018-.733.126-1.132.32-.4.198-.73.446-.99.744-.519.588-.812 1.307-.812 1.98 0 .092.006.18.017.264.807.066 1.551-.35 2.166-1.069Z" />
</svg>
