<svg xmlns="http://www.w3.org/2000/svg" viewBox="0 0 24 24" width="24" height="24" fill="none">
  <rect fill="#222" height="24" rx="12" width="24" />
  <path fill="#0ACF83" d="M9.663 19a2.334 2.334 0 0 0 2.334-2.333v-2.334H9.663a2.334 2.334 0 0 0 0 4.667Z" />
  <path fill="#A259FF" d="M7.33 12a2.334 2.334 0 0 1 2.333-2.333h2.334v4.666H9.663A2.334 2.334 0 0 1 7.33 12Z" />
  <path fill="#F24E1E" d="M7.33 7.333A2.334 2.334 0 0 1 9.663 5h2.334v4.667H9.663A2.334 2.334 0 0 1 7.33 7.333Z" />
  <path fill="#FF7262" d="M11.997 5h2.333a2.334 2.334 0 0 1 0 4.667h-2.333V5Z" />
  <path fill="#1ABCFE" d="M16.663 12a2.334 2.334 0 1 1-4.668-.002 2.334 2.334 0 0 1 4.668.002Z" />
</svg>
