<svg xmlns="http://www.w3.org/2000/svg" viewBox="0 0 24 24" width="24" height="24" fill="none">
  <path clip-rule="evenodd" fill="#687076" fill-rule="evenodd" d="M24 12c0 6.627-5.373 12-12 12S0 18.627 0 12 5.373 0 12 0s12 5.373 12 12ZM12.16 7.166a4.484 4.484 0 0 1 3.132 1.2l2.33-2.284A7.932 7.932 0 0 0 12.16 4C9.075 4 6.254 5.706 4.868 8.41a7.866 7.866 0 0 0 0 7.184C6.253 18.295 9.075 20 12.16 20c2.201 0 4.057-.708 5.41-1.931l-.002-.001C19.113 16.674 20 14.618 20 12.184c0-.544-.045-1.09-.141-1.625h-7.698v3.08h4.408a3.699 3.699 0 0 1-1.631 2.431v.002c-.731.487-1.675.762-2.774.762-2.13 0-3.934-1.408-4.582-3.3h-.003a4.704 4.704 0 0 1 0-3.064c.645-1.896 2.453-3.304 4.582-3.304Z" />
</svg>
