<svg xmlns="http://www.w3.org/2000/svg" viewBox="0 0 24 24" width="24" height="24" fill="none">
  <path clip-rule="evenodd" fill="#687076" fill-rule="evenodd" d="M.654 3.276C0 4.56 0 6.24 0 9.6v4.8c0 3.36 0 5.04.654 6.324a6 6 0 0 0 2.622 2.622C4.56 24 6.24 24 9.6 24h4.8c3.36 0 5.04 0 6.324-.654a6 6 0 0 0 2.622-2.622C24 19.44 24 17.76 24 14.4V9.6c0-3.36 0-5.04-.654-6.324A6 6 0 0 0 20.724.654C19.44 0 17.76 0 14.4 0H9.6C6.24 0 4.56 0 3.276.654A6 6 0 0 0 .654 3.276Zm16.158 12.04c2.366-3.05 3.592-5.453 3.67-7.207l.01-.007c.101-2.35-.765-3.553-2.62-3.598-2.495-.09-4.181 1.327-5.071 4.228a3.265 3.265 0 0 1 1.333-.294c.914 0 1.318.518 1.21 1.546-.054.623-.456 1.53-1.209 2.721-.756 1.192-1.322 1.789-1.698 1.789-.484 0-.928-.918-1.332-2.756-.137-.538-.38-1.915-.729-4.13-.323-2.053-1.185-3.013-2.585-2.878-.592.055-1.481.593-2.665 1.619-.87.788-1.745 1.57-2.626 2.346l.847 1.093c.806-.566 1.276-.85 1.41-.85.618 0 1.195.971 1.734 2.91l1.439 5.334c.731 1.94 1.608 2.911 2.665 2.911 1.697 0 3.766-1.592 6.217-4.777Z" />
</svg>
