<svg width="24" height="24" viewBox="0 0 24 24" fill="none" xmlns="http://www.w3.org/2000/svg">
<path fill-rule="evenodd" clip-rule="evenodd" d="M7.35289 9.22499C6.85689 9.93899 6.60989 10.797 6.60989 11.802L6.60889 11.807L6.65889 11.883C6.65889 13.158 7.01889 14.133 7.73889 14.823C8.45889 15.514 9.38889 15.857 10.4989 15.857C11.2359 15.857 11.8349 15.78 12.3289 15.63C13.1259 15.405 13.9189 14.851 14.7289 13.965L15.0289 14.4C15.1306 14.5429 15.2363 14.683 15.3459 14.82L15.6559 15.167C15.8212 15.3426 15.9968 15.5083 16.1819 15.663C16.4369 15.768 16.6469 15.753 16.8119 15.618C16.8337 15.5989 16.8805 15.5584 16.9521 15.4963C17.2186 15.2651 17.829 14.7357 18.7749 13.908C18.8949 13.82 18.9549 13.714 18.9549 13.594C18.9549 13.49 18.9089 13.37 18.8189 13.234L18.3089 12.56C18.2039 12.426 18.0989 12.199 17.9939 11.886C17.8889 11.57 17.8289 11.226 17.8289 10.85V5.56999C17.8289 5.54102 17.8266 5.48407 17.823 5.39768C17.8192 5.30516 17.8141 5.17886 17.8089 5.01699C17.7949 4.70199 17.7629 4.50599 17.7329 4.40199C17.7029 4.31199 17.6579 4.14599 17.5979 3.89199C17.5529 3.65199 17.4779 3.45599 17.4029 3.32199C17.3439 3.18599 17.2399 3.03699 17.1199 2.87199C16.9849 2.692 16.8499 2.54201 16.7149 2.39202C15.7839 1.53602 14.4769 1.10199 12.8269 1.10199H12.2869C10.9969 1.17699 9.87289 1.53599 8.89689 2.15199C7.93189 2.78199 7.32389 3.74199 7.07689 5.03199C7.06189 5.09199 7.05489 5.13599 7.05489 5.18199C7.05489 5.39199 7.17889 5.51199 7.42689 5.57199L9.94689 5.88699C10.1759 5.84199 10.3219 5.67699 10.3819 5.37699C10.4819 4.91099 10.7069 4.55099 11.0569 4.28099C11.4069 4.01699 11.8229 3.86699 12.3029 3.82099H12.4849C13.1449 3.82099 13.6229 4.04099 13.9249 4.47099C14.1199 4.78799 14.2249 5.41599 14.2249 6.34599V6.71599C13.3379 6.78699 12.6949 6.84399 12.3049 6.88999C11.1489 7.03499 10.1889 7.27499 9.39289 7.60999C8.52289 7.97499 7.84789 8.51499 7.35289 9.22499ZM10.7879 12.728C10.5029 12.384 10.3629 11.93 10.3629 11.364V11.354L10.3979 11.374C10.3979 10.114 11.0429 9.30399 12.3179 8.94399C12.7539 8.82399 13.3979 8.76399 14.2379 8.76399V9.30399C14.2379 9.76899 14.2379 10.114 14.2229 10.309C14.2079 10.519 14.1779 10.789 14.0879 11.109C14.0129 11.439 13.8929 11.739 13.7279 12.019C13.3839 12.644 12.9179 13.037 12.3039 13.197C12.2719 13.197 12.2279 13.204 12.1379 13.22C12.0489 13.233 11.9879 13.24 11.9429 13.24C11.4629 13.24 11.0729 13.068 10.7879 12.728Z" fill="#687076"/>
<path d="M0.393 17.998C0.232 17.896 0.117 17.904 0.045 18.02L0.0509656 18.0121C0.0209839 18.052 0 18.095 0 18.142C0 18.212 0.051 18.288 0.151 18.362C1.74552 19.7952 3.58479 20.9299 5.581 21.712C9.07699 23.0645 12.9132 23.2666 16.532 22.289C18.077 21.879 19.473 21.306 20.717 20.563C21.123 20.319 21.467 20.099 21.723 19.909C21.933 19.765 21.963 19.603 21.843 19.429C21.708 19.253 21.544 19.211 21.318 19.299C21.2731 19.3218 21.2068 19.3505 21.1168 19.3893C21.0886 19.4015 21.058 19.4147 21.025 19.429L20.71 19.569C17.931 20.631 15.115 21.164 12.263 21.164C7.987 21.164 4.029 20.108 0.393 17.998Z" fill="#687076"/>
<path d="M19.657 18.221C19.6 18.281 19.555 18.331 19.525 18.391L19.514 18.395V18.455L19.5115 18.4609C19.4993 18.4896 19.494 18.5021 19.494 18.518C19.478 18.548 19.484 18.565 19.514 18.595C19.546 18.625 19.604 18.639 19.694 18.639C19.994 18.594 20.331 18.549 20.694 18.504C21.031 18.474 21.321 18.458 21.564 18.458C22.238 18.458 22.643 18.549 22.788 18.715C22.845 18.789 22.875 18.909 22.875 19.059C22.875 19.556 22.609 20.439 22.069 21.699C22.026 21.819 22.043 21.895 22.133 21.939C22.163 21.951 22.193 21.951 22.223 21.951C22.28 21.951 22.347 21.921 22.42 21.861C22.912 21.429 23.298 20.871 23.576 20.181C23.851 19.491 24 18.891 24 18.381V18.231C24 18.069 23.964 17.931 23.901 17.841C23.779 17.679 23.379 17.571 22.729 17.511C22.599 17.481 22.459 17.469 22.319 17.481C21.775 17.5066 21.2349 17.587 20.707 17.721C20.371 17.811 20.019 17.978 19.657 18.221Z" fill="#687076"/>
</svg>
