<svg width="24" height="24" viewBox="0 0 24 24" fill="none" xmlns="http://www.w3.org/2000/svg">
<g clip-path="url(#clip0_1428_79331)">
<path d="M7.90873 12.7059C7.90873 13.5948 8.55833 14.3186 9.34666 14.3186C10.1476 14.3186 10.7846 13.5948 10.7846 12.706C10.7972 11.8234 10.1539 11.0933 9.34673 11.0933C8.54573 11.0933 7.90873 11.8171 7.90873 12.7059Z" fill="#5865F2"/>
<path d="M13.2253 12.7059C13.2253 13.5948 13.8749 14.3186 14.6632 14.3186C15.4704 14.3186 16.1011 13.5948 16.1011 12.706C16.1137 11.8234 15.4704 11.0933 14.6632 11.0933C13.8622 11.0933 13.2253 11.8171 13.2253 12.7059Z" fill="#5865F2"/>
<path fill-rule="evenodd" clip-rule="evenodd" d="M12 0C5.37258 0 0 5.37258 0 12C0 18.6274 5.37258 24 12 24C18.6274 24 24 18.6274 24 12C24 5.37258 18.6274 0 12 0ZM14.2879 6.00085C15.4126 6.19528 16.5073 6.53483 17.5447 7.01099C17.5536 7.01465 17.561 7.02135 17.5655 7.02999C19.3723 9.68765 20.2647 12.6856 19.9311 16.1369C19.9305 16.1442 19.9282 16.1512 19.9246 16.1576C19.9211 16.1639 19.9161 16.1694 19.9102 16.1737C18.5417 17.1787 17.2161 17.7888 15.9087 18.1933C15.8985 18.1964 15.8877 18.1963 15.8776 18.1928C15.8675 18.1894 15.8588 18.1829 15.8526 18.1742C15.5505 17.754 15.2762 17.3108 15.0359 16.8454C15.0326 16.8391 15.0307 16.832 15.0303 16.8249C15.0299 16.8177 15.031 16.8105 15.0336 16.8038C15.0361 16.7971 15.0401 16.791 15.0452 16.7859C15.0502 16.7808 15.0563 16.7769 15.0631 16.7743C15.4953 16.6117 15.913 16.4129 16.3117 16.18C16.3189 16.1757 16.325 16.1697 16.3293 16.1625C16.3336 16.1552 16.3361 16.1471 16.3366 16.1387C16.337 16.1303 16.3354 16.1219 16.3318 16.1143C16.3282 16.1067 16.3228 16.1 16.3161 16.095C16.2316 16.0321 16.1477 15.966 16.0676 15.9C16.0604 15.8941 16.0516 15.8904 16.0423 15.8893C16.0331 15.8882 16.0237 15.8897 16.0153 15.8937C13.4277 17.0892 10.5929 17.0892 7.97433 15.8937C7.96591 15.8899 7.95661 15.8886 7.94747 15.8898C7.93833 15.8911 7.92971 15.8948 7.9226 15.9007C7.84253 15.9668 7.7586 16.0321 7.67473 16.095C7.66802 16.1001 7.66267 16.1068 7.65915 16.1144C7.65563 16.1221 7.65405 16.1305 7.65455 16.1389C7.65505 16.1473 7.65762 16.1555 7.66202 16.1627C7.66642 16.1698 7.67253 16.1758 7.6798 16.1801C8.0784 16.4086 8.49273 16.6099 8.92793 16.775C8.93464 16.7774 8.94076 16.7813 8.94588 16.7863C8.951 16.7913 8.955 16.7973 8.95761 16.804C8.96024 16.8106 8.96142 16.8178 8.96108 16.8249C8.96074 16.8321 8.9589 16.8391 8.95566 16.8454C8.7204 17.3114 8.44606 17.7546 8.13833 18.1749C8.13196 18.1833 8.12318 18.1896 8.11314 18.1929C8.10311 18.1962 8.09231 18.1963 8.0822 18.1933C6.78113 17.7889 5.45547 17.1788 4.08694 16.1737C4.08114 16.1692 4.07632 16.1635 4.07274 16.1571C4.06917 16.1507 4.06692 16.1436 4.06614 16.1363C3.78734 13.151 4.3556 10.1283 6.42987 7.02939C6.43492 7.02116 6.44239 7.01471 6.45127 7.01092C7.48846 6.53441 8.58325 6.1949 9.70806 6.00092C9.71825 5.99929 9.7287 6.00078 9.73803 6.00518C9.74737 6.00958 9.75516 6.01669 9.7604 6.02559C9.90166 6.27579 10.0631 6.59639 10.1722 6.85859C11.3767 6.67445 12.6003 6.67445 13.8301 6.85859C13.9391 6.60212 14.0949 6.27579 14.2356 6.02559C14.2406 6.01648 14.2484 6.00919 14.2578 6.00475C14.2671 6.00031 14.2777 5.99895 14.2879 6.00085Z" fill="#5865F2"/>
</g>
<defs>
<clipPath id="clip0_1428_79331">
<rect width="24" height="24" fill="white"/>
</clipPath>
</defs>
</svg>
