<svg width="24" height="24" viewBox="0 0 24 24" fill="none" xmlns="http://www.w3.org/2000/svg">
<g clip-path="url(#clip0_1428_79319)">
<path fill-rule="evenodd" clip-rule="evenodd" d="M12 0C5.37258 0 0 5.37258 0 12C0 18.6274 5.37258 24 12 24C18.6274 24 24 18.6274 24 12C24 5.37258 18.6274 0 12 0ZM2 12C2 6.4775 6.475 2 12 2C17.5225 2 22 6.4775 22 12C22 16.4125 19.1375 20.1625 15.1367 21.4742C14.6242 21.5742 14.4492 21.2617 14.4492 20.9992C14.4492 20.8919 14.4505 20.7029 14.4524 20.4496C14.4561 19.9357 14.4617 19.1574 14.4617 18.2608C14.4617 17.3242 14.1367 16.7108 13.7867 16.4108C16.0117 16.165 18.3492 15.3192 18.3492 11.4775C18.3492 10.3858 17.9617 9.49417 17.3242 8.79417C17.4242 8.54167 17.7617 7.525 17.2242 6.1475C17.2242 6.1475 16.3867 5.87917 14.4867 7.1725C13.6867 6.95 12.8367 6.84 11.9867 6.835C11.1367 6.84 10.2867 6.95 9.48667 7.1725C7.57417 5.87917 6.73667 6.1475 6.73667 6.1475C6.19917 7.525 6.53667 8.54167 6.64917 8.79417C6.0075 9.49417 5.62 10.3858 5.62 11.4775C5.62 15.3092 7.95417 16.1692 10.175 16.4192C9.88917 16.6692 9.63167 17.11 9.54167 17.7567C8.97 18.0125 7.52083 18.4542 6.62917 16.925C6.62917 16.925 6.10167 15.965 5.0975 15.895C5.0975 15.895 4.12167 15.8825 5.0275 16.5025C5.0275 16.5025 5.685 16.8108 6.14 17.965C6.14 17.965 6.72667 19.91 9.50833 19.3067C9.51065 19.7695 9.51425 20.1693 9.51699 20.474C9.51919 20.718 9.52083 20.9011 9.52083 21.0067C9.52083 21.2725 9.3375 21.5817 8.8375 21.4875C4.865 20.1667 2 16.4192 2 12Z" fill="#333333"/>
</g>
<defs>
<clipPath id="clip0_1428_79319">
<rect width="24" height="24" fill="white"/>
</clipPath>
</defs>
</svg>
