<svg width="24" height="24" viewBox="0 0 24 24" fill="none" xmlns="http://www.w3.org/2000/svg">
<path d="M22.0181 13.298L18.0991 15.516L14.5841 12.023L18.1271 8.502L22.0181 10.704C22.2477 10.8339 22.4388 11.0223 22.5717 11.2502C22.7046 11.4781 22.7747 11.7372 22.7747 12.001C22.7747 12.2648 22.7046 12.5239 22.5717 12.7518C22.4388 12.9796 22.2477 13.1681 22.0181 13.298ZM1.3371 0.923997C1.26289 1.10416 1.22483 1.29715 1.2251 1.492V22.509C1.2251 22.726 1.2701 22.928 1.3491 23.109L12.5041 12.022L1.3371 0.923997ZM13.5441 10.989L16.8021 7.751L3.4501 0.194997C3.16391 0.0305329 2.83059 -0.0325367 2.5041 0.0159975L13.5441 10.989V10.989ZM13.5441 13.056L2.5441 23.989C2.8421 24.025 3.1561 23.973 3.4501 23.806L16.7741 16.266L13.5441 13.056V13.056Z" fill="#687076"/>
</svg>
