<svg width="24" height="24" viewBox="0 0 24 24" fill="none" xmlns="http://www.w3.org/2000/svg">
<g clip-path="url(#clip0_1428_79915)">
<path fill-rule="evenodd" clip-rule="evenodd" d="M12 0C5.37258 0 0 5.37258 0 12C0 18.6274 5.37258 24 12 24C18.6274 24 24 18.6274 24 12C24 5.37258 18.6274 0 12 0ZM5 19H8V5H5V19ZM14.0077 5C16.7604 5 18.9999 7.24628 18.9999 10.0075C18.9999 12.7604 16.7604 15 14.0077 15C11.2463 15 8.99988 12.7604 8.99988 10.0075C8.99988 7.24628 11.2463 5 14.0077 5Z" fill="#687076"/>
</g>
<defs>
<clipPath id="clip0_1428_79915">
<rect width="24" height="24" fill="white"/>
</clipPath>
</defs>
</svg>
