<svg width="24" height="24" viewBox="0 0 24 24" fill="none" xmlns="http://www.w3.org/2000/svg">
<g clip-path="url(#clip0_1427_79306)">
<path fill-rule="evenodd" clip-rule="evenodd" d="M0.653961 3.27606C0 4.55953 0 6.23969 0 9.6V14.4C0 17.7603 0 19.4405 0.653961 20.7239C1.2292 21.8529 2.14708 22.7708 3.27606 23.346C4.55953 24 6.23969 24 9.6 24H14.4C17.7603 24 19.4405 24 20.7239 23.346C21.8529 22.7708 22.7708 21.8529 23.346 20.7239C24 19.4405 24 17.7603 24 14.4V9.6C24 6.23969 24 4.55953 23.346 3.27606C22.7708 2.14708 21.8529 1.2292 20.7239 0.653961C19.4405 0 17.7603 0 14.4 0H9.6C6.23969 0 4.55953 0 3.27606 0.653961C2.14708 1.2292 1.2292 2.14708 0.653961 3.27606ZM4.5 9.97571C4.5 6.33708 7.26192 3 12.4552 3C16.6347 3 19.8823 5.84666 19.8952 9.6516C19.8952 13.6205 17.2733 16.8185 13.6445 16.8185C12.4246 16.8185 11.2793 16.2164 10.8826 15.4978C10.8826 15.4978 10.2796 17.6983 10.1328 18.2411C9.72888 19.7302 8.28877 21.7908 8.17147 21.9451C8.09812 22.0411 7.96669 22.0045 7.94417 21.8868C7.90744 21.6743 7.48215 19.2029 7.85653 17.6769C8.07807 16.7756 9.26952 11.9495 9.26952 11.9495C9.26952 11.9495 8.90931 11.2607 8.90931 10.2405C8.90931 8.63499 9.88656 7.43914 11.0909 7.43914C12.1119 7.43914 12.6116 8.17281 12.6116 9.06016C12.6116 9.68748 12.3453 10.5102 12.0644 11.3781C11.9024 11.8786 11.7355 12.3942 11.6121 12.8959C11.3325 14.0478 12.2138 14.9789 13.397 14.9789C15.5345 14.9789 17.1797 12.8222 17.1797 9.70493C17.1797 6.94634 15.1083 5.01772 12.1474 5.01772C8.72339 5.01772 6.71119 7.48182 6.71119 10.0195C6.71119 11.0099 7.10785 12.0657 7.60779 12.6451C7.7025 12.7557 7.71779 12.8578 7.6884 12.9754C7.64993 13.1224 7.59513 13.3353 7.54036 13.5481C7.45836 13.8666 7.37644 14.1849 7.34944 14.2817C7.29865 14.4943 7.17432 14.5382 6.94571 14.4351C5.4404 13.7674 4.5 11.6632 4.5 9.97571Z" fill="#687076"/>
</g>
<defs>
<clipPath id="clip0_1427_79306">
<rect width="24" height="24" fill="white"/>
</clipPath>
</defs>
</svg>
