<svg width="24" height="24" viewBox="0 0 24 24" fill="none" xmlns="http://www.w3.org/2000/svg">
<g clip-path="url(#clip0_1428_79893)">
<path d="M8.62658 13.9892C8.62658 14.8554 9.67483 16.0098 12.0216 16.0098L11.9901 16.0104C14.2184 16.0104 15.3279 14.9324 15.3279 13.4881C15.3279 12.5559 14.9003 11.566 13.2139 11.1874L11.6757 10.845C11.09 10.7114 10.4174 10.5335 10.4174 9.97758C10.4174 9.42167 10.8975 9.03433 11.7544 9.03433C12.7699 9.03433 13.1349 9.44368 13.4365 9.78185C13.6487 10.0198 13.8295 10.2226 14.1834 10.2226C14.6297 10.2226 15.031 9.95658 15.031 9.49925C15.031 8.43408 13.3265 7.63317 11.8851 7.63317C10.3171 7.63317 8.64817 8.3005 8.64817 10.0779C8.64817 10.9325 8.95325 11.8437 10.6333 12.266L12.7193 12.7881C13.3522 12.945 13.5091 13.3002 13.5091 13.6217C13.5091 14.156 12.9788 14.6781 12.0216 14.6781C10.9392 14.6781 10.5692 14.1965 10.2564 13.7894C10.0274 13.4913 9.82901 13.2332 9.40417 13.2332C8.95383 13.2332 8.62658 13.5429 8.62658 13.9892Z" fill="#00AFF0"/>
<path fill-rule="evenodd" clip-rule="evenodd" d="M12 0C5.37258 0 0 5.37258 0 12C0 18.6274 5.37258 24 12 24C18.6274 24 24 18.6274 24 12C24 5.37258 18.6274 0 12 0ZM18.4388 13.2413L18.4558 13.1626L18.4645 13.1795C18.7877 13.7652 18.9621 14.4208 18.9621 15.0847C18.9621 16.1335 18.552 17.1205 17.8176 17.8549C17.0744 18.5975 16.0968 19 15.0567 19C14.3753 19 13.7197 18.8238 13.1352 18.4919L13.2139 18.4744L13.0739 18.4476L13.1433 18.4837C12.7683 18.5532 12.3745 18.5882 11.9901 18.5882C11.0993 18.5882 10.2343 18.4143 9.42108 18.0643C8.63475 17.7231 7.92717 17.2523 7.324 16.6398C6.71208 16.0373 6.23958 15.3291 5.90825 14.5346C5.56758 13.7185 5.39258 12.8511 5.39258 11.9586C5.39258 11.5759 5.42642 11.1944 5.49292 10.8182L5.52792 10.8853L5.504 10.7458L5.49292 10.8182C5.17092 10.2389 5 9.58442 5 8.91767C5 7.87175 5.40658 6.88708 6.14508 6.14742C6.88358 5.40717 7.86417 5 8.90775 5C9.54825 5 10.1788 5.15983 10.7412 5.46083L10.6718 5.47542L10.8112 5.49467L10.7418 5.45967C11.1495 5.3815 11.5718 5.34067 11.9918 5.34067C12.8826 5.34067 13.7477 5.51508 14.5165 5.88317C15.3028 6.21567 16.0017 6.69575 16.6136 7.29833C17.2156 7.9015 17.6974 8.60967 18.0293 9.396C18.3776 10.2173 18.5532 11.0824 18.5532 11.9743C18.5532 12.3762 18.5176 12.7776 18.4476 13.1713C18.4432 13.1577 18.4366 13.1467 18.4301 13.1357C18.4238 13.125 18.4175 13.1143 18.4132 13.1013L18.4388 13.2413Z" fill="#00AFF0"/>
</g>
<defs>
<clipPath id="clip0_1428_79893">
<rect width="24" height="24" fill="white"/>
</clipPath>
</defs>
</svg>
