<svg width="24" height="24" viewBox="0 0 24 24" fill="none" xmlns="http://www.w3.org/2000/svg">
<g clip-path="url(#clip0_1428_79907)">
<path fill-rule="evenodd" clip-rule="evenodd" d="M0.653961 3.27606C0 4.55953 0 6.23969 0 9.6V14.4C0 17.7603 0 19.4405 0.653961 20.7239C1.2292 21.8529 2.14708 22.7708 3.27606 23.346C4.55953 24 6.23969 24 9.6 24H14.4C17.7603 24 19.4405 24 20.7239 23.346C21.8529 22.7708 22.7708 21.8529 23.346 20.7239C24 19.4405 24 17.7603 24 14.4V9.6C24 6.23969 24 4.55953 23.346 3.27606C22.7708 2.14708 21.8529 1.2292 20.7239 0.653961C19.4405 0 17.7603 0 14.4 0H9.6C6.23969 0 4.55953 0 3.27606 0.653961C2.14708 1.2292 1.2292 2.14708 0.653961 3.27606ZM9.92121 7.40158C9.00152 7.40158 8.25821 6.65827 8.25821 5.73858C8.25821 4.8189 9.00152 4.07559 9.92121 4.07559C10.8409 4.07559 11.5842 4.8189 11.5842 5.73858V7.40158H9.92121ZM9.92121 8.24567C10.8409 8.24567 11.5842 8.98898 11.5842 9.90866C11.5842 10.8284 10.8409 11.5717 9.92121 11.5717H5.75113C4.83144 11.5717 4.08813 10.8284 4.08813 9.90866C4.08813 8.98898 4.83144 8.24567 5.75113 8.24567H9.92121ZM5.76382 15.7417C6.68351 15.7417 7.42681 14.9984 7.42681 14.0787V12.4157H5.76382C4.84414 12.4157 4.10083 13.159 4.10083 14.0787C4.10083 14.9984 4.84414 15.7417 5.76382 15.7417ZM8.25831 14.0787C8.25831 13.159 9.00162 12.4157 9.9213 12.4157C10.841 12.4157 11.5843 13.159 11.5843 14.0787V18.2362C11.5843 19.1559 10.841 19.8992 9.9213 19.8992C9.00162 19.8992 8.25831 19.1559 8.25831 18.2362V14.0787ZM16.5859 9.90866C16.5859 8.98898 17.3293 8.24567 18.2489 8.24567C19.1686 8.24567 19.9119 8.98898 19.9119 9.90866C19.9119 10.8284 19.1686 11.5717 18.2489 11.5717H16.5859V9.90866ZM14.0915 11.5717C15.0111 11.5717 15.7545 10.8284 15.7545 9.90866V5.73858C15.7545 4.8189 15.0111 4.07559 14.0915 4.07559C13.1718 4.07559 12.4285 4.8189 12.4285 5.73858V9.90866C12.4285 10.8284 13.1718 11.5717 14.0915 11.5717ZM15.7545 18.2362C15.7545 17.3165 15.0111 16.5732 14.0915 16.5732H12.4285V18.2362C12.4285 19.1559 13.1718 19.8992 14.0915 19.8992C15.0111 19.8992 15.7545 19.1559 15.7545 18.2362ZM14.0915 15.7417C13.1718 15.7417 12.4285 14.9984 12.4285 14.0787C12.4285 13.159 13.1718 12.4157 14.0915 12.4157H18.2615C19.1812 12.4157 19.9245 13.159 19.9245 14.0787C19.9245 14.9984 19.1812 15.7417 18.2615 15.7417H14.0915Z" fill="#687076"/>
</g>
<defs>
<clipPath id="clip0_1428_79907">
<rect width="24" height="24" fill="white"/>
</clipPath>
</defs>
</svg>
