<svg width="24" height="24" viewBox="0 0 24 24" fill="none" xmlns="http://www.w3.org/2000/svg">
<g clip-path="url(#clip0_1428_79494)">
<path d="M12.2059 0.792992C13.1959 0.792992 16.5529 1.06899 18.1359 4.61399C18.6649 5.80699 18.5389 7.83299 18.4349 9.46099L18.4319 9.52099C18.4199 9.70099 18.4099 9.86599 18.4019 10.031C18.4769 10.076 18.6049 10.121 18.8029 10.121C19.1029 10.105 19.4619 10.001 19.8359 9.81999C20.0009 9.73199 20.1799 9.71599 20.2999 9.71599C20.4819 9.71599 20.6589 9.74499 20.8089 9.80599C21.2589 9.95499 21.5429 10.285 21.5429 10.644C21.5579 11.093 21.1529 11.483 20.3299 11.812C20.2409 11.841 20.1209 11.887 19.9859 11.931C19.5359 12.066 18.8469 12.291 18.6529 12.741C18.5629 12.965 18.5919 13.265 18.7729 13.609L18.7879 13.624C18.8479 13.76 20.3139 17.099 23.5789 17.638C23.8339 17.682 24.0139 17.908 23.9989 18.147C23.9989 18.222 23.9839 18.296 23.9539 18.372C23.7139 18.941 22.6809 19.36 20.8079 19.643C20.7489 19.734 20.6879 20.018 20.6439 20.213C20.6149 20.392 20.5699 20.573 20.5099 20.766C20.4339 21.037 20.2399 21.171 19.9549 21.171H19.9249C19.7899 21.171 19.6119 21.14 19.3869 21.097C19.0269 21.022 18.6219 20.962 18.1139 20.962C17.8139 20.962 17.5149 20.977 17.2009 21.036C16.6009 21.14 16.0779 21.5 15.4779 21.92C14.6249 22.519 13.6519 23.208 12.1839 23.208C12.1239 23.208 12.0649 23.193 12.0039 23.193H11.8549C10.3869 23.193 9.42787 22.518 8.57587 21.905C7.97687 21.485 7.46887 21.126 6.86887 21.021C6.55487 20.976 6.23987 20.947 5.94087 20.947C5.40087 20.947 4.98287 21.036 4.66887 21.096C4.45787 21.139 4.27787 21.17 4.12887 21.17C3.75487 21.17 3.60587 20.946 3.54587 20.75C3.48487 20.558 3.45587 20.361 3.41087 20.183C3.36487 20.002 3.30587 19.689 3.24487 19.613C1.32687 19.391 0.294872 18.971 0.0558723 18.387C0.0248723 18.324 0.00387234 18.237 0.000872336 18.162C-0.0141277 17.919 0.165872 17.697 0.420872 17.653C3.68487 17.113 5.15087 13.774 5.21187 13.633L5.22787 13.604C5.40787 13.259 5.45187 12.959 5.34687 12.735C5.15187 12.301 4.46287 12.077 4.01487 11.926C3.89387 11.897 3.77487 11.852 3.66887 11.807C2.56187 11.372 2.41187 10.877 2.47187 10.534C2.56187 10.055 3.14587 9.74099 3.63987 9.74099C3.78587 9.74099 3.90987 9.76999 4.02287 9.81499C4.44287 10.009 4.81187 10.115 5.12687 10.115C5.36087 10.115 5.51087 10.055 5.59187 10.01L5.54587 9.44099C5.44787 7.81499 5.32087 5.78999 5.85287 4.60399C7.39187 1.07699 10.7389 0.806992 11.7269 0.806992L12.1459 0.791992H12.2059V0.792992Z" fill="#687076"/>
</g>
<defs>
<clipPath id="clip0_1428_79494">
<rect width="24" height="24" fill="white"/>
</clipPath>
</defs>
</svg>
