<svg width="24" height="24" viewBox="0 0 24 24" fill="none" xmlns="http://www.w3.org/2000/svg">
<g clip-path="url(#clip0_1428_79314)">
<path d="M0 12C0 5.37258 5.37258 0 12 0C18.6274 0 24 5.37258 24 12C24 18.6274 18.6274 24 12 24C5.37258 24 0 18.6274 0 12Z" fill="#FFFC00"/>
<path d="M12.1316 4.33397C12.7641 4.33397 14.9088 4.51031 15.9202 6.77518C16.2582 7.53738 16.1777 8.83178 16.1112 9.8719L16.1093 9.91023C16.1017 10.0252 16.0953 10.1306 16.0902 10.2361C16.1381 10.2648 16.2199 10.2936 16.3464 10.2936C16.538 10.2833 16.7674 10.2169 17.0063 10.1013C17.1118 10.045 17.2261 10.0348 17.3028 10.0348C17.4191 10.0348 17.5321 10.0533 17.628 10.0923C17.9155 10.1875 18.0969 10.3983 18.0969 10.6277C18.1065 10.9146 17.8478 11.1637 17.3219 11.3739C17.2651 11.3925 17.1884 11.4219 17.1022 11.45C16.8147 11.5362 16.3745 11.68 16.2505 11.9675C16.193 12.1106 16.2116 12.3022 16.3272 12.522L16.3368 12.5316C16.3751 12.6185 17.3117 14.7518 19.3977 15.0961C19.5606 15.1242 19.6756 15.2686 19.666 15.4213C19.666 15.4692 19.6565 15.5165 19.6373 15.5651C19.484 15.9286 18.824 16.1963 17.6273 16.3771C17.5896 16.4352 17.5507 16.6167 17.5226 16.7413C17.504 16.8556 17.4753 16.9713 17.4369 17.0946C17.3884 17.2677 17.2644 17.3533 17.0824 17.3533H17.0632C16.9769 17.3533 16.8632 17.3335 16.7195 17.3061C16.4895 17.2581 16.2307 17.2198 15.9062 17.2198C15.7145 17.2198 15.5235 17.2294 15.3229 17.2671C14.9395 17.3335 14.6054 17.5635 14.222 17.8319C13.6771 18.2146 13.0554 18.6548 12.1175 18.6548C12.0792 18.6548 12.0415 18.6452 12.0025 18.6452H11.9073C10.9694 18.6452 10.3567 18.2139 9.8124 17.8223C9.4297 17.554 9.10514 17.3246 8.72181 17.2575C8.5212 17.2288 8.31994 17.2102 8.12891 17.2102C7.78391 17.2102 7.51686 17.2671 7.31624 17.3054C7.18144 17.3329 7.06644 17.3527 6.97124 17.3527C6.73229 17.3527 6.6371 17.2096 6.59877 17.0844C6.55979 16.9617 6.54127 16.8358 6.51252 16.7221C6.48313 16.6065 6.44543 16.4065 6.40646 16.3579C5.18106 16.2161 4.52172 15.9478 4.36903 15.5747C4.34922 15.5344 4.33581 15.4788 4.33389 15.4309C4.32431 15.2757 4.43931 15.1338 4.60222 15.1057C6.68757 14.7607 7.62419 12.6274 7.66316 12.5374L7.67338 12.5188C7.78838 12.2984 7.8165 12.1067 7.74941 11.9636C7.62483 11.6864 7.18463 11.5432 6.89841 11.4468C6.8211 11.4282 6.74507 11.3995 6.67735 11.3707C5.97009 11.0928 5.87426 10.7766 5.91259 10.5574C5.97009 10.2514 6.34321 10.0508 6.65882 10.0508C6.7521 10.0508 6.83132 10.0693 6.90352 10.0981C7.17185 10.222 7.4076 10.2897 7.60886 10.2897C7.75836 10.2897 7.85419 10.2514 7.90594 10.2227L7.87655 9.85912C7.81394 8.82028 7.7328 7.52652 8.07269 6.76879C9.05595 4.51542 11.1943 4.34292 11.8256 4.34292L12.0932 4.33333L12.1316 4.33397Z" fill="white"/>
<path fill-rule="evenodd" clip-rule="evenodd" d="M12.0873 4H12.4649V4.01422C13.3779 4.08568 15.2699 4.50137 16.2246 6.63927C16.4211 7.08242 16.4866 7.65168 16.5006 8.21093C16.5149 8.77628 16.4771 9.37377 16.4441 9.89086L16.442 9.93241C16.4417 9.93723 16.4413 9.94203 16.441 9.94681C16.5581 9.92511 16.6997 9.8789 16.8562 9.8036C17.0292 9.71341 17.2038 9.70148 17.3028 9.70148C17.4483 9.70148 17.6017 9.72378 17.743 9.77932C18.1105 9.90463 18.4274 10.2089 18.4303 10.6221C18.4371 10.8803 18.3191 11.0986 18.1414 11.2697C17.9685 11.4362 17.7281 11.5706 17.4457 11.6835L17.4356 11.6875L17.4252 11.6909C17.4043 11.6977 17.3793 11.7066 17.3454 11.7186L17.3348 11.7224C17.2975 11.7357 17.2532 11.7514 17.2055 11.7669L17.198 11.7693C17.0547 11.8123 16.8988 11.8625 16.7669 11.93C16.632 11.999 16.5762 12.0594 16.5586 12.0953C16.5508 12.1188 16.54 12.1914 16.6015 12.3249L16.6166 12.34L16.6421 12.3978C16.6585 12.4351 16.887 12.9533 17.3533 13.5013C17.8235 14.0539 18.5143 14.6124 19.452 14.7672L19.4544 14.7676C19.7721 14.8225 20.0144 15.1041 19.9993 15.4316C19.998 15.522 19.979 15.6073 19.9474 15.6875L19.9445 15.6947C19.8144 16.0033 19.5037 16.205 19.1486 16.3486C18.8216 16.4809 18.3966 16.5877 17.8799 16.6744C17.871 16.7113 17.8623 16.7498 17.8538 16.7877C17.8525 16.7935 17.8512 16.7993 17.8499 16.805C17.8285 16.9333 17.7967 17.0599 17.7565 17.1896C17.7152 17.3335 17.6345 17.4658 17.5045 17.5594C17.3749 17.6527 17.2253 17.6867 17.0824 17.6867H17.0632C16.9393 17.6867 16.7928 17.6594 16.6569 17.6335L16.6515 17.6324C16.4378 17.5879 16.2025 17.5531 15.9062 17.5531C15.7255 17.5531 15.5571 17.5622 15.3844 17.5947L15.3798 17.5956C15.0829 17.647 14.8101 17.8271 14.4133 18.1049C14.4133 18.1049 14.4133 18.1049 14.4133 18.1049L14.3899 18.1213C13.8506 18.5002 13.1561 18.9881 12.1176 18.9881C12.0768 18.9881 12.0394 18.9833 12.0221 18.9811L12.0188 18.9807C12.0065 18.9792 12.0014 18.9787 12.0001 18.9785H11.9074C10.8546 18.9785 10.1654 18.4868 9.6194 18.094C9.22372 17.8166 8.96297 17.6395 8.66917 17.5867C8.48064 17.5599 8.29784 17.5436 8.12895 17.5436C7.84211 17.5436 7.61729 17.5869 7.4226 17.6244C7.40853 17.6271 7.39461 17.6298 7.38084 17.6324C7.24831 17.6594 7.10359 17.686 6.97127 17.686C6.77966 17.686 6.61532 17.6263 6.48963 17.5158C6.37074 17.4112 6.31121 17.2829 6.28058 17.1836C6.25637 17.1071 6.23946 17.0329 6.22593 16.9698C6.22197 16.9514 6.21839 16.9344 6.21503 16.9184C6.20592 16.8752 6.19845 16.8397 6.18938 16.8038C6.18152 16.7729 6.17345 16.7379 6.16594 16.7055L6.1643 16.6984C6.16148 16.6862 6.15871 16.6742 6.15597 16.6625C5.62805 16.5914 5.1962 16.493 4.86441 16.3636C4.5046 16.2233 4.19608 16.0206 4.06459 15.7106C4.02629 15.6283 4.0049 15.533 4.00101 15.4479C3.98225 15.1138 4.22703 14.8322 4.54558 14.7772L4.54785 14.7768C5.48523 14.6218 6.17597 14.063 6.64617 13.51C7.11596 12.9575 7.34435 12.4349 7.35726 12.405L7.36361 12.3903L7.37956 12.3614C7.47452 12.178 7.44887 12.1078 7.44762 12.1051L7.44535 12.1003C7.43131 12.069 7.37709 12.0079 7.23285 11.9342C7.10155 11.8671 6.9501 11.8159 6.8051 11.7671C6.70986 11.743 6.62196 11.7092 6.5513 11.6793C6.17036 11.5291 5.90861 11.3519 5.75026 11.1441C5.58157 10.9226 5.55053 10.6929 5.58428 10.5L5.585 10.4959C5.63611 10.2238 5.8206 10.0278 6.0109 9.90755C6.20248 9.7865 6.43613 9.71746 6.65885 9.71746C6.79917 9.71746 6.92017 9.74589 7.02687 9.78839L7.03519 9.7917L7.04333 9.79546C7.25702 9.89416 7.42349 9.94203 7.5498 9.95358L7.54378 9.87918L7.54199 9.84816C7.51128 9.33906 7.47597 8.75358 7.4905 8.1998C7.50512 7.64239 7.57039 7.07523 7.76787 6.63396C8.83158 4.19834 11.1457 4.0107 11.8195 4.00959L12.0873 4ZM12.0814 4.6673L11.8315 4.67625H11.8256C11.2291 4.67625 9.27811 4.83983 8.37824 6.9021L8.37687 6.90523C8.23502 7.22146 8.17104 7.67934 8.15693 8.21728C8.14317 8.7419 8.17699 9.30292 8.20818 9.82034L8.20911 9.83566L8.25552 10.4098L8.06785 10.514C7.97008 10.5684 7.8189 10.6231 7.60889 10.6231C7.34129 10.6231 7.05793 10.5356 6.77329 10.4051C6.73791 10.3917 6.70225 10.3841 6.65885 10.3841C6.56596 10.3841 6.45525 10.4154 6.367 10.4711C6.27896 10.5268 6.24766 10.5831 6.24057 10.6173C6.2363 10.6434 6.23549 10.6809 6.28055 10.74C6.33678 10.8138 6.47523 10.9332 6.79929 11.0605L6.80769 11.0638C6.86796 11.0894 6.92466 11.1103 6.97613 11.1226L6.9907 11.1261L7.0049 11.1309C7.01237 11.1334 7.02004 11.136 7.0279 11.1386C7.16458 11.1846 7.35893 11.2499 7.53626 11.3406C7.71424 11.4316 7.94147 11.58 8.05241 11.8246C8.1837 12.1075 8.10163 12.4187 7.96894 12.673L7.96535 12.6799L7.96235 12.6852C7.91248 12.7975 7.65334 13.3547 7.15406 13.9419C6.627 14.5618 5.81122 15.2392 4.67049 15.4323L4.67321 15.4378L4.67756 15.4484C4.70112 15.506 4.79596 15.6213 5.10661 15.7425C5.40559 15.8591 5.84479 15.9574 6.44482 16.0268L6.58077 16.0426L6.66644 16.1493C6.71566 16.2106 6.74054 16.2816 6.75038 16.3101C6.76436 16.3505 6.77631 16.3941 6.78612 16.4326C6.79615 16.4719 6.80561 16.5127 6.81381 16.5481L6.81481 16.5524C6.82296 16.5877 6.8296 16.6163 6.83561 16.64C6.84827 16.6901 6.85975 16.7446 6.86957 16.7913C6.87243 16.8049 6.87516 16.8179 6.87775 16.8299C6.89032 16.8885 6.90201 16.9379 6.91648 16.9834L6.91755 16.9868C6.92266 17.0035 6.92749 17.0115 6.92953 17.0144C6.92951 17.0144 6.92955 17.0144 6.92953 17.0144C6.93265 17.0155 6.9451 17.0194 6.97127 17.0194C7.02868 17.0194 7.11317 17.0066 7.24971 16.9788L7.25371 16.978C7.26851 16.9752 7.2839 16.9722 7.29985 16.9691C7.49549 16.9312 7.77627 16.8769 8.12895 16.8769C8.34051 16.8769 8.55833 16.8973 8.76913 16.9275L8.77422 16.9283L8.7793 16.9292C9.23359 17.0087 9.61038 17.2732 9.96583 17.5227C9.97851 17.5316 9.99117 17.5405 10.0038 17.5494L10.0071 17.5517C10.5496 17.942 11.0854 18.3118 11.9074 18.3118H12.0026C12.0436 18.3118 12.0811 18.3166 12.0987 18.3188L12.1018 18.3192C12.1137 18.3207 12.1189 18.3213 12.1204 18.3214C12.9408 18.3206 13.4838 17.943 14.0305 17.5591L14.0441 17.5496C14.4095 17.2938 14.8004 17.0201 15.2636 16.9391C15.4913 16.8965 15.7042 16.8865 15.9062 16.8865C16.2577 16.8865 16.539 16.9281 16.7847 16.9791C16.9346 17.0078 17.0149 17.02 17.0632 17.02H17.0824C17.0963 17.02 17.1058 17.0188 17.1116 17.0177C17.1129 17.0146 17.1144 17.0103 17.116 17.0046L17.1186 16.9956C17.1534 16.8835 17.1781 16.7835 17.1936 16.688L17.1952 16.6779L17.1974 16.6679C17.1992 16.6601 17.2011 16.6518 17.203 16.6431C17.2157 16.5868 17.2318 16.5148 17.2491 16.4494C17.2591 16.4113 17.2708 16.3703 17.2841 16.332C17.2953 16.2994 17.3154 16.2456 17.3477 16.1958L17.4293 16.0699L17.5776 16.0475C18.1651 15.9587 18.5999 15.8514 18.8986 15.7306C19.2046 15.6069 19.303 15.4951 19.3287 15.439C19.3317 15.4306 19.3325 15.4258 19.3327 15.4232C18.19 15.2312 17.3731 14.5533 16.8455 13.9333C16.3943 13.4031 16.1394 12.8976 16.0584 12.7247L16.0558 12.722L16.0322 12.6772C15.8897 12.4064 15.8346 12.1086 15.9413 11.8432L15.9444 11.8355C16.0531 11.5833 16.2805 11.43 16.4632 11.3365C16.6526 11.2396 16.8585 11.1751 17.0025 11.1319C17.0398 11.1196 17.0758 11.107 17.1114 11.0943L17.1229 11.0902C17.1507 11.0803 17.1803 11.0698 17.2075 11.0607C17.4455 10.9647 17.5946 10.8708 17.679 10.7895C17.7585 10.7129 17.7647 10.6651 17.7638 10.6388L17.7636 10.6333V10.6277C17.7636 10.5889 17.7248 10.4755 17.5232 10.4088L17.5127 10.4053L17.5024 10.4011C17.455 10.3818 17.3862 10.3681 17.3028 10.3681C17.2787 10.3681 17.2524 10.3698 17.2265 10.3746C17.2006 10.3795 17.1795 10.3867 17.1632 10.3954L17.1575 10.3985L17.1516 10.4013C16.8864 10.5296 16.6131 10.6132 16.3641 10.6264L16.3553 10.6269H16.3464C16.1692 10.6269 16.0262 10.5864 15.9187 10.5219L15.7476 10.4192L15.7573 10.2199C15.7625 10.1127 15.7689 10.0059 15.7766 9.89079L15.7786 9.85065C15.812 9.32814 15.8476 8.75931 15.8342 8.22771C15.8206 7.68939 15.7571 7.2297 15.6157 6.91067C14.688 4.8338 12.7273 4.6673 12.1316 4.6673H12.0814Z" fill="black"/>
</g>
<defs>
<clipPath id="clip0_1428_79314">
<rect width="24" height="24" fill="white"/>
</clipPath>
</defs>
</svg>
