<svg width="24" height="24" viewBox="0 0 24 24" fill="none" xmlns="http://www.w3.org/2000/svg">
<g clip-path="url(#clip0_1428_79512)">
<path fill-rule="evenodd" clip-rule="evenodd" d="M0.653961 3.27606C0 4.55953 0 6.23969 0 9.6V14.4C0 17.7603 0 19.4405 0.653961 20.7239C1.2292 21.8529 2.14708 22.7708 3.27606 23.346C4.55953 24 6.23969 24 9.6 24H14.4C17.7603 24 19.4405 24 20.7239 23.346C21.8529 22.7708 22.7708 21.8529 23.346 20.7239C24 19.4405 24 17.7603 24 14.4V9.6C24 6.23969 24 4.55953 23.346 3.27606C22.7708 2.14708 21.8529 1.2292 20.7239 0.653961C19.4405 0 17.7603 0 14.4 0H9.6C6.23969 0 4.55953 0 3.27606 0.653961C2.14708 1.2292 1.2292 2.14708 0.653961 3.27606ZM13.1919 7.50728C11.7589 8.10331 8.89487 9.33695 4.59992 11.2082C3.90248 11.4855 3.53714 11.7569 3.50388 12.0222C3.44767 12.4705 4.00915 12.6471 4.77374 12.8875C4.87775 12.9202 4.98551 12.9541 5.09598 12.99C5.84822 13.2345 6.86012 13.5206 7.38616 13.532C7.86333 13.5423 8.39591 13.3455 8.98389 12.9418C12.9968 10.233 15.0683 8.86379 15.1983 8.83428C15.2901 8.81345 15.4172 8.78727 15.5034 8.86384C15.5895 8.94041 15.5811 9.08541 15.5719 9.12431C15.5163 9.36144 13.3123 11.4105 12.1717 12.4709C11.8161 12.8015 11.5639 13.0359 11.5124 13.0895C11.3969 13.2094 11.2791 13.3229 11.166 13.432C10.4672 14.1057 9.94309 14.6109 11.195 15.4359C11.7967 15.8324 12.2781 16.1602 12.7584 16.4873C13.2829 16.8445 13.8061 17.2008 14.4829 17.6445C14.6554 17.7575 14.8201 17.8749 14.9805 17.9893C15.5909 18.4245 16.1393 18.8154 16.8169 18.7531C17.2105 18.7169 17.6172 18.3467 17.8237 17.2426C18.3118 14.6334 19.2712 8.97999 19.4929 6.65037C19.5123 6.44626 19.4879 6.18505 19.4683 6.07038C19.4486 5.95571 19.4076 5.79234 19.2586 5.67139C19.0821 5.52816 18.8095 5.49796 18.6877 5.5001C18.1335 5.50987 17.2834 5.80549 13.1919 7.50728Z" fill="#687076"/>
</g>
<defs>
<clipPath id="clip0_1428_79512">
<rect width="24" height="24" fill="white"/>
</clipPath>
</defs>
</svg>
