<svg width="24" height="24" viewBox="0 0 24 24" fill="none" xmlns="http://www.w3.org/2000/svg">
<g clip-path="url(#clip0_1427_79279)">
<path fill-rule="evenodd" clip-rule="evenodd" d="M15.5 14.214L17.8329 11.9287V5.64267H8.5V14.214H11.1248V16.214L13.1664 14.214H15.5ZM12.8752 7.64267H11.708L11.7074 11.0713H12.8752V7.64267ZM16.0832 7.64267H14.9168V11.0713H16.0832V7.64267Z" fill="#9146FF"/>
<path fill-rule="evenodd" clip-rule="evenodd" d="M24 12C24 18.6274 18.6274 24 12 24C5.37258 24 0 18.6274 0 12C0 5.37258 5.37258 0 12 0C18.6274 0 24 5.37258 24 12ZM5 7.35733L7.91678 4.5H19V12.5L13.7497 17.6427H11.4168L8.5 20.5V17.6427H5V7.35733Z" fill="#9146FF"/>
</g>
<defs>
<clipPath id="clip0_1427_79279">
<rect width="24" height="24" fill="white"/>
</clipPath>
</defs>
</svg>
