<svg width="24" height="24" viewBox="0 0 24 24" fill="none" xmlns="http://www.w3.org/2000/svg">
<g clip-path="url(#clip0_1427_79321)">
<path fill-rule="evenodd" clip-rule="evenodd" d="M15.5717 13.9283L18.1427 11.3573V4.2855H7.85725V13.9283H10.75V16.1782L13 13.9283H15.5717ZM12.679 6.5355H11.3927L11.392 10.3927H12.679V6.5355ZM16.2145 6.5355H14.929V10.3927H16.2145V6.5355Z" fill="#9146FF"/>
<path fill-rule="evenodd" clip-rule="evenodd" d="M0.653961 3.27606C0 4.55953 0 6.23969 0 9.6V14.4C0 17.7603 0 19.4405 0.653961 20.7239C1.2292 21.8529 2.14708 22.7708 3.27606 23.346C4.55953 24 6.23969 24 9.6 24H14.4C17.7603 24 19.4405 24 20.7239 23.346C21.8529 22.7708 22.7708 21.8529 23.346 20.7239C24 19.4405 24 17.7603 24 14.4V9.6C24 6.23969 24 4.55953 23.346 3.27606C22.7708 2.14708 21.8529 1.2292 20.7239 0.653961C19.4405 0 17.7603 0 14.4 0H9.6C6.23969 0 4.55953 0 3.27606 0.653961C2.14708 1.2292 1.2292 2.14708 0.653961 3.27606ZM4 6.2145L7.2145 3H19.429V12L13.6427 17.7855H11.0717L7.85725 21V17.7855H4V6.2145Z" fill="#9146FF"/>
</g>
<defs>
<clipPath id="clip0_1427_79321">
<rect width="24" height="24" fill="white"/>
</clipPath>
</defs>
</svg>
