<svg width="24" height="24" viewBox="0 0 24 24" fill="none" xmlns="http://www.w3.org/2000/svg">
<g clip-path="url(#clip0_1427_79309)">
<path fill-rule="evenodd" clip-rule="evenodd" d="M12.2571 18.9033H12.2599C16.1791 18.9033 19.3689 15.7145 19.3705 11.795C19.3712 9.89564 18.6323 8.10966 17.2898 6.76608C15.9473 5.4225 14.162 4.68211 12.2628 4.68136C8.34062 4.68136 5.15077 7.86999 5.14923 11.7893C5.14871 13.1324 5.5246 14.4405 6.23635 15.5723L6.40548 15.8411L5.68712 18.4642L8.37835 17.7585L8.63799 17.9125C9.72971 18.5602 10.9811 18.9028 12.2571 18.9033ZM14.6996 12.8843C14.8956 12.9556 15.9465 13.4726 16.1603 13.5796C16.2019 13.6004 16.2409 13.6193 16.277 13.6367C16.4262 13.7088 16.527 13.7574 16.5699 13.8292C16.6234 13.9183 16.6234 14.3462 16.4453 14.8454C16.2671 15.3445 15.4131 15.8001 15.0024 15.8615C14.6342 15.9165 14.1681 15.9394 13.6561 15.7768C13.3456 15.6783 12.9474 15.5468 12.4374 15.3267C10.434 14.4618 9.07993 12.5209 8.82346 12.1533C8.80542 12.1274 8.79282 12.1094 8.78579 12.1L8.78395 12.0975C8.67043 11.9461 7.91298 10.9353 7.91298 9.88941C7.91298 8.90501 8.39668 8.38903 8.6193 8.15157C8.63454 8.13531 8.64855 8.12036 8.6611 8.10666C8.85709 7.89277 9.0886 7.83928 9.23115 7.83928C9.37365 7.83928 9.51629 7.84059 9.64084 7.84678C9.65619 7.84755 9.67216 7.84746 9.68867 7.84736C9.81325 7.84662 9.96859 7.84571 10.1218 8.21362C10.1806 8.35499 10.2667 8.56447 10.3575 8.78548C10.5416 9.23338 10.7451 9.72862 10.7808 9.80025C10.8343 9.90722 10.8699 10.032 10.7987 10.1746C10.788 10.196 10.7781 10.2161 10.7687 10.2353C10.7152 10.3447 10.6758 10.425 10.5849 10.5312C10.5493 10.5728 10.5125 10.6176 10.4756 10.6624C10.402 10.7521 10.3284 10.8417 10.2643 10.9055C10.1573 11.0121 10.0458 11.1277 10.1705 11.3416C10.2952 11.5556 10.7243 12.2554 11.3597 12.822C12.0429 13.4312 12.6367 13.6887 12.9376 13.8191C12.9963 13.8446 13.0438 13.8652 13.0787 13.8826C13.2924 13.9897 13.4171 13.9718 13.5418 13.8292C13.6665 13.6866 14.0762 13.2053 14.2187 12.9913C14.3612 12.7774 14.5037 12.813 14.6996 12.8843Z" fill="#25D366"/>
<path fill-rule="evenodd" clip-rule="evenodd" d="M12 24C18.6274 24 24 18.6274 24 12C24 5.37258 18.6274 0 12 0C5.37258 0 0 5.37258 0 12C0 18.6274 5.37258 24 12 24ZM12.2599 3.23695C14.5484 3.23789 16.6964 4.12856 18.3116 5.74509C19.9269 7.36163 20.8158 9.51033 20.8149 11.7955C20.813 16.511 16.9749 20.3478 12.26 20.3478H12.2565C10.8246 20.3472 9.41776 19.9882 8.16821 19.3068L3.63306 20.496L4.84674 16.0643C4.0981 14.7674 3.70421 13.296 3.70482 11.7887C3.7067 7.07325 7.54449 3.23695 12.2599 3.23695Z" fill="#25D366"/>
</g>
<defs>
<clipPath id="clip0_1427_79309">
<rect width="24" height="24" fill="white"/>
</clipPath>
</defs>
</svg>
