<svg width="24" height="24" viewBox="0 0 24 24" fill="none" xmlns="http://www.w3.org/2000/svg">
<path d="M0 5.65681V14.446C0.00460994 15.3993 0.387511 16.3117 1.06456 16.9828C1.7416 17.6539 2.6574 18.0288 3.61069 18.025H16.4223C16.5955 18.0258 16.7619 17.958 16.8852 17.8362C17.0084 17.7145 17.0783 17.5489 17.0795 17.3757V8.58653C17.0749 7.63325 16.692 6.72079 16.015 6.04968C15.3379 5.37858 14.4221 5.00373 13.4688 5.00752H0.661168C0.575078 5.00658 0.48965 5.02264 0.409784 5.05479C0.329918 5.08694 0.257185 5.13455 0.195758 5.19487C0.134331 5.25519 0.0854175 5.32705 0.0518247 5.40632C0.0182319 5.48559 0.000620249 5.57071 0 5.65681ZM17.8951 9.08538L23.1844 5.22131C23.6437 4.84044 24 4.93625 24 5.62513V17.4074C24 18.1913 23.5645 18.0963 23.1844 17.8104L17.8951 13.9551V9.08538Z" fill="#4A8CFF"/>
</svg>
