<!--

Sourced from The Wolf Kit https://figma.com/community/file/1203393186896008602
Licensed as CC BY 4.0

https://feathericons.dev/?search=facebook

-->
<svg xmlns="http://www.w3.org/2000/svg" viewBox="0 0 24 24" width="24" height="24" fill="none">
  <path d="M12 0c6.627 0 12 5.373 12 12 0 5.99-4.388 10.954-10.125 11.854V15.47h2.796L17.203 12h-3.328V9.749c0-.255.034-.508.111-.742.176-.528.579-.959 1.333-1.09.155-.028.325-.042.512-.042h1.513V4.922s-1.374-.234-2.686-.234c-2.742 0-4.533 1.66-4.533 4.668V12H7.078v3.469h3.047v8.385C4.388 22.954 0 17.99 0 12 0 5.373 5.373 0 12 0Z" fill="#1877F2" />
</svg>
