<!--

Sourced from The Wolf Kit https://figma.com/community/file/1203393186896008602
Licensed as CC BY 4.0

https://feathericons.dev/?search=google-play

-->
<svg xmlns="http://www.w3.org/2000/svg" viewBox="0 0 24 24" width="24" height="24" fill="none">
  <rect fill="#000" height="24" rx="12" width="24" />
  <path clip-rule="evenodd" d="M6.748 5.212c-.157.17-.248.429-.248.768v12.037c0 .34.091.599.254.762l.042.036 6.744-6.744v-.15L6.79 5.175l-.042.037Z" fill="url(#google-play__a)" fill-rule="evenodd" />
  <path clip-rule="evenodd" d="m15.784 14.326-2.25-2.25v-.157l2.25-2.25.049.03 2.66 1.513c.762.429.762 1.138 0 1.572l-2.66 1.512-.05.03Z" fill="url(#google-play__b)" fill-rule="evenodd" />
  <path clip-rule="evenodd" d="m15.832 14.296-2.298-2.298-6.786 6.786c.249.266.665.296 1.131.037l7.953-4.525Z" fill="url(#google-play__c)" fill-rule="evenodd" />
  <path clip-rule="evenodd" d="M15.832 9.7 7.88 5.182c-.466-.266-.884-.23-1.13.037l6.785 6.779L15.832 9.7Z" fill="url(#google-play__d)" fill-rule="evenodd" />
  <defs>
    <linearGradient gradientUnits="userSpaceOnUse" id="google-play__a" x1="12.935" x2="2.132" y1="5.851" y2="8.729">
      <stop stop-color="#00A0FF" />
      <stop offset=".007" stop-color="#00A1FF" />
      <stop offset=".26" stop-color="#00BEFF" />
      <stop offset=".512" stop-color="#00D2FF" />
      <stop offset=".76" stop-color="#00DFFF" />
      <stop offset="1" stop-color="#00E3FF" />
    </linearGradient>
    <linearGradient gradientUnits="userSpaceOnUse" id="google-play__b" x1="19.486" x2="6.315" y1="11.998" y2="11.998">
      <stop stop-color="#FFE000" />
      <stop offset=".409" stop-color="#FFBD00" />
      <stop offset=".775" stop-color="orange" />
      <stop offset="1" stop-color="#FF9C00" />
    </linearGradient>
    <linearGradient gradientUnits="userSpaceOnUse" id="google-play__c" x1="14.583" x2="5.911" y1="13.248" y2="27.845">
      <stop stop-color="#FF3A44" />
      <stop offset="1" stop-color="#C31162" />
    </linearGradient>
    <linearGradient gradientUnits="userSpaceOnUse" id="google-play__d" x1="5.04" x2="8.909" y1="1.208" y2="7.727">
      <stop stop-color="#32A071" />
      <stop offset=".069" stop-color="#2DA771" />
      <stop offset=".476" stop-color="#15CF74" />
      <stop offset=".801" stop-color="#06E775" />
      <stop offset="1" stop-color="#00F076" />
    </linearGradient>
  </defs>
</svg>
