<!--

Sourced from The Wolf Kit https://figma.com/community/file/1203393186896008602
Licensed as CC BY 4.0

https://feathericons.dev/?search=pinterest

-->
<svg xmlns="http://www.w3.org/2000/svg" viewBox="0 0 24 24" width="24" height="24" fill="none">
  <path d="M12 0C5.373 0 0 5.373 0 12c0 5.084 3.163 9.43 7.627 11.178-.105-.95-.2-2.41.042-3.446.218-.936 1.407-5.965 1.407-5.965s-.36-.718-.36-1.781c0-1.669.968-2.915 2.172-2.915 1.024 0 1.518.77 1.518 1.69 0 1.03-.655 2.57-.994 3.996-.282 1.195.6 2.169 1.777 2.169 2.133 0 3.773-2.25 3.773-5.495 0-2.874-2.065-4.882-5.013-4.882-3.414 0-5.418 2.56-5.418 5.207 0 1.032.397 2.137.893 2.739a.36.36 0 0 1 .083.344c-.091.379-.293 1.194-.333 1.36-.053.22-.174.267-.402.161-1.498-.697-2.435-2.888-2.435-4.649 0-3.785 2.75-7.261 7.928-7.261 4.163 0 7.398 2.966 7.398 6.93 0 4.136-2.607 7.464-6.227 7.464-1.216 0-2.359-.631-2.75-1.378 0 0-.602 2.292-.748 2.853-.27 1.042-1.002 2.349-1.491 3.146C9.57 23.813 10.763 24 12 24c6.628 0 12-5.372 12-12 0-6.627-5.372-12-12-12Z" fill="#E71D27" />
</svg>
