<!--

Sourced from The Wolf Kit https://figma.com/community/file/1203393186896008602
Licensed as CC BY 4.0

https://feathericons.dev/?search=skype

-->
<svg xmlns="http://www.w3.org/2000/svg" viewBox="0 0 24 24" width="24" height="24" fill="none">
  <path d="M8.627 13.99c0 .865 1.048 2.02 3.395 2.02h-.032c2.228 0 3.338-1.078 3.338-2.522 0-.932-.428-1.922-2.114-2.3l-1.538-.343c-.586-.134-1.259-.312-1.259-.867 0-.556.48-.944 1.337-.944 1.016 0 1.38.41 1.683.748.212.238.393.44.746.44.447 0 .848-.265.848-.723 0-1.065-1.705-1.866-3.146-1.866-1.568 0-3.237.667-3.237 2.445 0 .854.305 1.766 1.985 2.188l2.086.522c.633.157.79.512.79.834 0 .534-.53 1.056-1.487 1.056-1.083 0-1.453-.482-1.766-.889-.229-.298-.427-.556-.852-.556-.45 0-.777.31-.777.756Z" fill="#00AFF0" />
  <path clip-rule="evenodd" d="M12 0C5.373 0 0 5.373 0 12s5.373 12 12 12 12-5.373 12-12S18.627 0 12 0Zm6.439 13.241.017-.078.009.017a3.95 3.95 0 0 1 .497 1.905c0 1.049-.41 2.035-1.144 2.77A3.874 3.874 0 0 1 15.057 19a3.874 3.874 0 0 1-1.922-.508l.079-.018-.14-.026.07.036c-.376.07-.77.104-1.154.104a6.46 6.46 0 0 1-2.569-.524 6.606 6.606 0 0 1-2.097-1.424 6.374 6.374 0 0 1-1.416-2.105 6.657 6.657 0 0 1-.415-3.717l.035.067-.024-.14-.011.073A3.914 3.914 0 0 1 5 8.918c0-1.046.407-2.03 1.145-2.77a3.89 3.89 0 0 1 4.596-.687l-.07.014.14.02-.07-.035c.409-.079.83-.12 1.25-.12.892 0 1.757.175 2.526.543a6.698 6.698 0 0 1 2.097 1.415 6.603 6.603 0 0 1 1.94 4.676c0 .402-.036.804-.106 1.197-.005-.013-.011-.024-.018-.035-.006-.011-.012-.022-.017-.035l.026.14Z" fill="#00AFF0" fill-rule="evenodd" />
</svg>
