<!--

Sourced from The Wolf Kit https://figma.com/community/file/1203393186896008602
Licensed as CC BY 4.0

https://feathericons.dev/?search=twitch

-->
<svg xmlns="http://www.w3.org/2000/svg" viewBox="0 0 24 24" width="24" height="24" fill="none">
  <path clip-rule="evenodd" d="m15.5 14.214 2.333-2.285V5.643H8.5v8.571h2.625v2l2.041-2H15.5Zm-2.625-6.571h-1.167v3.428h1.167V7.643Zm3.208 0h-1.166v3.428h1.166V7.643Z" fill="#9146FF" fill-rule="evenodd" />
  <path clip-rule="evenodd" d="M24 12c0 6.627-5.373 12-12 12S0 18.627 0 12 5.373 0 12 0s12 5.373 12 12ZM5 7.357 7.917 4.5H19v8l-5.25 5.143h-2.333L8.5 20.5v-2.857H5V7.357Z" fill="#9146FF" fill-rule="evenodd" />
</svg>
