<svg width="56" height="32" viewBox="0 0 56 32" fill="none" xmlns="http://www.w3.org/2000/svg">
<rect width="56" height="32" rx="6" fill="#333333"/>
<path d="M27.7525 5L27.605 5.50131V20.0482L27.7525 20.1954L34.505 16.204L27.7525 5Z" fill="#E7E7E7"/>
<path d="M27.7525 5L21 16.204L27.7525 20.1955V13.1349V5Z" fill="white"/>
<path d="M27.7525 21.474L27.6694 21.5753V26.7573L27.7525 27.0001L34.5091 17.4846L27.7525 21.474Z" fill="#C8C8C8"/>
<path d="M27.7525 26.9999V21.4739L21 17.4845L27.7525 26.9999Z" fill="white"/>
<path d="M27.7524 20.1954L34.5048 16.2041L27.7524 13.1349V20.1954Z" fill="#C8C8C8"/>
<path d="M21 16.2041L27.7524 20.1954V13.1349L21 16.2041Z" fill="#E7E7E7"/>
<rect x="0.5" y="0.5" width="55" height="31" rx="5.5" stroke="black" stroke-opacity="0.14"/>
</svg>
