<svg width="56" height="32" viewBox="0 0 56 32" fill="none" xmlns="http://www.w3.org/2000/svg">
<rect width="56" height="32" rx="6" fill="#5A31F4"/>
<path d="M31.8914 12.7346C31.8914 15.104 30.2303 16.7954 27.9089 16.7954H25.722C25.6978 16.7954 25.6739 16.8002 25.6516 16.8094C25.6293 16.8187 25.6091 16.8323 25.592 16.8494C25.575 16.8665 25.5615 16.8868 25.5524 16.9092C25.5432 16.9315 25.5385 16.9554 25.5387 16.9796V20.0937C25.5387 20.1424 25.5194 20.1891 25.485 20.2236C25.4507 20.2581 25.4041 20.2776 25.3554 20.2779H23.825C23.7886 20.2777 23.7531 20.2668 23.7229 20.2465C23.6927 20.2263 23.6691 20.1976 23.6551 20.164C23.6458 20.142 23.641 20.1184 23.6408 20.0946V8.85713C23.6407 8.83298 23.6454 8.80905 23.6545 8.78671C23.6637 8.76437 23.6772 8.74406 23.6942 8.72695C23.7112 8.70983 23.7315 8.69625 23.7538 8.68698C23.7761 8.67772 23.8 8.67295 23.8241 8.67295H27.9187C30.2303 8.67028 31.8914 10.3617 31.8914 12.7346V12.7346ZM29.9829 12.7346C29.9829 11.3724 29.054 10.3768 27.7942 10.3768H25.722C25.6978 10.3768 25.6739 10.3816 25.6516 10.3908C25.6293 10.4001 25.6091 10.4137 25.592 10.4308C25.575 10.4479 25.5615 10.4682 25.5524 10.4906C25.5432 10.5129 25.5385 10.5368 25.5387 10.561V14.8976C25.5387 14.9462 25.558 14.9928 25.5923 15.0272C25.6267 15.0616 25.6733 15.0809 25.722 15.0809H27.7942C29.054 15.0898 29.9829 14.0933 29.9829 12.7346ZM32.3452 18.122C32.3293 17.7586 32.4045 17.397 32.5639 17.0701C32.7234 16.7432 32.962 16.4613 33.2581 16.25C33.8551 15.8007 34.7884 15.5685 36.1586 15.5204L37.6178 15.4688V15.0382C37.6178 14.1751 37.0395 13.8103 36.1106 13.8103C35.1817 13.8103 34.5927 14.1395 34.4574 14.6778C34.4464 14.7157 34.4231 14.7488 34.3913 14.772C34.3594 14.7952 34.3207 14.8071 34.2813 14.8059H32.8399C32.8134 14.8067 32.787 14.8015 32.7627 14.7909C32.7383 14.7803 32.7166 14.7644 32.6991 14.7445C32.6816 14.7245 32.6687 14.7009 32.6614 14.6754C32.654 14.6499 32.6524 14.6231 32.6566 14.5969C32.8701 13.321 33.9316 12.3511 36.1764 12.3511C38.5645 12.3511 39.4267 13.4633 39.4267 15.5863V20.0937C39.4262 20.1429 39.4063 20.1898 39.3713 20.2243C39.3362 20.2589 39.289 20.2781 39.2398 20.2779H37.7869C37.7383 20.2777 37.6916 20.2586 37.657 20.2245C37.64 20.2074 37.6265 20.1871 37.6173 20.1648C37.6082 20.1426 37.6035 20.1187 37.6036 20.0946V19.7574C37.6041 19.7295 37.5962 19.7021 37.5808 19.6789C37.5655 19.6556 37.5435 19.6375 37.5176 19.627C37.4918 19.6165 37.4634 19.6141 37.4362 19.62C37.409 19.626 37.3842 19.6401 37.3651 19.6604C36.9292 20.1346 36.2254 20.4772 35.0981 20.4772C33.4396 20.4772 32.3452 19.6141 32.3452 18.122V18.122ZM37.6178 17.1451V16.7954L35.728 16.8951C34.7324 16.9458 34.1532 17.3595 34.1532 18.0562C34.1532 18.6861 34.6843 19.0349 35.6123 19.0349C36.8731 19.0349 37.6178 18.3542 37.6178 17.1451V17.1451ZM40.8858 23.6838V22.3777C40.8861 22.3503 40.8924 22.3233 40.9043 22.2986C40.9162 22.2739 40.9333 22.2521 40.9545 22.2348C40.9758 22.2175 41.0005 22.205 41.0271 22.1984C41.0537 22.1917 41.0814 22.1909 41.1083 22.1962C41.3307 22.238 41.5576 22.2593 41.7845 22.2602C42.1745 22.2792 42.5597 22.1668 42.8783 21.9409C43.1968 21.7151 43.4305 21.3889 43.5417 21.0146L43.636 20.7138C43.6497 20.6734 43.6497 20.6297 43.636 20.5893L40.6082 12.8129C40.5973 12.7847 40.5934 12.7543 40.5968 12.7243C40.6002 12.6942 40.6108 12.6654 40.6278 12.6404C40.6448 12.6154 40.6676 12.5948 40.6942 12.5806C40.7209 12.5663 40.7506 12.5587 40.7808 12.5585H42.2489C42.2864 12.5588 42.3229 12.5705 42.3537 12.5919C42.3845 12.6133 42.4081 12.6435 42.4215 12.6786L44.4777 18.1629C44.4906 18.1994 44.5145 18.2309 44.546 18.2532C44.5776 18.2756 44.6153 18.2875 44.6539 18.2875C44.6925 18.2875 44.7302 18.2756 44.7618 18.2532C44.7933 18.2309 44.8172 18.1994 44.8301 18.1629L46.6158 12.6937C46.6282 12.6563 46.652 12.6238 46.684 12.6008C46.7159 12.5778 46.7543 12.5655 46.7937 12.5656H48.3125C48.3429 12.5658 48.3729 12.5733 48.3998 12.5876C48.4266 12.6018 48.4497 12.6224 48.4669 12.6474C48.4841 12.6725 48.495 12.7014 48.4986 12.7316C48.5023 12.7618 48.4986 12.7925 48.4878 12.8209L45.2491 21.4568C44.5035 23.464 43.225 23.9774 41.8174 23.9774C41.5505 23.9845 41.2836 23.9525 41.0255 23.8822C40.9826 23.8709 40.9451 23.8447 40.9195 23.8084C40.894 23.7722 40.8821 23.728 40.8858 23.6838V23.6838ZM13.8065 8.02522C11.8776 8.01147 10.0168 8.73746 8.60686 10.0538C8.54657 10.1091 8.50898 10.1847 8.50141 10.2661C8.49385 10.3476 8.51685 10.4289 8.56594 10.4943L9.43877 11.6865C9.46707 11.7262 9.50372 11.7592 9.54615 11.7832C9.58857 11.8072 9.63574 11.8217 9.68434 11.8255C9.73294 11.8293 9.78179 11.8224 9.82744 11.8053C9.8731 11.7882 9.91445 11.7613 9.9486 11.7265C10.4556 11.2197 11.0585 10.819 11.7221 10.5478C12.3858 10.2766 13.0968 10.1405 13.8136 10.1473C16.8067 10.1473 18.37 12.4001 18.37 14.6244C18.37 17.0428 16.7275 18.7439 14.3671 18.7778C12.5431 18.7778 11.1684 17.5686 11.1684 15.9715C11.1703 15.568 11.2617 15.17 11.4361 14.8061C11.6104 14.4423 11.8633 14.1216 12.1765 13.8673C12.2427 13.812 12.2846 13.7329 12.2931 13.647C12.3016 13.5611 12.276 13.4754 12.2219 13.4082L11.3046 12.2497C11.2768 12.2147 11.2423 12.1856 11.2032 12.1641C11.164 12.1426 11.1209 12.1292 11.0764 12.1246C11.032 12.12 10.9871 12.1244 10.9443 12.1375C10.9016 12.1506 10.8619 12.1721 10.8277 12.2008C10.2643 12.6547 9.80966 13.2289 9.49713 13.8814C9.18459 14.5339 9.02207 15.248 9.02148 15.9715C9.02148 18.7208 11.3579 20.8776 14.351 20.8953H14.3911C17.9447 20.8491 20.5143 18.2172 20.5143 14.62C20.5143 11.4258 18.1618 8.02522 13.8074 8.02522H13.8065Z" fill="white"/>
<rect x="0.5" y="0.5" width="55" height="31" rx="5.5" stroke="black" stroke-opacity="0.14"/>
</svg>
