<svg width="24" height="24" viewBox="0 0 24 24" fill="none" xmlns="http://www.w3.org/2000/svg">
<g clip-path="url(#clip0_5922_336)">
<path d="M11.9999 0C5.37253 0 0 5.37267 0 11.9999C0 17.0838 3.16289 21.4298 7.62689 23.1782C7.52189 22.2288 7.42716 20.7686 7.66856 19.7321C7.88653 18.7956 9.07566 13.7673 9.07566 13.7673C9.07566 13.7673 8.71664 13.0485 8.71664 11.9857C8.71664 10.3171 9.68377 9.07144 10.888 9.07144C11.9117 9.07144 12.4064 9.84014 12.4064 10.7618C12.4064 11.7915 11.7509 13.3307 11.4125 14.7572C11.1298 15.9517 12.0115 16.9257 13.1895 16.9257C15.3224 16.9257 16.9618 14.6768 16.9618 11.4306C16.9618 8.55745 14.8972 6.54858 11.9494 6.54858C8.53495 6.54858 6.53077 9.10955 6.53077 11.7562C6.53077 12.7876 6.92803 13.8935 7.42383 14.4946C7.5218 14.6135 7.53623 14.7177 7.50708 14.8388C7.41591 15.2179 7.21355 16.0329 7.17375 16.1997C7.12139 16.4194 6.9998 16.466 6.77245 16.3602C5.27367 15.6625 4.33669 13.4715 4.33669 11.7114C4.33669 7.92605 7.08694 4.4498 12.2655 4.4498C16.4283 4.4498 19.6634 7.416 19.6634 11.3803C19.6634 15.516 17.0558 18.8443 13.4364 18.8443C12.2205 18.8443 11.0773 18.2126 10.686 17.4664C10.686 17.4664 10.0843 19.7576 9.93839 20.319C9.66736 21.3614 8.93611 22.6679 8.44692 23.4648C9.56981 23.8125 10.763 24 11.9999 24C18.6275 24 24 18.6275 24 11.9999C24 5.37267 18.6275 0 11.9999 0V0Z" fill="#E71D27"/>
</g>
<defs>
<clipPath id="clip0_5922_336">
<rect width="24" height="24" fill="white"/>
</clipPath>
</defs>
</svg>
