<svg width="24" height="24" viewBox="0 0 24 24" fill="none" xmlns="http://www.w3.org/2000/svg">
<g clip-path="url(#clip0_5922_194)">
<path fill-rule="evenodd" clip-rule="evenodd" d="M12.131 0.5H12.6975V0.521326C14.067 0.628525 16.905 1.25206 18.337 4.45892L18.3375 4.46011C18.6323 5.12484 18.7299 5.97754 18.751 6.81642C18.7724 7.66445 18.7157 8.56069 18.6662 9.33633L18.6631 9.39865C18.6626 9.40587 18.662 9.41307 18.6616 9.42025C18.8373 9.3877 19.0496 9.31838 19.2844 9.20543C19.5439 9.07015 19.8057 9.05226 19.9543 9.05226C20.1725 9.05226 20.4027 9.0857 20.6146 9.16902C21.1658 9.35697 21.6413 9.81336 21.6455 10.4332C21.6558 10.8205 21.4788 11.148 21.2123 11.4046C20.9529 11.6543 20.5923 11.8559 20.1686 12.0252L20.1535 12.0313L20.138 12.0363C20.1065 12.0466 20.069 12.0599 20.0182 12.078L20.0023 12.0837C19.9463 12.1036 19.8798 12.1271 19.8083 12.1504L19.7971 12.154C19.5821 12.2185 19.3482 12.2938 19.1505 12.395C18.9481 12.4986 18.8643 12.5891 18.8379 12.643C18.8262 12.6783 18.8101 12.7872 18.9023 12.9874L18.925 13.0101L18.9632 13.0967C18.9879 13.1526 19.3305 13.93 20.03 14.752C20.7353 15.5808 21.7716 16.4187 23.1781 16.6509L23.1817 16.6515C23.6582 16.7338 24.0216 17.1562 23.9991 17.6474C23.9971 17.7831 23.9686 17.911 23.9212 18.0313L23.9169 18.042C23.7216 18.505 23.2557 18.8076 22.7229 19.023C22.2325 19.2214 21.595 19.3817 20.8199 19.5117C20.8065 19.5671 20.7936 19.6247 20.7808 19.6816C20.7789 19.6903 20.7769 19.699 20.775 19.7076C20.7429 19.9001 20.6951 20.0899 20.6349 20.2844C20.5728 20.5004 20.4519 20.6988 20.2568 20.8393C20.0624 20.9791 19.838 21.0301 19.6237 21.0301H19.5949C19.409 21.0301 19.1893 20.9892 18.9855 20.9503L18.9773 20.9487C18.6568 20.8819 18.3038 20.8298 17.8594 20.8298C17.5884 20.8298 17.3357 20.8435 17.0767 20.8921L17.0698 20.8934C16.6244 20.9706 16.2152 21.2408 15.62 21.6574V21.6574L15.585 21.682C14.776 22.2503 13.7342 22.9822 12.1764 22.9822C12.1153 22.9822 12.0591 22.9751 12.0332 22.9718L12.0282 22.9711C12.0098 22.9688 12.0002 22.9679 12.0002 22.9679H11.8611C10.282 22.9679 9.24808 22.2304 8.42914 21.6412C7.83561 21.225 7.44448 20.9594 7.00379 20.8801C6.72099 20.8399 6.44678 20.8154 6.19344 20.8154C5.76318 20.8154 5.42596 20.8804 5.13393 20.9367C5.11282 20.9408 5.09194 20.9448 5.07128 20.9487C4.87248 20.9892 4.65541 21.0291 4.45692 21.0291C4.16951 21.0291 3.92299 20.9396 3.73445 20.7737C3.55613 20.6168 3.46682 20.4245 3.42088 20.2755C3.38456 20.1607 3.3592 20.0494 3.33891 19.9548C3.33296 19.9271 3.32759 19.9016 3.32256 19.8777C3.30889 19.8128 3.29768 19.7596 3.28409 19.7058C3.27229 19.6594 3.26018 19.607 3.24893 19.5583L3.24647 19.5477C3.24223 19.5294 3.23807 19.5114 3.23396 19.4939C2.44208 19.3872 1.79431 19.2395 1.29662 19.0454C0.75691 18.835 0.294124 18.531 0.0968901 18.0659C0.0394369 17.9426 0.00735187 17.7995 0.00151527 17.6719C-0.0266228 17.1707 0.340539 16.7484 0.818369 16.6659L0.821774 16.6653C2.22785 16.4327 3.26397 15.5946 3.96927 14.7651C4.67397 13.9363 5.01654 13.1523 5.03591 13.1076L5.04544 13.0855L5.06936 13.0422C5.21179 12.7671 5.17332 12.6617 5.17146 12.6577L5.16805 12.6504C5.14698 12.6036 5.06566 12.5119 4.84929 12.4014C4.65235 12.3007 4.42517 12.2239 4.20767 12.1506C4.06481 12.1145 3.93295 12.0638 3.82696 12.019C3.25556 11.7937 2.86292 11.5279 2.6254 11.2161C2.37237 10.884 2.3258 10.5394 2.37643 10.25L2.37751 10.2438C2.45418 9.83578 2.73092 9.54172 3.01636 9.36137C3.30374 9.17978 3.65421 9.07622 3.98829 9.07622C4.19878 9.07622 4.38027 9.11887 4.54033 9.18261L4.55281 9.18758L4.56501 9.19322C4.88555 9.34128 5.13525 9.41308 5.32472 9.43041L5.3157 9.3188L5.313 9.27227C5.26694 8.50862 5.21398 7.6304 5.23577 6.79972C5.2577 5.96361 5.35561 5.11286 5.65183 4.45096C7.2474 0.797512 10.7185 0.516057 11.7293 0.514383L12.131 0.5ZM12.1221 1.50096L11.7474 1.51438H11.7384C10.8437 1.51438 7.91719 1.75975 6.56738 4.85317L6.56534 4.85785C6.35256 5.33221 6.25659 6.01903 6.23542 6.82594C6.21478 7.61288 6.26551 8.45441 6.3123 9.23055L6.31368 9.25353L6.3833 10.1147L6.1018 10.2711C5.95514 10.3526 5.72838 10.4346 5.41335 10.4346C5.01196 10.4346 4.58691 10.3034 4.15995 10.1076C4.10688 10.0876 4.05339 10.0762 3.98829 10.0762C3.84895 10.0762 3.68289 10.1231 3.55051 10.2068C3.41845 10.2902 3.37151 10.3746 3.36086 10.4259C3.35446 10.4651 3.35324 10.5214 3.42084 10.6101C3.50518 10.7208 3.71286 10.8998 4.19895 11.0908L4.21154 11.0957C4.30195 11.1341 4.38701 11.1655 4.46421 11.184L4.48607 11.1892L4.50737 11.1964C4.51857 11.2002 4.53008 11.204 4.54187 11.208C4.74689 11.2769 5.03841 11.375 5.30442 11.5109C5.57138 11.6474 5.91222 11.8701 6.07864 12.237C6.27558 12.6613 6.15247 13.1281 5.95344 13.5096L5.94805 13.5199L5.94354 13.5278C5.86874 13.6963 5.48003 14.532 4.73111 15.4128C3.94051 16.3427 2.71684 17.3588 1.00574 17.6485L1.00982 17.6567L1.01634 17.6727C1.05169 17.7591 1.19394 17.9321 1.65993 18.1138C2.1084 18.2887 2.76719 18.4361 3.66724 18.5403L3.87118 18.5639L3.99968 18.724C4.07351 18.816 4.11083 18.9225 4.12559 18.9652C4.14655 19.0258 4.16448 19.0912 4.1792 19.1489C4.19424 19.2079 4.20844 19.2691 4.22073 19.3222L4.22223 19.3287C4.23445 19.3816 4.24441 19.4246 4.25343 19.4601C4.27241 19.5352 4.28964 19.6169 4.30437 19.687C4.30866 19.7074 4.31275 19.7269 4.31664 19.745C4.33549 19.8328 4.35303 19.9069 4.37474 19.9752L4.37634 19.9803C4.384 20.0053 4.39125 20.0173 4.39431 20.0216V20.0216C4.39899 20.0233 4.41766 20.0291 4.45692 20.0291C4.54303 20.0291 4.66978 20.01 4.87459 19.9683L4.88058 19.9671C4.90279 19.9628 4.92587 19.9584 4.94979 19.9538C5.24326 19.8969 5.66442 19.8154 6.19344 19.8154C6.51079 19.8154 6.83753 19.8461 7.15372 19.8914L7.16137 19.8925L7.16898 19.8938C7.85042 20.0131 8.41561 20.4098 8.94878 20.7842C8.96781 20.7975 8.98679 20.8108 9.00573 20.8241L9.01071 20.8276C9.8244 21.413 10.6281 21.9679 11.8611 21.9679H12.0039C12.0655 21.9679 12.1217 21.975 12.1481 21.9783L12.1528 21.9789C12.1707 21.9812 12.1784 21.982 12.1807 21.9822C13.4112 21.9809 14.2258 21.4145 15.0458 20.8387L15.0662 20.8245C15.6143 20.4407 16.2007 20.0302 16.8954 19.9087C17.237 19.8448 17.5563 19.8298 17.8594 19.8298C18.3866 19.8298 18.8086 19.8922 19.1771 19.9688C19.402 20.0117 19.5225 20.0301 19.5949 20.0301H19.6237C19.6445 20.0301 19.6587 20.0283 19.6675 20.0267C19.6694 20.0219 19.6717 20.0155 19.6741 20.0069L19.6779 19.9935C19.7302 19.8254 19.7672 19.6753 19.7904 19.532L19.7929 19.5169L19.7962 19.5019C19.7989 19.4902 19.8017 19.4777 19.8046 19.4647C19.8236 19.3802 19.8478 19.2723 19.8737 19.1741C19.8887 19.117 19.9063 19.0555 19.9262 18.998C19.9431 18.9492 19.9732 18.8684 20.0216 18.7937L20.144 18.605L20.3664 18.5713C21.2477 18.4382 21.8999 18.2772 22.348 18.096C22.807 17.9104 22.9546 17.7427 22.9931 17.6585C22.9977 17.646 22.9988 17.6387 22.9991 17.6349C21.2851 17.3468 20.0597 16.33 19.2684 15.4001C18.5915 14.6047 18.2092 13.8465 18.0877 13.587L18.0837 13.583L18.0484 13.5159C17.8346 13.1096 17.752 12.663 17.912 12.2648L17.9166 12.2532C18.0797 11.875 18.4208 11.6451 18.6948 11.5048C18.9789 11.3594 19.2878 11.2627 19.5038 11.1978C19.5598 11.1795 19.6138 11.1605 19.6672 11.1415L19.6844 11.1354C19.7261 11.1205 19.7706 11.1047 19.8114 11.0911C20.1683 10.9471 20.392 10.8062 20.5186 10.6842C20.6379 10.5694 20.6471 10.4977 20.6458 10.4583L20.6455 10.45V10.4416C20.6455 10.3834 20.5873 10.2133 20.2849 10.1132L20.2691 10.1079L20.2537 10.1017C20.1825 10.0727 20.0794 10.0523 19.9543 10.0523C19.9182 10.0523 19.8786 10.0547 19.8399 10.062C19.801 10.0692 19.7693 10.0801 19.7449 10.0931L19.7363 10.0977L19.7274 10.102C19.3297 10.2945 18.9197 10.4198 18.5463 10.4397L18.533 10.4404H18.5197C18.2539 10.4404 18.0393 10.3796 17.8781 10.2829L17.6215 10.1289L17.6359 9.82992C17.6437 9.66904 17.6534 9.50895 17.6649 9.33622L17.668 9.276C17.718 8.49224 17.7714 7.63899 17.7514 6.84159C17.731 6.0341 17.6356 5.34457 17.4236 4.86602C16.0321 1.7507 13.0911 1.50096 12.1975 1.50096H12.1221Z" fill="black"/>
</g>
<defs>
<clipPath id="clip0_5922_194">
<rect width="24" height="24" fill="white"/>
</clipPath>
</defs>
</svg>
