<svg width="24" height="24" viewBox="0 0 24 24" fill="none" xmlns="http://www.w3.org/2000/svg">
<g clip-path="url(#clip0_5922_342)">
<path d="M10.1592 9.66444L14.8637 12.3409L10.1592 15.0174V9.66444Z" fill="#FF0302"/>
<path fill-rule="evenodd" clip-rule="evenodd" d="M24 12C24 18.6274 18.6274 24 12 24C5.37258 24 0 18.6274 0 12C0 5.37258 5.37258 0 12 0C18.6274 0 24 5.37258 24 12ZM20.6236 7.98C20.5219 7.59706 20.3213 7.24757 20.042 6.96649C19.7628 6.68542 19.4146 6.48263 19.0323 6.37841C17.625 6 12 6 12 6C12 6 6.375 6 4.96773 6.37841C4.58545 6.48263 4.23724 6.68542 3.95797 6.96649C3.67869 7.24757 3.47813 7.59706 3.37636 7.98C3 9.39341 3 12.3409 3 12.3409C3 12.3409 3 15.2884 3.37636 16.7018C3.47813 17.0848 3.67869 17.4343 3.95797 17.7153C4.23724 17.9964 4.58545 18.1992 4.96773 18.3034C6.375 18.6818 12 18.6818 12 18.6818C12 18.6818 17.625 18.6818 19.0323 18.3034C19.4146 18.1992 19.7628 17.9964 20.042 17.7153C20.3213 17.4343 20.5219 17.0848 20.6236 16.7018C21 15.2884 21 12.3409 21 12.3409C21 12.3409 21 9.39341 20.6236 7.98Z" fill="#FF0302"/>
</g>
<defs>
<clipPath id="clip0_5922_342">
<rect width="24" height="24" fill="white"/>
</clipPath>
</defs>
</svg>
