<!--

Sourced from The Wolf Kit https://figma.com/community/file/1203393186896008602
Licensed as CC BY 4.0

https://feathericons.dev/hiper-2

-->
<svg xmlns="http://www.w3.org/2000/svg" viewBox="0 0 56 32" width="56" height="32" fill="none">
  <rect fill="#fff" height="31" rx="5.5" width="55" x=".5" y=".5" />
  <path d="M20.407 8a1.476 1.476 0 0 1 0 2.95 1.476 1.476 0 0 1 0-2.95ZM7 8.509v12.716h2.885v-5.32h4.738v5.32h2.87V8.509h-2.87v4.89H9.884v-4.89H7Z" fill="#687076" />
  <path clip-rule="evenodd" d="M42.33 17.526c.036-.21.094-.64.094-1.133 0-2.282-1.134-4.607-4.113-4.607-3.204 0-4.658 2.587-4.658 4.926 0 2.885 1.795 4.702 4.927 4.702 1.243 0 2.398-.19 3.343-.567l-.378-1.94c-.77.247-1.57.378-2.55.378-1.338 0-2.508-.567-2.602-1.751h5.937v-.008Zm-5.966-1.962c.073-.77.567-1.867 1.773-1.867 1.322 0 1.62 1.17 1.62 1.867h-3.393Z" fill="#687076" fill-rule="evenodd" />
  <path d="M46.21 21.225h-2.87v-6.191c0-1.359-.037-2.245-.073-3.037h2.47l.095 1.7h.073c.472-1.337 1.605-1.904 2.492-1.904.262 0 .392 0 .603.036v2.696a4.198 4.198 0 0 0-.77-.072c-1.054 0-1.773.566-1.962 1.453a3.487 3.487 0 0 0-.058.64v4.679Z" fill="#687076" />
  <path clip-rule="evenodd" d="M21.882 11.99h-2.95v5.202c0 2.107 1.467 4.127 4.657 4.142v.089c-.007 1.19-.014 2.35-.014 3.457h2.95c0-1.184 0-2.369-.015-3.546h1.396c6.002 0 5.566-5.813 4.294-7.84-1.235-1.97-4.905-2.478-6.067-.153-.044-.45-.095-.901-.146-1.352h-2.463c.08 2.34.087 4.752.08 7.092-1.185 0-1.722-.922-1.722-1.889v-5.203Zm6.024 7.084h-1.44c-.002-.098-.006-.197-.01-.296-.008-.203-.016-.407-.011-.612-.002-.15-.007-.316-.012-.491-.045-1.472-.112-3.637 1.72-3.637 1.78 0 1.853 2.18 1.853 3.147 0 .966-.654 1.889-2.1 1.889Z" fill="#687076" fill-rule="evenodd" />
  <rect height="31" rx="5.5" stroke="#687076" width="55" x=".5" y=".5" />
</svg>
