<svg width="24" height="24" viewBox="0 0 24 24" fill="none" xmlns="http://www.w3.org/2000/svg">
<g clip-path="url(#clip0_5922_296)">
<path fill-rule="evenodd" clip-rule="evenodd" d="M0.653961 3.27606C0 4.55953 0 6.23969 0 9.6V14.4C0 17.7603 0 19.4405 0.653961 20.7239C1.2292 21.8529 2.14708 22.7708 3.27606 23.346C4.55953 24 6.23969 24 9.6 24H14.4C17.7603 24 19.4405 24 20.7239 23.346C21.8529 22.7708 22.7708 21.8529 23.346 20.7239C24 19.4405 24 17.7603 24 14.4V9.6C24 6.23969 24 4.55953 23.346 3.27606C22.7708 2.14708 21.8529 1.2292 20.7239 0.653961C19.4405 0 17.7603 0 14.4 0H9.6C6.23969 0 4.55953 0 3.27606 0.653961C2.14708 1.2292 1.2292 2.14708 0.653961 3.27606ZM17.3344 17.5155C17.6663 17.0424 17.9527 16.5279 18.1946 15.9689C18.2944 15.7318 18.3882 15.4849 18.4771 15.2272C18.0672 15.0553 17.6989 14.8133 17.369 14.5003C16.6411 13.8257 16.2707 12.9762 16.2599 11.9553C16.248 10.6446 16.8436 9.62288 18.0475 8.89342C17.3749 7.9374 16.3636 7.40675 15.0175 7.29811C14.5207 7.25594 13.9143 7.363 13.1958 7.62156C12.436 7.90036 11.9878 8.04021 11.8556 8.04021C11.6787 8.04021 11.2753 7.92061 10.6469 7.68476C10.0168 7.44971 9.50978 7.33011 9.12313 7.33011C8.41648 7.34186 7.76031 7.52556 7.15302 7.88604C6.54573 8.24652 6.06051 8.73757 5.69578 9.36007C5.2317 10.1351 5 11.0599 5 12.1321C5 13.0682 5.17185 14.0351 5.51465 15.0336C5.83474 15.958 6.24332 16.7688 6.74029 17.4681C7.20349 18.1229 7.59014 18.5851 7.89926 18.8547C8.38359 19.3051 8.86881 19.5194 9.35561 19.4986C9.6757 19.4878 10.0944 19.3781 10.614 19.1678C11.1329 18.9584 11.6181 18.8547 12.0704 18.8547C12.5017 18.8547 12.9734 18.9584 13.4866 19.1678C13.9982 19.3781 14.4377 19.4818 14.8022 19.4818C15.3098 19.47 15.7838 19.2616 16.2263 18.8547C16.5117 18.6068 16.8821 18.1604 17.3344 17.5155ZM14.2323 6.05894C14.815 5.3674 15.1073 4.62027 15.1073 3.82009C15.1073 3.71396 15.1024 3.60697 15.0905 3.5C14.6846 3.52106 14.253 3.64404 13.7968 3.86641C13.3395 4.09215 12.9624 4.37514 12.6659 4.71547C12.0721 5.38765 11.7377 6.20975 11.7377 6.97792C11.7377 7.08409 11.7445 7.18512 11.7562 7.28112C12.6786 7.35608 13.5291 6.88104 14.2323 6.05894Z" fill="#555555"/>
</g>
<defs>
<clipPath id="clip0_5922_296">
<rect width="24" height="24" fill="white"/>
</clipPath>
</defs>
</svg>
