<svg width="56" height="32" viewBox="0 0 56 32" fill="none" xmlns="http://www.w3.org/2000/svg">
<rect x="0.5" y="0.5" width="55" height="31" rx="5.5" fill="#687076"/>
<path d="M8.10126 16.9284C7.25537 17.6724 7.76145 19.0317 9.47298 19.0317C10.4675 19.0317 11.462 18.3905 12.2424 17.3638C11.1315 16.8172 10.19 16.4265 9.1737 16.5273C8.89935 16.5543 8.38392 16.6769 8.10126 16.9284Z" fill="white"/>
<path fill-rule="evenodd" clip-rule="evenodd" d="M8.26246 10.5H15.7394C16.7131 10.5 17.5018 11.295 17.5008 12.277V19.8173C17.5008 20.7983 16.7131 21.5943 15.7394 21.5943H8.26246C7.28874 21.5943 6.5 20.7983 6.5 19.8173V12.277C6.5 11.296 7.28874 10.5 8.26246 10.5ZM14.5332 17.0957C14.9229 17.2405 15.2721 17.3702 15.5574 17.4667C17.1166 17.9922 17.4898 18.0289 17.5004 18.0299C17.5005 18.0299 17.5006 18.0299 17.5004 18.0299L17.5007 19.7446C17.5007 19.7446 14.6398 18.5412 13.1943 17.8408C12.2258 19.0431 10.9756 19.7726 9.6777 19.7726C7.48295 19.7726 6.73785 17.8356 7.77704 16.5605C8.00358 16.282 8.38911 16.017 8.98768 15.8684C9.92295 15.6367 11.4131 16.0129 12.8088 16.4774C13.0592 16.0108 13.2712 15.4964 13.4281 14.9498H9.1259V14.5102H11.3446V13.7225H8.65826V13.2829H11.3446V12.1596C11.3446 12.1596 11.3446 11.9704 11.5347 11.9704H12.6186V13.284H15.2747V13.7236H12.6186V14.5113H14.7874C14.5795 15.3686 14.2636 16.1573 13.8687 16.8505C14.0996 16.9347 14.3223 17.0174 14.5332 17.0957Z" fill="white"/>
<path d="M30.3876 12.1243C30.3876 12.6979 30.8074 13.0845 31.3925 13.0845C31.9775 13.0845 32.3974 12.6979 32.3974 12.1243C32.3974 11.561 31.9775 11.1641 31.3925 11.1641C30.8074 11.1641 30.3876 11.561 30.3876 12.1243Z" fill="white"/>
<path fill-rule="evenodd" clip-rule="evenodd" d="M27.5837 11.4062H29.3274V19.464H27.5837V11.4062ZM22.1864 11.6826H24.5267L26.8783 19.465H24.8145L24.3947 17.9416H21.6242L21.1826 19.465H19.5708L22.1864 11.6826ZM23.025 13.0844L21.9879 16.6717H24.0507L23.0687 13.0844H23.025ZM32.2643 13.548H30.5206V19.4651H32.2643V13.548ZM50.4998 13.548L50.4894 13.5594L47.5194 21.3408H45.9856V21.2972L46.9676 19.4869L44.617 13.548H46.5707L47.7626 17.1467H47.8177L48.8558 13.548H50.4998ZM36.6027 13.4264C35.9625 13.4264 35.4658 13.6695 34.9026 14.133V13.5479H33.1588V21.3408H34.9026V19.4089C35.2341 19.4973 35.5427 19.542 35.9178 19.542C37.4745 19.542 38.8764 18.3937 38.8764 16.3517C38.8764 14.5196 37.8611 13.4264 36.6027 13.4264ZM35.498 18.4487C35.2995 18.4487 35.1114 18.4269 34.9015 18.3604V15.1597C35.2663 14.9062 35.5635 14.7846 35.9386 14.7846C36.5902 14.7846 37.1088 15.3031 37.1088 16.4078C37.1098 17.82 36.3481 18.4487 35.498 18.4487ZM44.2743 15.513V17.9853L44.4832 19.4651H42.7394L42.6179 18.8467C41.9445 19.3549 41.4477 19.5866 40.8294 19.5866C40.0022 19.5866 39.1189 18.9798 39.1189 17.8429C39.1189 17.368 39.2405 16.9596 39.5273 16.6728C39.9129 16.2862 40.5312 16.0763 42.5295 15.7011V15.6575C42.5295 15.0277 42.2749 14.6193 41.7013 14.6193C41.2264 14.6193 40.7743 14.8178 39.7476 15.2813L39.439 13.9231C40.5655 13.5812 41.1827 13.4264 42.0775 13.4264C43.4793 13.4264 44.2743 14.1663 44.2743 15.513ZM41.4935 18.3833C41.8021 18.3833 42.0671 18.2835 42.5306 18.0299V16.6177C41.5922 16.838 41.1838 16.9928 40.9739 17.2028C40.8419 17.3347 40.8086 17.501 40.8086 17.6662C40.8086 18.1068 41.0736 18.3833 41.4935 18.3833Z" fill="white"/>
<rect x="0.5" y="0.5" width="55" height="31" rx="5.5" stroke="#687076"/>
</svg>
