<svg width="56" height="32" viewBox="0 0 56 32" fill="none" xmlns="http://www.w3.org/2000/svg">
<rect x="0.5" y="0.5" width="55" height="31" rx="5.5" fill="#687076"/>
<path fill-rule="evenodd" clip-rule="evenodd" d="M12.2889 10C13.1768 10 13.8964 10.19 14.4479 10.5692C14.9992 10.9489 15.2751 11.5609 15.2751 12.4058C15.2751 13.6378 14.924 14.6008 14.2224 15.2952C13.5206 15.9901 12.5539 16.3371 11.3223 16.3371C11.2793 16.3371 11.179 16.3301 11.0216 16.3158C10.8638 16.3016 10.7278 16.2943 10.6133 16.2943C10.4986 16.2943 10.377 16.3051 10.2481 16.3263C10.1192 16.3477 10.0118 16.3946 9.92592 16.4661C9.83997 16.5378 9.78961 16.6309 9.77549 16.7455L9.38886 19.1084C9.35997 19.3807 9.20258 19.5165 8.91622 19.5165H7.28358C7.19763 19.5165 7.12586 19.4808 7.0688 19.4091C7.01141 19.3376 6.98987 19.2588 7.00438 19.1728L8.40064 10.4081C8.4292 10.1361 8.57957 10 8.85174 10H12.2889ZM12.1172 14.1891C12.418 14.0315 12.6039 13.7023 12.6758 13.2009C12.7617 12.6712 12.6758 12.3237 12.4181 12.1589C12.1603 11.9945 11.7447 11.912 11.1721 11.912H10.7638C10.6062 11.912 10.5131 11.9908 10.4846 12.1482L10.1194 14.4468L10.8283 14.4254C11.3868 14.4254 11.8164 14.3469 12.1172 14.1891Z" fill="white"/>
<path d="M31.4299 13.2551C31.4868 13.3193 31.5156 13.3875 31.5156 13.4589C31.5156 13.531 31.5014 13.5809 31.4729 13.6092L25.9948 21.515C25.8944 21.6583 25.7655 21.7297 25.6081 21.7297H23.954C23.7676 21.7297 23.6747 21.6368 23.6747 21.4504C23.6747 21.336 24.2617 20.4768 25.4361 18.8725C25.4217 18.8157 25.2536 18.3142 24.9313 17.3691C24.609 16.4238 24.3083 15.543 24.0291 14.7264C23.7499 13.9101 23.6102 13.4878 23.6102 13.4589C23.6102 13.3876 23.6387 13.3193 23.6962 13.2551C23.7531 13.1905 23.8175 13.1582 23.8893 13.1582H25.5007C25.744 13.1582 25.9013 13.2731 25.9733 13.502L26.9185 16.7243L29.1956 13.373C29.2957 13.2302 29.4246 13.1582 29.5824 13.1582H31.2365C31.308 13.1582 31.3725 13.1906 31.4299 13.2551Z" fill="white"/>
<path fill-rule="evenodd" clip-rule="evenodd" d="M22.5144 13.1583H20.8817C20.6809 13.1583 20.5594 13.3947 20.5164 13.8674C20.1297 13.2947 19.4494 13.0079 18.4755 13.0079C17.4444 13.0079 16.567 13.3947 15.8439 14.1681C15.1206 14.9414 14.7591 15.8511 14.7591 16.8965C14.7591 17.7416 15.0062 18.4147 15.5003 18.9158C15.9944 19.4174 16.6566 19.6677 17.4874 19.6677C17.8882 19.6677 18.3038 19.5816 18.7333 19.4099C19.1629 19.238 19.5067 19.009 19.7645 18.7224C19.707 18.8942 19.6785 19.0446 19.6785 19.1733C19.6785 19.4028 19.7716 19.517 19.9578 19.517H21.4401C21.712 19.517 21.8697 19.3812 21.9127 19.1089L22.7934 13.502C22.8075 13.416 22.7861 13.3374 22.729 13.2656C22.6717 13.1942 22.6002 13.1583 22.5144 13.1583ZM19.7109 17.4012C19.3456 17.7525 18.8979 17.9275 18.3683 17.9275C17.9527 17.9275 17.6197 17.8131 17.3693 17.5838C17.1185 17.3552 16.9933 17.0401 16.9933 16.6386C16.9933 16.1091 17.1723 15.6612 17.5304 15.296C17.8882 14.9308 18.3322 14.7482 18.8623 14.7482C19.2631 14.7482 19.5961 14.8664 19.8613 15.1026C20.1261 15.339 20.2587 15.6648 20.2587 16.0802C20.2587 16.6101 20.0761 17.0507 19.7109 17.4012Z" fill="white"/>
<path fill-rule="evenodd" clip-rule="evenodd" d="M38.8522 10.5692C38.3008 10.19 37.5813 10 36.6933 10H33.2775C32.991 10 32.8334 10.1361 32.8049 10.4081L31.4085 19.1728C31.394 19.2588 31.4156 19.3376 31.473 19.4091C31.5298 19.4808 31.6018 19.5165 31.6877 19.5165H33.4492C33.621 19.5165 33.7356 19.4235 33.793 19.2373L34.1797 16.7455C34.194 16.6309 34.2441 16.5378 34.3301 16.4661C34.4161 16.3946 34.5234 16.3477 34.6524 16.3263C34.7812 16.3051 34.9027 16.2943 35.0176 16.2943C35.1321 16.2943 35.268 16.3016 35.4256 16.3158C35.5831 16.3301 35.6837 16.3371 35.7264 16.3371C36.9582 16.3371 37.9247 15.9901 38.6266 15.2952C39.3284 14.6008 39.6792 13.6378 39.6792 12.4058C39.6793 11.5609 39.4034 10.9488 38.8522 10.5692ZM36.6503 14.1031C36.3352 14.3178 35.8625 14.4252 35.2325 14.4252L34.545 14.4467L34.9102 12.148C34.9386 11.9907 35.0317 11.9118 35.1894 11.9118H35.576C35.8911 11.9118 36.1416 11.9261 36.3281 11.9547C36.5139 11.9835 36.6933 12.0728 36.8651 12.2231C37.0371 12.3736 37.1229 12.5921 37.1229 12.8784C37.1229 13.4801 36.9652 13.8881 36.6503 14.1031Z" fill="white"/>
<path d="M49.131 10H50.7205C50.9066 10 51 10.1005 51 10.3011V10.3224L49.6038 19.1087C49.5747 19.381 49.4243 19.5168 49.1526 19.5168H47.7346C47.6487 19.5168 47.5768 19.4846 47.5198 19.4202C47.4624 19.3558 47.4338 19.2881 47.4338 19.2161L47.4553 19.1731L48.8517 10.2365C48.88 10.0788 48.973 10 49.131 10Z" fill="white"/>
<path fill-rule="evenodd" clip-rule="evenodd" d="M45.2862 13.1583H46.9189C47.0048 13.1583 47.0762 13.1942 47.1338 13.2656C47.191 13.3374 47.2124 13.416 47.1983 13.502L46.3173 19.1089C46.2745 19.3812 46.1168 19.517 45.845 19.517H44.3626C44.1762 19.517 44.0833 19.4028 44.0833 19.1733C44.0833 19.1166 44.0974 19.0303 44.1264 18.9156C44.1547 18.801 44.1693 18.7368 44.1693 18.7224C43.9254 19.009 43.5891 19.238 43.1595 19.4099C42.7299 19.5816 42.3074 19.6677 41.8922 19.6677C41.0612 19.6677 40.399 19.4174 39.9049 18.9158C39.4109 18.4147 39.1638 17.7416 39.1638 16.8965C39.1638 15.8511 39.5253 14.9414 40.2487 14.1681C40.9717 13.3947 41.849 13.0079 42.8801 13.0079C43.8685 13.0079 44.5483 13.2947 44.9212 13.8674C44.9642 13.3947 45.0855 13.1583 45.2862 13.1583ZM42.7943 17.9275C43.3098 17.9275 43.7503 17.7486 44.1155 17.3905C44.4806 17.0327 44.6632 16.5957 44.6634 16.0802C44.6634 15.6648 44.5305 15.339 44.2658 15.1026C44.0006 14.8664 43.6675 14.7483 43.2669 14.7483C42.737 14.7483 42.2926 14.9308 41.9351 15.296C41.5769 15.6612 41.3978 16.1091 41.3978 16.6386C41.3978 17.0401 41.5267 17.3552 41.7846 17.5838C42.0425 17.8131 42.3788 17.9275 42.7943 17.9275Z" fill="white"/>
<rect x="0.5" y="0.5" width="55" height="31" rx="5.5" stroke="#687076"/>
</svg>
