<svg width="56" height="32" viewBox="0 0 56 32" fill="none" xmlns="http://www.w3.org/2000/svg">
<g clip-path="url(#clip0_5916_626)">
<path d="M38.6699 18.6609C37.2007 24.5538 31.2322 28.1402 25.3386 26.6706C19.4474 25.2015 15.8611 19.2326 17.3309 13.34C18.7994 7.44643 24.768 3.85974 30.6598 5.32893C36.5531 6.79812 40.1391 12.7677 38.6699 18.6609Z" fill="#F7931A"/>
<path d="M32.8501 14.4328C33.069 12.9691 31.9546 12.1823 30.4308 11.6574L30.9251 9.67461L29.7182 9.37383L29.2369 11.3043C28.9196 11.2253 28.5938 11.1507 28.2699 11.0768L28.7546 9.13354L27.5484 8.83276L27.0538 10.8148C26.7911 10.755 26.5333 10.6959 26.2831 10.6337L26.2844 10.6275L24.62 10.2119L24.2989 11.501C24.2989 11.501 25.1944 11.7062 25.1755 11.7189C25.6643 11.8409 25.7527 12.1644 25.7379 12.4208L25.1748 14.6796C25.2085 14.6882 25.2522 14.7006 25.3003 14.7198C25.2601 14.7099 25.2171 14.6989 25.1728 14.6882L24.3835 17.8524C24.3237 18.0009 24.1721 18.2237 23.8304 18.1391C23.8424 18.1566 22.9532 17.9201 22.9532 17.9201L22.354 19.3017L23.9246 19.6932C24.2168 19.7664 24.5031 19.8431 24.785 19.9153L24.2855 21.9207L25.4911 22.2215L25.9857 20.2374C26.315 20.3267 26.6347 20.4092 26.9475 20.4869L26.4546 22.4618L27.6615 22.7625L28.161 20.7609C30.219 21.1504 31.7666 20.9933 32.418 19.1319C32.9429 17.6331 32.3918 16.7686 31.309 16.2048C32.0976 16.023 32.6916 15.5043 32.8501 14.4328V14.4328ZM30.0925 18.2996C29.7195 19.7984 27.1961 18.9882 26.3779 18.785L27.0407 16.1282C27.8588 16.3324 30.4823 16.7366 30.0925 18.2996ZM30.4658 14.4111C30.1255 15.7745 28.0252 15.0818 27.3439 14.912L27.9448 12.5023C28.6261 12.6721 30.8202 12.989 30.4658 14.4111V14.4111Z" fill="white"/>
</g>
<rect x="0.5" y="0.5" width="55" height="31" rx="5.5" stroke="#DFE3E6"/>
<defs>
<clipPath id="clip0_5916_626">
<rect width="22" height="22" fill="white" transform="translate(17 5)"/>
</clipPath>
</defs>
</svg>
