<svg width="56" height="32" viewBox="0 0 56 32" fill="none" xmlns="http://www.w3.org/2000/svg">
<path d="M18.0776 13.5952C18.5563 7.43801 21.0573 5.5755 27.5725 5.50063C27.6727 5.5 27.7703 5.5 27.8693 5.5H28.0454C28.1447 5.5 28.2419 5.5 28.3425 5.50063C29.1676 5.51009 29.9279 5.54855 30.6285 5.62027C30.5771 5.622 30.5269 5.62374 30.4703 5.62988C30.4178 5.63509 30.3521 5.639 30.2745 5.64361C29.5036 5.68946 27.5595 5.80507 25.7809 7.95376C24.7294 9.22533 24.6252 13.5952 24.6252 13.5952H18.0776Z" fill="#659AD2"/>
<path d="M23.9868 21.0875C23.2518 22.0067 22.1937 21.9449 22.1788 21.944V25.6802C19.561 24.6233 18.381 22.4196 18.0733 18.3561C18.0361 17.8665 18.0139 17.4362 18 17.0797L24.6253 17.0772L24.6209 17.4717C24.6131 18.1531 24.598 19.4775 24.5996 19.5216C24.6047 19.7157 24.5557 20.3769 23.9868 21.0875Z" fill="#659AD2"/>
<path d="M32.7259 5.98941C36.0551 6.87606 37.497 9.09196 37.8413 13.6442C37.9485 15.0581 37.9362 15.9999 37.9362 15.9999C37.9362 15.9999 37.9486 16.9422 37.8414 18.3559C37.3728 24.5525 34.8746 26.4243 28.3424 26.4995C28.2419 26.5002 27.6727 26.5002 27.5724 26.4995C26.4394 26.4863 25.4314 26.4177 24.5307 26.2837C24.5346 26.2837 24.5384 26.2837 24.5423 26.2836C24.5699 26.2834 24.597 26.2832 24.6251 26.2812C25.807 26.2134 27.4525 25.3019 28.4318 23.1813C28.8596 22.254 28.9745 20.5986 28.9745 20.5986V17.0779L28.9748 17.077H32.7262V13.5949H28.9752C28.9752 13.5949 28.9733 13.5906 28.972 13.584L28.9711 13.5794C28.9701 13.5766 28.9694 13.5736 28.9685 13.5702C28.9675 13.5662 28.9663 13.5615 28.9644 13.5558C28.9641 13.5529 28.9632 13.5484 28.9629 13.5447C28.9602 13.5346 28.9578 13.5249 28.9559 13.5115C28.955 13.5082 28.9544 13.5042 28.9539 13.5002C28.9535 13.4975 28.9531 13.4948 28.9526 13.4922C28.9501 13.4792 28.948 13.4659 28.946 13.4503C28.9445 13.4442 28.944 13.4366 28.9435 13.4294C28.9434 13.4277 28.9433 13.4261 28.9432 13.4245C28.9406 13.4079 28.9389 13.3922 28.9368 13.3732C28.9366 13.3694 28.9364 13.3653 28.9363 13.3611C28.9361 13.3551 28.9358 13.349 28.9353 13.3433C28.935 13.3393 28.9348 13.3354 28.9345 13.3314C28.9334 13.3153 28.9324 13.2991 28.9321 13.281C28.932 13.2757 28.932 13.27 28.932 13.2643C28.932 13.2586 28.932 13.2529 28.9318 13.2475C28.9318 13.2396 28.9316 13.2318 28.9315 13.2239C28.9312 13.2079 28.9309 13.1917 28.9318 13.1742C28.9318 13.1681 28.9322 13.1616 28.9326 13.1549C28.9329 13.1498 28.9332 13.1446 28.9334 13.1396C28.934 13.1117 28.9351 13.084 28.9381 13.0531C28.9384 13.0486 28.9389 13.0439 28.9395 13.0391C28.94 13.0338 28.9406 13.0285 28.9409 13.0233C28.9439 12.9896 28.9479 12.9555 28.9531 12.9193C28.9534 12.9158 28.9541 12.9123 28.9548 12.9088C28.9554 12.9053 28.9561 12.9019 28.9564 12.8986C28.9627 12.8576 28.9695 12.816 28.9785 12.7722C28.9785 12.7713 28.9788 12.7698 28.9791 12.7684C29.0425 12.4641 29.1783 12.0894 29.4506 11.6649C30.1826 10.5259 32.2613 10.5795 32.66 10.6006C32.6908 10.6025 32.7117 10.6039 32.7207 10.6045C32.724 10.6047 32.7257 10.6049 32.7259 10.6049V5.98941Z" fill="#659AD2"/>
<rect x="0.5" y="0.5" width="55" height="31" rx="5.5" stroke="#DFE3E6"/>
</svg>
