<svg width="56" height="32" viewBox="0 0 56 32" fill="none" xmlns="http://www.w3.org/2000/svg">
<path d="M12.4716 11.6011C12.9584 11.4415 13.4792 11.3548 14.0212 11.3548C16.3863 11.3548 18.3591 13.0029 18.8117 15.1922L22.1632 14.5218C21.3942 10.8009 18.0415 8 14.0212 8C13.1007 8 12.2148 8.14709 11.3877 8.41806L12.4716 11.6011Z" fill="#FECA2F"/>
<path d="M8.48306 22.3845L10.4898 19.7934C9.59404 18.8874 9.02868 17.5646 9.02868 16.0902C9.02868 14.6169 9.59351 13.2942 10.489 12.3889L8.48122 9.7981C6.95916 11.3374 6 13.5859 6 16.0902C6 18.5959 6.96056 20.8452 8.48306 22.3845" fill="#1BA7DE"/>
<path d="M18.8127 16.9902C18.3586 19.1792 16.387 20.8252 14.024 20.8252C13.4819 20.8252 12.96 20.7383 12.4731 20.5782L11.3877 23.7629C12.216 24.0352 13.1023 24.1824 14.024 24.1824C18.0406 24.1824 21.3911 21.3834 22.1632 17.664L18.8127 16.9902Z" fill="#EC412A"/>
<path fill-rule="evenodd" clip-rule="evenodd" d="M38.2885 9.7981V19.0064L39.9409 19.6687L39.1592 21.4849L37.5251 20.8281C37.1576 20.674 36.909 20.4392 36.7201 20.1741C36.5386 19.9028 36.4042 19.5321 36.4042 19.0317V9.7981H38.2885ZM25.756 16.642C25.797 14.0087 28.0396 11.9067 30.7607 11.947C33.0703 11.9821 34.9839 13.5464 35.4866 15.627L26.5539 19.3188C26.035 18.5517 25.7401 17.6289 25.756 16.642ZM27.7998 17.0112C27.7876 16.9007 27.7789 16.7874 27.7822 16.6731C27.8078 15.1216 29.1281 13.8837 30.7313 13.9094C31.604 13.9206 32.3788 14.3071 32.9027 14.9051L27.7998 17.0112ZM32.7146 18.7207C32.1762 19.2272 31.4462 19.5357 30.6401 19.5246C30.0876 19.5157 29.5756 19.3557 29.1403 19.0892L28.0612 20.7519C28.8003 21.2036 29.6717 21.4709 30.6111 21.4849C31.9786 21.5046 33.2249 20.9851 34.1312 20.1274L32.7146 18.7207ZM45.1659 13.9093C44.844 13.9093 44.5346 13.9596 44.2456 14.0534L43.6026 12.1902C44.0934 12.0318 44.6189 11.9457 45.1659 11.9457C47.5525 11.9457 49.5435 13.5851 50.0001 15.7628L48.0097 16.1552C47.7415 14.8736 46.5701 13.9093 45.1659 13.9093ZM41.8981 20.2882L43.243 18.8175C42.6423 18.3033 42.2641 17.5523 42.2641 16.7151C42.2641 15.8789 42.6423 15.1282 43.2424 14.6143L41.8966 13.1437C40.8762 14.0175 40.2333 15.2943 40.2333 16.7151C40.2333 18.1377 40.8767 19.4141 41.8981 20.2882ZM45.1658 19.522C46.5688 19.522 47.7399 18.5586 48.0097 17.2788L49.9995 17.6728C49.5408 19.8482 47.5503 21.4854 45.1658 21.4854C44.6185 21.4854 44.0923 21.399 43.6002 21.2398L44.2447 19.3773C44.5342 19.4709 44.8437 19.522 45.1658 19.522Z" fill="black"/>
<rect x="0.5" y="0.5" width="55" height="31" rx="5.5" stroke="#DFE3E6"/>
</svg>
