<svg width="56" height="32" viewBox="0 0 56 32" fill="none" xmlns="http://www.w3.org/2000/svg">
<path d="M35.1217 16.4453C35.9176 16.4626 36.7179 16.4101 37.5106 16.4725C38.3133 16.6223 38.5068 17.8375 37.7936 18.2355C37.307 18.4977 36.7289 18.3332 36.2014 18.3794H35.1217V16.4453V16.4453ZM37.9708 14.256C38.1476 14.8802 37.5459 15.4405 36.9448 15.3546H35.1217C35.1345 14.766 35.0967 14.1272 35.1402 13.5696C35.8706 13.5902 36.6077 13.5277 37.3338 13.6023C37.6458 13.6807 37.9069 13.9372 37.9708 14.256V14.256ZM42.3584 5.00065C42.3923 6.19255 42.3633 7.44744 42.373 8.66351C42.3708 13.6076 42.3778 18.5516 42.3691 23.496C42.3371 25.3489 40.695 26.9589 38.8549 26.9959C37.013 27.0034 35.1709 26.9971 33.3287 26.9991V19.5247C35.3358 19.5143 37.3439 19.5457 39.3502 19.509C40.2809 19.4506 41.3004 18.8365 41.3437 17.8123C41.4533 16.7836 40.4835 16.0721 39.5627 15.9597C39.2088 15.9505 39.2191 15.8566 39.5627 15.8156C40.4409 15.6258 41.1305 14.7168 40.8721 13.8066C40.652 12.8491 39.5937 12.4786 38.7136 12.4804C36.9189 12.4682 35.1239 12.4787 33.3291 12.4752C33.3407 11.0798 33.3049 9.6829 33.3484 8.28853C33.4906 6.46905 35.1741 4.96858 36.9883 5.00113C38.7785 5.00086 40.5685 5.00086 42.3584 5.00079V5.00065Z" fill="url(#paint0_linear_5916_636)"/>
<path d="M13.0477 8.47695C13.0936 6.62696 14.7427 5.03012 16.5804 5.00308C18.4155 4.99743 20.2509 5.00226 22.0859 5.00063C22.0809 11.1903 22.0959 17.3806 22.0784 23.57C22.0077 25.3975 20.3765 26.9639 18.5588 26.9962C16.7203 27.0029 14.8815 26.9972 13.0429 26.999V19.2726C14.8288 19.6945 16.7016 19.8741 18.5235 19.5942C19.6126 19.419 20.8041 18.8842 21.1729 17.7543C21.4442 16.7879 21.2914 15.7707 21.3318 14.7788V12.4752H18.1788C18.1646 13.9987 18.2078 15.5249 18.156 17.0467C18.071 17.982 17.1447 18.5763 16.2625 18.5445C15.1685 18.5561 13.0005 17.7517 13.0005 17.7517C12.9951 14.8971 13.0323 11.3223 13.0477 8.47722V8.47695Z" fill="url(#paint1_linear_5916_636)"/>
<path d="M23.262 13.4044C23.096 13.4396 23.2286 12.8391 23.1862 12.6113C23.1975 11.1709 23.1626 9.7289 23.2055 8.28952C23.3473 6.46234 25.0437 4.95812 26.8652 5.00089H32.2297C32.2246 11.1906 32.2395 17.3809 32.2221 23.5702C32.1513 25.3977 30.52 26.9641 28.7023 26.9965C26.8637 27.0034 25.0249 26.9976 23.1861 26.9994V18.534C24.4419 19.5643 26.1487 19.7247 27.7131 19.7275C28.8926 19.7271 30.0651 19.5453 31.2105 19.2733V17.7224C29.9197 18.3657 28.4023 18.7743 26.9715 18.4047C25.9734 18.1563 25.2488 17.1916 25.2649 16.1616C25.1493 15.0904 25.7772 13.9594 26.8299 13.641C28.1369 13.2318 29.5613 13.5447 30.7865 14.0767C31.0489 14.2141 31.3154 14.3846 31.2104 13.9459V12.7269C29.1614 12.2394 26.9809 12.06 24.9224 12.5903C24.3265 12.7584 23.746 13.0133 23.262 13.4046V13.4044Z" fill="url(#paint2_linear_5916_636)"/>
<rect x="0.5" y="0.5" width="55" height="31" rx="5.5" stroke="#DFE3E6"/>
<defs>
<linearGradient id="paint0_linear_5916_636" x1="33.267" y1="15.5295" x2="42.316" y2="15.5295" gradientUnits="userSpaceOnUse">
<stop stop-color="#58B03A"/>
<stop offset="1" stop-color="#55B330"/>
</linearGradient>
<linearGradient id="paint1_linear_5916_636" x1="12.8505" y1="16.2105" x2="21.9377" y2="16.2105" gradientUnits="userSpaceOnUse">
<stop stop-color="#0F6EB6"/>
<stop offset="1" stop-color="#006DBA"/>
</linearGradient>
<linearGradient id="paint2_linear_5916_636" x1="23.1729" y1="15.7429" x2="32.228" y2="15.7429" gradientUnits="userSpaceOnUse">
<stop stop-color="#DE0D3D"/>
<stop offset="1" stop-color="#E30138"/>
</linearGradient>
</defs>
</svg>
