<svg width="24" height="24" viewBox="0 0 24 24" fill="none" xmlns="http://www.w3.org/2000/svg">
<g clip-path="url(#clip0_5922_592)">
<path d="M11.9968 9.66665H14.32C13.0477 9.67199 12.0147 10.6972 11.9968 11.9665V9.66665Z" fill="#687076"/>
<path fill-rule="evenodd" clip-rule="evenodd" d="M12 0C5.37258 0 0 5.37258 0 12C0 18.6274 5.37258 24 12 24C18.6274 24 24 18.6274 24 12C24 5.37258 18.6274 0 12 0ZM7.33008 7.33335C7.33008 6.04535 8.37544 5 9.66345 5H14.33C15.618 5 16.6633 6.04535 16.6633 7.33335C16.6633 8.61905 15.6217 9.66291 14.3369 9.66664C15.6217 9.67037 16.6633 10.7143 16.6633 12C16.6633 13.288 15.618 14.3333 14.33 14.3333C13.0531 14.3333 12.0147 13.306 11.9968 12.0334V14.3333H9.66345C8.37544 14.3333 7.33008 13.288 7.33008 12C7.33008 10.7143 8.3717 9.67037 9.65654 9.66664C8.3717 9.66291 7.33008 8.61905 7.33008 7.33335ZM11.9968 16.6666C11.9968 17.9546 10.9515 19 9.66345 19C8.37544 19 7.33008 17.9546 7.33008 16.6666C7.33008 15.3786 8.37544 14.3333 9.66345 14.3333H11.9968V16.6666Z" fill="#687076"/>
</g>
<defs>
<clipPath id="clip0_5922_592">
<rect width="24" height="24" fill="white"/>
</clipPath>
</defs>
</svg>
