<svg width="24" height="24" viewBox="0 0 24 24" fill="none" xmlns="http://www.w3.org/2000/svg">
<g clip-path="url(#clip0_5922_490)">
<path d="M11.192 12.4853C11.002 12.256 10.9087 11.9533 10.9087 11.576V11.5693L10.932 11.5826C10.932 10.7426 11.362 10.2027 12.212 9.96265C12.5027 9.88265 12.932 9.84265 13.492 9.84265V10.2027C13.492 10.5126 13.492 10.7427 13.482 10.8727C13.472 11.0126 13.452 11.1926 13.392 11.406C13.342 11.626 13.262 11.826 13.152 12.0126C12.9227 12.4293 12.612 12.6913 12.2027 12.798C12.1813 12.798 12.152 12.8026 12.092 12.8133C12.0327 12.822 11.992 12.8266 11.962 12.8266C11.642 12.8266 11.382 12.712 11.192 12.4853Z" fill="#687076"/>
<path fill-rule="evenodd" clip-rule="evenodd" d="M0.653961 3.27606C0 4.55953 0 6.23969 0 9.6V14.4C0 17.7603 0 19.4405 0.653961 20.7239C1.2292 21.8529 2.14708 22.7708 3.27606 23.346C4.55953 24 6.23969 24 9.6 24H14.4C17.7603 24 19.4405 24 20.7239 23.346C21.8529 22.7708 22.7708 21.8529 23.346 20.7239C24 19.4405 24 17.7603 24 14.4V9.6C24 6.23969 24 4.55953 23.346 3.27606C22.7708 2.14708 21.8529 1.2292 20.7239 0.653961C19.4405 0 17.7603 0 14.4 0H9.6C6.23969 0 4.55953 0 3.27606 0.653961C2.14708 1.2292 1.2292 2.14708 0.653961 3.27606ZM8.90201 10.15C8.57134 10.626 8.40667 11.198 8.40667 11.868L8.40601 11.8713L8.43934 11.922C8.43934 12.772 8.67934 13.422 9.15934 13.882C9.63934 14.3426 10.2593 14.5713 10.9993 14.5713C11.4907 14.5713 11.89 14.52 12.2193 14.42C12.7507 14.27 13.2793 13.9007 13.8193 13.31L14.0193 13.6C14.0872 13.6953 14.1576 13.7886 14.2307 13.88L14.4373 14.1113C14.5475 14.2284 14.6646 14.3388 14.788 14.442C14.958 14.512 15.098 14.502 15.208 14.412L15.3016 14.3307C15.4794 14.1765 15.8864 13.8234 16.5167 13.272C16.5967 13.2133 16.6367 13.1426 16.6367 13.0626C16.6367 12.9933 16.606 12.9133 16.546 12.8226L16.206 12.3733C16.136 12.284 16.066 12.1326 15.996 11.924C15.926 11.7133 15.886 11.484 15.886 11.2333V7.71332C15.886 7.694 15.8845 7.65603 15.8821 7.59842C15.8796 7.53679 15.8761 7.45222 15.8727 7.34465C15.8633 7.13465 15.842 7.00398 15.822 6.93465C15.802 6.87465 15.772 6.76398 15.732 6.59465C15.702 6.43465 15.652 6.30398 15.602 6.21465C15.5627 6.12398 15.4933 6.02465 15.4133 5.91465C15.3233 5.79466 15.2334 5.69467 15.1434 5.59468C14.5227 5.02401 13.6513 4.73465 12.5513 4.73465H12.1913C11.3313 4.78465 10.582 5.02398 9.93134 5.43465C9.28801 5.85465 8.88267 6.49465 8.71801 7.35465C8.70801 7.39465 8.70334 7.42398 8.70334 7.45465C8.70334 7.59465 8.78601 7.67465 8.95134 7.71465L10.6313 7.92465C10.784 7.89465 10.8813 7.78465 10.9213 7.58465C10.988 7.27398 11.138 7.03398 11.3713 6.85398C11.6047 6.67798 11.882 6.57798 12.202 6.54732H12.3233C12.7633 6.54732 13.082 6.69398 13.2833 6.98065C13.4133 7.19198 13.4833 7.61065 13.4833 8.23065V8.47732C12.892 8.52465 12.4633 8.56265 12.2033 8.59332C11.4327 8.68998 10.7927 8.84998 10.262 9.07332C9.68201 9.31665 9.23201 9.67665 8.90201 10.15ZM4.262 15.9987C4.15467 15.9307 4.078 15.936 4.03 16.0133L4.034 16.008C4.014 16.0347 4 16.0633 4 16.0947C4 16.1413 4.034 16.192 4.10067 16.2413C5.16368 17.1968 6.38986 17.9533 7.72067 18.4747C10.0513 19.3763 12.6088 19.5111 15.0213 18.8593C16.0513 18.586 16.982 18.204 17.8113 17.7087C18.082 17.546 18.3113 17.3993 18.482 17.2727C18.622 17.1767 18.642 17.0687 18.562 16.9527C18.472 16.8353 18.3627 16.8073 18.212 16.866C18.1821 16.8812 18.1379 16.9003 18.0779 16.9262L18.0167 16.9527L17.8067 17.046C15.954 17.754 14.0767 18.1093 12.1753 18.1093C9.32467 18.1093 6.686 17.4053 4.262 15.9987ZM17.0167 16.2607C17.0367 16.2207 17.0667 16.1873 17.1047 16.1473C17.346 15.9853 17.5807 15.874 17.8047 15.814C18.1566 15.7247 18.5166 15.671 18.8793 15.654C18.9727 15.646 19.066 15.654 19.1527 15.674C19.586 15.714 19.8527 15.786 19.934 15.894C19.976 15.954 20 16.046 20 16.154V16.254C20 16.594 19.9007 16.994 19.7173 17.454C19.532 17.914 19.2747 18.286 18.9467 18.574C18.898 18.614 18.8533 18.634 18.8153 18.634C18.7953 18.634 18.7753 18.634 18.7553 18.626C18.6953 18.5967 18.684 18.546 18.7127 18.466C19.0727 17.626 19.25 17.0373 19.25 16.706C19.25 16.606 19.23 16.526 19.192 16.4767C19.0953 16.366 18.8253 16.3053 18.376 16.3053C18.214 16.3053 18.0207 16.316 17.796 16.336C17.554 16.366 17.3293 16.396 17.1293 16.426C17.0693 16.426 17.0307 16.4167 17.0093 16.3967C16.9893 16.3767 16.9853 16.3653 16.996 16.3453C16.996 16.3347 16.9995 16.3264 17.0077 16.3073L17.0093 16.3033V16.2633L17.0167 16.2607Z" fill="#687076"/>
</g>
<defs>
<clipPath id="clip0_5922_490">
<rect width="24" height="24" fill="white"/>
</clipPath>
</defs>
</svg>
