<svg width="24" height="24" viewBox="0 0 24 24" fill="none" xmlns="http://www.w3.org/2000/svg">
<g clip-path="url(#clip0_5922_523)">
<path d="M15 9.33331C13.5379 9.33331 12.3495 10.5118 12.3334 11.97V9.33328L15 9.33331Z" fill="#687076"/>
<path fill-rule="evenodd" clip-rule="evenodd" d="M0.653961 3.27606C0 4.55953 0 6.23969 0 9.6V14.4C0 17.7603 0 19.4405 0.653961 20.7239C1.2292 21.8529 2.14708 22.7708 3.27606 23.346C4.55953 24 6.23969 24 9.6 24H14.4C17.7603 24 19.4405 24 20.7239 23.346C21.8529 22.7708 22.7708 21.8529 23.346 20.7239C24 19.4405 24 17.7603 24 14.4V9.6C24 6.23969 24 4.55953 23.346 3.27606C22.7708 2.14708 21.8529 1.2292 20.7239 0.653961C19.4405 0 17.7603 0 14.4 0H9.6C6.23969 0 4.55953 0 3.27606 0.653961C2.14708 1.2292 1.2292 2.14708 0.653961 3.27606ZM9.66671 4C8.1947 4 7 5.19469 7 6.66669C7 8.13869 8.1947 9.33328 9.66671 9.33328C8.1947 9.33328 7 10.528 7 12C7 13.472 8.1947 14.6667 9.66671 14.6666C8.1947 14.6666 7 15.8613 7 17.3333C7 18.8053 8.1947 20 9.66671 20C11.1387 20 12.3334 18.8053 12.3334 17.3333V12.0299C12.3495 13.4881 13.5379 14.6667 15 14.6667C16.472 14.6667 17.6667 13.472 17.6667 12C17.6667 10.528 16.472 9.33331 15 9.33331C16.472 9.33331 17.6667 8.13869 17.6667 6.66669C17.6667 5.19469 16.472 4 15 4H9.66671Z" fill="#687076"/>
</g>
<defs>
<clipPath id="clip0_5922_523">
<rect width="24" height="24" fill="white"/>
</clipPath>
</defs>
</svg>
