<svg width="24" height="24" viewBox="0 0 24 24" fill="none" xmlns="http://www.w3.org/2000/svg">
<g clip-path="url(#clip0_5922_146)">
<path d="M23.9766 6.41683C23.8716 8.75483 22.2376 11.9597 19.0826 16.0256C15.8147 20.2726 13.0568 22.3955 10.7928 22.3955C9.3838 22.3955 8.2148 21.1015 7.2398 18.5145L5.3219 11.4007C4.6029 8.81673 3.8339 7.52273 3.0099 7.52273C2.8309 7.52273 2.2039 7.90073 1.129 8.65473L0 7.19773C1.17475 6.16381 2.34178 5.12114 3.501 4.06983C5.08 2.70183 6.266 1.98483 7.0549 1.91083C8.9219 1.73083 10.0709 3.01083 10.5019 5.74883C10.9669 8.70183 11.2909 10.5378 11.4729 11.2557C12.0118 13.7057 12.6038 14.9297 13.2488 14.9297C13.7508 14.9297 14.5048 14.1337 15.5138 12.5447C16.5178 10.9557 17.0538 9.74773 17.1258 8.91673C17.2698 7.54573 16.7308 6.85573 15.5118 6.85573C14.9378 6.85573 14.3448 6.97673 13.7348 7.24673C14.9208 3.37883 17.1688 1.48993 20.4967 1.60993C22.9696 1.66993 24.1246 3.27393 23.9896 6.40683L23.9766 6.41683Z" fill="#1AB7EA"/>
</g>
<defs>
<clipPath id="clip0_5922_146">
<rect width="24" height="24" fill="white"/>
</clipPath>
</defs>
</svg>
