<svg width="56" height="32" viewBox="0 0 56 32" fill="none" xmlns="http://www.w3.org/2000/svg">
<rect x="0.5" y="0.5" width="55" height="31" rx="5.5" fill="#687076"/>
<path d="M17.2996 14.3182C16.9459 13.5788 16.2752 13.1011 15.2646 13.1011C14.9544 13.1065 14.6496 13.1828 14.3737 13.3241C14.0978 13.4655 13.8582 13.6681 13.6733 13.9163L13.6364 13.9611V11.0631C13.6364 11.0464 13.6298 11.0303 13.6179 11.0185C13.606 11.0067 13.5898 11 13.573 11H12.1442C12.1276 11.0003 12.1118 11.0071 12.1001 11.0189C12.0885 11.0307 12.082 11.0466 12.082 11.0631V19.3758C12.082 19.3922 12.0885 19.408 12.1002 19.4196C12.1119 19.4312 12.1277 19.4378 12.1442 19.4378H13.6745C13.6911 19.4378 13.707 19.4313 13.7189 19.4197C13.7307 19.4081 13.7375 19.3923 13.7378 19.3758V15.8314C13.7378 15.1425 14.1987 14.6546 14.9362 14.6546C15.7428 14.6546 15.9468 15.3159 15.9468 15.9899V19.3758C15.9468 19.3922 15.9534 19.408 15.965 19.4196C15.9767 19.4312 15.9925 19.4378 16.009 19.4378H17.5358C17.5525 19.4378 17.5684 19.4313 17.5802 19.4197C17.5921 19.4081 17.5989 19.3923 17.5993 19.3758V15.7878C17.5993 15.6649 17.5993 15.5444 17.5831 15.4273C17.5568 15.0435 17.4608 14.6677 17.2996 14.3182Z" fill="white"/>
<path d="M9.65863 15.5502C9.65863 15.5502 8.87967 15.3676 8.59274 15.2941C8.30581 15.2206 7.80455 15.0645 7.80455 14.6867C7.80455 14.309 8.20901 14.1884 8.61924 14.1884C9.02947 14.1884 9.48579 14.2872 9.52151 14.7407C9.52295 14.7571 9.5305 14.7722 9.54265 14.7833C9.55482 14.7944 9.57071 14.8005 9.58718 14.8004L11.0956 14.7947C11.1044 14.7947 11.1132 14.7929 11.1214 14.7894C11.1295 14.7859 11.1368 14.7807 11.1429 14.7742C11.1489 14.7678 11.1536 14.7601 11.1566 14.7518C11.1595 14.7434 11.1607 14.7346 11.1601 14.7258C11.0668 13.2745 9.78883 12.7556 8.61002 12.7556C7.21226 12.7556 6.19017 13.6741 6.19017 14.6867C6.19017 15.4261 6.39989 16.1196 8.04884 16.6019C8.33807 16.6857 8.73102 16.7947 9.07441 16.89C9.48693 17.0049 9.70932 17.1782 9.70932 17.4515C9.70932 17.7684 9.24841 17.9888 8.79555 17.9888C8.13988 17.9888 7.67435 17.7466 7.63632 17.3114C7.63434 17.2955 7.62656 17.2808 7.61445 17.2702C7.60234 17.2597 7.58675 17.2539 7.57064 17.254L6.06572 17.2609C6.0569 17.2609 6.04817 17.2626 6.04004 17.2661C6.03192 17.2695 6.02457 17.2745 6.01844 17.2809C6.01231 17.2872 6.00752 17.2947 6.00436 17.3029C6.0012 17.3111 5.99973 17.3199 6.00004 17.3286C6.06918 18.6984 7.39664 19.4366 8.63423 19.4366C10.4779 19.4366 11.311 18.4033 11.311 17.4354C11.3133 16.9807 11.2085 15.9451 9.65863 15.5502Z" fill="white"/>
<path fill-rule="evenodd" clip-rule="evenodd" d="M29.0634 13.0988C28.2973 13.0988 27.6553 13.5213 27.2416 14.0311V13.1585C27.2416 13.1423 27.2352 13.1267 27.2238 13.1151C27.2125 13.1035 27.1969 13.0968 27.1805 13.0965H25.7494C25.733 13.0965 25.717 13.1031 25.7054 13.1147C25.6937 13.1263 25.6871 13.1421 25.6871 13.1585V21.3104C25.6875 21.3266 25.6943 21.3422 25.7059 21.3535C25.7176 21.3649 25.7332 21.3713 25.7494 21.3713H27.2809C27.297 21.3713 27.3125 21.3649 27.324 21.3535C27.3354 21.3421 27.3419 21.3265 27.3419 21.3104V18.6306H27.365C27.608 19.0003 28.2729 19.4435 29.1419 19.4435C30.7757 19.4435 32.1379 18.0933 32.1379 16.2689C32.1391 14.5179 30.7839 13.0988 29.0634 13.0988ZM28.9217 17.8901C28.5993 17.898 28.2814 17.8101 28.0093 17.6374C27.7373 17.4647 27.5228 17.2151 27.3936 16.9205C27.2644 16.6259 27.2262 16.2996 27.284 15.9833C27.3417 15.667 27.4928 15.375 27.7177 15.1446C27.9428 14.9142 28.2317 14.7558 28.5475 14.6897C28.8632 14.6235 29.1916 14.6526 29.4906 14.7733C29.7898 14.8939 30.0459 15.1006 30.2267 15.367C30.4073 15.6334 30.5041 15.9474 30.5051 16.2689C30.5083 16.479 30.4699 16.6878 30.3922 16.8831C30.3144 17.0785 30.1986 17.2566 30.0514 17.4072C29.9044 17.5579 29.7289 17.6781 29.5349 17.7609C29.341 17.8438 29.1327 17.8877 28.9217 17.8901Z" fill="white"/>
<path d="M21.1552 12.7407C19.7295 12.7407 19.0174 13.2227 18.4461 13.6094L18.4438 13.611L18.4265 13.6225C18.3971 13.6426 18.3763 13.673 18.3685 13.7077C18.3605 13.7424 18.366 13.7788 18.3839 13.8096L18.9486 14.7786C18.9591 14.7968 18.9736 14.8124 18.9909 14.8243C19.0082 14.8362 19.028 14.8441 19.0488 14.8475C19.0691 14.8512 19.09 14.8503 19.1099 14.8449C19.1298 14.8396 19.1483 14.8299 19.1641 14.8165L19.2089 14.7798C19.5027 14.5341 19.9741 14.2057 21.1149 14.1162C21.7498 14.0657 22.2983 14.231 22.7028 14.6076C23.1475 15.0163 23.4138 15.6765 23.4138 16.3734C23.4138 17.6559 22.6555 18.4619 21.4375 18.478C20.4338 18.4723 19.7597 17.951 19.7597 17.1806C19.7597 16.7718 19.9452 16.5055 20.3071 16.2391C20.3347 16.2194 20.3542 16.1904 20.3621 16.1575C20.37 16.1246 20.3656 16.0899 20.3497 16.06L19.8428 15.1047C19.8334 15.0876 19.8207 15.0725 19.8055 15.0603C19.7902 15.0481 19.7728 15.039 19.754 15.0335C19.7348 15.0278 19.7146 15.0262 19.6948 15.0288C19.6749 15.0314 19.6558 15.0381 19.6387 15.0485C19.0695 15.3849 18.3712 16.0003 18.4092 17.1829C18.4553 18.6881 19.7114 19.8374 21.3441 19.8845H21.5378C23.4782 19.8213 24.8794 18.3861 24.8794 16.44C24.8794 14.6535 23.5727 12.7407 21.1552 12.7407Z" fill="white"/>
<path d="M38.1726 13.6592H37.1999C37.1773 13.6595 37.1554 13.6686 37.1393 13.6847C37.123 13.7008 37.1138 13.7225 37.1137 13.7453V15.7787C37.1138 15.8013 37.1231 15.8229 37.1394 15.8388C37.1555 15.8547 37.1773 15.8636 37.1999 15.8636H38.1726C38.7649 15.8636 39.2017 15.3986 39.2017 14.7614C39.2017 14.1242 38.7649 13.6592 38.1726 13.6592Z" fill="white"/>
<path d="M41.1606 17.2563C41.1606 17.5514 41.4106 17.7155 41.8461 17.7155C42.4384 17.7155 42.7886 17.3964 42.7886 16.8303V16.6673L41.9015 16.7132C41.4336 16.7362 41.1606 16.9302 41.1606 17.2563Z" fill="white"/>
<path fill-rule="evenodd" clip-rule="evenodd" d="M48.3624 11.0184H35.2951C35.0809 11.0184 34.8685 11.0605 34.6706 11.1423C34.4725 11.2241 34.2925 11.3439 34.1411 11.495C33.9895 11.6461 33.8694 11.8255 33.7874 12.0228C33.7054 12.2202 33.6634 12.4318 33.6636 12.6454V19.7731C33.6636 20.2044 33.8354 20.618 34.1414 20.9231C34.4474 21.2281 34.8624 21.3997 35.2951 21.4H48.3624C48.5771 21.4006 48.7898 21.3591 48.9883 21.2777C49.1867 21.1964 49.3672 21.0768 49.5193 20.9259C49.6712 20.775 49.7921 20.5958 49.8746 20.3983C49.9571 20.2009 49.9996 19.9892 50 19.7754V12.6476C50.0003 12.4334 49.9583 12.2211 49.8762 12.0231C49.794 11.8251 49.6734 11.6452 49.5212 11.4938C49.3691 11.3424 49.1884 11.2224 48.9895 11.1408C48.7907 11.0593 48.5776 11.0177 48.3624 11.0184ZM38.222 16.6639H37.1942C37.1713 16.6639 37.1494 16.6729 37.1331 16.6891C37.1169 16.7053 37.1077 16.7272 37.1077 16.75V18.2081C37.1077 18.231 37.0986 18.2529 37.0825 18.269C37.0663 18.2852 37.0444 18.2943 37.0214 18.2943H36.2976C36.2749 18.294 36.253 18.2848 36.2368 18.2687C36.2207 18.2526 36.2117 18.2309 36.2113 18.2081V12.9485C36.2113 12.9256 36.2204 12.9037 36.2367 12.8876C36.2529 12.8714 36.2747 12.8624 36.2976 12.8624H38.222C39.3122 12.8624 40.0922 13.6534 40.0922 14.7637C40.0922 15.874 39.3179 16.6662 38.2279 16.6662L38.222 16.6639ZM43.638 18.207C43.6382 18.2184 43.6361 18.2297 43.6317 18.2403C43.6274 18.2509 43.6211 18.2605 43.6131 18.2686C43.605 18.2767 43.5954 18.2832 43.5848 18.2876C43.5744 18.292 43.563 18.2943 43.5515 18.2943H42.8682C42.8568 18.2943 42.8454 18.292 42.8349 18.2876C42.8243 18.2832 42.8147 18.2767 42.8067 18.2686C42.7987 18.2605 42.7923 18.2509 42.7881 18.2403C42.7838 18.2297 42.7817 18.2184 42.7819 18.207V18.0497C42.7829 18.0359 42.7796 18.0221 42.7722 18.0104C42.7649 17.9986 42.754 17.9895 42.7409 17.9845C42.728 17.9795 42.7138 17.9788 42.7004 17.9824C42.687 17.9861 42.6751 17.994 42.6666 18.0049C42.4626 18.2265 42.1307 18.3872 41.6018 18.3872C40.823 18.3872 40.3077 17.9831 40.3077 17.285C40.3003 17.1148 40.3355 16.9454 40.4104 16.7922C40.4852 16.6391 40.5974 16.5069 40.7365 16.4078C41.0176 16.1977 41.4531 16.0887 42.0996 16.0634L42.7852 16.0404V15.8406C42.7852 15.4376 42.5133 15.2666 42.0765 15.2666C41.6398 15.2666 41.3644 15.4204 41.3 15.6719C41.2948 15.6896 41.2838 15.7052 41.2687 15.716C41.2538 15.7268 41.2355 15.7323 41.2169 15.7316H40.5406C40.5281 15.7319 40.5157 15.7295 40.5043 15.7245C40.493 15.7196 40.4827 15.7122 40.4745 15.7029C40.4663 15.6935 40.4602 15.6826 40.4567 15.6707C40.4531 15.6588 40.4522 15.6463 40.4541 15.634C40.5556 15.0369 41.051 14.5834 42.1077 14.5834C43.2301 14.5834 43.6345 15.1035 43.6345 16.0967L43.638 18.207ZM47.8947 14.7947L46.3737 18.8373C46.0279 19.7765 45.423 20.0176 44.7603 20.0176C44.6355 20.0207 44.5109 20.0056 44.3904 19.9729C44.3716 19.9678 44.3552 19.9568 44.3431 19.9414C44.3314 19.9261 44.3249 19.9073 44.3247 19.8879V19.2736C44.3247 19.2608 44.3275 19.2481 44.3329 19.2364C44.3384 19.2248 44.3463 19.2145 44.3562 19.2062C44.3662 19.198 44.3778 19.1921 44.3902 19.1888C44.4027 19.1856 44.4158 19.1851 44.4284 19.1875C44.533 19.2073 44.639 19.2173 44.7454 19.2174C44.9286 19.2265 45.1096 19.1741 45.2595 19.0686C45.4092 18.963 45.5191 18.8104 45.5715 18.6353L45.6166 18.494C45.6235 18.4751 45.6235 18.4544 45.6166 18.4355L44.1946 14.7958C44.1902 14.7828 44.189 14.769 44.1911 14.7554C44.1931 14.7418 44.1984 14.7289 44.2061 14.7178C44.2142 14.7066 44.2247 14.6974 44.2369 14.691C44.249 14.6847 44.2626 14.6812 44.2763 14.681H44.9678C44.9855 14.6812 45.0026 14.6866 45.0173 14.6967C45.0319 14.7067 45.0431 14.7208 45.0495 14.7373L46.0153 17.3046C46.0217 17.3213 46.0329 17.3358 46.0477 17.346C46.0627 17.3562 46.0802 17.3616 46.0982 17.3616C46.1161 17.3616 46.1339 17.3562 46.1486 17.346C46.1634 17.3358 46.1748 17.3213 46.1811 17.3046L47.019 14.7442C47.0245 14.7267 47.0356 14.7115 47.0505 14.7008C47.0655 14.69 47.0833 14.6843 47.1017 14.6845H47.8106C47.8242 14.6844 47.8377 14.6876 47.85 14.6937C47.8622 14.6998 47.8729 14.7087 47.8811 14.7196C47.8893 14.7305 47.8947 14.7432 47.897 14.7567C47.8995 14.7701 47.8987 14.7839 47.8947 14.797V14.7947Z" fill="white"/>
<rect x="0.5" y="0.5" width="55" height="31" rx="5.5" stroke="#687076"/>
</svg>
