<!--

Sourced from The Wolf Kit https://figma.com/community/file/1203393186896008602
Licensed as CC BY 4.0

https://feathericons.dev/facebook

-->
<svg xmlns="http://www.w3.org/2000/svg" viewBox="0 0 24 24" width="24" height="24" fill="none">
  <path d="M.654 3.276C0 4.56 0 6.24 0 9.6v4.8c0 3.36 0 5.04.654 6.324a6 6 0 0 0 2.622 2.622C4.56 24 6.24 24 9.6 24h2.297v-9.098H8.494V11.07h3.403V8.15c0-3.322 2.001-5.157 5.063-5.157 1.467 0 3 .259 3 .259v3.262h-1.69c-1.665 0-2.184 1.022-2.184 2.07v2.486h3.718l-.595 3.832h-3.123v9.094c2.277-.018 3.59-.116 4.638-.65a6 6 0 0 0 2.622-2.622C24 19.44 24 17.76 24 14.4V9.6c0-3.36 0-5.04-.654-6.324A6 6 0 0 0 20.724.654C19.44 0 17.76 0 14.4 0H9.6C6.24 0 4.56 0 3.276.654A6 6 0 0 0 .654 3.276Z" fill="#1877F2" />
</svg>
