<!--

Sourced from The Wolf Kit https://figma.com/community/file/1203393186896008602
Licensed as CC BY 4.0

https://feathericons.dev/snapchat

-->
<svg xmlns="http://www.w3.org/2000/svg" viewBox="0 0 24 24" width="24" height="24" fill="none">
  <path d="M0 9.6c0-3.36 0-5.04.654-6.324A6 6 0 0 1 3.276.654C4.56 0 6.24 0 9.6 0h4.8c3.36 0 5.04 0 6.324.654a6 6 0 0 1 2.622 2.622C24 4.56 24 6.24 24 9.6v4.8c0 3.36 0 5.04-.654 6.324a6 6 0 0 1-2.622 2.622C19.44 24 17.76 24 14.4 24H9.6c-3.36 0-5.04 0-6.324-.654a6 6 0 0 1-2.622-2.622C0 19.44 0 17.76 0 14.4V9.6Z" fill="#FFFC00" />
  <path d="M12.132 4.334c.632 0 2.777.176 3.788 2.441.338.762.258 2.057.191 3.097l-.002.038c-.007.115-.014.22-.019.326.048.029.13.058.256.058.192-.01.421-.077.66-.193a.636.636 0 0 1 .297-.066c.116 0 .23.018.325.057.288.095.469.306.469.536.01.287-.25.536-.775.746-.057.018-.134.048-.22.076-.287.086-.727.23-.852.518-.057.143-.038.334.077.554l.01.01c.038.086.975 2.22 3.06 2.564a.319.319 0 0 1 .269.325c0 .048-.01.096-.029.144-.153.364-.813.631-2.01.812-.037.058-.076.24-.104.364-.019.115-.048.23-.086.354-.049.173-.173.258-.355.258h-.019c-.086 0-.2-.02-.343-.047a3.85 3.85 0 0 0-1.397-.039c-.383.067-.718.297-1.101.565-.545.383-1.167.823-2.104.823-.039 0-.077-.01-.116-.01h-.095c-.938 0-1.55-.431-2.095-.823-.382-.268-.707-.497-1.09-.564a4.239 4.239 0 0 0-.593-.048c-.345 0-.612.057-.813.095-.135.028-.25.048-.345.048-.239 0-.334-.143-.372-.269-.04-.122-.058-.248-.086-.362-.03-.116-.068-.316-.107-.364-1.225-.142-1.884-.41-2.037-.783a.384.384 0 0 1-.035-.144.317.317 0 0 1 .268-.325c2.086-.345 3.022-2.479 3.061-2.569l.01-.018c.115-.22.143-.412.076-.555-.124-.278-.564-.42-.85-.517a1.43 1.43 0 0 1-.222-.076c-.707-.278-.803-.594-.764-.814.057-.306.43-.506.746-.506.093 0 .172.018.245.047.268.124.504.192.705.192.15 0 .245-.039.297-.067l-.03-.364c-.062-1.039-.143-2.332.197-3.09.983-2.254 3.121-2.426 3.753-2.426l.267-.01.039.001Z" fill="#fff" />
  <path clip-rule="evenodd" d="M12.087 4h.378v.014c.913.072 2.805.487 3.76 2.625.196.443.262 1.013.276 1.572.014.565-.024 1.163-.057 1.68l-.002.041-.001.015c.117-.022.259-.068.415-.143a.971.971 0 0 1 .447-.103c.145 0 .299.023.44.078.367.126.684.43.687.843.007.258-.11.477-.289.648-.172.166-.413.3-.695.414l-.01.004-.01.003-.08.028-.011.003a4.763 4.763 0 0 1-.13.045l-.007.002c-.143.043-.3.094-.431.161-.135.069-.19.13-.208.165-.008.024-.019.096.043.23l.015.015.025.058c.017.037.245.555.711 1.103.47.553 1.161 1.111 2.099 1.266h.002c.318.056.56.337.545.665a.722.722 0 0 1-.052.255l-.002.008c-.13.308-.441.51-.796.654-.327.132-.752.239-1.27.325a7.335 7.335 0 0 0-.03.131 2.914 2.914 0 0 1-.093.385.676.676 0 0 1-.252.37.713.713 0 0 1-.422.127h-.019c-.124 0-.27-.028-.406-.053l-.006-.002a3.523 3.523 0 0 0-1.267-.037h-.004c-.297.052-.57.232-.967.51l-.023.016c-.54.38-1.234.867-2.272.867-.041 0-.079-.005-.096-.007h-.003a1.7 1.7 0 0 0-.019-.003h-.093c-1.052 0-1.742-.491-2.288-.884-.395-.277-.656-.454-.95-.507a3.893 3.893 0 0 0-.54-.043 3.51 3.51 0 0 0-.706.08l-.042.008a2.131 2.131 0 0 1-.41.054.712.712 0 0 1-.481-.17.721.721 0 0 1-.21-.332 2.304 2.304 0 0 1-.065-.266l-.026-.114-.023-.098-.002-.008-.008-.035c-.528-.072-.96-.17-1.292-.3-.36-.14-.668-.342-.8-.652a.72.72 0 0 1-.063-.263.65.65 0 0 1 .545-.67l.002-.001c.937-.155 1.628-.714 2.098-1.267a4.83 4.83 0 0 0 .711-1.105l.007-.015.016-.029c.095-.183.069-.253.068-.256l-.003-.005c-.014-.031-.068-.092-.212-.166a3.195 3.195 0 0 0-.428-.167 1.775 1.775 0 0 1-.254-.088c-.38-.15-.642-.327-.8-.535a.81.81 0 0 1-.167-.644l.001-.004a.908.908 0 0 1 .426-.588 1.24 1.24 0 0 1 .648-.19.98.98 0 0 1 .368.07l.008.004.008.003c.214.1.38.147.507.159l-.006-.075-.002-.03a19.45 19.45 0 0 1-.051-1.65c.014-.557.08-1.124.277-1.565 1.064-2.436 3.378-2.623 4.051-2.624l.268-.01Zm-.006.667-.25.01h-.005c-.597 0-2.548.163-3.448 2.225l-.001.003c-.142.316-.206.774-.22 1.312-.014.525.02 1.086.051 1.603l.001.016.047.574-.188.104a.934.934 0 0 1-.46.11c-.267 0-.55-.088-.835-.219a.31.31 0 0 0-.114-.02.575.575 0 0 0-.292.086c-.088.056-.12.112-.126.146-.005.026-.006.064.04.123.056.074.194.193.518.32l.009.004c.06.025.117.046.168.059l.015.003.014.005.023.008c.137.046.33.11.508.202.178.09.405.239.516.484.132.283.05.594-.083.848l-.004.007-.003.005c-.05.112-.309.67-.808 1.257-.527.62-1.343 1.297-2.484 1.49l.003.006.005.01c.023.058.118.173.429.294.299.117.738.215 1.338.285l.136.016.085.106c.05.062.075.133.084.161.014.04.026.084.036.123l.028.115v.004l.022.088.034.151.008.039c.012.059.024.108.038.153l.002.004a.1.1 0 0 0 .012.027.13.13 0 0 0 .041.005c.058 0 .142-.012.279-.04l.004-.001.046-.009c.195-.038.476-.092.829-.092.212 0 .43.02.64.05l.005.001.005.001c.455.08.831.344 1.187.594l.038.026.003.003c.543.39 1.078.76 1.9.76h.096c.04 0 .078.005.096.007h.003l.018.002c.82 0 1.364-.378 1.91-.762l.014-.01c.365-.255.756-.529 1.22-.61a4.19 4.19 0 0 1 1.521.04c.15.029.23.041.278.041h.02a.158.158 0 0 0 .029-.002.115.115 0 0 0 .004-.013l.003-.01c.034-.111.06-.212.075-.307l.001-.01.002-.01.006-.025c.013-.056.029-.128.046-.194.01-.038.022-.079.035-.117a.629.629 0 0 1 .064-.136l.081-.126.149-.023c.587-.088 1.022-.196 1.32-.316.307-.124.405-.236.43-.292a.063.063 0 0 0 .005-.016c-1.143-.192-1.96-.87-2.487-1.49a5.633 5.633 0 0 1-.788-1.208l-.002-.003-.024-.045c-.142-.27-.197-.568-.09-.834l.002-.008c.11-.252.336-.405.52-.499.189-.096.395-.16.539-.204l.108-.038.012-.004.084-.03c.238-.095.388-.19.472-.27.08-.077.086-.125.085-.151v-.011c0-.04-.04-.152-.24-.22l-.011-.003-.01-.004a.545.545 0 0 0-.276-.026.223.223 0 0 0-.064.02l-.006.004-.005.002a2.121 2.121 0 0 1-.788.225h-.018a.824.824 0 0 1-.427-.104l-.171-.103.01-.2c.005-.106.01-.213.019-.328l.002-.04c.033-.523.069-1.092.055-1.623-.013-.539-.077-.998-.218-1.317-.928-2.077-2.889-2.244-3.484-2.244h-.05Z" fill="#000" fill-rule="evenodd" />
</svg>
