<svg width="24" height="24" viewBox="0 0 24 24" fill="none" xmlns="http://www.w3.org/2000/svg">
<g clip-path="url(#clip0_5922_599)">
<path fill-rule="evenodd" clip-rule="evenodd" d="M12 0C5.37258 0 0 5.37258 0 12C0 18.6274 5.37258 24 12 24C18.6274 24 24 18.6274 24 12C24 5.37258 18.6274 0 12 0ZM12.4164 4.62786L11.9711 5.39749L11.5341 4.62511C11.2537 4.14409 10.6463 3.98192 10.1653 4.25679C9.68425 4.53715 9.52207 5.14461 9.79694 5.62563L10.8167 7.39578L7.55128 13.0553H5.00052C4.44528 13.0553 4 13.5006 4 14.0558C4 14.6111 4.44528 15.0563 5.00052 15.0563H14.0986C14.5356 14.2372 13.9722 13.0553 12.9662 13.0553H9.86291L14.1536 5.62838C14.4284 5.14736 14.2663 4.5344 13.7853 4.25953C13.3042 3.98467 12.6913 4.14684 12.4164 4.62786ZM7.14997 17.7556L8.11201 16.0871C7.59251 15.4604 6.93558 15.268 6.12747 15.5181L5.41282 16.755C5.13795 17.2361 5.30012 17.849 5.78114 18.1239C6.26215 18.3987 6.87511 18.2366 7.14997 17.7556ZM18.9995 13.0608H16.3965C16.1971 12.7156 16.0054 12.3835 15.8212 12.0646C14.7945 10.2862 14.0042 8.9176 13.4472 7.96201C12.8562 8.45402 12.257 9.90532 13.0953 11.3511C13.4589 11.9819 13.9043 12.7529 14.4309 13.6647C15.0907 14.807 15.8782 16.1704 16.7923 17.7556C17.0727 18.2366 17.6801 18.3987 18.1611 18.1239C18.6422 17.8435 18.8043 17.2361 18.5295 16.755L17.5537 15.0618H18.9995C19.5547 15.0618 20 14.6166 20 14.0613C20 13.5061 19.5547 13.0608 18.9995 13.0608Z" fill="#687076"/>
</g>
<defs>
<clipPath id="clip0_5922_599">
<rect width="24" height="24" fill="white"/>
</clipPath>
</defs>
</svg>
