<svg width="24" height="24" viewBox="0 0 24 24" fill="none" xmlns="http://www.w3.org/2000/svg">
<path fill-rule="evenodd" clip-rule="evenodd" d="M24 12C24 18.6274 18.6274 24 12 24C5.37258 24 0 18.6274 0 12C0 5.37258 5.37258 0 12 0C18.6274 0 24 5.37258 24 12ZM18.4581 9.90968C18.4581 14.0652 15.2942 18.86 9.50781 18.86C7.73341 18.86 6.07642 18.3381 4.69995 17.4379C4.94785 17.4705 5.19574 17.4835 5.45016 17.4835C6.92449 17.4835 8.28139 16.9812 9.35777 16.1397C7.9813 16.1136 6.82011 15.2068 6.42217 13.9543C6.61788 13.9934 6.81358 14.013 7.01581 14.013C7.30285 14.013 7.58336 13.9739 7.84431 13.9021C6.4026 13.6085 5.31969 12.343 5.31969 10.8165V10.7773C5.74372 11.0122 6.22646 11.1557 6.74183 11.1687C5.89376 10.6077 5.33926 9.64221 5.33926 8.55278C5.33926 7.9787 5.49582 7.43725 5.76329 6.97408C7.3159 8.87895 9.63176 10.1315 12.2477 10.2619C12.189 10.0336 12.1629 9.79225 12.1629 9.54436C12.1629 7.80909 13.572 6.4 15.3073 6.4C16.214 6.4 17.0295 6.77837 17.6036 7.39158C18.3211 7.24806 18.9931 6.98712 19.5998 6.62833C19.3649 7.36549 18.8691 7.9787 18.2168 8.37012C18.8561 8.29183 19.4628 8.12222 20.0238 7.87433C19.5998 8.50711 19.0648 9.06161 18.4516 9.50522C18.4581 9.63569 18.4581 9.77268 18.4581 9.90968Z" fill="#687076"/>
</svg>
