<svg width="56" height="32" viewBox="0 0 56 32" fill="none" xmlns="http://www.w3.org/2000/svg">
<rect x="0.5" y="0.5" width="55" height="31" rx="5.5" fill="#687076"/>
<path fill-rule="evenodd" clip-rule="evenodd" d="M28.9687 21.8353V10H34.7238C35.5132 10 36.1155 10.0665 36.5294 10.1993C37.476 10.5051 38.1111 11.1313 38.4363 12.0777C38.6043 12.5743 38.6882 13.3221 38.6882 14.3206C38.6882 15.5211 38.5951 16.3839 38.4108 16.9091C38.0417 17.9478 37.2818 18.5461 36.1345 18.7012C35.9995 18.7244 35.4254 18.7453 34.4122 18.7619L33.8993 18.7796H32.0577V21.8353H28.9687ZM32.0577 16.0341H33.9835C34.5941 16.0114 34.9654 15.963 35.0991 15.8872C35.2817 15.7837 35.4042 15.5765 35.4652 15.2656C35.5042 15.0587 35.5237 14.7511 35.5237 14.3425C35.5237 13.842 35.485 13.4709 35.4071 13.2286C35.296 12.8891 35.0299 12.6824 34.6084 12.6073C34.5252 12.5959 34.3256 12.5899 34.0095 12.5899H32.0577V16.0341Z" fill="white"/>
<path d="M16.3313 13.7754H13.4576C13.4576 13.2891 13.4022 12.9627 13.2919 12.7966C13.1209 12.5508 12.6489 12.4277 11.8763 12.4277C11.1261 12.4277 10.6287 12.4985 10.386 12.6402C10.1434 12.7824 10.022 13.0915 10.022 13.5675C10.022 13.9984 10.1295 14.2821 10.3451 14.4181C10.4995 14.5146 10.7035 14.5713 10.9579 14.5882L11.5374 14.6304C12.7795 14.7154 13.5552 14.7753 13.8646 14.8094C14.8468 14.9114 15.5589 15.1808 16.0008 15.6173C16.3485 15.9579 16.5558 16.403 16.6219 16.9526C16.6606 17.2814 16.6799 17.6535 16.6799 18.0668C16.6799 19.0197 16.5917 19.7175 16.4152 20.1597C16.0952 20.9711 15.3764 21.4836 14.258 21.6988C13.7894 21.7898 13.0726 21.8353 12.1085 21.8353C10.4991 21.8353 9.37746 21.7366 8.74418 21.538C7.96691 21.2947 7.45449 20.802 7.2065 20.0599C7.06837 19.6468 7 18.9589 7 17.9959H9.87373C9.87373 18.0581 9.87382 18.1119 9.8739 18.1571L9.87401 18.242C9.87401 18.7559 10.0173 19.0864 10.3032 19.2336C10.5013 19.3351 10.7405 19.3884 11.0218 19.3947H12.0782C12.6174 19.3947 12.9615 19.3663 13.1099 19.3091C13.3741 19.202 13.5474 19.0296 13.6303 18.7909C13.6743 18.644 13.6961 18.4539 13.6961 18.2213C13.6961 17.7003 13.5116 17.3832 13.1433 17.2695C13.0056 17.2246 12.3648 17.162 11.2211 17.0826C10.3026 17.0149 9.66458 16.9499 9.30728 16.8869C8.36641 16.7054 7.73939 16.3322 7.42651 15.7656C7.1515 15.2842 7.01392 14.5558 7.01392 13.5814C7.01392 12.8394 7.08828 12.2444 7.23685 11.7968C7.38557 11.3491 7.62521 11.0093 7.95591 10.7768C8.44035 10.42 9.06026 10.2105 9.81483 10.1479C10.4427 10.0915 11.1392 10.0626 11.9053 10.0626C13.1114 10.0626 13.971 10.1341 14.4834 10.2758C15.734 10.6223 16.3592 11.5928 16.3592 13.1876C16.3592 13.3184 16.3499 13.5139 16.3313 13.7754Z" fill="white"/>
<path fill-rule="evenodd" clip-rule="evenodd" d="M45.2819 19.7898H41.1518L40.5969 21.8353H37.4009L40.8495 10H45.5091L49 21.8353H45.8712L45.2819 19.7898ZM44.6681 17.4842L43.2208 12.3538L41.8162 17.4842H44.6681Z" fill="white"/>
<path d="M27.8638 13.2183C27.1163 12.2704 25.9793 11.6652 24.7052 11.6652C23.2005 11.6652 21.8867 12.5106 21.1808 13.7669H27.5644L26.7979 15.4618H20.649C20.6356 15.6022 20.6284 15.7444 20.6284 15.888C20.6284 16.1003 20.644 16.3088 20.6731 16.5128H26.3228L25.5562 18.2083H21.2994C22.0288 19.3541 23.2813 20.1112 24.7052 20.1112C25.9233 20.1112 27.0159 19.5569 27.763 18.6799V20.7577C26.8353 21.395 25.715 21.768 24.5076 21.768C22.1117 21.768 20.0557 20.2997 19.1767 18.2083H17.1439L17.9105 16.5128H18.75C18.7313 16.3232 18.7216 16.1312 18.7216 15.9369C18.7216 15.7764 18.7296 15.619 18.7422 15.4618H17.0718L17.8385 13.7669H19.1369C19.9915 11.6212 22.0736 10.1054 24.5076 10.1054C26.0709 10.1054 27.4883 10.7311 28.5297 11.7461L27.8638 13.2183Z" fill="white"/>
<rect x="0.5" y="0.5" width="55" height="31" rx="5.5" stroke="#687076"/>
</svg>
