<svg width="56" height="32" viewBox="0 0 56 32" fill="none" xmlns="http://www.w3.org/2000/svg">
<rect x="0.5" y="0.5" width="55" height="31" rx="5.5" fill="#687076"/>
<path d="M24.605 18.9163C24.4982 18.9732 24.378 19.0061 24.2502 19.0061C23.9544 19.0061 23.6972 18.8346 23.5622 18.5807L23.5105 18.4615L21.3567 13.4807C21.3335 13.4265 21.3191 13.3653 21.3191 13.3056C21.3191 13.0761 21.4957 12.8901 21.7135 12.8901C21.8019 12.8901 21.8837 12.921 21.9495 12.9725L24.4911 14.8796C24.6767 15.0075 24.8986 15.0826 25.1371 15.0826C25.2795 15.0826 25.4152 15.0547 25.5417 15.0061L37.4942 9.40002C35.3517 6.73912 31.8233 5 27.8304 5C21.2964 5 16 9.65154 16 15.3899C16 18.5203 17.5935 21.3384 20.0877 23.2431C20.2878 23.3937 20.4188 23.641 20.4188 23.9202C20.4188 24.0125 20.4 24.0967 20.3771 24.1848C20.1779 24.9679 19.8591 26.222 19.8443 26.2807C19.8194 26.379 19.7806 26.4817 19.7806 26.5845C19.7806 26.814 19.957 27 20.1752 27C20.2606 27 20.3306 26.9664 20.4029 26.9227L22.9928 25.3468C23.1876 25.2285 23.3939 25.1549 23.6212 25.1549C23.7421 25.1549 23.8589 25.1747 23.9688 25.2101C25.177 25.5763 26.4806 25.7798 27.8305 25.7798C34.3641 25.7798 39.6612 21.128 39.6612 15.3899C39.6612 13.6518 39.1725 12.015 38.3135 10.5751L24.6917 18.8637L24.605 18.9163Z" fill="white"/>
<rect x="0.5" y="0.5" width="55" height="31" rx="5.5" stroke="#687076"/>
</svg>
