<svg width="24" height="24" viewBox="0 0 24 24" fill="none" xmlns="http://www.w3.org/2000/svg">
<g clip-path="url(#clip0_5922_234)">
<path d="M19.6822 11.9317C19.6627 10.1258 19.0184 8.45662 17.9447 7.14859C17.7787 7.36334 16.4902 9.0228 13.6594 10.1746C13.8352 10.5358 14.0108 10.9165 14.167 11.2874C14.1915 11.3444 14.2142 11.4014 14.2366 11.4577C14.268 11.5364 14.2988 11.6137 14.333 11.6876C16.8202 11.3743 19.289 11.8551 19.6562 11.9266C19.6666 11.9286 19.6753 11.9303 19.6822 11.9317Z" fill="#EA4C89"/>
<path d="M17.0955 6.26031C15.7386 5.05966 13.9523 4.32755 12 4.32755C11.3753 4.32755 10.77 4.39588 10.1941 4.53254L10.2042 4.54627C10.4493 4.88033 11.823 6.7526 13.064 9.03253C15.7972 8.00759 16.9588 6.45553 17.0955 6.26031Z" fill="#EA4C89"/>
<path d="M11.5803 9.49131C10.3015 7.22668 8.93494 5.32321 8.72996 5.04989C6.58243 6.06507 4.9718 8.04664 4.47397 10.4284C4.47984 10.4284 4.48656 10.4284 4.49409 10.4284C4.92484 10.4288 8.04984 10.4315 11.5803 9.49131Z" fill="#EA4C89"/>
<path d="M4.30803 11.7755V12.0098C4.30803 13.9816 5.05965 15.7874 6.27983 17.1442C6.45553 16.8514 8.56399 13.3568 12.5271 12.0781C12.5756 12.0636 12.6264 12.049 12.6773 12.0345C12.7289 12.0197 12.7806 12.005 12.8297 11.9902C12.6345 11.551 12.4295 11.1117 12.205 10.6822C8.36876 11.8341 4.63991 11.7852 4.30803 11.7755Z" fill="#EA4C89"/>
<path d="M7.28525 18.0716C8.58352 19.0868 10.2234 19.692 12 19.692C13.064 19.692 14.0792 19.4772 15.0065 19.077C14.8894 18.4034 14.4501 16.051 13.3666 13.2495C13.3569 13.2543 13.3496 13.2568 13.3423 13.2592C13.3349 13.2616 13.3276 13.2641 13.3178 13.269C8.98371 14.782 7.42191 17.7885 7.28525 18.0716Z" fill="#EA4C89"/>
<path d="M14.7917 12.898C15.7972 15.6605 16.2072 17.9056 16.2852 18.3742C18.013 17.2126 19.243 15.3677 19.5749 13.23C19.3113 13.1421 17.2028 12.5173 14.7917 12.898Z" fill="#EA4C89"/>
<path fill-rule="evenodd" clip-rule="evenodd" d="M0.653961 3.27606C0 4.55953 0 6.23969 0 9.6V14.4C0 17.7603 0 19.4405 0.653961 20.7239C1.2292 21.8529 2.14708 22.7708 3.27606 23.346C4.55953 24 6.23969 24 9.6 24H14.4C17.7603 24 19.4405 24 20.7239 23.346C21.8529 22.7708 22.7708 21.8529 23.346 20.7239C24 19.4405 24 17.7603 24 14.4V9.6C24 6.23969 24 4.55953 23.346 3.27606C22.7708 2.14708 21.8529 1.2292 20.7239 0.653961C19.4405 0 17.7603 0 14.4 0H9.6C6.23969 0 4.55953 0 3.27606 0.653961C2.14708 1.2292 1.2292 2.14708 0.653961 3.27606ZM3 12C3 7.03145 7.03145 3 12 3C16.9588 3 21 7.03145 21 12C21 16.9686 16.9588 21 12 21C7.03145 21 3 16.9686 3 12Z" fill="#EA4C89"/>
</g>
<defs>
<clipPath id="clip0_5922_234">
<rect width="24" height="24" fill="white"/>
</clipPath>
</defs>
</svg>
