<!--

Sourced from The Wolf Kit https://figma.com/community/file/1203393186896008602
Licensed as CC BY 4.0

https://feathericons.dev/amazon

-->
<svg xmlns="http://www.w3.org/2000/svg" viewBox="0 0 24 24" width="24" height="24" fill="none">
  <path d="M11.192 12.485c-.19-.229-.283-.532-.283-.909v-.007l.023.014c0-.84.43-1.38 1.28-1.62.29-.08.72-.12 1.28-.12v.36c0 .31 0 .54-.01.67-.01.14-.03.32-.09.533-.05.22-.13.42-.24.607-.23.416-.54.678-.95.785a.743.743 0 0 0-.11.015.979.979 0 0 1-.13.014c-.32 0-.58-.115-.77-.342Z" fill="#687076" />
  <path clip-rule="evenodd" d="M12 0C5.373 0 0 5.373 0 12s5.373 12 12 12 12-5.373 12-12S18.627 0 12 0ZM8.902 10.15c-.33.476-.495 1.048-.495 1.718l-.001.003.033.051c0 .85.24 1.5.72 1.96.48.46 1.1.69 1.84.69.492 0 .891-.052 1.22-.152.532-.15 1.06-.52 1.6-1.11l.2.29c.068.095.139.189.212.28l.206.231c.11.117.228.228.351.331.17.07.31.06.42-.03l.094-.081 1.215-1.059c.08-.059.12-.13.12-.21 0-.069-.031-.149-.091-.24l-.34-.449c-.07-.089-.14-.24-.21-.449-.07-.21-.11-.44-.11-.69v-3.52l-.004-.116-.01-.253c-.009-.21-.03-.341-.05-.41-.02-.06-.05-.171-.09-.34-.03-.16-.08-.291-.13-.38-.04-.091-.109-.19-.189-.3-.09-.12-.18-.22-.27-.32-.62-.571-1.492-.86-2.592-.86h-.36c-.86.05-1.609.289-2.26.7-.643.42-1.048 1.06-1.213 1.92a.398.398 0 0 0-.015.1c0 .14.083.22.248.26l1.68.21c.153-.03.25-.14.29-.34.067-.311.217-.551.45-.731.234-.176.511-.276.831-.307h.121c.44 0 .759.147.96.434.13.211.2.63.2 1.25v.246c-.591.048-1.02.086-1.28.116-.77.097-1.41.257-1.941.48a3.05 3.05 0 0 0-1.36 1.077Zm-4.64 5.849c-.107-.068-.184-.063-.232.014l.004-.005a.146.146 0 0 0-.034.087c0 .046.034.097.1.146a11.92 11.92 0 0 0 3.62 2.234 11.745 11.745 0 0 0 7.301.384c1.03-.273 1.961-.655 2.79-1.15.271-.163.5-.31.671-.436.14-.096.16-.204.08-.32-.09-.118-.2-.146-.35-.087-.03.015-.074.034-.134.06l-.061.027-.21.093c-1.853.708-3.73 1.063-5.632 1.063-2.85 0-5.489-.704-7.913-2.11Zm12.755.262c.02-.04.05-.074.088-.114.241-.162.476-.273.7-.333.352-.09.712-.143 1.074-.16a.887.887 0 0 1 .274.02c.433.04.7.112.781.22.042.06.066.152.066.26v.1c0 .34-.1.74-.283 1.2-.185.46-.442.832-.77 1.12-.049.04-.094.06-.132.06-.02 0-.04 0-.06-.008-.06-.03-.071-.08-.042-.16.36-.84.537-1.429.537-1.76 0-.1-.02-.18-.058-.23-.097-.11-.367-.17-.816-.17-.162 0-.355.01-.58.03-.242.03-.467.06-.667.09-.06 0-.098-.01-.12-.03-.02-.02-.024-.03-.013-.05 0-.011.004-.02.012-.039l.001-.004v-.04l.008-.002Z" fill="#687076" fill-rule="evenodd" />
</svg>
