<!--

Sourced from The Wolf Kit https://figma.com/community/file/1203393186896008602
Licensed as CC BY 4.0

https://feathericons.dev/ethereum

-->
<svg xmlns="http://www.w3.org/2000/svg" viewBox="0 0 56 32" width="56" height="32" fill="none">
  <rect fill="#687076" height="31" rx="5.5" width="55" x=".5" y=".5" />
  <path d="m27.753 5-.148.501v14.547l.148.147 6.752-3.991L27.752 5Z" fill="#fff" />
  <path d="M27.753 5 21 16.204l6.753 3.991V5ZM27.753 21.474l-.084.101v5.182l.084.243 6.756-9.515-6.756 3.989Z" fill="#fff" />
  <path d="M27.753 27v-5.526L21 17.484 27.753 27ZM27.753 20.195l6.752-3.991-6.753-3.07v7.061Z" fill="#fff" />
  <path d="m21 16.204 6.753 3.991v-7.06L21 16.204Z" fill="#fff" />
  <rect height="31" rx="5.5" stroke="#687076" width="55" x=".5" y=".5" />
</svg>
