<svg width="56" height="32" viewBox="0 0 56 32" fill="none" xmlns="http://www.w3.org/2000/svg">
<path d="M7 8.50865V21.2249H9.88477V15.9059H14.6225V21.2249H17.4927V8.50865H14.6225V13.399H9.88477V8.50865H7Z" fill="#F37421"/>
<path d="M42.3294 17.5263C42.3658 17.3156 42.4239 16.8868 42.4239 16.3927C42.4239 14.1111 41.2903 11.7858 38.3111 11.7858C35.1066 11.7858 33.6533 14.3727 33.6533 16.7125C33.6533 19.5972 35.4481 21.4138 38.58 21.4138C39.8225 21.4138 40.9779 21.2249 41.9225 20.8471L41.5447 18.9069C40.7744 19.154 39.9751 19.2848 38.9942 19.2848C37.6571 19.2848 36.4872 18.718 36.3928 17.5336H42.3294V17.5263ZM36.3637 15.5644C36.4364 14.7941 36.9305 13.6969 38.1367 13.6969C39.4592 13.6969 39.7571 14.8668 39.7571 15.5644H36.3637Z" fill="#F37421"/>
<path d="M43.3393 21.2249H46.2095V16.5453C46.2095 16.3201 46.2313 16.0948 46.2676 15.9059C46.4566 15.0194 47.1759 14.4526 48.2296 14.4526C48.5493 14.4526 48.7964 14.4889 48.9998 14.5253V11.8294C48.7891 11.7931 48.6583 11.7931 48.3967 11.7931C47.5102 11.7931 46.3766 12.3599 45.9043 13.6969H45.8317L45.7372 11.9965H43.2666C43.3029 12.7886 43.3393 13.6751 43.3393 15.0339V21.2249Z" fill="#F37421"/>
<path fill-rule="evenodd" clip-rule="evenodd" d="M20.4067 8C21.2206 8 21.8818 8.66125 21.8818 9.47509C21.8818 10.2889 21.2206 10.9502 20.4067 10.9502C19.5929 10.9502 18.9316 10.2889 18.9316 9.47509C18.9316 8.66125 19.5929 8 20.4067 8Z" fill="#FFE700"/>
<path fill-rule="evenodd" clip-rule="evenodd" d="M26.4669 19.074H27.9057C29.3517 19.074 30.0057 18.1512 30.0057 17.1848C30.0057 16.2183 29.933 14.0384 28.1527 14.0384C26.1036 14.0384 26.4306 16.7488 26.4451 18.1657C26.4379 18.4709 26.4597 18.7761 26.4669 19.074ZM18.9316 11.9893H21.8818V17.192C21.8818 18.1585 22.4195 19.0813 23.604 19.0813C23.6112 16.7415 23.604 14.3291 23.524 11.9893H25.9873C26.0382 12.4398 26.0891 12.8903 26.1327 13.3408C27.2953 11.0156 30.9649 11.5242 32.2002 13.4934C33.4718 15.5208 33.9078 21.3339 27.9057 21.3339H26.5105C26.5251 22.5111 26.5251 23.6955 26.5251 24.8799H23.5749C23.5749 23.7464 23.5822 22.5547 23.5894 21.3339C20.3995 21.3194 18.9316 19.2993 18.9316 17.192V11.9893Z" fill="#F37421"/>
<rect x="0.5" y="0.5" width="55" height="31" rx="5.5" stroke="#DFE3E6"/>
</svg>
