<svg width="56" height="32" viewBox="0 0 56 32" fill="none" xmlns="http://www.w3.org/2000/svg">
<rect x="0.5" y="0.5" width="55" height="31" rx="5.5" fill="#687076"/>
<path fill-rule="evenodd" clip-rule="evenodd" d="M24.1263 12.7198H23.3593L22.7593 15.7905H23.5263L24.1263 12.7198ZM26.135 20.6175L25.9106 21.5129C25.8584 21.6621 25.9316 21.7253 26.1245 21.7195H26.907L26.7611 22.2992H25.2637C24.982 22.2992 24.8827 22.1156 24.9715 21.7597L25.2532 20.6175H24.6429L24.7994 19.9919H25.4202L25.5714 19.3835H24.9871L25.1385 18.7579H27.5855L27.429 19.3835H26.4428L26.2915 19.9919H27.2514L27.0949 20.6175H26.135ZM24.2306 12.3467H23.4586L23.5993 11.6006H24.3768L24.2306 12.3467ZM25.6655 17.7936L26.0149 17.2254H26.9436L26.7505 17.6042H27.8671L27.7262 18.1782H26.3959C26.2446 18.4307 26.0568 18.5513 25.8272 18.534H25.1333L25.2845 17.9314H25.4202C25.5454 17.9314 25.6289 17.8855 25.6655 17.7936ZM24.5072 14.7057C24.5072 15.0673 24.6063 15.3486 24.8097 15.5609C25.0081 15.7675 25.2793 15.8709 25.6394 15.8709C26.0568 15.8709 26.4167 15.7274 26.7141 15.4404C27.0114 15.1534 27.2045 14.7631 27.2933 14.2695C27.3036 14.1949 27.3141 14.1203 27.3246 14.0399C27.3285 13.9829 27.3325 13.9258 27.3341 13.8739C27.3347 13.8579 27.3349 13.8424 27.3349 13.8276C27.3349 13.4602 27.2306 13.1732 27.0324 12.9609C26.834 12.7542 26.5576 12.6452 26.2133 12.6452C25.7906 12.6452 25.4307 12.7944 25.1333 13.0871C24.8358 13.3799 24.6429 13.7759 24.5489 14.2752C24.5414 14.3085 24.5361 14.343 24.5317 14.3789C24.527 14.4174 24.523 14.4575 24.5175 14.4991C24.5125 14.5737 24.5072 14.6426 24.5072 14.7057ZM25.3785 15.0386C25.2845 14.9353 25.2429 14.7918 25.2429 14.6024C25.2429 14.5622 25.2429 14.5106 25.2481 14.4646L25.2493 14.4542C25.254 14.411 25.2592 14.3632 25.2689 14.3154C25.3314 13.9825 25.4307 13.7357 25.5662 13.5693C25.7019 13.4028 25.8742 13.3225 26.0881 13.3225C26.2497 13.3225 26.375 13.3741 26.4636 13.4774C26.5524 13.5865 26.594 13.73 26.594 13.9194C26.594 13.9596 26.594 14.0112 26.589 14.0629C26.5837 14.1145 26.5785 14.1662 26.5679 14.2178C26.5055 14.5393 26.4114 14.7861 26.2757 14.9468C26.1403 15.1132 25.968 15.1936 25.754 15.1936C25.5872 15.1936 25.4671 15.1419 25.3785 15.0386ZM20.8602 13.0355C21.0846 12.7715 21.356 12.6394 21.6793 12.6394C21.9715 12.6394 22.1802 12.7313 22.3106 12.9207C22.441 13.1101 22.4776 13.3684 22.4149 13.7013L22.0342 15.7962H21.3246L21.669 13.8964C21.7054 13.7013 21.6951 13.552 21.6377 13.4602C21.5802 13.3626 21.4811 13.3167 21.3299 13.3167C21.1473 13.3167 20.9906 13.3799 20.8654 13.5061C20.7402 13.6324 20.6567 13.8046 20.6151 14.0284L20.2968 15.7962H19.5872L20.1455 12.7198H20.8393L20.7611 13.1618L20.8602 13.0355ZM36.288 13.2134C35.9489 12.9207 35.6409 12.7428 35.041 13.047C34.2271 13.466 33.5488 16.6515 35.7871 15.6068L35.9175 15.7733L36.7992 15.7962L37.373 12.892L36.6113 12.9666L36.288 13.2134ZM36.1157 14.5565C35.9697 15.0157 35.6567 15.3199 35.4061 15.2338C35.1609 15.1477 35.0723 14.7057 35.2183 14.2408C35.3592 13.7816 35.6775 13.4774 35.9228 13.5635C36.1679 13.6496 36.2619 14.0973 36.1157 14.5565ZM28.8115 13.5061C28.6863 13.6324 28.6028 13.8046 28.5611 14.0284L28.2376 15.7962H27.528L28.0863 12.7198H28.7801L28.7019 13.1618L28.8009 13.0355C29.0254 12.7715 29.3018 12.6394 29.6201 12.6394C29.9123 12.6394 30.121 12.7313 30.2514 12.9207C30.3818 13.1101 30.4184 13.3684 30.3557 13.7013L29.975 15.7962H29.2654L29.6098 13.8964C29.6462 13.7013 29.6409 13.552 29.5837 13.4602C29.5263 13.3626 29.4219 13.3167 29.2757 13.3167C29.0931 13.3167 28.9366 13.3799 28.8115 13.5061ZM29.9123 20.5027C30.0219 20.5027 30.0741 20.4683 30.0741 20.3937L30.1367 20.1469H30.7992L30.7106 20.5027C30.6376 20.8012 30.4393 20.9562 30.1157 20.9734H29.688V21.622C29.6828 21.7253 29.7663 21.7769 29.9436 21.7769H30.3402L30.2097 22.2935H29.2497C28.9835 22.3107 28.8481 22.1672 28.8531 21.8688L28.9158 20.1239H29.7141L29.6984 20.5027H29.9123ZM30.5855 15.7962H31.5193L31.8531 13.994H32.9331C33.3662 13.994 33.747 13.8505 34.0653 13.5635C34.3836 13.2765 34.587 12.8977 34.6758 12.4213C34.6893 12.3463 34.699 12.2713 34.7081 12.2L34.7124 12.1688C34.7174 12.0827 34.7227 12.0081 34.7227 11.9392V11.9277C34.7227 11.5661 34.6183 11.2906 34.4149 11.1012C34.2062 10.9118 33.9088 10.8142 33.5228 10.8142H31.514L30.5855 15.7962ZM32.907 13.1273H32.0149L32.2915 11.6695H33.048C33.2983 11.6695 33.4758 11.7096 33.5905 11.79C33.7054 11.8703 33.7628 11.9966 33.7628 12.1745C33.7628 12.209 33.7575 12.2434 33.7523 12.2779C33.747 12.318 33.7418 12.3582 33.7314 12.4041C33.6845 12.6509 33.5958 12.8289 33.4601 12.9494C33.3244 13.0699 33.1418 13.1273 32.907 13.1273ZM36.288 17.1967L36.3244 17.5526C36.3191 17.6444 36.3713 17.6846 36.4706 17.6903H36.6271L36.4706 18.293H35.8235C35.5784 18.3045 35.4531 18.2011 35.4375 17.9773L35.4061 17.1967H36.288ZM42.8305 5.00574C43.9 5.00574 44.5679 5.95852 44.3279 7.13514L40.681 24.8821C40.441 26.0243 39.4392 26.9426 38.4009 27H30.3036C29.2497 26.977 28.5975 26.0357 28.8375 24.8706L29.1192 23.4873H28.4829L28.201 24.8706C27.961 26.0357 28.6133 26.9828 29.667 27H21.0585C20.0046 26.977 19.3525 26.0357 19.5925 24.8706L20.4377 20.7495H19.6968L18.8516 24.8706C18.6116 26.0357 19.269 26.9828 20.3176 27H13.2012C12.3507 26.9828 11.7664 26.3686 11.6934 25.5192V25.192C11.6986 25.0887 11.7142 24.9854 11.7352 24.8763L15.3821 7.1294C15.6274 5.95278 16.9943 5 18.0638 5H25.1385C24.0741 5.02296 22.7385 5.96426 22.4985 7.12366L21.815 10.4584H22.5559L23.2394 7.12366C23.4794 5.96426 24.815 5.02296 25.8794 5L34.4671 5.00574C33.4079 5.04018 32.0879 5.97574 31.8478 7.1294L31.1646 10.4641H31.8009L32.4844 7.1294C32.7244 5.97574 34.0445 5.04018 35.1036 5.00574H42.8305ZM30.8358 19.5614L31.4305 17.2082H29.881C29.4583 17.2082 28.9993 17.587 28.9993 17.587L29.0357 17.2197H28.2168L27.0532 21.9376C27.0011 22.1615 27.1368 22.2705 27.4759 22.2705H28.3522L28.4829 21.7597H28.1385C28.0497 21.7597 28.0184 21.7138 28.0392 21.622L28.4515 19.9632H30.2045C30.5749 19.9632 30.7889 19.8312 30.8358 19.5614ZM28.7176 18.8899H30.1001L30.0166 19.2228C30.0114 19.3319 29.9489 19.372 29.8498 19.3606H28.6028L28.7176 18.8899ZM28.968 17.8855H30.3505L30.2411 18.3332C30.2411 18.3332 29.8027 18.3274 29.4167 18.3332C29.0307 18.3389 28.8009 18.5226 28.8009 18.5226L28.968 17.8855ZM38.8757 12.7198L38.9226 14.7975L39.7314 12.7141H40.5506L38.907 16.3817C38.6148 17.0704 38.3331 17.4722 38.1661 17.6616L38.1412 17.6903C37.9667 17.8905 37.6329 18.2744 36.8827 18.2471L36.9504 17.719C37.5334 17.5221 37.8822 16.7123 38.0961 16.2155C38.1255 16.1475 38.1522 16.0854 38.1766 16.0316L37.9313 12.7255L38.4427 12.7198H38.8757ZM34.1383 22.0065L34.3106 21.335H34.128L34.994 17.9543H35.1766L35.3592 17.2369H34.201C33.8566 17.2369 33.3766 17.5009 33.3766 17.5009L33.4184 17.2369H32.4844L32.3018 17.9543H32.4844L31.608 21.335H31.4305L31.2584 22.0065H33.048L32.9697 22.2992H33.8774L33.9557 22.0065H34.1383ZM32.4428 21.335L32.6253 20.6405H33.3244L33.147 21.335H32.4428ZM32.975 19.2974H33.674C33.674 19.2974 33.5802 19.6246 33.4967 19.9919C33.1889 20.0091 32.7349 20.2559 32.7349 20.2559L32.975 19.2974ZM33.3193 17.9543H34.0184C34.0184 17.9543 33.914 18.3274 33.8358 18.6488C33.4862 18.7005 33.0793 18.8727 33.0793 18.8727L33.3193 17.9543ZM35.9697 19.1424H34.9835L35.1505 18.4824H37.9993L37.8323 19.131H36.9243L36.7678 19.7336H37.6757L37.5087 20.3822H36.4967L36.267 20.761H36.7628L36.8774 21.5244C36.8932 21.6047 36.9557 21.6392 37.06 21.6392H37.2062L37.0444 22.2648H36.5017C36.22 22.282 36.074 22.1787 36.0635 21.9549L35.9331 21.2604L35.4844 22.0008C35.3801 22.2131 35.2132 22.3107 34.994 22.2935H34.1644L34.3261 21.6679H34.587C34.6966 21.6679 34.7854 21.6162 34.8636 21.5129L35.5679 20.3937H34.6602L34.827 19.7451H35.8132L35.9697 19.1424ZM18.2777 14.0342L18.9193 10.6306H19.895L19.2481 14.0744C19.1385 14.6541 18.888 15.1017 18.4967 15.4232C18.1107 15.7388 17.6151 15.8938 17.0046 15.8938C16.4307 15.8938 16.0081 15.7331 15.742 15.4117C15.5594 15.1878 15.4656 14.8951 15.4656 14.545C15.4656 14.3958 15.4812 14.2408 15.5125 14.0744L16.1594 10.6306H17.1403L16.4985 14.0342C16.4777 14.1318 16.4724 14.2178 16.4724 14.2982C16.4724 14.4761 16.5143 14.6196 16.5925 14.7287C16.7072 14.8951 16.9003 14.9755 17.1611 14.9755C17.4638 14.9755 17.7089 14.8951 17.902 14.7287C18.0951 14.5622 18.2203 14.3326 18.2777 14.0342Z" fill="white"/>
<rect x="0.5" y="0.5" width="55" height="31" rx="5.5" stroke="#687076"/>
</svg>
