<svg width="24" height="24" viewBox="0 0 24 24" fill="none" xmlns="http://www.w3.org/2000/svg">
<path d="M22.0181 13.2979L18.0991 15.5159L14.5841 12.0229L18.1271 8.50194L22.0181 10.7039C22.2477 10.8338 22.4388 11.0223 22.5717 11.2502C22.7046 11.478 22.7747 11.7371 22.7747 12.0009C22.7747 12.2647 22.7046 12.5238 22.5717 12.7517C22.4388 12.9796 22.2477 13.1681 22.0181 13.2979ZM1.3371 0.923936C1.26289 1.1041 1.22483 1.29709 1.2251 1.49194V22.5089C1.2251 22.7259 1.2701 22.9279 1.3491 23.1089L12.5041 12.0219L1.3371 0.923936ZM13.5441 10.9889L16.8021 7.75094L3.4501 0.194936C3.16391 0.0304719 2.83059 -0.0325977 2.5041 0.0159364L13.5441 10.9889V10.9889ZM13.5441 13.0559L2.5441 23.9889C2.8421 24.0249 3.1561 23.9729 3.4501 23.8059L16.7741 16.2659L13.5441 13.0559V13.0559Z" fill="#687076"/>
</svg>
