<svg width="24" height="24" viewBox="0 0 24 24" fill="none" xmlns="http://www.w3.org/2000/svg">
<g clip-path="url(#clip0_5922_436)">
<path d="M12.0487 0C5.48874 0 2 4.21525 2 8.81142C2 10.943 3.18788 13.6009 5.08932 14.4443C5.37809 14.5745 5.53514 14.5191 5.59929 14.2505C5.65617 14.0467 5.90612 13.0642 6.02745 12.6005C6.06457 12.4519 6.04526 12.323 5.92563 12.1833C5.29412 11.4514 4.79308 10.1178 4.79308 8.86669C4.79308 5.66125 7.33481 2.5487 11.6598 2.5487C15.3999 2.5487 18.0165 4.98485 18.0165 8.46938C18.0165 12.4071 15.9384 15.1312 13.2383 15.1312C11.7438 15.1312 10.6305 13.9551 10.9837 12.5001C11.4099 10.7675 12.2462 8.90436 12.2462 7.65494C12.2462 6.53408 11.615 5.60733 10.3253 5.60733C8.80408 5.60733 7.56966 7.11788 7.56966 9.14593C7.56966 10.4346 8.02465 11.3046 8.02465 11.3046C8.02465 11.3046 6.51967 17.4008 6.23983 18.5392C5.76693 20.4668 6.30413 23.5886 6.35053 23.8571C6.37897 24.0057 6.545 24.052 6.63764 23.9307C6.78581 23.7357 8.6049 21.1328 9.11512 19.252C9.30056 18.5663 10.0622 15.7866 10.0622 15.7866C10.5633 16.6944 12.01 17.455 13.5509 17.455C18.1346 17.455 21.4466 13.4154 21.4466 8.40202C21.4303 3.59578 17.3281 0 12.0487 0Z" fill="#687076"/>
</g>
<defs>
<clipPath id="clip0_5922_436">
<rect width="24" height="24" fill="white"/>
</clipPath>
</defs>
</svg>
