<svg width="56" height="32" viewBox="0 0 56 32" fill="none" xmlns="http://www.w3.org/2000/svg">
<rect x="0.5" y="0.5" width="55" height="31" rx="5.5" fill="white"/>
<g clip-path="url(#clip0_5916_1108)">
<path d="M49 12.4965H46.8152L45.5507 17.831L45.3734 18.5631C45.2514 18.5963 45.1294 18.6295 45.0074 18.6519C44.7856 18.6961 44.5527 18.7183 44.3089 18.7183C44.0315 18.7183 43.8098 18.674 43.6434 18.5963C43.488 18.5187 43.366 18.4079 43.2995 18.2525C43.2329 18.1083 43.2107 17.9309 43.2218 17.7313C43.2329 17.5317 43.2772 17.3098 43.3327 17.0882L43.9981 14.3154L44.4306 12.4744H42.2014L41.1922 16.733C41.0701 17.2431 41.0036 17.7312 40.9814 18.1971C40.9592 18.6628 41.0369 19.0621 41.1922 19.4281C41.3475 19.783 41.6246 20.0602 42.0018 20.2709C42.3789 20.4816 42.9223 20.5812 43.6101 20.5812C44.087 20.5812 44.5084 20.5371 44.8633 20.4594C44.8744 20.4594 44.8966 20.4484 44.9077 20.4484C44.8079 20.8919 44.6082 21.2467 44.2976 21.5241C43.976 21.8014 43.5101 21.9456 42.889 21.9456C42.6228 21.9456 42.3789 21.9345 42.157 21.9014L41.7245 23.7092C42.013 23.7424 42.3346 23.7646 42.6894 23.7646C43.3549 23.7646 43.9315 23.687 44.4306 23.5427C44.9297 23.3873 45.3513 23.1657 45.7171 22.855C46.072 22.5445 46.3715 22.1563 46.6154 21.7017C46.8593 21.2359 47.0478 20.6923 47.1921 20.0491L48.7004 13.7053L49 12.4965ZM39.8503 17.0546C39.7172 17.6092 39.6728 18.1747 39.7282 18.7293C39.7837 19.2949 40.0055 20.1488 40.2163 20.5813H38.1091C37.854 20.149 37.8652 19.9382 37.8098 19.8052C37.5324 20.027 37.2331 20.2155 36.9004 20.3597C36.5677 20.504 36.2016 20.5816 35.7802 20.5816C35.2921 20.5816 34.8708 20.4928 34.527 20.3265C34.1832 20.1602 33.8948 19.9273 33.6729 19.6388C33.451 19.3504 33.2959 19.0177 33.1959 18.6295C33.0961 18.2413 33.0518 17.831 33.0518 17.3875C33.0518 16.7108 33.1738 16.0788 33.4068 15.4799C33.6507 14.881 33.9834 14.3596 34.405 13.9161C34.8264 13.4725 35.8579 12.4855 37.5436 12.4855H40.9263L39.8503 17.0546V17.0546ZM38.3087 14.3374C37.2885 14.3374 37.0998 14.3374 36.6785 14.5483C36.3791 14.7035 36.135 14.9364 35.9243 15.2026C35.7136 15.4687 35.5361 15.7792 35.4142 16.1342C35.2922 16.4891 35.2256 16.855 35.2256 17.2322C35.2256 17.6979 35.3034 18.0749 35.4585 18.3522C35.6137 18.6295 35.9021 18.7626 36.3236 18.7626C36.5455 18.7626 36.756 18.7183 36.9337 18.6295C37.111 18.5407 37.3106 18.3967 37.5103 18.186C37.5326 17.942 37.5658 17.6869 37.6101 17.4209C37.6544 17.1545 37.7099 16.8995 37.7543 16.6777L38.3087 14.3374V14.3374ZM32.4529 15.7016C32.4529 16.4225 32.3309 17.0768 32.0979 17.6757C31.8651 18.2745 31.5324 18.7847 31.1109 19.2173C30.6893 19.6499 30.1904 19.9826 29.6026 20.2267C29.0148 20.4705 28.3826 20.5925 27.695 20.5925C27.3623 20.5925 27.0295 20.5592 26.6857 20.5038L26.0204 23.1766H23.8354L26.3751 12.5074H29.2919C29.8467 12.5074 30.3234 12.5962 30.7115 12.7624C31.1108 12.9287 31.4324 13.1617 31.6986 13.4501C31.9537 13.7385 32.1421 14.0822 32.2641 14.4704C32.3975 14.8476 32.4529 15.258 32.4529 15.7016V15.7016ZM27.0961 18.7293C27.2623 18.7736 27.4732 18.7847 27.7172 18.7847C28.1053 18.7847 28.4492 18.7181 28.7707 18.5739C29.0812 18.4298 29.3585 18.2301 29.5803 17.9751C29.8022 17.72 29.9685 17.4095 30.1016 17.0546C30.2236 16.6995 30.2902 16.3004 30.2902 15.8679C30.2902 15.4463 30.2014 15.0804 30.0129 14.792C29.8243 14.4927 29.5028 14.3374 29.0371 14.3374H28.1719L27.0961 18.7293V18.7293ZM22.5046 18.7293C22.2273 18.7293 22.0057 18.6849 21.8392 18.6073C21.6839 18.5297 21.5618 18.4188 21.4954 18.2634C21.4288 18.1193 21.4066 17.9419 21.4178 17.7422C21.4288 17.5425 21.4731 17.3207 21.5286 17.0989L22.1939 14.3264H24.6782L25.133 12.4853H22.6375L23.2142 10.1563L20.8851 10.5221L19.4101 16.755C19.288 17.2651 19.2215 17.7533 19.1993 18.2189C19.1771 18.6847 19.2548 19.0842 19.4101 19.45C19.5653 19.8049 19.8426 20.0821 20.2197 20.2929C20.5967 20.5036 21.1402 20.6033 21.8278 20.6033C22.3048 20.6033 22.7261 20.5591 23.0811 20.4814C23.1144 20.4701 23.1698 20.4591 23.203 20.4481L23.6578 18.5516C23.5025 18.607 23.3472 18.6404 23.203 18.6624C22.9815 18.707 22.7485 18.7293 22.5046 18.7293V18.7293ZM16.9483 12.4965L15.0185 20.5924H17.2033L19.122 12.4965H16.9483ZM19.3549 11.5648L19.6876 10.1563H17.5028L17.17 11.5648H19.3549ZM12.1127 12.5074C12.5785 12.5074 12.9889 12.5962 13.3327 12.7624C13.6765 12.9287 13.9538 13.1505 14.1866 13.439C14.4085 13.7274 14.5748 14.0602 14.6857 14.4372C14.7965 14.8141 14.852 15.2246 14.852 15.6683C14.852 16.3448 14.73 16.977 14.4749 17.5869C14.2198 18.1858 13.8871 18.7181 13.4546 19.1616C13.0221 19.6052 12.5119 19.9603 11.9242 20.2153C11.3363 20.4704 10.7041 20.6034 10.0166 20.6034C9.92782 20.6034 9.77259 20.6034 9.55083 20.5924C9.32898 20.5924 9.07396 20.5702 8.79668 20.5258C8.5083 20.4815 8.20884 20.426 7.8983 20.3485C7.5884 20.2731 7.2873 20.1653 7 20.0268L9.53966 9.35775L11.8133 9.00269L10.9149 12.7844C11.1145 12.6958 11.292 12.6292 11.4916 12.5849C11.6801 12.5297 11.8909 12.5074 12.1127 12.5074V12.5074ZM10.2051 18.7847C10.5489 18.7847 10.8706 18.707 11.17 18.5297C11.4735 18.3615 11.741 18.1354 11.9574 17.8643C12.1793 17.5869 12.3567 17.2653 12.4787 16.9214C12.6007 16.5665 12.6672 16.2006 12.6672 15.8236C12.6672 15.3577 12.5896 14.9919 12.4343 14.7256C12.2791 14.4594 11.9574 14.3374 11.536 14.3374C11.4029 14.3374 11.2587 14.3486 11.0369 14.4041C10.815 14.4483 10.6265 14.5594 10.4491 14.7145L9.4953 18.7404C9.78368 18.7847 9.87238 18.7957 9.95008 18.7957C10.0055 18.7847 10.0942 18.7847 10.2051 18.7847V18.7847Z" fill="#687076"/>
</g>
<rect x="0.5" y="0.5" width="55" height="31" rx="5.5" stroke="#687076"/>
<defs>
<clipPath id="clip0_5916_1108">
<rect width="42" height="14.7672" fill="white" transform="translate(7 9)"/>
</clipPath>
</defs>
</svg>
