<svg width="56" height="32" viewBox="0 0 56 32" fill="none" xmlns="http://www.w3.org/2000/svg">
<rect x="0.5" y="0.5" width="55" height="31" rx="5.5" fill="white"/>
<path d="M27.7525 5L27.605 5.50131V20.0482L27.7525 20.1954L34.505 16.204L27.7525 5Z" fill="#687076"/>
<path d="M27.7525 5L21 16.204L27.7525 20.1954L27.7525 13.1349L27.7525 5Z" fill="#687076"/>
<path d="M27.7525 21.474L27.6693 21.5753V26.7572L27.7525 27L34.509 17.4846L27.7525 21.474Z" fill="#687076"/>
<path d="M27.7525 27V21.474L21 17.4845L27.7525 27Z" fill="#687076"/>
<path d="M27.7525 20.1954L34.505 16.204L27.7525 13.1349L27.7525 20.1954Z" fill="#687076"/>
<path d="M21 16.204L27.7525 20.1954L27.7525 13.1349L21 16.204Z" fill="#687076"/>
<rect x="0.5" y="0.5" width="55" height="31" rx="5.5" stroke="#687076"/>
</svg>
