<svg width="56" height="32" viewBox="0 0 56 32" fill="none" xmlns="http://www.w3.org/2000/svg">
<rect x="0.5" y="0.5" width="55" height="31" rx="5.5" fill="white"/>
<path d="M35.1217 16.4454C35.9176 16.4627 36.7179 16.4102 37.5106 16.4726C38.3133 16.6224 38.5068 17.8376 37.7936 18.2356C37.307 18.4978 36.7289 18.3333 36.2014 18.3795H35.1217V16.4454V16.4454ZM37.9708 14.2562C38.1476 14.8803 37.5459 15.4406 36.9448 15.3547H35.1217C35.1345 14.7661 35.0967 14.1273 35.1402 13.5697C35.8706 13.5903 36.6077 13.5278 37.3338 13.6024C37.6458 13.6808 37.9069 13.9373 37.9708 14.2562V14.2562ZM42.3584 5.00078C42.3923 6.19267 42.3633 7.44756 42.373 8.66364C42.3708 13.6077 42.3778 18.5517 42.3691 23.4961C42.3371 25.349 40.695 26.9591 38.8549 26.996C37.013 27.0035 35.1709 26.9972 33.3287 26.9993V19.5248C35.3358 19.5144 37.3439 19.5458 39.3502 19.5091C40.2809 19.4507 41.3004 18.8366 41.3437 17.8124C41.4533 16.7837 40.4835 16.0722 39.5627 15.9599C39.2088 15.9507 39.2191 15.8567 39.5627 15.8157C40.4409 15.6259 41.1305 14.717 40.8721 13.8067C40.652 12.8493 39.5937 12.4787 38.7136 12.4805C36.9189 12.4684 35.1239 12.4788 33.3291 12.4753C33.3407 11.0799 33.3049 9.68302 33.3484 8.28865C33.4906 6.46918 35.1741 4.9687 36.9883 5.00125C38.7785 5.00098 40.5685 5.00098 42.3584 5.00091V5.00078Z" fill="#687076"/>
<path d="M13.0477 8.47695C13.0936 6.62696 14.7427 5.03012 16.5804 5.00308C18.4155 4.99743 20.2509 5.00226 22.0859 5.00063C22.0809 11.1903 22.0959 17.3806 22.0784 23.57C22.0077 25.3975 20.3765 26.9639 18.5588 26.9962C16.7203 27.0029 14.8815 26.9972 13.0429 26.999V19.2726C14.8288 19.6945 16.7016 19.8741 18.5235 19.5942C19.6126 19.419 20.8041 18.8842 21.1729 17.7543C21.4442 16.7879 21.2914 15.7707 21.3318 14.7788V12.4752H18.1788C18.1646 13.9987 18.2078 15.5249 18.156 17.0467C18.071 17.982 17.1447 18.5763 16.2625 18.5445C15.1685 18.5561 13.0005 17.7517 13.0005 17.7517C12.9951 14.8971 13.0323 11.3223 13.0477 8.47722V8.47695Z" fill="#687076"/>
<path d="M23.262 13.4044C23.096 13.4396 23.2286 12.8391 23.1862 12.6113C23.1975 11.1709 23.1626 9.7289 23.2055 8.28952C23.3473 6.46234 25.0437 4.95812 26.8652 5.00089H32.2297C32.2246 11.1906 32.2395 17.3809 32.2221 23.5702C32.1513 25.3977 30.52 26.9641 28.7023 26.9965C26.8637 27.0034 25.0249 26.9976 23.1861 26.9994V18.534C24.4419 19.5643 26.1487 19.7247 27.7131 19.7275C28.8926 19.7271 30.0651 19.5453 31.2105 19.2733V17.7224C29.9197 18.3657 28.4023 18.7743 26.9715 18.4047C25.9734 18.1563 25.2488 17.1916 25.2649 16.1616C25.1493 15.0904 25.7772 13.9594 26.8299 13.641C28.1369 13.2318 29.5613 13.5447 30.7865 14.0767C31.0489 14.2141 31.3154 14.3846 31.2104 13.9459V12.7269C29.1614 12.2394 26.9809 12.06 24.9224 12.5903C24.3265 12.7584 23.746 13.0133 23.262 13.4046V13.4044Z" fill="#687076"/>
<rect x="0.5" y="0.5" width="55" height="31" rx="5.5" stroke="#687076"/>
</svg>
