<svg width="56" height="32" viewBox="0 0 56 32" fill="none" xmlns="http://www.w3.org/2000/svg">
<rect x="0.5" y="0.5" width="55" height="31" rx="5.5" fill="white"/>
<g clip-path="url(#clip0_5916_1100)">
<path d="M7 11H9.11437V20.1994H7V11Z" fill="#687076"/>
<path d="M12.323 11H14.391C14.391 12.9938 13.6121 14.8485 12.2303 16.221L15.1515 20.1994H12.5456L9.37403 15.8779L10.1901 15.2658C11.544 14.2457 12.323 12.6971 12.323 11Z" fill="#687076"/>
<path d="M17.7574 11H15.7636V20.1994H17.7574V11Z" fill="#687076"/>
<path d="M33.2813 14.5518C33.7636 13.8934 34.4869 13.6615 35.2473 13.6615C36.7775 13.6615 37.9552 14.6723 37.9552 16.1561V20.2087H36.0541V16.8516C36.0541 15.9243 35.5719 15.4235 34.7373 15.4235C33.9583 15.4235 33.3092 15.8964 33.3092 16.8609V20.1994H31.3895V13.8377H33.2813V14.5518Z" fill="#687076"/>
<path fill-rule="evenodd" clip-rule="evenodd" d="M23.7852 13.8377V14.2457C23.2473 13.8748 22.5982 13.6615 21.8934 13.6615C20.0387 13.6615 18.5364 15.1638 18.5364 17.0185C18.5364 18.8733 20.0387 20.3756 21.8934 20.3756C22.5982 20.3756 23.2473 20.1623 23.7852 19.7913V20.1994H25.6863V13.8377H23.7852ZM22.051 18.6507C21.0959 18.6507 20.3262 17.9181 20.3262 17.0185C20.3262 16.119 21.0959 15.3864 22.051 15.3864C23.0062 15.3864 23.7759 16.119 23.7759 17.0185C23.7759 17.9181 23.0062 18.6507 22.051 18.6507Z" fill="#687076"/>
<path d="M28.6353 13.8377V14.6631C29.0155 14.1716 29.7296 13.8377 30.4993 13.8377V15.6924H30.4807C29.7296 15.6924 28.6445 16.2303 28.6445 17.2318V20.1994H26.6878V13.8377H28.6353Z" fill="#687076"/>
<path fill-rule="evenodd" clip-rule="evenodd" d="M43.8717 13.8377V14.2457C43.3338 13.8748 42.6847 13.6615 41.9799 13.6615C40.1252 13.6615 38.6228 15.1638 38.6228 17.0185C38.6228 18.8733 40.1252 20.3756 41.9799 20.3756C42.6847 20.3756 43.3338 20.1623 43.8717 19.7913V20.1994H45.7728V13.8377H43.8717ZM42.1375 18.6507C41.1823 18.6507 40.4126 17.9181 40.4126 17.0185C40.4126 16.119 41.1823 15.3864 42.1375 15.3864C43.0927 15.3864 43.8624 16.119 43.8624 17.0185C43.8717 17.9181 43.0927 18.6507 42.1375 18.6507Z" fill="#687076"/>
<path d="M46.6074 19.1422C46.6074 18.4838 47.1453 17.9459 47.8037 17.9459C48.4621 17.9459 49 18.4745 49 19.1422C49 19.8006 48.4621 20.3385 47.8037 20.3385C47.1453 20.3385 46.6074 19.8006 46.6074 19.1422Z" fill="#687076"/>
</g>
<rect x="0.5" y="0.5" width="55" height="31" rx="5.5" stroke="#687076"/>
<defs>
<clipPath id="clip0_5916_1100">
<rect width="42" height="9.37558" fill="white" transform="translate(7 11)"/>
</clipPath>
</defs>
</svg>
