<svg width="56" height="32" viewBox="0 0 56 32" fill="none" xmlns="http://www.w3.org/2000/svg">
<rect width="56" height="32" rx="6" fill="#333E47"/>
<g clip-path="url(#clip0_1509_88090)">
<path d="M22.9079 18.5046C23.409 18.4445 24.5205 18.3113 24.7189 18.5652C24.9176 18.8198 24.4984 19.8672 24.3109 20.3352C24.254 20.4766 24.3758 20.5337 24.5041 20.4266C25.3364 19.7301 25.5517 18.2704 25.3814 18.0598C25.2122 17.8507 23.7562 17.6705 22.8678 18.2946C22.7312 18.3905 22.7547 18.5231 22.9063 18.5048L22.9079 18.5046Z" fill="#F79C34"/>
<path d="M18.3328 21.0574C20.2706 21.0574 22.5208 20.4482 24.0729 19.3028C24.3299 19.1129 24.1098 18.8288 23.8473 18.9399C22.1073 19.678 20.2161 20.0352 18.4958 20.0352C15.9458 20.0352 13.4765 19.3354 11.4799 18.1735C11.3053 18.0719 11.1758 18.2511 11.321 18.3824C13.1717 20.0535 15.6172 21.0574 18.3328 21.0574Z" fill="#F79C34"/>
<path fill-rule="evenodd" clip-rule="evenodd" d="M44.7143 17.4138C44.7143 17.493 44.6494 17.558 44.5696 17.558H44.1456C44.054 17.558 43.9915 17.4918 43.9798 17.4138L43.9372 17.1252C43.7423 17.2901 43.5032 17.435 43.2438 17.5359C42.7451 17.7295 42.1703 17.7617 41.683 17.4623C41.3306 17.246 41.1435 16.8232 41.1435 16.3871C41.1435 16.0497 41.2475 15.7151 41.4781 15.4722C41.7857 15.1403 42.2316 14.9773 42.7701 14.9773C43.0954 14.9773 43.5608 15.0156 43.8994 15.1262V14.5454C43.8994 13.9549 43.6507 13.6993 42.9952 13.6993C42.4941 13.6993 42.1108 13.775 41.5773 13.9408C41.4919 13.9437 41.4419 13.8787 41.4419 13.7995V13.4683C41.4419 13.3888 41.5097 13.3119 41.5833 13.2886C41.9642 13.1225 42.5038 13.019 43.0775 13C43.8254 13 44.7143 13.1687 44.7143 14.3189V17.4138ZM43.8994 16.5658V15.6894C43.6148 15.6116 43.1439 15.5793 42.9616 15.5793C42.6737 15.5793 42.3585 15.6473 42.1938 15.8246C42.0708 15.9545 42.0151 16.141 42.0151 16.3214C42.0151 16.5546 42.0958 16.7885 42.2842 16.9041C42.5031 17.0528 42.8427 17.0348 43.1618 16.9441C43.4685 16.857 43.7564 16.7031 43.8994 16.5658Z" fill="white"/>
<path fill-rule="evenodd" clip-rule="evenodd" d="M10.77 17.6629C10.7153 17.7119 10.6363 17.7153 10.5747 17.6822C10.3412 17.4884 10.2705 17.3831 10.1627 17.2225C10.1436 17.1941 10.1233 17.1639 10.1007 17.1311C9.6467 17.5934 9.32548 17.7322 8.73753 17.7322C8.04155 17.7322 7.5 17.3024 7.5 16.4435C7.5 15.7722 7.86333 15.3159 8.38181 15.0922C8.76063 14.9258 9.26641 14.8745 9.70333 14.8302C9.78371 14.822 9.86177 14.8141 9.93627 14.8057V14.6984C9.93627 14.6777 9.93644 14.6566 9.93662 14.6352C9.93811 14.453 9.93977 14.2511 9.83586 14.0988C9.73521 13.9465 9.54176 13.8839 9.37187 13.8839C9.05637 13.8839 8.77583 14.0455 8.70731 14.3803C8.69303 14.4548 8.63854 14.5288 8.56359 14.5326L7.76221 14.4457C7.6944 14.4303 7.61921 14.376 7.63872 14.2727C7.82027 13.3141 8.67661 13.0152 9.45492 13.0071H9.5163C9.91462 13.0121 10.4233 13.1213 10.7331 13.4185C11.1025 13.7639 11.0999 14.2148 11.097 14.7091C11.0967 14.7529 11.0965 14.7972 11.0965 14.8417V16.1296C11.0965 16.4756 11.2248 16.6481 11.3599 16.8296C11.3761 16.8514 11.3924 16.8734 11.4086 16.8958C11.4612 16.9712 11.4734 17.0604 11.406 17.1157C11.2371 17.2572 10.9368 17.5178 10.7719 17.6648L10.77 17.6629ZM9.9363 15.6897C9.93663 15.9931 9.93691 16.2504 9.78161 16.5241C9.65026 16.7566 9.44135 16.8998 9.20912 16.8998C8.89219 16.8998 8.70659 16.6583 8.70659 16.3002C8.70659 15.5959 9.33833 15.4679 9.93627 15.4679L9.9363 15.6897Z" fill="white"/>
<path fill-rule="evenodd" clip-rule="evenodd" d="M21.4133 17.6822C21.4752 17.7153 21.5539 17.7119 21.6084 17.6629L21.6108 17.6648C21.7757 17.5178 22.0757 17.2572 22.2447 17.1157C22.312 17.0604 22.3004 16.9712 22.2473 16.8958C22.2311 16.8734 22.2147 16.8514 22.1985 16.8296C22.0635 16.6481 21.9351 16.4756 21.9351 16.1296V14.8417C21.9351 14.797 21.9354 14.7526 21.9356 14.7085C21.9385 14.2144 21.9412 13.7637 21.5718 13.4185C21.262 13.1213 20.7533 13.0121 20.355 13.0071H20.2936C19.5155 13.0152 18.6594 13.3141 18.4774 14.2727C18.4581 14.376 18.5333 14.4303 18.6009 14.4457L19.4025 14.5326C19.4772 14.5288 19.5314 14.4548 19.546 14.3803C19.615 14.0455 19.895 13.8839 20.2105 13.8839C20.3807 13.8839 20.5739 13.9465 20.6745 14.0988C20.7786 14.2513 20.7769 14.4536 20.7755 14.636V14.6365C20.7753 14.6574 20.7752 14.6781 20.7752 14.6984V14.8057C20.7007 14.8141 20.6226 14.822 20.5423 14.8301C20.1052 14.8745 19.5993 14.9258 19.2205 15.0922C18.7025 15.3159 18.3386 15.7722 18.3386 16.4435C18.3386 17.3024 18.8802 17.7322 19.5762 17.7322C20.1641 17.7322 20.4856 17.5934 20.9393 17.1311C20.9619 17.1639 20.9823 17.1941 21.0014 17.2226L21.0018 17.2231C21.1096 17.3834 21.1804 17.4886 21.4133 17.6822ZM20.7752 15.6885L20.7752 15.4679C20.177 15.4679 19.5455 15.5959 19.5455 16.3002C19.5455 16.6583 19.7311 16.8998 20.048 16.8998C20.28 16.8998 20.4889 16.7566 20.6205 16.5241C20.7758 16.25 20.7755 15.9925 20.7752 15.6885Z" fill="white"/>
<path d="M13.0281 17.6734H12.2012C12.1225 17.6684 12.0596 17.6094 12.0532 17.5337L12.0539 13.29C12.0539 13.2053 12.1253 13.1375 12.2136 13.1375L12.9836 13.1373C13.064 13.1413 13.1287 13.2022 13.1337 13.2798V13.8337H13.1494C13.35 13.2979 13.7281 13.0478 14.2375 13.0478C14.7546 13.0478 15.0789 13.2979 15.3104 13.8337C15.511 13.2979 15.9664 13.0478 16.4525 13.0478C16.7999 13.0478 17.178 13.1908 17.4095 13.5123C17.6342 13.8182 17.6271 14.2417 17.6204 14.6429C17.6193 14.7104 17.6182 14.7773 17.6182 14.8428L17.6172 17.5209C17.6172 17.6053 17.5461 17.6734 17.4578 17.6734H16.6321C16.5489 17.6681 16.4837 17.6025 16.4837 17.5211L16.4834 15.2714C16.4834 15.2372 16.484 15.1932 16.4846 15.1431C16.4874 14.932 16.4915 14.614 16.4601 14.4769C16.3985 14.1909 16.2134 14.1105 15.9742 14.1105C15.7734 14.1105 15.565 14.2444 15.48 14.4586C15.4015 14.6569 15.4023 14.9768 15.4028 15.2147V15.2162L15.4029 15.2462L15.4029 15.2714V17.5209C15.4029 17.6053 15.3316 17.6734 15.2435 17.6734H14.4176C14.3346 17.6681 14.2692 17.6025 14.2692 17.5211L14.2682 15.2714C14.2682 15.2233 14.269 15.173 14.2698 15.1213C14.2771 14.6639 14.286 14.1019 13.759 14.1019C13.186 14.1019 13.1871 14.7323 13.1879 15.2177L13.188 15.2714L13.1875 17.5209C13.1875 17.6053 13.1161 17.6734 13.0281 17.6734Z" fill="white"/>
<path d="M22.9416 13.8861V13.2798C22.9421 13.1875 23.0116 13.1261 23.0953 13.1263L25.8131 13.1261C25.8999 13.1261 25.9699 13.1892 25.9699 13.2791V13.799C25.9689 13.8863 25.8954 14.0001 25.7653 14.1807L24.3574 16.1908C24.8799 16.1786 25.4326 16.2569 25.9075 16.5237C26.0146 16.5839 26.0434 16.6731 26.0517 16.7604V17.4074C26.0517 17.4966 25.9542 17.5996 25.8514 17.5461C25.015 17.1078 23.905 17.06 22.9799 17.5513C22.8855 17.6018 22.7867 17.4999 22.7867 17.4107V16.7956C22.7867 16.6974 22.7886 16.5289 22.8878 16.379L24.5187 14.0391L23.0987 14.0388C23.0118 14.0388 22.9421 13.977 22.9416 13.8861Z" fill="white"/>
<path fill-rule="evenodd" clip-rule="evenodd" d="M30.2002 15.4413C30.2002 14.1019 29.5366 13.0478 28.3095 13.0478C27.1129 13.0478 26.4493 14.0748 26.4493 15.3965C26.4493 16.709 27.1053 17.7628 28.3095 17.7628C29.4671 17.7628 30.2002 16.7357 30.2002 15.4413ZM27.6687 15.2623C27.6687 14.7443 27.7073 13.9142 28.3169 13.9142C28.5793 13.9142 28.7647 14.03 28.8572 14.3248C28.9653 14.6642 28.981 15.0929 28.981 15.4501C28.981 15.9947 28.95 16.8877 28.3095 16.8877C27.6685 16.8877 27.6686 15.8053 27.6687 15.2802L27.6687 15.2623Z" fill="white"/>
<path d="M31.7918 17.6734H30.9678C30.8852 17.6681 30.8196 17.6025 30.8196 17.5211L30.8181 13.276C30.8253 13.1982 30.8938 13.1375 30.9771 13.1375L31.744 13.1373C31.8163 13.1411 31.8758 13.1901 31.891 13.256V13.9051H31.9065C32.1382 13.3245 32.4621 13.0478 33.0331 13.0478C33.4036 13.0478 33.7664 13.1818 33.998 13.548C34.214 13.8873 34.214 14.4586 34.214 14.8695V17.5399C34.205 17.6151 34.1374 17.6734 34.0555 17.6734H33.2268C33.1502 17.6686 33.0886 17.6122 33.0795 17.5399V15.2359C33.0795 15.2 33.0798 15.1628 33.0802 15.1247V15.124C33.0842 14.6699 33.0892 14.0926 32.5625 14.0926C32.3619 14.0926 32.1765 14.2266 32.084 14.4319C31.9681 14.691 31.9526 14.9499 31.9526 15.2359V17.5209C31.9512 17.6053 31.8798 17.6734 31.7918 17.6734Z" fill="white"/>
<path d="M45.5164 18.884V19.1957C45.5164 19.2507 45.5402 19.334 45.6023 19.3651C45.8483 19.4682 46.2673 19.4996 46.5995 19.4127C47.2104 19.2635 47.5081 18.4595 47.7239 17.8767C47.7421 17.8275 47.7597 17.78 47.7768 17.7345L49.4831 13.3405C49.5117 13.2679 49.5198 13.134 49.3763 13.134H48.8093C48.6955 13.134 48.6468 13.2072 48.6225 13.2781L47.4321 16.7392L46.185 13.2781C46.1593 13.2068 46.1127 13.134 45.998 13.134H45.3967C45.2523 13.134 45.2609 13.2682 45.2899 13.3405L47.01 17.6015C46.9533 17.7655 46.8636 18.0153 46.7282 18.3251C46.6321 18.5452 46.4696 18.7058 46.2431 18.7529C46.0696 18.7886 45.8253 18.7641 45.6525 18.7396C45.56 18.7341 45.5164 18.7953 45.5164 18.884Z" fill="white"/>
<path fill-rule="evenodd" clip-rule="evenodd" d="M36.6189 19.3478H37.1868C37.2661 19.3478 37.331 19.2828 37.331 19.2036V17.1601C37.6913 17.4814 38.1598 17.6662 38.6609 17.6662C39.8508 17.6662 40.5544 16.636 40.5544 15.3537C40.5544 14.1552 40.0945 13.0026 38.6956 13.0026C38.1962 13.0026 37.672 13.2344 37.2649 13.5958L37.2192 13.2858C37.2075 13.2077 37.145 13.1416 37.0536 13.1416H36.6189C36.5394 13.1416 36.4744 13.2065 36.4744 13.2858V19.2036C36.4744 19.2828 36.5394 19.3478 36.6189 19.3478ZM39.6595 15.2992C39.6595 14.4521 39.4032 13.7124 38.4624 13.7124C38.1022 13.7124 37.6698 13.853 37.331 14.1133V16.5353C37.6565 16.7759 38.0922 16.9486 38.4234 16.9486C38.7955 16.9486 39.0428 16.8891 39.264 16.6709C39.5598 16.3795 39.6647 15.8703 39.6595 15.2992Z" fill="white"/>
</g>
<rect x="0.5" y="0.5" width="55" height="31" rx="5.5" stroke="black" stroke-opacity="0.14"/>
<defs>
<clipPath id="clip0_1509_88090">
<rect width="42" height="8.05737" fill="white" transform="translate(7.5 13)"/>
</clipPath>
</defs>
</svg>
