<svg width="56" height="32" viewBox="0 0 56 32" fill="none" xmlns="http://www.w3.org/2000/svg">
<rect x="0.5" y="0.5" width="55" height="31" rx="5.5" fill="#687076"/>
<path fill-rule="evenodd" clip-rule="evenodd" d="M34.8661 9.98909C34.8582 8.99611 34.5717 8.22404 33.964 7.50779C33.0669 6.45186 31.4478 6 29.376 6H23.3612C22.938 6 22.577 6.31801 22.5116 6.75093L20.0064 23.1642C19.957 23.4889 20.1993 23.7818 20.5161 23.7818H23.2185L22.9854 25.3097L22.9852 25.311C22.8569 26.1598 23.491 27 24.4196 27H27.5495C28.4318 27 29.1412 26.3466 29.2786 25.5153L29.3101 25.3469L29.9 21.4778L29.9059 21.4448H30.1631C31.8086 21.4448 33.3943 21.1006 34.6822 20.1541C35.9878 19.1947 36.8628 17.7084 37.2459 15.6751C37.5597 14.0093 37.4497 12.3551 36.3983 11.1168L36.3972 11.1154C36.076 10.7385 35.6883 10.4387 35.259 10.204L34.8661 9.98909ZM34.7404 11.3199C34.7548 11.2392 34.7679 11.1598 34.7796 11.0815C35.0392 11.2235 35.2697 11.3904 35.468 11.5842L35.4717 11.5878C35.5292 11.6442 35.584 11.7029 35.636 11.764C35.6465 11.7763 35.6569 11.7888 35.6672 11.8013C36.407 12.7026 36.5489 13.9728 36.2632 15.49C35.5694 19.1724 33.1954 20.4448 30.1631 20.4448H29.695C29.3245 20.4448 29.0089 20.7233 28.9512 21.1024L28.9133 21.3144L28.324 25.1796L28.2933 25.3439C28.2349 25.7217 27.9201 26 27.5495 26H24.4196C24.1427 26 23.9311 25.7444 23.974 25.4605L25.1334 17.8594L25.1343 17.8536C25.1984 17.4502 25.5166 17.1476 25.9049 17.1126C25.9296 17.1104 25.9546 17.1092 25.9799 17.1092H27.7445C28.0142 17.1092 28.2793 17.1004 28.5393 17.0822C31.4339 16.8795 33.6961 15.51 34.5665 12.128C34.6229 11.9091 34.6734 11.6818 34.7178 11.4458C34.7256 11.4034 34.7332 11.3615 34.7404 11.3199Z" fill="white"/>
<rect x="0.5" y="0.5" width="55" height="31" rx="5.5" stroke="#687076"/>
</svg>
