<svg width="56" height="32" viewBox="0 0 56 32" fill="none" xmlns="http://www.w3.org/2000/svg">
<rect x="0.5" y="0.5" width="55" height="31" rx="5.5" fill="white"/>
<path d="M18 14.8137C18 20.1903 22.2595 24.5751 27.5333 24.5751C28.1806 24.5751 28.8278 24.5168 29.5716 24.4497C30.401 24.375 31.3504 24.2894 32.5534 24.2619C34.379 24.2619 36.3566 24.9405 38.5371 26.9241C38.7399 27.1329 39.0442 26.8719 38.8413 26.6109C36.6609 23.8443 34.6832 23.3223 32.7056 22.8525C30.2715 22.2783 29.0038 20.9211 28.1418 19.3551C27.9896 19.0419 27.8882 19.0941 27.8882 19.5117C27.8375 20.1381 27.8882 20.7123 27.9896 21.2865H27.6854C24.2372 21.2865 21.3975 18.3633 21.3975 14.8137C21.3975 11.264 24.2372 8.34082 27.6854 8.34082C31.1336 8.34082 33.9733 11.264 33.9733 14.8137C33.9733 15.0225 33.9733 15.2835 33.9226 15.5445C33.4155 15.4401 32.5534 15.4401 31.8942 15.4923C31.6407 15.4923 31.6407 15.5967 31.8435 15.6489C33.8719 16.0665 35.2917 17.3715 35.6467 19.7727C35.6467 19.8771 35.6974 19.8771 35.7481 19.8249C36.5594 18.3633 37.0665 16.6407 37.0665 14.8137C37.0665 9.38482 32.807 5 27.5333 5C22.2595 5 18 9.43703 18 14.8137Z" fill="#687076"/>
<path d="M34.4297 18.8331C34.7847 18.9897 34.9368 19.5117 34.9368 19.7727C34.9875 20.1903 34.8861 20.3991 34.734 20.3991C34.5818 20.3991 34.379 20.2425 34.1762 19.8771C33.9733 19.5117 33.8719 19.1463 33.9733 18.9375C34.1255 18.8331 34.2776 18.7809 34.4297 18.8331Z" fill="#687076"/>
<path d="M32.3505 20.4513C32.5533 20.4513 32.8069 20.5557 33.0604 20.7645C33.4661 21.1299 33.6182 21.5475 33.4154 21.8607C33.314 22.0173 33.0604 22.1217 32.8576 22.1217C32.604 22.1217 32.3505 22.0173 32.1984 21.8607C31.7927 21.4953 31.6913 20.9733 31.9448 20.6601C31.9955 20.5557 32.1477 20.4513 32.3505 20.4513Z" fill="#687076"/>
<rect x="0.5" y="0.5" width="55" height="31" rx="5.5" stroke="#687076"/>
</svg>
