<svg width="56" height="32" viewBox="0 0 56 32" fill="none" xmlns="http://www.w3.org/2000/svg">
<rect x="0.5" y="0.5" width="55" height="31" rx="5.5" fill="#687076"/>
<path d="M37.5336 9.57698C36.8626 9.30277 35.7982 9 34.4821 9C31.1222 9 28.7562 10.8453 28.7417 13.4836C28.7138 15.4301 30.4356 16.5113 31.7235 17.1603C33.0398 17.8235 33.4872 18.2564 33.4872 18.8475C33.4738 19.7554 32.4236 20.1739 31.444 20.1739C30.0857 20.1739 29.3579 19.9582 28.2518 19.4531L27.8038 19.2365L27.3277 22.2787C28.1256 22.6532 29.5958 22.9854 31.1222 23C34.6921 23 37.0162 21.1832 37.0438 18.3717C37.0574 16.829 36.1481 15.6468 34.1879 14.6809C32.9979 14.0608 32.2692 13.6427 32.2692 13.0082C32.2831 12.4314 32.8856 11.8406 34.2288 11.8406C35.3349 11.8117 36.1476 12.0855 36.7632 12.3595L37.0709 12.5034L37.5336 9.57698Z" fill="white"/>
<path d="M25.2 22.798H21.7977L23.9258 9.24567H27.3279L25.2 22.798Z" fill="white"/>
<path fill-rule="evenodd" clip-rule="evenodd" d="M46.2552 9.24567H43.6236C42.812 9.24567 42.1955 9.49056 41.8453 10.3701L36.7916 22.7978H40.3616C40.3616 22.7978 40.9493 21.1252 41.0756 20.7649H45.4439C45.5415 21.2407 45.8498 22.7978 45.8498 22.7978H49L46.2552 9.24567ZM42.0555 17.9969C42.3357 17.2183 43.4139 14.2051 43.4139 14.2051C43.4082 14.2168 43.4527 14.0896 43.5189 13.9007L43.5193 13.8995C43.617 13.6206 43.7615 13.2079 43.8615 12.9076L44.0993 14.0753C44.0993 14.0753 44.7436 17.3193 44.8835 17.9969H42.0555Z" fill="white"/>
<path d="M18.9559 9.24567L15.624 18.4871L15.2599 16.6128L15.2595 16.6117L14.0699 10.3849C13.874 9.5193 13.2719 9.27422 12.53 9.24567H7.056L7 9.5195C8.33508 9.87113 9.52918 10.3778 10.5755 11.0078L13.6079 22.7837H17.2058L22.5536 9.24567H18.9559Z" fill="white"/>
<rect x="0.5" y="0.5" width="55" height="31" rx="5.5" stroke="#687076"/>
</svg>
