<!-- Feather v4.29.0 | MIT License | https://github.com/feathericons/feather -->

<!-- https://feathericons.dev/headphones -->
<svg class="feather feather-headphones" xmlns="http://www.w3.org/2000/svg" viewBox="0 0 24 24" width="24" height="24" fill="none" stroke="currentColor" stroke-linecap="round" stroke-linejoin="round" stroke-width="2">
  <path d="M3 18v-6a9 9 0 0 1 18 0v6"></path>
  <path d="M21 19a2 2 0 0 1-2 2h-1a2 2 0 0 1-2-2v-3a2 2 0 0 1 2-2h3zM3 19a2 2 0 0 0 2 2h1a2 2 0 0 0 2-2v-3a2 2 0 0 0-2-2H3z"></path>
</svg>
