<svg width="24" height="24" viewBox="0 0 24 24" fill="none" xmlns="http://www.w3.org/2000/svg">
<g clip-path="url(#clip0_5922_529)">
<path fill-rule="evenodd" clip-rule="evenodd" d="M0.653961 3.27606C0 4.55953 0 6.23969 0 9.6V14.4C0 17.7603 0 19.4405 0.653961 20.7239C1.2292 21.8529 2.14708 22.7708 3.27606 23.346C4.55953 24 6.23969 24 9.6 24H14.4C17.7603 24 19.4405 24 20.7239 23.346C21.8529 22.7708 22.7708 21.8529 23.346 20.7239C24 19.4405 24 17.7603 24 14.4V9.6C24 6.23969 24 4.55953 23.346 3.27606C22.7708 2.14708 21.8529 1.2292 20.7239 0.653961C19.4405 0 17.7603 0 14.4 0H9.6C6.23969 0 4.55953 0 3.27606 0.653961C2.14708 1.2292 1.2292 2.14708 0.653961 3.27606ZM16.0907 7.04803C15.0354 4.68467 12.7973 4.50067 12.1373 4.50067L12.0973 4.5L11.818 4.51C11.1593 4.51 8.92797 4.69 7.90196 7.04136C7.55014 7.82566 7.63062 9.16033 7.6957 10.2398L7.69729 10.2661L7.72795 10.6454C7.67395 10.6754 7.57395 10.7154 7.41795 10.7154C7.20795 10.7154 6.96195 10.6447 6.68194 10.5154C6.60661 10.4854 6.52394 10.4661 6.42661 10.4661C6.09727 10.4661 5.70793 10.6754 5.64793 10.9947C5.60793 11.2234 5.70793 11.5534 6.44594 11.8434C6.51661 11.8734 6.59594 11.9034 6.67661 11.9227L6.69579 11.9292C6.99458 12.0298 7.43737 12.1789 7.56462 12.4621C7.63462 12.6114 7.60529 12.8114 7.48529 13.0414L7.47462 13.0608C7.43395 13.1548 6.45661 15.3808 4.28058 15.7408C4.11058 15.7701 3.99058 15.9181 4.00058 16.0801C4.00258 16.1301 4.01658 16.1881 4.03725 16.2301C4.19658 16.6195 4.88459 16.8995 6.16327 17.0475C6.19435 17.0862 6.22465 17.2172 6.2509 17.3307C6.25899 17.3657 6.26671 17.399 6.27394 17.4275C6.28525 17.4722 6.29504 17.5187 6.30503 17.5662C6.32155 17.6447 6.3386 17.7257 6.36394 17.8055C6.40394 17.9361 6.50327 18.0855 6.75261 18.0855C6.85195 18.0855 6.97195 18.0648 7.11261 18.0361C7.12798 18.0332 7.14372 18.0302 7.15983 18.0271C7.36329 17.9878 7.62704 17.9368 7.96062 17.9368C8.15996 17.9368 8.36996 17.9561 8.5793 17.9861C8.9758 18.0555 9.31204 18.2913 9.70684 18.5681L9.71731 18.5755C10.2853 18.9842 10.9247 19.4342 11.9033 19.4342H12.0027C12.0231 19.4342 12.0432 19.4367 12.0632 19.4392C12.083 19.4417 12.1028 19.4442 12.1227 19.4442C13.096 19.4442 13.7429 18.9899 14.3093 18.5921L14.3187 18.5855C14.7187 18.3055 15.0674 18.0655 15.4674 17.9961C15.6767 17.9568 15.876 17.9468 16.076 17.9468C16.4147 17.9468 16.6847 17.9868 16.9247 18.0368C17.0747 18.0655 17.1934 18.0861 17.2834 18.0861H17.3034C17.4934 18.0861 17.6227 17.9968 17.6734 17.8161C17.7134 17.6875 17.7434 17.5668 17.7627 17.4475C17.7647 17.4387 17.7667 17.4297 17.7688 17.4204C17.7975 17.2925 17.8354 17.124 17.8721 17.0675C19.1207 16.8788 19.8094 16.5995 19.9694 16.2201C19.9894 16.1695 19.9994 16.1201 19.9994 16.0701C20.0094 15.9108 19.8894 15.7601 19.7194 15.7308C17.5476 15.3722 16.5697 13.1553 16.5257 13.0554L16.5154 13.0448C16.3947 12.8154 16.3754 12.6154 16.4354 12.4661C16.5647 12.1661 17.0241 12.0161 17.3241 11.9261C17.3737 11.9099 17.4203 11.8933 17.4621 11.8784C17.496 11.8664 17.5268 11.8554 17.5534 11.8467C18.1021 11.6274 18.3721 11.3674 18.3621 11.0681C18.3621 10.8287 18.1727 10.6087 17.8727 10.5094C17.7727 10.4687 17.6547 10.4494 17.5334 10.4494C17.4534 10.4494 17.3341 10.4601 17.2241 10.5187C16.9747 10.6394 16.7354 10.7087 16.5354 10.7194C16.4034 10.7194 16.318 10.6894 16.268 10.6594C16.2734 10.5494 16.28 10.4394 16.288 10.3194L16.29 10.2794C16.3594 9.19405 16.4434 7.84337 16.0907 7.04803Z" fill="#687076"/>
</g>
<defs>
<clipPath id="clip0_5922_529">
<rect width="24" height="24" fill="white"/>
</clipPath>
</defs>
</svg>
