<svg width="56" height="32" viewBox="0 0 56 32" fill="none" xmlns="http://www.w3.org/2000/svg">
<rect width="56" height="32" rx="6" fill="#016FD0"/>
<path d="M41.3265 9.18255L40.243 11.5712H42.416L41.3265 9.18255ZM28.8232 10.6627C29.0274 10.5658 29.1477 10.3549 29.1477 10.0931C29.1477 9.83651 29.0213 9.65068 28.8172 9.56335C28.6311 9.46655 28.3449 9.45537 28.0705 9.45537H26.132V10.7863H28.0446C28.3508 10.7863 28.6068 10.7822 28.8232 10.6627ZM3.98377 9.18255L2.91249 11.5712H5.06151L3.98377 9.18255ZM53.8608 24.4848H50.8206V23.1996H53.8485C54.1487 23.1996 54.3589 23.1639 54.4855 23.0512C54.6051 22.9508 54.6728 22.8088 54.6716 22.6604C54.6716 22.4858 54.5953 22.3471 54.4791 22.2641C54.3651 22.1727 54.1986 22.131 53.9244 22.131C52.4463 22.0853 50.6022 22.1725 50.6022 20.276C50.6022 19.4068 51.209 18.4919 52.861 18.4919H55.9968V17.2994H53.0833C52.2041 17.2994 51.5653 17.491 51.113 17.7889V17.2994H46.8037C46.1146 17.2994 45.3058 17.4548 44.9232 17.7889V17.2994H37.2274V17.7889C36.615 17.3869 35.5815 17.2994 35.1047 17.2994H30.0286V17.7889C29.5442 17.3621 28.4664 17.2994 27.8099 17.2994H22.1289L20.8291 18.5793L19.6115 17.2994H11.1251V25.6626H19.4514L20.7907 24.3622L22.0526 25.6626L27.1849 25.6667V23.6993H27.6896C28.3705 23.7093 29.1736 23.6841 29.8824 23.4054V25.6623H34.1157V23.4825H34.3198C34.5803 23.4825 34.6062 23.4924 34.6062 23.7293V25.6618H47.4663C48.2828 25.6618 49.1363 25.4719 49.6088 25.1265V25.6618H53.6881C54.5369 25.6618 55.3659 25.5536 55.9966 25.2765V23.7186C55.6144 24.2272 54.8691 24.4848 53.8608 24.4848ZM27.757 22.5101H25.7927V24.5203H22.7328L20.7943 22.5364L18.7799 24.5203H12.5441V18.5272H18.8758L20.8126 20.4917L22.815 18.5272H27.8453C29.0946 18.5272 30.4983 18.8419 30.4983 20.5016C30.4983 22.1664 29.1331 22.5101 27.757 22.5101ZM37.2025 22.2384C37.4249 22.5309 37.457 22.804 37.4635 23.3323V24.5204H35.8828V23.7706C35.8828 23.4101 35.9211 22.8762 35.6283 22.5975C35.3986 22.3829 35.0478 22.3316 34.4733 22.3316H32.7909V24.5204H31.2092V18.5272H34.8435C35.6408 18.5272 36.2212 18.5595 36.7378 18.81C37.2346 19.0831 37.5473 19.4572 37.5473 20.1409C37.5472 21.0974 36.8459 21.5854 36.4315 21.7353C36.7817 21.8529 37.0681 22.0638 37.2025 22.2384ZM43.7055 19.7666H40.019V20.8561H43.6154V22.079H40.019V23.2714L43.7055 23.2767V24.5203H38.4513V18.5272H43.7055V19.7666ZM47.7508 24.5202H44.6847V23.2351H47.7386C48.0373 23.2351 48.249 23.1992 48.3817 23.0866C48.4899 22.994 48.5677 22.8592 48.5677 22.696C48.5677 22.5212 48.4834 22.3826 48.3756 22.2994C48.2551 22.208 48.0889 22.1667 47.8149 22.1667C46.3427 22.1207 44.4989 22.2079 44.4989 20.3115C44.4989 19.4422 45.0994 18.5272 46.7497 18.5272H49.9059V19.8026H47.0179C46.7317 19.8026 46.5456 19.8126 46.3873 19.9112C46.2147 20.0082 46.1507 20.1521 46.1507 20.3421C46.1507 20.5682 46.2972 20.7221 46.4952 20.7886C46.6613 20.8411 46.8396 20.8565 47.1078 20.8565L47.9554 20.8775C48.8097 20.8962 49.3965 21.0309 49.7531 21.3594C50.0594 21.6479 50.224 22.0123 50.224 22.6291C50.2239 23.9184 49.3384 24.5202 47.7508 24.5202ZM35.5411 19.8633C35.3509 19.7605 35.0702 19.7551 34.79 19.7551H32.8515V21.101H34.7641C35.0703 21.101 35.3307 21.0911 35.5411 20.9775C35.7452 20.8653 35.8673 20.6586 35.8673 20.4023C35.8673 20.1459 35.7452 19.9604 35.5411 19.8633ZM53.1305 19.7549C52.8442 19.7549 52.6537 19.7648 52.4935 19.8632C52.3273 19.9604 52.2636 20.1043 52.2636 20.2944C52.2636 20.5203 52.4038 20.6743 52.6078 20.7409C52.774 20.7934 52.9521 20.8088 53.2143 20.8088L54.0677 20.8294C54.9286 20.8488 55.5035 20.9836 55.854 21.3121C55.9178 21.3576 55.9561 21.4089 56 21.4603V19.7551L53.1305 19.7549ZM27.8115 19.7549H25.7588V21.2813H27.7933C28.3981 21.2813 28.7742 21.0082 28.7745 20.4898C28.7742 19.9657 28.3798 19.7549 27.8115 19.7549ZM14.112 19.7549V20.8446H17.568V22.0674H14.112V23.2597H17.9825L19.7808 21.5015L18.0589 19.7549H14.112ZM24.2188 23.946V19.1412L21.8019 21.5049L24.2188 23.946ZM14.2441 14.3237V15.3563H27.3965L27.3904 13.1718H27.6449C27.8232 13.1774 27.875 13.1923 27.875 13.46V15.3564H34.6776V14.8478C35.2263 15.1153 36.0796 15.3564 37.2025 15.3564H40.0644L40.6768 14.0256H42.0347L42.6337 15.3564H48.1484V14.0923L48.9833 15.3563H53.4028V7H49.0293V7.9869L48.4169 7H43.9291V7.9869L43.3667 7H37.3046C36.2898 7 35.3981 7.12884 34.6775 7.48796V7H30.4941V7.48796C30.0355 7.1178 29.4108 7 28.7163 7H13.433L12.4076 9.15842L11.3545 7H6.54073V7.9869L6.0118 7H1.90648L7.17965e-05 10.9733V14.1514L2.81909 8.15965H5.15814L7.83543 13.8326V8.15965H10.405L12.4652 12.2243L14.3579 8.15965H16.9789V14.1514H15.3653L15.3594 9.45878L13.0766 14.1514H11.6943L9.40569 9.45462V14.1514H6.20357L5.59869 12.8149H2.32089L1.70976 14.1514H7.17965e-05L0 15.3568H2.68993L3.29639 14.0259H4.65435L5.25923 15.3568H10.5516V14.3392L11.0239 15.3611H13.7713L14.2441 14.3237ZM34.9696 8.85806C35.4783 8.37984 36.2754 8.15931 37.3603 8.15931H38.8843V9.44316H37.3922C36.818 9.44316 36.4933 9.52088 36.181 9.7982C35.9124 10.0504 35.7283 10.5273 35.7283 11.1553C35.7283 11.7973 35.8687 12.2601 36.1611 12.5624C36.4035 12.7995 36.8441 12.8715 37.2584 12.8715H37.9657L40.1843 8.15951H42.5431L45.2084 13.8268V8.15958H47.6054L50.3727 12.3325V8.15958H51.9852V14.1512H49.7544L46.7704 9.65408V14.1512H43.5642L42.9516 12.8147H39.6813L39.087 14.1512H37.2447C36.4796 14.1512 35.5107 13.9972 34.9621 13.4884C34.4087 12.9797 34.1211 12.2906 34.1211 11.2011C34.1208 10.3123 34.2926 9.50002 34.9696 8.85806ZM31.7315 8.15938H33.3377V14.1512H31.7315V8.15938ZM24.4894 8.15938H28.1102C28.9146 8.15938 29.5077 8.17881 30.0167 8.44637C30.5146 8.71401 30.8132 9.10477 30.8132 9.77297C30.8132 10.7284 30.1123 11.2219 29.7041 11.3701C30.0485 11.4894 30.3428 11.7002 30.483 11.8747C30.7053 12.1727 30.7436 12.4389 30.7436 12.974V14.1511H29.1558L29.1499 13.3955C29.1499 13.0349 29.1878 12.5164 28.9014 12.2283C28.6714 12.0176 28.3207 11.9717 27.7538 11.9717H26.0639V14.1512H24.4896L24.4894 8.15938ZM18.1431 8.15938H23.4021V9.4071H19.7175V10.4871H23.3137V11.7154H19.7175V12.912H23.4021V14.1511H18.1431V8.15938Z" fill="white"/>
<rect x="0.5" y="0.5" width="55" height="31" rx="5.5" stroke="black" stroke-opacity="0.14"/>
</svg>
