<svg width="24" height="24" viewBox="0 0 24 24" fill="none" xmlns="http://www.w3.org/2000/svg">
<g clip-path="url(#clip0_5922_372)">
<path d="M0 12C0 5.37258 5.37258 0 12 0C18.6274 0 24 5.37258 24 12C24 18.6274 18.6274 24 12 24C5.37258 24 0 18.6274 0 12Z" fill="black"/>
<path d="M12.3005 4.01333C13.1738 4 14.0405 4.00667 14.9071 4C14.9605 5.01999 15.3271 6.05997 16.0738 6.77997C16.8205 7.51996 17.8738 7.85995 18.9004 7.97328V10.6599C17.9404 10.6266 16.9738 10.4266 16.1005 10.0133C15.7205 9.83993 15.3671 9.61993 15.0205 9.39327C15.0138 11.3399 15.0271 13.2865 15.0071 15.2265C14.9538 16.1598 14.6471 17.0865 14.1072 17.8532C13.2338 19.1331 11.7205 19.9665 10.1672 19.9931C9.21388 20.0465 8.26056 19.7865 7.44724 19.3065C6.10059 18.5131 5.15393 17.0598 5.01393 15.4999C5.0006 15.1665 4.99393 14.8332 5.00727 14.5065C5.12727 13.2399 5.75393 12.0266 6.72725 11.1999C7.8339 10.2399 9.38055 9.77993 10.8272 10.0533C10.8405 11.0399 10.8005 12.0266 10.8005 13.0132C10.1405 12.7999 9.36721 12.8599 8.78722 13.2599C8.36723 13.5332 8.04723 13.9532 7.88056 14.4265C7.74057 14.7665 7.78057 15.1399 7.78723 15.4999C7.94723 16.5932 9.00055 17.5132 10.1205 17.4132C10.8672 17.4065 11.5805 16.9732 11.9672 16.3398C12.0938 16.1198 12.2338 15.8932 12.2405 15.6332C12.3072 14.4399 12.2805 13.2532 12.2872 12.0599C12.2938 9.37327 12.2805 6.6933 12.3005 4.01333Z" fill="white"/>
</g>
<defs>
<clipPath id="clip0_5922_372">
<rect width="24" height="24" fill="white"/>
</clipPath>
</defs>
</svg>
