<!--

Sourced from The Wolf Kit https://figma.com/community/file/1203393186896008602
Licensed as CC BY 4.0

https://feathericons.dev/?search=card-shop-pay

-->
<svg xmlns="http://www.w3.org/2000/svg" viewBox="0 0 56 32" width="56" height="32" fill="none">
  <rect fill="#5A31F4" height="32" rx="6" width="56" />
  <path d="M17.3 14.318c-.354-.74-1.025-1.217-2.035-1.217a2.032 2.032 0 0 0-1.592.815l-.037.045v-2.898a.063.063 0 0 0-.063-.063h-1.429a.064.064 0 0 0-.062.063v8.313a.062.062 0 0 0 .062.062h1.53a.064.064 0 0 0 .064-.062V15.83c0-.688.46-1.176 1.198-1.176.807 0 1.01.66 1.01 1.335v3.386a.062.062 0 0 0 .063.062h1.527a.063.063 0 0 0 .063-.062v-3.588c0-.123 0-.244-.016-.36a3.164 3.164 0 0 0-.283-1.11ZM9.659 15.55s-.78-.182-1.066-.256c-.287-.073-.788-.23-.788-.607 0-.378.404-.499.814-.499.41 0 .867.1.903.553a.065.065 0 0 0 .065.06l1.509-.006a.066.066 0 0 0 .047-.02.065.065 0 0 0 .017-.05c-.093-1.45-1.371-1.97-2.55-1.97-1.398 0-2.42.92-2.42 1.932 0 .74.21 1.433 1.859 1.915.29.084.682.193 1.025.288.413.115.635.288.635.561 0 .317-.46.538-.913.538-.656 0-1.122-.242-1.16-.678a.066.066 0 0 0-.065-.057l-1.505.007a.065.065 0 0 0-.048.02.065.065 0 0 0-.018.048c.07 1.37 1.397 2.108 2.634 2.108 1.844 0 2.677-1.034 2.677-2.002.002-.454-.102-1.49-1.652-1.885Z" fill="#fff" />
  <path clip-rule="evenodd" d="M29.063 13.099c-.766 0-1.408.422-1.821.932v-.873a.062.062 0 0 0-.062-.061h-1.43a.063.063 0 0 0-.063.062v8.151a.063.063 0 0 0 .062.061h1.532a.061.061 0 0 0 .06-.06v-2.68h.024c.243.37.908.813 1.777.813 1.634 0 2.996-1.35 2.996-3.175.001-1.751-1.354-3.17-3.075-3.17Zm-.141 4.791a1.629 1.629 0 0 1-1.528-.97 1.612 1.612 0 0 1 .324-1.775 1.626 1.626 0 0 1 2.333 2.262 1.597 1.597 0 0 1-1.13.483Z" fill="#fff" fill-rule="evenodd" />
  <path d="M21.155 12.74c-1.425 0-2.138.483-2.709.87l-.002.001-.017.011a.14.14 0 0 0-.043.188l.565.969a.141.141 0 0 0 .1.069.139.139 0 0 0 .115-.032l.045-.036c.294-.246.765-.574 1.906-.664.635-.05 1.183.115 1.588.492.445.408.71 1.069.71 1.765 0 1.283-.758 2.089-1.976 2.105-1.003-.006-1.677-.527-1.677-1.297 0-.41.185-.675.547-.942a.14.14 0 0 0 .043-.179l-.507-.955a.149.149 0 0 0-.148-.076.144.144 0 0 0-.056.02c-.57.336-1.268.951-1.23 2.134.046 1.505 1.302 2.654 2.935 2.701h.194c1.94-.063 3.341-1.498 3.341-3.444 0-1.787-1.306-3.7-3.724-3.7ZM38.173 13.66H37.2a.088.088 0 0 0-.086.085v2.034c0 .022.01.044.025.06a.086.086 0 0 0 .06.025h.974c.592 0 1.029-.465 1.029-1.103 0-.637-.437-1.102-1.03-1.102ZM41.16 17.256c0 .295.25.46.686.46.592 0 .943-.32.943-.886v-.163l-.888.046c-.467.023-.74.217-.74.543Z" fill="#fff" />
  <path clip-rule="evenodd" d="M48.362 11.018H35.295a1.636 1.636 0 0 0-1.508 1.005 1.619 1.619 0 0 0-.123.622v7.128c0 .431.171.845.477 1.15.306.305.721.477 1.154.477h13.067a1.638 1.638 0 0 0 1.513-1.002c.082-.197.125-.409.125-.623v-7.127a1.625 1.625 0 0 0-1.638-1.63Zm-10.14 5.646h-1.028a.087.087 0 0 0-.086.086v1.458a.086.086 0 0 1-.087.086h-.723a.088.088 0 0 1-.086-.086v-5.26a.086.086 0 0 1 .086-.086h1.924c1.09 0 1.87.791 1.87 1.902 0 1.11-.774 1.902-1.864 1.902l-.006-.002Zm5.416 1.543a.086.086 0 0 1-.087.087h-.683a.086.086 0 0 1-.086-.087v-.157a.065.065 0 0 0-.115-.045c-.204.222-.536.382-1.065.382-.779 0-1.294-.404-1.294-1.102a1.02 1.02 0 0 1 .428-.877c.282-.21.717-.32 1.364-.345l.685-.023v-.2c0-.402-.272-.573-.708-.573-.437 0-.713.153-.777.405a.083.083 0 0 1-.083.06h-.676a.085.085 0 0 1-.087-.098c.102-.597.597-1.05 1.654-1.05 1.122 0 1.527.52 1.527 1.513l.003 2.11Zm4.257-3.412-1.521 4.042c-.346.94-.951 1.18-1.614 1.18a1.29 1.29 0 0 1-.37-.044.09.09 0 0 1-.047-.032.09.09 0 0 1-.018-.053v-.614a.089.089 0 0 1 .031-.068.09.09 0 0 1 .072-.018c.105.02.211.03.317.03a.822.822 0 0 0 .827-.583l.045-.141a.085.085 0 0 0 0-.058l-1.422-3.64a.089.089 0 0 1 .011-.078.09.09 0 0 1 .07-.037h.692a.089.089 0 0 1 .081.056l.966 2.568a.089.089 0 0 0 .166 0l.838-2.56a.086.086 0 0 1 .083-.06h.709a.087.087 0 0 1 .084.112v-.002Z" fill="#fff" fill-rule="evenodd" />
  <rect height="31" rx="5.5" stroke="#000" stroke-opacity=".14" width="55" x=".5" y=".5" />
</svg>
