<!--

Sourced from The Wolf Kit https://figma.com/community/file/1203393186896008602
Licensed as CC BY 4.0

https://feathericons.dev/card-amazon-pay-minified

-->
<svg xmlns="http://www.w3.org/2000/svg" viewBox="0 0 56 32" width="56" height="32" fill="none">
  <rect fill="#333E47" height="32" rx="6" width="56" />
  <path d="m21.447 7.005-.203.028c-.66.08-1.253.325-1.79.712-.114.08-.217.165-.335.254-.01-.023-.02-.047-.02-.066-.018-.127-.037-.259-.06-.386-.033-.217-.142-.311-.359-.311h-.542c-.325 0-.386.06-.386.386v9.865c0 .047 0 .094.005.141.01.142.094.231.23.236.33.005.665.005.995 0 .137 0 .222-.094.236-.236.005-.047.005-.094.005-.141v-3.412c.051.042.08.066.103.09.844.702 1.815.932 2.875.725.962-.189 1.631-.778 2.065-1.645.33-.655.466-1.353.485-2.079.024-.805-.056-1.597-.382-2.347-.4-.923-1.065-1.531-2.069-1.739-.15-.033-.306-.047-.462-.07-.132-.005-.259-.005-.39-.005ZM19.213 8.98c0-.071.019-.114.08-.156.646-.448 1.358-.683 2.15-.622.702.052 1.277.396 1.578 1.22.184.505.231 1.028.231 1.556 0 .49-.037.97-.188 1.442-.32 1.004-1.056 1.386-2.008 1.344-.66-.029-1.235-.283-1.763-.656-.056-.042-.08-.08-.08-.155.005-.665 0-1.325 0-1.99 0-.659.005-1.319 0-1.983Zm9.695-1.975c-.047.004-.094.014-.136.019-.462.023-.915.08-1.362.193-.288.075-.566.179-.844.273-.17.057-.255.18-.25.363.005.156-.005.311 0 .467.005.226.099.287.32.23.368-.094.736-.197 1.108-.268.58-.108 1.164-.156 1.753-.066.307.047.594.137.792.396.175.226.24.495.25.773.014.391.01.782.014 1.174 0 .018-.005.042-.01.066-.023-.005-.042 0-.06-.005a8.515 8.515 0 0 0-1.509-.231c-.532-.028-1.06.005-1.57.184-.607.212-1.098.58-1.385 1.173-.221.462-.254.952-.184 1.447.095.66.424 1.17 1.009 1.494.56.311 1.169.35 1.786.255a3.877 3.877 0 0 0 1.9-.867.349.349 0 0 1 .075-.052c.028.179.052.349.085.518.028.146.118.24.254.245.255.005.514.005.769 0 .127-.004.212-.09.226-.221.005-.043.005-.09.005-.132V9.437c0-.203-.01-.406-.043-.608-.09-.608-.349-1.108-.895-1.433-.316-.189-.665-.283-1.028-.335-.17-.023-.34-.037-.509-.061-.184.005-.372.005-.56.005Zm1.65 6.019a.157.157 0 0 1-.07.141c-.529.382-1.108.636-1.764.702-.268.028-.537.02-.791-.085a.946.946 0 0 1-.585-.627 1.55 1.55 0 0 1-.005-.914c.118-.391.396-.613.773-.735a2.89 2.89 0 0 1 1.17-.104c.395.033.782.109 1.178.16.075.01.099.048.099.123-.005.226 0 .448 0 .674-.005.222-.01.443-.005.665Zm6.023.292-1.824-5.053c-.094-.268-.197-.532-.296-.796-.052-.137-.151-.227-.302-.227-.358-.004-.717-.01-1.08-.004-.117 0-.174.094-.15.212.023.099.051.193.09.287.923 2.286 1.852 4.577 2.785 6.858.08.193.099.358.01.556-.156.344-.279.707-.44 1.051-.14.307-.376.538-.716.627-.24.066-.48.076-.725.052-.118-.01-.236-.038-.354-.047-.16-.01-.24.061-.245.226a7.725 7.725 0 0 0 0 .467c.005.259.094.377.349.42.264.046.532.089.796.093.806.02 1.447-.306 1.862-1.008a6.2 6.2 0 0 0 .434-.867c1.117-2.819 2.22-5.642 3.327-8.465.033-.085.062-.17.076-.26.019-.132-.043-.207-.175-.207-.31-.005-.627 0-.938 0-.174 0-.296.075-.362.245-.024.066-.052.127-.076.193a5284.21 5284.21 0 0 0-1.64 4.714c-.118.339-.24.683-.363 1.046-.019-.052-.028-.08-.043-.113Z" fill="#fff" />
  <path d="M14 19.269c.108-.198.245-.231.457-.118.49.264.971.537 1.47.787a28.086 28.086 0 0 0 6.005 2.182 29.063 29.063 0 0 0 7.457.801c.82-.018 1.64-.084 2.456-.179a28.452 28.452 0 0 0 7.696-2.017c.137-.057.278-.094.43-.057.315.085.423.425.192.656-.132.132-.296.24-.452.348-1.447.995-3.026 1.716-4.694 2.258-1.16.372-2.338.65-3.54.83a20.33 20.33 0 0 1-2.508.226c-.037 0-.08.01-.117.014h-.995c-.038-.005-.08-.014-.118-.014-.17-.01-.34-.014-.504-.02a21.139 21.139 0 0 1-6.165-1.235 20.895 20.895 0 0 1-6.863-4.1c-.085-.075-.141-.179-.207-.268v-.094Zm28.807-.146c-.047-.236-.226-.326-.428-.392a4.163 4.163 0 0 0-.99-.184 6.942 6.942 0 0 0-1.848.09c-.674.127-1.315.344-1.885.735a.649.649 0 0 0-.175.165.24.24 0 0 0-.023.189c.019.07.099.09.17.085.033 0 .07 0 .103-.005.368-.038.73-.08 1.099-.118.537-.052 1.079-.085 1.616-.042.226.014.457.066.679.127.24.066.349.245.358.49.019.377-.066.74-.165 1.098-.193.726-.471 1.428-.745 2.126-.018.047-.037.094-.047.141-.023.137.057.227.194.194a.497.497 0 0 0 .226-.118c.207-.203.42-.406.598-.632.604-.773.957-1.664 1.165-2.62.037-.17.066-.344.098-.514v-.816Z" fill="#F79C34" />
  <rect height="31" rx="5.5" stroke="#000" stroke-opacity=".14" width="55" x=".5" y=".5" />
</svg>
