<!--

Sourced from The Wolf Kit https://figma.com/community/file/1203393186896008602
Licensed as CC BY 4.0

https://feathericons.dev/?search=card-stripe

-->
<svg xmlns="http://www.w3.org/2000/svg" viewBox="0 0 56 32" width="56" height="32" fill="none">
  <rect fill="#6461FC" height="32" rx="6" width="56" />
  <path d="m29.738 9.432-2.928.647V7.635L29.738 7v2.432Z" fill="#fff" />
  <path clip-rule="evenodd" d="M35.828 10.786c-1.143 0-1.878.55-2.287.934l-.151-.743h-2.567v13.97l2.917-.635.011-3.39c.42.31 1.039.754 2.065.754 2.089 0 3.99-1.725 3.99-5.523-.011-3.474-1.936-5.367-3.978-5.367Zm-.7 8.254c-.688 0-1.097-.251-1.377-.563l-.011-4.444c.303-.348.723-.588 1.388-.588 1.062 0 1.797 1.223 1.797 2.792 0 1.605-.724 2.803-1.797 2.803ZM49 16.273c0-3.067-1.447-5.487-4.212-5.487-2.776 0-4.456 2.42-4.456 5.463 0 3.606 1.983 5.427 4.83 5.427 1.388 0 2.438-.323 3.231-.779v-2.396c-.793.407-1.703.66-2.858.66-1.132 0-2.135-.408-2.263-1.822h5.705c0-.066.004-.216.009-.389a29.6 29.6 0 0 0 .014-.677Zm-5.763-1.138c0-1.354.805-1.917 1.54-1.917.711 0 1.47.563 1.47 1.917h-3.01Z" fill="#fff" fill-rule="evenodd" />
  <path d="M26.81 10.99h2.928v10.482H26.81V10.99ZM23.485 10.99l.187.886c.688-1.294 2.053-1.03 2.426-.886v2.755c-.361-.132-1.528-.3-2.216.623v7.104h-2.917V10.99h2.52ZM17.838 8.39l-2.846.623-.012 9.596c0 1.773 1.295 3.079 3.022 3.079.956 0 1.656-.18 2.041-.395V18.86c-.373.155-2.216.706-2.216-1.067v-4.253h2.216V10.99h-2.216l.011-2.6ZM10.943 13.386c-.618 0-.991.18-.991.647 0 .51.642.734 1.44 1.013 1.299.453 3.01 1.05 3.016 3.264 0 2.144-1.668 3.378-4.095 3.378-1.003 0-2.1-.204-3.185-.683v-2.851c.98.55 2.217.958 3.185.958.654 0 1.12-.18 1.12-.73 0-.566-.696-.824-1.537-1.136C8.616 16.771 7 16.172 7 14.176c0-2.12 1.575-3.39 3.943-3.39.969 0 1.925.156 2.894.55v2.816c-.887-.49-2.007-.766-2.894-.766Z" fill="#fff" />
  <rect height="31" rx="5.5" stroke="#000" stroke-opacity=".14" width="55" x=".5" y=".5" />
</svg>
