<!-- https://feathericons.dev/?search=card-unionpay -->
<svg xmlns="http://www.w3.org/2000/svg" viewBox="0 0 56 32" width="56" height="32" fill="none">
  <rect fill="#000" height="32" rx="6" width="56" />
  <path d="M17.69 5.001h8.528c1.19 0 1.93 1 1.652 2.228L23.9 24.775C23.62 26.001 22.43 27 21.239 27H12.71c-1.188 0-1.93-1-1.653-2.225L15.03 7.23c.278-1.229 1.469-2.228 2.66-2.228Z" fill="#E21836" />
  <path d="M25.507 5h9.806c1.19 0 .654.999.374 2.228l-3.97 17.546C31.44 26 31.526 27 30.333 27h-9.806c-1.192 0-1.93-1-1.65-2.225l3.969-17.546C23.128 5.998 24.316 5 25.507 5Z" fill="#00447C" />
  <path d="M34.925 5h8.527c1.192 0 1.932.999 1.652 2.228l-3.969 17.546C40.855 26 39.662 27 38.47 27h-8.523c-1.192 0-1.932-1-1.653-2.225l3.97-17.546C32.542 5.998 33.732 5 34.924 5Z" fill="#007B84" />
  <path d="M19.917 10.623c-.877.01-1.136 0-1.219-.02-.032.155-.623 2.965-.625 2.967-.127.569-.22.974-.535 1.236a.937.937 0 0 1-.63.225c-.388 0-.615-.198-.653-.575l-.007-.13.119-.766s.62-2.56.732-2.899a.246.246 0 0 0 .009-.038c-1.21.01-1.423 0-1.438-.02-.008.027-.038.186-.038.186l-.634 2.886-.055.245-.105.8c0 .238.045.432.135.596.29.52 1.113.597 1.58.597.6 0 1.164-.131 1.544-.37.661-.403.834-1.031.988-1.59l.072-.286s.64-2.66.748-3.006c.005-.019.006-.029.012-.038Zm2.177 2.145a1.65 1.65 0 0 0-.69.166c-.091.05-.178.105-.27.161l.083-.307-.046-.052c-.537.112-.657.127-1.152.198l-.042.029c-.058.492-.109.861-.322 1.827-.082.356-.166.715-.25 1.07l.022.046c.509-.028.663-.028 1.104-.02l.036-.04c.056-.296.064-.366.188-.965.058-.284.18-.908.24-1.13.11-.053.22-.105.323-.105.248 0 .218.222.208.31-.01.15-.1.635-.193 1.052l-.062.27c-.043.198-.09.391-.133.588l.019.04c.5-.028.653-.028 1.081-.02l.05-.04c.078-.463.1-.586.238-1.26l.069-.308c.134-.605.2-.912.1-1.162-.108-.28-.365-.348-.601-.348Zm2.431.634c-.266.052-.436.088-.605.11-.167.028-.33.053-.588.09l-.02.019-.018.015c-.027.197-.046.368-.082.568-.03.207-.076.443-.151.781-.059.26-.09.35-.122.441-.033.091-.069.18-.134.435l.015.023.013.022c.24-.012.398-.02.56-.022.161-.006.328 0 .587.002l.023-.02.024-.02c.038-.23.043-.292.066-.404.023-.12.062-.287.158-.731.045-.21.096-.417.143-.63.048-.213.1-.422.148-.63l-.007-.026-.01-.023Zm.006-.854c-.242-.147-.667-.1-.953.102-.284.2-.317.482-.076.63.238.144.664.101.948-.104.284-.203.32-.483.08-.628Zm1.463 3.404c.49 0 .991-.14 1.369-.551.29-.334.424-.832.47-1.036.15-.679.033-.996-.114-1.189-.223-.294-.618-.388-1.027-.388-.246 0-.832.025-1.29.46-.329.313-.48.738-.572 1.146-.093.415-.2 1.163.469 1.442.206.09.503.116.695.116Zm-.038-1.527c.113-.514.246-.946.586-.946.266 0 .286.322.167.837-.021.115-.118.54-.25.721-.092.134-.2.215-.32.215-.036 0-.249 0-.252-.325a2.27 2.27 0 0 1 .069-.502Zm3.1 1.46.038-.04c.055-.295.064-.365.184-.964.06-.284.184-.908.243-1.13.11-.053.217-.105.324-.105.246 0 .216.222.207.31-.01.15-.1.635-.194 1.052l-.058.27c-.045.198-.093.391-.136.588l.018.04c.503-.028.65-.028 1.08-.02l.052-.04c.075-.463.096-.586.237-1.259l.067-.31c.135-.604.203-.911.104-1.161-.11-.28-.37-.348-.603-.348-.154 0-.438.039-.69.167-.09.048-.18.104-.268.16l.077-.307-.041-.052c-.537.112-.66.127-1.155.199l-.038.028c-.06.492-.109.86-.322 1.827-.081.356-.166.716-.25 1.07l.023.046c.509-.028.66-.028 1.101-.02Zm3.693.02.22-1.099s.16-.69.17-.715c0 0 .05-.072.1-.1h.075c.698 0 1.486 0 2.104-.469.42-.32.708-.795.836-1.37.034-.142.058-.31.058-.478 0-.22-.043-.438-.167-.609-.315-.454-.943-.462-1.667-.466l-.357.004c-.927.012-1.3.008-1.452-.011l-.037.193-.332 1.587-.832 3.528c.81-.01 1.141-.01 1.28.006Zm.615-2.814.352-1.575.011-.082.005-.061.141.015.745.066c.288.114.406.41.324.794-.076.352-.298.648-.583.791-.234.121-.522.131-.818.131h-.191l.014-.08Zm2.199 1.363c-.094.41-.2 1.158.464 1.424.212.093.402.12.595.11.204-.01.393-.116.568-.268l-.047.188.03.04c.478-.021.626-.021 1.144-.017l.047-.037c.076-.458.147-.902.344-1.778.096-.42.191-.835.29-1.253l-.016-.046c-.535.102-.678.124-1.192.199l-.04.032-.015.125a.741.741 0 0 0-.375-.318c-.229-.093-.766.027-1.228.46-.325.31-.48.733-.57 1.14Zm1.123.025c.115-.505.246-.932.587-.932.216 0 .33.205.306.554l-.061.283c-.034.15-.071.299-.107.447-.037.102-.08.198-.126.262-.088.128-.297.208-.417.208-.034 0-.244 0-.252-.32-.001-.159.03-.322.07-.502Zm5.868-1.666-.042-.049c-.529.11-.625.128-1.111.196l-.036.036-.006.024-.001-.008c-.362.86-.352.674-.646 1.35l-.004-.082-.073-1.467-.047-.049c-.554.11-.567.128-1.08.196l-.04.036c-.005.018-.005.037-.008.058l.003.008c.064.336.049.261.113.793.03.26.07.523.1.78.05.432.078.644.14 1.302-.346.587-.428.81-.76 1.325l.002.005-.235.382c-.027.04-.05.068-.085.08a.344.344 0 0 1-.154.022h-.13l-.193.661.663.012c.389-.002.633-.189.765-.44l.416-.735H40.1l.043-.052c.28-.621 2.412-4.384 2.412-4.384Zm-6.991 8.682h-.281l1.04-3.54h.345l.11-.366.01.406c-.013.25.179.473.682.436h.582l.2-.681h-.218c-.127 0-.185-.033-.178-.103l-.01-.413h-1.078v.002c-.349.008-1.39.034-1.6.092-.256.068-.524.267-.524.267l.105-.365H33.74l-.21.724-1.054 3.595h-.205l-.2.678h2.008l-.067.225h.99l.065-.226h.278l.218-.73Zm-.824-2.821c-.162.046-.462.185-.462.185l.267-.905h.801l-.193.66s-.248.015-.413.06Zm.015 1.293s-.252.032-.417.07c-.164.052-.47.212-.47.212l.277-.942h.805l-.195.66Zm-.449 1.537h-.804l.233-.795h.801l-.23.795Zm1.936-2.197h1.158l-.166.555h-1.174l-.176.607h1.027l-.778 1.127a.322.322 0 0 1-.158.136.45.45 0 0 1-.208.062h-.285l-.196.664h.745c.388 0 .617-.181.785-.42l.534-.75.114.762a.357.357 0 0 0 .192.26c.075.038.152.104.26.114.117.005.202.009.258.009h.366l.22-.744h-.145c-.082 0-.225-.014-.25-.04-.024-.033-.024-.083-.037-.16l-.116-.764h-.476l.209-.256h1.171l.18-.607h-1.084l.169-.555h1.081l.2-.684h-3.223l-.197.684Zm-9.785 2.351.27-.926h1.111l.204-.688h-1.113l.17-.57h1.087l.201-.667h-2.72l-.197.667h.618l-.165.57h-.62l-.204.7h.617l-.36 1.225c-.049.162.023.224.068.3a.299.299 0 0 0 .199.149c.109.025.183.04.285.04h1.253l.223-.763-.555.079c-.108 0-.405-.014-.372-.116Zm.127-4.433-.281.524a.606.606 0 0 1-.164.219c-.043.027-.128.039-.251.039h-.147l-.197.67h.488c.235 0 .415-.088.501-.133.093-.05.117-.022.188-.093l.165-.147h1.524l.202-.697h-1.115l.195-.382h-1.108Zm2.25 4.447c-.026-.039-.007-.107.032-.248l.417-1.419h1.482c.216-.003.372-.006.473-.013a.95.95 0 0 0 .356-.124.675.675 0 0 0 .26-.246c.063-.09.167-.29.255-.596l.524-1.796-1.538.009s-.473.072-.682.151c-.21.089-.51.336-.51.336l.138-.492h-.95l-1.33 4.54a2.886 2.886 0 0 0-.086.38c-.002.083.102.165.17.227.079.062.197.052.31.062.118.01.287.015.52.015h.73l.224-.779-.654.064a.17.17 0 0 1-.141-.071Zm.718-2.625h1.556l-.099.319c-.014.007-.047-.016-.206.003h-1.347l.096-.322Zm.311-1.071h1.57l-.113.384s-.74-.007-.858.015c-.521.093-.826.38-.826.38l.227-.78Zm1.18 2.459a.172.172 0 0 1-.06.098c-.032.021-.084.029-.16.029H30.6l.013-.389h-.922l-.037 1.9c-.002.138.011.217.109.28.097.08.397.09.802.09h.578l.208-.711-.503.028-.167.01c-.023-.01-.045-.019-.07-.044-.02-.022-.056-.008-.05-.146l.004-.487.527-.022c.285 0 .407-.096.511-.187.1-.087.132-.187.169-.322l.088-.431h-.725l-.092.304Z" fill="#FEFEFE" />
  <rect height="31" rx="5.5" stroke="#000" stroke-opacity=".14" width="55" x=".5" y=".5" />
</svg>
