<!-- https://feathericons.dev/?search=card-ethereum -->
<svg xmlns="http://www.w3.org/2000/svg" viewBox="0 0 56 32" width="56" height="32" fill="none">
  <rect fill="#333" height="32" rx="6" width="56" />
  <path d="m27.753 5-.148.501v14.547l.148.147 6.752-3.991L27.752 5Z" fill="#E7E7E7" />
  <path d="M27.753 5 21 16.204l6.753 3.991V5Z" fill="#fff" />
  <path d="m27.753 21.474-.084.101v5.182l.084.243 6.756-9.515-6.756 3.989Z" fill="#C8C8C8" />
  <path d="M27.753 27v-5.526L21 17.484 27.753 27Z" fill="#fff" />
  <path d="m27.752 20.195 6.753-3.99-6.753-3.07v7.06Z" fill="#C8C8C8" />
  <path d="m21 16.204 6.752 3.991v-7.06L21 16.205Z" fill="#E7E7E7" />
  <rect height="31" rx="5.5" stroke="#000" stroke-opacity=".14" width="55" x=".5" y=".5" />
</svg>
