<!--

Sourced from The Wolf Kit https://figma.com/community/file/1203393186896008602
Licensed as CC BY 4.0

https://feathericons.dev/?search=card-monero

-->
<svg xmlns="http://www.w3.org/2000/svg" viewBox="0 0 56 32" width="56" height="32" fill="none">
  <rect fill="#000" height="32" rx="6" width="56" />
  <path d="M28 5c6.074 0 11 4.926 11 11 0 1.214-.197 2.382-.56 3.474h-3.29V10.22L28 17.37l-7.15-7.15v9.255h-3.29A10.982 10.982 0 0 1 17 16c0-6.074 4.926-11 11-11Z" fill="#F60" />
  <path d="m29.645 19.013 3.12-3.12v5.823H37.4a10.994 10.994 0 0 1-9.4 5.283c-3.98 0-7.468-2.115-9.399-5.283h4.635v-5.824l3.12 3.12 1.645 1.645 1.643-1.644Z" fill="#4C4C4C" />
  <rect height="31" rx="5.5" stroke="#000" stroke-opacity=".14" width="55" x=".5" y=".5" />
</svg>
