<svg width="24" height="24" viewBox="0 0 24 24" fill="none" xmlns="http://www.w3.org/2000/svg">
<g clip-path="url(#clip0_1428_79313)">
<path fill-rule="evenodd" clip-rule="evenodd" d="M12 0C5.37258 0 0 5.37258 0 12C0 18.6274 5.37258 24 12 24C18.6274 24 24 18.6274 24 12C24 5.37258 18.6274 0 12 0ZM16.7926 16.7635C17.083 16.3496 17.3336 15.8994 17.5453 15.4103C17.6326 15.2028 17.7147 14.9868 17.7925 14.7613C17.4338 14.6109 17.1115 14.3992 16.8229 14.1252C16.186 13.535 15.8619 12.7916 15.8524 11.8983C15.842 10.7515 16.3631 9.85752 17.4165 9.21924C16.828 8.38272 15.9431 7.9184 14.7653 7.82335C14.3306 7.78645 13.8 7.88012 13.1713 8.10636C12.5065 8.35032 12.1143 8.47268 11.9986 8.47268C11.8439 8.47268 11.4908 8.36803 10.9411 8.16167C10.3897 7.956 9.94606 7.85134 9.60774 7.85134C8.98942 7.86163 8.41527 8.02236 7.88389 8.33779C7.35251 8.65321 6.92795 9.08288 6.60881 9.62756C6.20273 10.3057 6 11.1149 6 12.0531C6 12.8722 6.15037 13.7182 6.45032 14.5919C6.7304 15.4007 7.0879 16.1102 7.52275 16.7221C7.92805 17.295 8.26637 17.6994 8.53686 17.9354C8.96065 18.3294 9.38521 18.5169 9.81116 18.4988C10.0912 18.4893 10.4576 18.3934 10.9123 18.2093C11.3663 18.0261 11.7908 17.9354 12.1866 17.9354C12.564 17.9354 12.9767 18.0261 13.4258 18.2093C13.8735 18.3934 14.258 18.4841 14.5769 18.4841C15.0211 18.4737 15.4359 18.2914 15.823 17.9354C16.0728 17.7185 16.3968 17.3278 16.7926 16.7635ZM14.0783 6.73907C14.5881 6.13398 14.8439 5.48024 14.8439 4.78008C14.8439 4.68722 14.8396 4.5936 14.8292 4.5C14.474 4.51843 14.0964 4.62603 13.6972 4.82061C13.297 5.01813 12.9671 5.26574 12.7077 5.56354C12.1881 6.15169 11.8955 6.87103 11.8955 7.54318C11.8955 7.63608 11.9014 7.72448 11.9117 7.80848C12.7187 7.87407 13.463 7.45841 14.0783 6.73907Z" fill="#555555"/>
</g>
<defs>
<clipPath id="clip0_1428_79313">
<rect width="24" height="24" fill="white"/>
</clipPath>
</defs>
</svg>
