<svg width="24" height="24" viewBox="0 0 24 24" fill="none" xmlns="http://www.w3.org/2000/svg">
<g clip-path="url(#clip0_1435_65039)">
<path fill-rule="evenodd" clip-rule="evenodd" d="M0 9.6C0 6.23969 0 4.55953 0.653961 3.27606C1.2292 2.14708 2.14708 1.2292 3.27606 0.653961C4.55953 0 6.23969 0 9.6 0H14.4C17.7603 0 19.4405 0 20.7239 0.653961C21.8529 1.2292 22.7708 2.14708 23.346 3.27606C24 4.55953 24 6.23969 24 9.6V14.4C24 17.7603 24 19.4405 23.346 20.7239C22.7708 21.8529 21.8529 22.7708 20.7239 23.346C19.4405 24 17.7603 24 14.4 24H9.6C6.23969 24 4.55953 24 3.27606 23.346C2.14708 22.7708 1.2292 21.8529 0.653961 20.7239C0 19.4405 0 17.7603 0 14.4V9.6ZM3 12C3 7.02975 7.0275 3 12 3C16.9702 3 21 7.02975 21 12C21 15.9713 18.4237 19.3463 14.823 20.5267C14.3617 20.6167 14.2043 20.3355 14.2043 20.0993C14.2043 20.0027 14.2055 19.8326 14.2071 19.6047C14.2105 19.1422 14.2155 18.4416 14.2155 17.6347C14.2155 16.7917 13.923 16.2397 13.608 15.9697C15.6105 15.7485 17.7142 14.9873 17.7142 11.5297C17.7142 10.5472 17.3655 9.74475 16.7917 9.11475C16.8818 8.8875 17.1855 7.9725 16.7017 6.73275C16.7017 6.73275 15.948 6.49125 14.238 7.65525C13.518 7.455 12.753 7.356 11.988 7.3515C11.223 7.356 10.458 7.455 9.738 7.65525C8.01675 6.49125 7.263 6.73275 7.263 6.73275C6.77925 7.9725 7.083 8.8875 7.18425 9.11475C6.60675 9.74475 6.258 10.5472 6.258 11.5297C6.258 14.9783 8.35875 15.7522 10.3575 15.9772C10.1003 16.2022 9.8685 16.599 9.7875 17.181C9.273 17.4112 7.96875 17.8088 7.16625 16.4325C7.16625 16.4325 6.6915 15.5685 5.78775 15.5055C5.78775 15.5055 4.9095 15.4943 5.72475 16.0522C5.72475 16.0522 6.3165 16.3298 6.726 17.3685C6.726 17.3685 7.254 19.119 9.7575 18.576C9.75958 18.9925 9.76282 19.3523 9.76529 19.6265C9.76727 19.8462 9.76875 20.0109 9.76875 20.106C9.76875 20.3452 9.60375 20.6235 9.15375 20.5387C5.5785 19.35 3 15.9773 3 12Z" fill="#333333"/>
</g>
<defs>
<clipPath id="clip0_1435_65039">
<rect width="24" height="24" fill="white"/>
</clipPath>
</defs>
</svg>
