<svg width="24" height="24" viewBox="0 0 24 24" fill="none" xmlns="http://www.w3.org/2000/svg">
<g clip-path="url(#clip0_1430_66343)">
<path d="M0 9.6C0 6.23969 0 4.55953 0.653961 3.27606C1.2292 2.14708 2.14708 1.2292 3.27606 0.653961C4.55953 0 6.23969 0 9.6 0H14.4C17.7603 0 19.4405 0 20.7239 0.653961C21.8529 1.2292 22.7708 2.14708 23.346 3.27606C24 4.55953 24 6.23969 24 9.6V14.4C24 17.7603 24 19.4405 23.346 20.7239C22.7708 21.8529 21.8529 22.7708 20.7239 23.346C19.4405 24 17.7603 24 14.4 24H9.6C6.23969 24 4.55953 24 3.27606 23.346C2.14708 22.7708 1.2292 21.8529 0.653961 20.7239C0 19.4405 0 17.7603 0 14.4V9.6Z" fill="#222222"/>
<rect x="12.75" y="12.7461" width="6" height="6" fill="#FEBA08"/>
<rect x="5.25" y="12.6846" width="6" height="6" fill="#05A6F0"/>
<rect x="12.75" y="5.25389" width="6" height="6" fill="#80BC06"/>
<rect x="5.25" y="5.25389" width="6" height="6" fill="#F25325"/>
</g>
<defs>
<clipPath id="clip0_1430_66343">
<rect width="24" height="24" fill="white"/>
</clipPath>
</defs>
</svg>
