<svg width="24" height="24" viewBox="0 0 24 24" fill="none" xmlns="http://www.w3.org/2000/svg">
<g clip-path="url(#clip0_1428_79899)">
<path fill-rule="evenodd" clip-rule="evenodd" d="M0.653961 3.27606C0 4.55953 0 6.23969 0 9.6V14.4C0 17.7603 0 19.4405 0.653961 20.7239C1.2292 21.8529 2.14708 22.7708 3.27606 23.346C4.55953 24 6.23969 24 9.6 24H14.4C17.7603 24 19.4405 24 20.7239 23.346C21.8529 22.7708 22.7708 21.8529 23.346 20.7239C24 19.4405 24 17.7603 24 14.4V9.6C24 6.23969 24 4.55953 23.346 3.27606C22.7708 2.14708 21.8529 1.2292 20.7239 0.653961C19.4405 0 17.7603 0 14.4 0H9.6C6.23969 0 4.55953 0 3.27606 0.653961C2.14708 1.2292 1.2292 2.14708 0.653961 3.27606ZM4.30054 13.8823V8.24301C4.30094 8.18777 4.31223 8.13316 4.33379 8.0823C4.35534 8.03144 4.38673 7.98533 4.42614 7.94663C4.46555 7.90792 4.51222 7.87738 4.56346 7.85675C4.61471 7.83612 4.66952 7.82581 4.72475 7.82642H12.9424C13.554 7.82399 14.1416 8.06449 14.576 8.49509C15.0104 8.92568 15.2561 9.51113 15.259 10.1228V15.7621C15.2582 15.8732 15.2134 15.9794 15.1343 16.0575C15.0553 16.1356 14.9485 16.1792 14.8374 16.1787H6.61722C6.00557 16.1811 5.41798 15.9406 4.98358 15.51C4.54917 15.0794 4.30349 14.4939 4.30054 13.8823ZM19.1761 7.96359L15.7823 10.4428V13.5673L19.1761 16.041C19.4199 16.2244 19.6994 16.2853 19.6994 15.7824V8.22269C19.6994 7.78069 19.4707 7.71922 19.1761 7.96359Z" fill="#4A8CFF"/>
</g>
<defs>
<clipPath id="clip0_1428_79899">
<rect width="24" height="24" fill="white"/>
</clipPath>
</defs>
</svg>
