<svg width="24" height="24" viewBox="0 0 24 24" fill="none" xmlns="http://www.w3.org/2000/svg">
<g clip-path="url(#clip0_1428_79871)">
<path fill-rule="evenodd" clip-rule="evenodd" d="M24 12C24 18.6274 18.6274 24 12 24C5.37258 24 0 18.6274 0 12C0 5.37258 5.37258 0 12 0C18.6274 0 24 5.37258 24 12ZM4.30054 13.8823V8.24301C4.30094 8.18777 4.31223 8.13316 4.33379 8.0823C4.35534 8.03144 4.38673 7.98533 4.42614 7.94663C4.46555 7.90792 4.51222 7.87738 4.56346 7.85675C4.61471 7.83612 4.66952 7.82581 4.72475 7.82642H12.9424C13.554 7.82399 14.1416 8.06449 14.576 8.49509C15.0104 8.92568 15.2561 9.51113 15.259 10.1228V15.7621C15.2582 15.8732 15.2134 15.9794 15.1343 16.0575C15.0553 16.1356 14.9485 16.1792 14.8374 16.1787H6.61722C6.00557 16.1811 5.41798 15.9406 4.98358 15.51C4.54917 15.0794 4.30349 14.4939 4.30054 13.8823ZM19.1761 7.96359L15.7823 10.4428V13.5673L19.1761 16.041C19.4199 16.2244 19.6994 16.2853 19.6994 15.7824V8.22269C19.6994 7.78069 19.4707 7.71922 19.1761 7.96359Z" fill="#4A8CFF"/>
</g>
<defs>
<clipPath id="clip0_1428_79871">
<rect width="24" height="24" fill="white"/>
</clipPath>
</defs>
</svg>
