<!--

Sourced from The Wolf Kit https://figma.com/community/file/1203393186896008602
Licensed as CC BY 4.0

https://feathericons.dev/appstore-square

-->
<svg class="feather feather-AppstoreSquare" xmlns="http://www.w3.org/2000/svg" viewBox="0 0 24 24" width="24" height="24" fill="none">
  <path clip-rule="evenodd" d="M.654 3.276C0 4.56 0 6.24 0 9.6v4.8c0 3.36 0 5.04.654 6.324a6 6 0 0 0 2.622 2.622C4.56 24 6.24 24 9.6 24h4.8c3.36 0 5.04 0 6.324-.654a6 6 0 0 0 2.622-2.622C24 19.44 24 17.76 24 14.4V9.6c0-3.36 0-5.04-.654-6.324A6 6 0 0 0 20.724.654C19.44 0 17.76 0 14.4 0H9.6C6.24 0 4.56 0 3.276.654A6 6 0 0 0 .654 3.276Zm11.73 1.398-.486.84-.477-.843a1.095 1.095 0 0 0-1.896 1.092l1.113 1.932-3.564 6.177H4.29c-.606 0-1.092.486-1.092 1.092 0 .606.486 1.092 1.092 1.092h9.93c.477-.894-.138-2.184-1.236-2.184H9.597l4.683-8.106a1.093 1.093 0 1 0-1.896-1.092ZM6.636 19.002l1.05-1.821c-.567-.684-1.284-.894-2.166-.621l-.78 1.35a1.093 1.093 0 1 0 1.896 1.092Zm12.933-5.124h-2.841l-.628-1.087c-1.12-1.941-1.983-3.435-2.591-4.478-.645.537-1.299 2.121-.384 3.699l1.457 2.525 2.578 4.465a1.095 1.095 0 0 0 1.896-1.092l-1.065-1.848h1.578c.606 0 1.092-.486 1.092-1.092 0-.606-.486-1.092-1.092-1.092Z" fill="url(#appstore-square__a)" fill-rule="evenodd" />
  <defs>
    <linearGradient gradientUnits="userSpaceOnUse" id="appstore-square__a" x1="12" x2="12" y1="0" y2="24">
      <stop stop-color="#18BFFB" />
      <stop offset="1" stop-color="#2072F3" />
    </linearGradient>
  </defs>
</svg>
