<!--

Sourced from The Wolf Kit https://figma.com/community/file/1203393186896008602
Licensed as CC BY 4.0

https://feathericons.dev/discord-square

-->
<svg class="feather feather-DiscordSquare" xmlns="http://www.w3.org/2000/svg" viewBox="0 0 24 24" width="24" height="24" fill="none">
  <path d="M7.909 12.706c0 .889.65 1.613 1.438 1.613.8 0 1.438-.724 1.438-1.613.012-.883-.631-1.613-1.438-1.613-.801 0-1.438.724-1.438 1.613ZM13.225 12.706c0 .889.65 1.613 1.438 1.613.807 0 1.438-.724 1.438-1.613.013-.883-.63-1.613-1.438-1.613-.8 0-1.438.724-1.438 1.613Z" fill="#5865F2" />
  <path clip-rule="evenodd" d="M.654 3.276C0 4.56 0 6.24 0 9.6v4.8c0 3.36 0 5.04.654 6.324a6 6 0 0 0 2.622 2.622C4.56 24 6.24 24 9.6 24h4.8c3.36 0 5.04 0 6.324-.654a6 6 0 0 0 2.622-2.622C24 19.44 24 17.76 24 14.4V9.6c0-3.36 0-5.04-.654-6.324A6 6 0 0 0 20.724.654C19.44 0 17.76 0 14.4 0H9.6C6.24 0 4.56 0 3.276.654A6 6 0 0 0 .654 3.276Zm13.634 2.725c1.125.194 2.22.534 3.257 1.01.009.004.016.01.02.019 1.807 2.658 2.7 5.656 2.366 9.107a.05.05 0 0 1-.02.037 13.225 13.225 0 0 1-4.002 2.02.05.05 0 0 1-.056-.02 10.64 10.64 0 0 1-.817-1.329.05.05 0 0 1 .01-.06.05.05 0 0 1 .017-.01 8.2 8.2 0 0 0 1.249-.595.05.05 0 0 0 .02-.066.052.052 0 0 0-.016-.019 6.453 6.453 0 0 1-.248-.195.049.049 0 0 0-.053-.006c-2.587 1.195-5.422 1.195-8.04 0a.05.05 0 0 0-.052.007 6.8 6.8 0 0 1-.248.194.052.052 0 0 0-.013.068c.004.007.01.013.018.017.398.229.813.43 1.248.595a.05.05 0 0 1 .03.029.05.05 0 0 1-.002.041c-.236.466-.51.91-.818 1.33a.052.052 0 0 1-.056.018 13.266 13.266 0 0 1-3.995-2.02.055.055 0 0 1-.02-.037c-.28-2.985.289-6.008 2.363-9.107a.047.047 0 0 1 .021-.018A13.157 13.157 0 0 1 9.708 6a.051.051 0 0 1 .052.025c.142.25.303.57.412.833a12.18 12.18 0 0 1 3.658 0c.11-.257.265-.583.406-.833A.05.05 0 0 1 14.288 6Z" fill="#5865F2" fill-rule="evenodd" />
</svg>
