<!--

Sourced from The Wolf Kit https://figma.com/community/file/1203393186896008602
Licensed as CC BY 4.0

https://feathericons.dev/figma

-->
<svg class="feather feather-Figma" xmlns="http://www.w3.org/2000/svg" viewBox="0 0 24 24" width="24" height="24" fill="none">
  <path d="M8 24c2.208 0 4-1.792 4-4v-4H8c-2.208 0-4 1.792-4 4s1.792 4 4 4Z" fill="#0ACF83" />
  <path d="M4 12c0-2.208 1.792-4 4-4h4v8H8c-2.208 0-4-1.792-4-4Z" fill="#A259FF" />
  <path d="M4 4c0-2.208 1.792-4 4-4h4v8H8C5.792 8 4 6.208 4 4Z" fill="#F24E1E" />
  <path d="M12 0h4c2.208 0 4 1.792 4 4s-1.792 4-4 4h-4V0Z" fill="#FF7262" />
  <path d="M20 12c0 2.208-1.792 4-4 4s-4-1.792-4-4 1.792-4 4-4 4 1.792 4 4Z" fill="#1ABCFE" />
</svg>
