<svg xmlns="http://www.w3.org/2000/svg" viewBox="0 0 24 24" width="24" height="24" fill="none">
  <path clip-rule="evenodd" d="M12 0C5.373 0 0 5.373 0 12s5.373 12 12 12 12-5.373 12-12S18.627 0 12 0ZM2 12C2 6.478 6.475 2 12 2c5.523 0 10 4.478 10 10a9.966 9.966 0 0 1-6.863 9.474c-.513.1-.688-.212-.688-.475l.003-.55c.004-.513.01-1.292.01-2.188 0-.937-.325-1.55-.675-1.85 2.225-.246 4.562-1.092 4.562-4.934 0-1.091-.387-1.983-1.025-2.683.1-.252.438-1.269-.1-2.647 0 0-.837-.268-2.737 1.026a9.587 9.587 0 0 0-2.5-.338c-.85.005-1.7.115-2.5.338-1.913-1.294-2.75-1.026-2.75-1.026-.538 1.378-.2 2.395-.088 2.647-.641.7-1.029 1.592-1.029 2.683 0 3.832 2.334 4.692 4.555 4.942-.286.25-.543.691-.633 1.338-.572.255-2.021.697-2.913-.832 0 0-.527-.96-1.531-1.03 0 0-.976-.012-.07.608 0 0 .657.308 1.112 1.462 0 0 .587 1.945 3.368 1.342l.009 1.167.004.533c0 .265-.184.575-.684.48A9.998 9.998 0 0 1 2 12Z" fill="#687076" fill-rule="evenodd" />
</svg>