<svg xmlns="http://www.w3.org/2000/svg" viewBox="0 0 24 24" width="24" height="24" fill="none">
  <path clip-rule="evenodd" d="M0 9.6c0-3.36 0-5.04.654-6.324A6 6 0 0 1 3.276.654C4.56 0 6.24 0 9.6 0h4.8c3.36 0 5.04 0 6.324.654a6 6 0 0 1 2.622 2.622C24 4.56 24 6.24 24 9.6v4.8c0 3.36 0 5.04-.654 6.324a6 6 0 0 1-2.622 2.622C19.44 24 17.76 24 14.4 24H9.6c-3.36 0-5.04 0-6.324-.654a6 6 0 0 1-2.622-2.622C0 19.44 0 17.76 0 14.4V9.6ZM3 12a9 9 0 0 1 18 0 8.969 8.969 0 0 1-6.177 8.527c-.461.09-.619-.192-.619-.428l.003-.494c.003-.463.008-1.163.008-1.97 0-.843-.292-1.395-.607-1.665 2.002-.222 4.106-.983 4.106-4.44 0-.983-.348-1.785-.922-2.415.09-.228.393-1.143-.09-2.382 0 0-.754-.242-2.464.922-.72-.2-1.485-.299-2.25-.304a8.628 8.628 0 0 0-2.25.304c-1.721-1.164-2.475-.922-2.475-.922-.484 1.24-.18 2.154-.079 2.382-.577.63-.926 1.432-.926 2.415 0 3.448 2.1 4.222 4.1 4.447-.258.225-.49.622-.57 1.204-.515.23-1.82.628-2.622-.748 0 0-.475-.864-1.378-.928 0 0-.878-.01-.063.547 0 0 .591.278 1.001 1.317 0 0 .528 1.75 3.032 1.207a251.922 251.922 0 0 0 .01 1.53c0 .24-.164.517-.614.433A8.998 8.998 0 0 1 3 12Z" fill="#687076" fill-rule="evenodd" />
</svg>