<!--

Sourced from The Wolf Kit https://figma.com/community/file/1203393186896008602
Licensed as CC BY 4.0

https://feathericons.dev/google-play

-->
<svg class="feather feather-GooglePlay" xmlns="http://www.w3.org/2000/svg" viewBox="0 0 24 24" width="24" height="24" fill="none">
  <path clip-rule="evenodd" d="M1.426.363C1.156.654 1 1.1 1 1.681v20.634c0 .581.156 1.026.435 1.305l.072.063 11.561-11.56v-.26L1.498.302l-.072.062Z" fill="url(#a)" fill-rule="evenodd" />
  <path clip-rule="evenodd" d="m16.915 15.987-3.856-3.855v-.27l3.856-3.856.084.05 4.56 2.593c1.306.736 1.306 1.95 0 2.695L17 15.936l-.084.051Z" fill="url(#b)" fill-rule="evenodd" />
  <path clip-rule="evenodd" d="m16.998 15.936-3.94-3.94L1.427 23.63c.425.457 1.14.508 1.938.063l13.634-7.756Z" fill="url(#c)" fill-rule="evenodd" />
  <path clip-rule="evenodd" d="M16.998 8.057 3.364.312C2.566-.144 1.849-.08 1.426.375l11.633 11.621 3.94-3.94Z" fill="url(#d)" fill-rule="evenodd" />
  <defs >
    <linearGradient gradientUnits="userSpaceOnUse" id="a" x1="12.031" x2="-6.487" y1="1.458" y2="6.392">
      <stop stop-color="#00A0FF" />
      <stop offset=".007" stop-color="#00A1FF" />
      <stop offset=".26" stop-color="#00BEFF" />
      <stop offset=".512" stop-color="#00D2FF" />
      <stop offset=".76" stop-color="#00DFFF" />
      <stop offset="1" stop-color="#00E3FF" />
    </linearGradient>
    <linearGradient gradientUnits="userSpaceOnUse" id="b" x1="23.262" x2=".683" y1="11.996" y2="11.996">
      <stop stop-color="#FFE000" />
      <stop offset=".409" stop-color="#FFBD00" />
      <stop offset=".775" stop-color="orange" />
      <stop offset="1" stop-color="#FF9C00" />
    </linearGradient>
    <linearGradient gradientUnits="userSpaceOnUse" id="c" x1="14.856" x2="-.011" y1="14.14" y2="39.162">
      <stop stop-color="#FF3A44" />
      <stop offset="1" stop-color="#C31162" />
    </linearGradient>
    <linearGradient gradientUnits="userSpaceOnUse" id="d" x1="-1.504" x2="5.129" y1="-6.5" y2="4.675">
      <stop stop-color="#32A071" />
      <stop offset=".069" stop-color="#2DA771" />
      <stop offset=".476" stop-color="#15CF74" />
      <stop offset=".801" stop-color="#06E775" />
      <stop offset="1" stop-color="#00F076" />
    </linearGradient>
  </defs>
</svg>
