<!--

Sourced from The Wolf Kit https://figma.com/community/file/1203393186896008602
Licensed as CC BY 4.0

https://feathericons.dev/google-play-square

-->
<svg xmlns="http://www.w3.org/2000/svg" viewBox="0 0 24 24" width="24" height="24" fill="none">
  <rect fill="#000" height="24" rx="6" width="24" />
  <path clip-rule="evenodd" d="M5.784 4.242c-.18.194-.284.49-.284.878v13.756c0 .388.104.685.29.87l.048.043 7.708-7.708v-.172L5.832 4.2l-.048.042Z" fill="url(#google-play-square__a)" fill-rule="evenodd" />
  <path clip-rule="evenodd" d="m16.11 14.658-2.57-2.57v-.18l2.57-2.57.056.033 3.04 1.728c.87.49.87 1.3 0 1.797l-3.04 1.728-.056.034Z" fill="url(#google-play-square__b)" fill-rule="evenodd" />
  <path clip-rule="evenodd" d="m16.166 14.624-2.627-2.626-7.755 7.755c.284.304.76.338 1.292.042l9.09-5.17Z" fill="url(#google-play-square__c)" fill-rule="evenodd" />
  <path clip-rule="evenodd" d="m16.166 9.371-9.09-5.163c-.532-.304-1.01-.262-1.292.042l7.755 7.748 2.627-2.627Z" fill="url(#google-play-square__d)" fill-rule="evenodd" />
  <defs>
    <linearGradient gradientUnits="userSpaceOnUse" id="google-play-square__a" x1="12.854" x2=".508" y1="4.972" y2="8.262">
      <stop stop-color="#00A0FF" />
      <stop offset=".007" stop-color="#00A1FF" />
      <stop offset=".26" stop-color="#00BEFF" />
      <stop offset=".512" stop-color="#00D2FF" />
      <stop offset=".76" stop-color="#00DFFF" />
      <stop offset="1" stop-color="#00E3FF" />
    </linearGradient>
    <linearGradient gradientUnits="userSpaceOnUse" id="google-play-square__b" x1="20.341" x2="5.289" y1="11.998" y2="11.998">
      <stop stop-color="#FFE000" />
      <stop offset=".409" stop-color="#FFBD00" />
      <stop offset=".775" stop-color="orange" />
      <stop offset="1" stop-color="#FF9C00" />
    </linearGradient>
    <linearGradient gradientUnits="userSpaceOnUse" id="google-play-square__c" x1="14.737" x2="4.826" y1="13.427" y2="30.108">
      <stop stop-color="#FF3A44" />
      <stop offset="1" stop-color="#C31162" />
    </linearGradient>
    <linearGradient gradientUnits="userSpaceOnUse" id="google-play-square__d" x1="3.831" x2="8.253" y1="-.333" y2="7.117">
      <stop stop-color="#32A071" />
      <stop offset=".069" stop-color="#2DA771" />
      <stop offset=".476" stop-color="#15CF74" />
      <stop offset=".801" stop-color="#06E775" />
      <stop offset="1" stop-color="#00F076" />
    </linearGradient>
  </defs>
</svg>
