<!--

Sourced from The Wolf Kit https://figma.com/community/file/1203393186896008602
Licensed as CC BY 4.0

https://feathericons.dev/instagram-square

-->
<svg class="feather feather-InstagramSquare" xmlns="http://www.w3.org/2000/svg" viewBox="0 0 24 24" width="24" height="24" fill="none">
  <path d="M14.91 12a2.909 2.909 0 1 0-5.819 0 2.909 2.909 0 0 0 5.818 0Z" fill="url(#a)" />
  <path clip-rule="evenodd" d="M11.71 4.845h-.492v-.002c-1.627.002-1.939.013-2.744.05-.85.038-1.313.18-1.62.3a2.708 2.708 0 0 0-1.004.653 2.704 2.704 0 0 0-.653 1.004c-.12.307-.262.77-.3 1.62-.043.92-.05 1.195-.05 3.525s.007 2.607.05 3.527c.038.851.18 1.313.3 1.62.158.408.347.698.653 1.003.305.306.596.495 1.004.653.307.12.77.262 1.62.3.92.043 1.196.052 3.526.052s2.607-.01 3.527-.051c.85-.039 1.313-.18 1.62-.3a2.7 2.7 0 0 0 1.003-.654c.306-.305.495-.595.653-1.002.12-.307.262-.77.3-1.62.042-.92.052-1.196.052-3.525 0-2.33-.01-2.606-.051-3.526-.039-.85-.181-1.312-.3-1.62a2.708 2.708 0 0 0-.654-1.003 2.699 2.699 0 0 0-1.003-.653c-.307-.12-.77-.262-1.62-.3-.92-.042-1.196-.05-3.527-.05h-.29Zm3.902 2.496a1.047 1.047 0 1 1 2.094 0 1.047 1.047 0 0 1-2.094 0ZM7.519 12a4.482 4.482 0 1 1 8.963 0 4.482 4.482 0 0 1-8.963 0Z" fill="url(#b)" fill-rule="evenodd" />
  <path clip-rule="evenodd" d="M.654 3.276C0 4.56 0 6.24 0 9.6v4.8c0 3.36 0 5.04.654 6.324a6 6 0 0 0 2.622 2.622C4.56 24 6.24 24 9.6 24h4.8c3.36 0 5.04 0 6.324-.654a6 6 0 0 0 2.622-2.622C24 19.44 24 17.76 24 14.4V9.6c0-3.36 0-5.04-.654-6.324A6 6 0 0 0 20.724.654C19.44 0 17.76 0 14.4 0H9.6C6.24 0 4.56 0 3.276.654A6 6 0 0 0 .654 3.276Zm7.748.05c.93-.043 1.228-.053 3.598-.053h-.002c2.37 0 2.667.01 3.598.052.929.043 1.563.19 2.12.406.574.223 1.06.52 1.545 1.006.486.485.784.972 1.007 1.546.215.555.362 1.19.406 2.118.042.931.053 1.229.053 3.599s-.011 2.666-.053 3.597c-.044.929-.191 1.563-.406 2.118a4.284 4.284 0 0 1-1.007 1.546 4.269 4.269 0 0 1-1.545 1.008c-.555.215-1.19.362-2.119.405-.93.042-1.227.053-3.598.053-2.37 0-2.667-.01-3.598-.053-.929-.043-1.563-.19-2.118-.405a4.273 4.273 0 0 1-1.546-1.008 4.275 4.275 0 0 1-1.006-1.546c-.216-.555-.363-1.189-.406-2.118-.042-.93-.052-1.227-.052-3.597s.01-2.668.052-3.599c.042-.929.19-1.563.406-2.118a4.284 4.284 0 0 1 1.007-1.546 4.273 4.273 0 0 1 1.546-1.006c.555-.216 1.189-.363 2.118-.406Z" fill="url(#c)" fill-rule="evenodd" />
  <defs >
    <linearGradient gradientUnits="userSpaceOnUse" id="a" x1="14.101" x2="7.087" y1="-1.272" y2="21.899">
      <stop stop-color="#515BD4" />
      <stop offset=".26" stop-color="#9510B8" />
      <stop offset=".66" stop-color="#E51804" />
      <stop offset="1" stop-color="#FFBF00" />
    </linearGradient>
    <linearGradient gradientUnits="userSpaceOnUse" id="b" x1="14.101" x2="7.087" y1="-1.272" y2="21.899">
      <stop stop-color="#515BD4" />
      <stop offset=".26" stop-color="#9510B8" />
      <stop offset=".66" stop-color="#E51804" />
      <stop offset="1" stop-color="#FFBF00" />
    </linearGradient>
    <linearGradient gradientUnits="userSpaceOnUse" id="c" x1="14.101" x2="7.087" y1="-1.272" y2="21.899">
      <stop stop-color="#515BD4" />
      <stop offset=".26" stop-color="#9510B8" />
      <stop offset=".66" stop-color="#E51804" />
      <stop offset="1" stop-color="#FFBF00" />
    </linearGradient>
  </defs>
</svg>
