<!--

Sourced from The Wolf Kit https://figma.com/community/file/1203393186896008602
Licensed as CC BY 4.0

https://feathericons.dev/instagram-circle

-->
<svg class="feather feather-InstagramCircle" xmlns="http://www.w3.org/2000/svg" viewBox="0 0 24 24" width="24" height="24" fill="none">
  <path d="M9.333 12a2.667 2.667 0 1 0 5.334 0 2.667 2.667 0 0 0-5.334 0Z" fill="url(#a)" />
  <path clip-rule="evenodd" d="M15.233 5.488c-.844-.038-1.097-.047-3.233-.047s-2.39.009-3.233.047c-.78.036-1.203.166-1.485.276a2.48 2.48 0 0 0-.92.598c-.28.28-.453.546-.598.92-.11.282-.24.705-.276 1.485-.038.844-.047 1.097-.047 3.233s.009 2.39.047 3.233c.036.78.166 1.203.276 1.485.145.373.318.64.598.92.28.28.546.453.92.598.282.11.705.24 1.485.276.844.038 1.097.046 3.233.046s2.39-.008 3.233-.046c.78-.036 1.203-.166 1.485-.276.373-.145.64-.318.92-.598.28-.28.453-.547.598-.92.11-.282.24-.705.276-1.485.038-.844.046-1.097.046-3.233s-.008-2.39-.046-3.233c-.036-.78-.166-1.203-.276-1.485a2.478 2.478 0 0 0-.598-.92 2.478 2.478 0 0 0-.92-.598c-.282-.11-.705-.24-1.485-.276ZM7.892 12a4.108 4.108 0 1 1 8.216 0 4.108 4.108 0 0 1-8.216 0Zm9.338-4.27a.96.96 0 1 1-1.92 0 .96.96 0 0 1 1.92 0Z" fill="url(#b)" fill-rule="evenodd" />
  <path clip-rule="evenodd" d="M24 12c0 6.627-5.373 12-12 12S0 18.627 0 12 5.373 0 12 0s12 5.373 12 12ZM8.702 4.048C9.555 4.01 9.827 4 12 4s2.445.01 3.298.048c.852.039 1.433.174 1.942.372.526.204.972.478 1.417.923.445.444.718.89.923 1.417.198.509.333 1.09.372 1.942C19.99 9.555 20 9.827 20 12s-.01 2.445-.048 3.298c-.04.852-.174 1.433-.372 1.942a3.922 3.922 0 0 1-.923 1.417c-.445.445-.89.718-1.417.923-.509.198-1.09.333-1.942.372-.853.039-1.125.048-3.298.048s-2.445-.01-3.298-.048c-.852-.04-1.433-.174-1.942-.372a3.921 3.921 0 0 1-1.417-.923 3.922 3.922 0 0 1-.923-1.417c-.198-.509-.333-1.09-.372-1.942C4.01 14.445 4 14.173 4 12s.01-2.445.048-3.298c.039-.852.174-1.433.372-1.942.204-.526.478-.973.923-1.417.444-.445.89-.719 1.417-.923.509-.198 1.09-.333 1.942-.372Z" fill="url(#c)" fill-rule="evenodd" />
  <defs >
    <linearGradient gradientUnits="userSpaceOnUse" id="a" x1="14.101" x2="7.087" y1="-1.272" y2="21.899">
      <stop stop-color="#515BD4" />
      <stop offset=".26" stop-color="#9510B8" />
      <stop offset=".66" stop-color="#E51804" />
      <stop offset="1" stop-color="#FFBF00" />
    </linearGradient>
    <linearGradient gradientUnits="userSpaceOnUse" id="b" x1="14.101" x2="7.087" y1="-1.272" y2="21.899">
      <stop stop-color="#515BD4" />
      <stop offset=".26" stop-color="#9510B8" />
      <stop offset=".66" stop-color="#E51804" />
      <stop offset="1" stop-color="#FFBF00" />
    </linearGradient>
    <linearGradient gradientUnits="userSpaceOnUse" id="c" x1="14.101" x2="7.087" y1="-1.272" y2="21.899">
      <stop stop-color="#515BD4" />
      <stop offset=".26" stop-color="#9510B8" />
      <stop offset=".66" stop-color="#E51804" />
      <stop offset="1" stop-color="#FFBF00" />
    </linearGradient>
  </defs>
</svg>
