<!--

Sourced from The Wolf Kit https://figma.com/community/file/1203393186896008602
Licensed as CC BY 4.0

https://feathericons.dev/linkedin-square-mono

-->
<svg class="feather feather-LinkedinSquareMono" xmlns="http://www.w3.org/2000/svg" viewBox="0 0 24 24" width="24" height="24" fill="none">
  <path clip-rule="evenodd" d="M.654 3.276C0 4.56 0 6.24 0 9.6v4.8c0 3.36 0 5.04.654 6.324a6 6 0 0 0 2.622 2.622C4.56 24 6.24 24 9.6 24h4.8c3.36 0 5.04 0 6.324-.654a6 6 0 0 0 2.622-2.622C24 19.44 24 17.76 24 14.4V9.6c0-3.36 0-5.04-.654-6.324A6 6 0 0 0 20.724.654C19.44 0 17.76 0 14.4 0H9.6C6.24 0 4.56 0 3.276.654A6 6 0 0 0 .654 3.276ZM4.264 20h3.317V9.318H4.264V20ZM4 5.921c0 1.06.86 1.94 1.921 1.94 1.06 0 1.921-.88 1.921-1.94a1.921 1.921 0 0 0-3.842 0ZM16.686 20H20v-5.868c0-2.871-.617-5.082-3.974-5.082-1.614 0-2.696.885-3.139 1.725h-.046V9.318H9.659V20h3.314v-5.29c0-1.392.264-2.739 1.989-2.739 1.7 0 1.724 1.59 1.724 2.829V20Z" fill="#687076" fill-rule="evenodd" />
</svg>
