<!--

Sourced from The Wolf Kit https://figma.com/community/file/1203393186896008602
Licensed as CC BY 4.0

https://feathericons.dev/reddit

-->
<svg xmlns="http://www.w3.org/2000/svg" viewBox="0 0 24 24" width="24" height="24" fill="none">
  <path d="M24 11.903a2.637 2.637 0 0 0-2.636-2.636c-.717 0-1.35.274-1.814.738-1.793-1.286-4.281-2.13-7.023-2.235l1.202-5.631 3.902.822a1.88 1.88 0 0 0 3.754-.084A1.881 1.881 0 0 0 19.508 1c-.738 0-1.37.422-1.666 1.054l-4.366-.927a.525.525 0 0 0-.358.063.513.513 0 0 0-.211.295L11.578 7.77c-2.805.084-5.314.907-7.128 2.235a2.66 2.66 0 0 0-1.814-.738A2.637 2.637 0 0 0 0 11.903c0 1.076.633 1.983 1.56 2.405a4.934 4.934 0 0 0-.063.801c0 4.05 4.703 7.318 10.524 7.318 5.82 0 10.524-3.269 10.524-7.318 0-.274-.021-.527-.064-.78A2.728 2.728 0 0 0 24 11.903ZM5.968 13.78c0-1.033.844-1.877 1.877-1.877 1.034 0 1.877.844 1.877 1.877a1.881 1.881 0 0 1-1.877 1.877 1.881 1.881 0 0 1-1.877-1.877Zm10.482 4.956c-1.287 1.287-3.733 1.371-4.45 1.371-.717 0-3.185-.105-4.45-1.37a.497.497 0 0 1 0-.697c.19-.19.506-.19.696 0 .801.802 2.53 1.097 3.775 1.097 1.244 0 2.953-.295 3.775-1.097.19-.19.506-.19.696 0 .148.211.148.507-.042.696Zm-.337-3.079a1.881 1.881 0 0 1-1.877-1.877c0-1.033.843-1.877 1.877-1.877 1.033 0 1.877.844 1.877 1.877a1.881 1.881 0 0 1-1.877 1.877Z" fill="#FF4500" />
</svg>
