<!--

Sourced from The Wolf Kit https://figma.com/community/file/1203393186896008602
Licensed as CC BY 4.0

https://feathericons.dev/reddit-circle-mono

-->
<svg xmlns="http://www.w3.org/2000/svg" viewBox="0 0 24 24" width="24" height="24" fill="none">
  <path d="M9.25 12C8.56 12 8 12.561 8 13.25c0 .687.561 1.248 1.25 1.248.687 0 1.248-.561 1.248-1.249 0-.688-.561-1.249-1.249-1.249ZM12.014 17.46c.477 0 2.105-.056 2.961-.913a.36.36 0 0 0 .029-.463.33.33 0 0 0-.464 0c-.547.534-1.684.73-2.512.73-.828 0-1.979-.197-2.512-.73a.33.33 0 0 0-.463 0 .33.33 0 0 0 0 .463c.842.843 2.484.913 2.961.913ZM13.502 13.25c0 .687.561 1.248 1.249 1.248.688 0 1.249-.561 1.249-1.249 0-.688-.561-1.249-1.25-1.249-.687 0-1.248.561-1.248 1.25Z" fill="#687076" />
  <path clip-rule="evenodd" d="M24 12c0 6.627-5.373 12-12 12S0 18.627 0 12 5.373 0 12 0s12 5.373 12 12Zm-5.754-1.754c.968 0 1.754.786 1.754 1.754 0 .716-.435 1.333-1.01 1.614.027.168.042.337.042.52 0 2.694-3.13 4.87-7.004 4.87-3.874 0-7.003-2.176-7.003-4.87 0-.183.014-.366.042-.534A1.748 1.748 0 0 1 4.028 12c0-.968.786-1.754 1.754-1.754.464 0 .899.196 1.207.49 1.208-.883 2.878-1.43 4.744-1.487l.885-4.182a.341.341 0 0 1 .14-.197c.07-.042.154-.056.239-.042l2.905.618a1.214 1.214 0 0 1 1.109-.702c.687 0 1.249.561 1.249 1.249a1.25 1.25 0 0 1-2.498.056l-2.597-.547-.8 3.747c1.825.07 3.48.632 4.674 1.488.308-.309.73-.491 1.207-.491Z" fill="#687076" fill-rule="evenodd" />
</svg>
