<svg xmlns="http://www.w3.org/2000/svg" viewBox="0 0 24 24" width="24" height="24" fill="none">
  <path d="M6.387 2.608a2.492 2.492 0 0 0 2.495 2.494h2.494V2.608A2.492 2.492 0 0 0 8.882.113a2.492 2.492 0 0 0-2.495 2.495ZM11.376 8.863a2.492 2.492 0 0 0-2.494-2.495H2.627A2.492 2.492 0 0 0 .132 8.863a2.492 2.492 0 0 0 2.495 2.495h6.255a2.492 2.492 0 0 0 2.494-2.495ZM2.646 17.613a2.492 2.492 0 0 0 2.494-2.495v-2.494H2.646A2.492 2.492 0 0 0 .15 15.118a2.492 2.492 0 0 0 2.495 2.495ZM8.882 12.624a2.492 2.492 0 0 0-2.495 2.494v6.236a2.492 2.492 0 0 0 2.495 2.495 2.492 2.492 0 0 0 2.494-2.495v-6.236a2.492 2.492 0 0 0-2.494-2.494ZM18.879 8.863a2.492 2.492 0 0 1 2.494-2.495 2.492 2.492 0 0 1 2.495 2.495 2.492 2.492 0 0 1-2.495 2.495H18.88V8.863ZM17.632 8.863a2.492 2.492 0 0 1-2.495 2.495 2.492 2.492 0 0 1-2.494-2.495V2.608A2.492 2.492 0 0 1 15.137.113a2.492 2.492 0 0 1 2.495 2.495v6.255ZM17.632 21.354a2.492 2.492 0 0 0-2.495-2.494h-2.494v2.494a2.492 2.492 0 0 0 2.494 2.495 2.492 2.492 0 0 0 2.495-2.495ZM12.643 15.118a2.492 2.492 0 0 0 2.494 2.495h6.255a2.492 2.492 0 0 0 2.495-2.495 2.492 2.492 0 0 0-2.495-2.494h-6.255a2.492 2.492 0 0 0-2.494 2.494Z" fill="#687076" />
</svg>