<!--

Sourced from The Wolf Kit https://figma.com/community/file/1203393186896008602
Licensed as CC BY 4.0

https://feathericons.dev/slack-square-mono

-->
<svg class="feather feather-SlackSquareMono" xmlns="http://www.w3.org/2000/svg" viewBox="0 0 24 24" width="24" height="24" fill="none">
  <path clip-rule="evenodd" d="M.654 3.276C0 4.56 0 6.24 0 9.6v4.8c0 3.36 0 5.04.654 6.324a6 6 0 0 0 2.622 2.622C4.56 24 6.24 24 9.6 24h4.8c3.36 0 5.04 0 6.324-.654a6 6 0 0 0 2.622-2.622C24 19.44 24 17.76 24 14.4V9.6c0-3.36 0-5.04-.654-6.324A6 6 0 0 0 20.724.654C19.44 0 17.76 0 14.4 0H9.6C6.24 0 4.56 0 3.276.654A6 6 0 0 0 .654 3.276Zm9.267 4.126c-.92 0-1.663-.744-1.663-1.663 0-.92.744-1.663 1.663-1.663.92 0 1.663.743 1.663 1.663v1.663H9.921Zm0 .844c.92 0 1.663.743 1.663 1.663s-.743 1.663-1.663 1.663h-4.17c-.92 0-1.663-.744-1.663-1.663 0-.92.743-1.663 1.663-1.663h4.17Zm-4.157 7.496c.92 0 1.663-.744 1.663-1.663v-1.663H5.764c-.92 0-1.663.743-1.663 1.663s.743 1.663 1.663 1.663Zm2.494-1.663c0-.92.744-1.663 1.663-1.663.92 0 1.663.743 1.663 1.663v4.157c0 .92-.743 1.663-1.663 1.663s-1.663-.743-1.663-1.663V14.08Zm8.328-4.17c0-.92.743-1.663 1.663-1.663s1.663.743 1.663 1.663-.743 1.663-1.663 1.663h-1.663V9.909Zm-2.494 1.663c.92 0 1.662-.744 1.662-1.663v-4.17a1.661 1.661 0 1 0-3.326 0v4.17c0 .92.744 1.663 1.663 1.663Zm1.662 6.664c0-.92-.743-1.663-1.662-1.663h-1.664v1.663c0 .92.744 1.663 1.663 1.663.92 0 1.664-.743 1.664-1.663Zm-1.662-2.494c-.92 0-1.664-.744-1.664-1.663 0-.92.744-1.663 1.663-1.663h4.17c.92 0 1.663.743 1.663 1.663s-.743 1.663-1.662 1.663h-4.17Z" fill="#687076" fill-rule="evenodd" />
</svg>
