<!--

Sourced from The Wolf Kit https://figma.com/community/file/1203393186896008602
Licensed as CC BY 4.0

https://feathericons.dev/snapchat-circle-mono

-->
<svg class="feather feather-SnapchatCircleMono" xmlns="http://www.w3.org/2000/svg" viewBox="0 0 24 24" width="24" height="24" fill="none">
  <path clip-rule="evenodd" d="M12 0C5.373 0 0 5.373 0 12s5.373 12 12 12 12-5.373 12-12S18.627 0 12 0Zm4.09 7.048c-1.055-2.363-3.293-2.547-3.953-2.547l-.04-.001-.279.01c-.659 0-2.89.18-3.916 2.531-.352.785-.271 2.12-.206 3.199l.001.026.03.38a.63.63 0 0 1-.31.07c-.209 0-.455-.071-.735-.2a.675.675 0 0 0-.255-.05c-.33 0-.72.21-.78.529-.04.228.06.558.799.848.07.03.15.06.23.08l.02.006c.299.1.741.25.869.533.07.15.04.35-.08.58l-.01.019c-.041.094-1.018 2.32-3.194 2.68a.33.33 0 0 0-.28.34.4.4 0 0 0 .036.15c.16.388.848.668 2.126.816.031.04.062.17.088.284l.023.096c.011.045.021.092.031.14.017.078.034.159.059.238.04.131.14.28.389.28.099 0 .219-.02.36-.049l.047-.009c.203-.04.467-.09.8-.09.2 0 .41.02.62.05.396.069.732.304 1.127.581l.01.008c.568.408 1.208.858 2.186.858h.1c.02 0 .04.003.06.005.02.003.04.005.06.005.973 0 1.62-.454 2.186-.852l.01-.006c.4-.28.748-.52 1.148-.59.21-.04.409-.05.609-.05.339 0 .609.04.849.09.15.03.268.05.358.05h.02c.19 0 .32-.09.37-.27.04-.128.07-.25.09-.368l.006-.028c.029-.128.066-.296.103-.353 1.249-.188 1.937-.468 2.097-.847.02-.05.03-.1.03-.15a.333.333 0 0 0-.28-.34c-2.171-.358-3.15-2.575-3.193-2.675l-.01-.01c-.121-.23-.14-.43-.08-.579.129-.3.588-.45.888-.54.05-.016.096-.033.138-.048l.091-.031c.55-.22.82-.48.81-.779 0-.24-.19-.46-.49-.559a.911.911 0 0 0-.34-.06c-.08 0-.199.011-.309.07-.25.12-.489.19-.689.2a.518.518 0 0 1-.267-.06c.005-.11.012-.22.02-.34l.002-.04c.07-1.085.153-2.436-.2-3.231Z" fill="#687076" fill-rule="evenodd" />
</svg>
