<!--

Sourced from The Wolf Kit https://figma.com/community/file/1203393186896008602
Licensed as CC BY 4.0

https://feathericons.dev/youtube-circle-mono

-->
<svg xmlns="http://www.w3.org/2000/svg" viewBox="0 0 24 24" width="24" height="24" fill="none">
  <path d="m10.16 9.664 4.704 2.677-4.705 2.676V9.664Z" fill="#687076" />
  <path clip-rule="evenodd" d="M24 12c0 6.627-5.373 12-12 12S0 18.627 0 12 5.373 0 12 0s12 5.373 12 12Zm-3.376-4.02a2.262 2.262 0 0 0-1.592-1.602C17.625 6 12 6 12 6s-5.625 0-7.032.378A2.262 2.262 0 0 0 3.376 7.98C3 9.393 3 12.34 3 12.34s0 2.948.376 4.362a2.262 2.262 0 0 0 1.592 1.601c1.407.379 7.032.379 7.032.379s5.625 0 7.032-.379a2.261 2.261 0 0 0 1.592-1.601C21 15.288 21 12.34 21 12.34s0-2.948-.376-4.361Z" fill="#687076" fill-rule="evenodd" />
</svg>
