<!--

Sourced from The Wolf Kit https://figma.com/community/file/1203393186896008602
Licensed as CC BY 4.0

https://feathericons.dev/youtube-mono

-->
<svg xmlns="http://www.w3.org/2000/svg" viewBox="0 0 24 24" width="24" height="24" fill="none">
  <path clip-rule="evenodd" d="M22.747 4.834c.372.375.64.84.775 1.351.502 1.885.502 5.815.502 5.815s0 3.93-.502 5.815A3.017 3.017 0 0 1 21.4 19.95c-1.876.505-9.376.505-9.376.505s-7.5 0-9.376-.505a3.016 3.016 0 0 1-2.122-2.135C.024 15.93.024 12 .024 12s0-3.93.502-5.815A3.016 3.016 0 0 1 2.648 4.05c1.876-.505 9.376-.505 9.376-.505s7.5 0 9.376.505c.51.139.974.41 1.347.784ZM15.842 12 9.57 8.431v7.138L15.842 12Z" fill="#687076" fill-rule="evenodd" />
</svg>
