<svg width="24" height="24" viewBox="0 0 24 24" fill="none" xmlns="http://www.w3.org/2000/svg">
<path fill-rule="evenodd" clip-rule="evenodd" d="M7.35289 9.22505C6.85689 9.93905 6.60989 10.7971 6.60989 11.8021L6.60889 11.8071L6.65889 11.8831C6.65889 13.1581 7.01889 14.1331 7.73889 14.8231C8.45889 15.5141 9.38889 15.8571 10.4989 15.8571C11.2359 15.8571 11.8349 15.7801 12.3289 15.6301C13.1259 15.4051 13.9189 14.8511 14.7289 13.9651L15.0289 14.4001C15.1306 14.543 15.2363 14.683 15.3459 14.8201L15.6559 15.1671C15.8212 15.3427 15.9968 15.5083 16.1819 15.6631C16.4369 15.7681 16.6469 15.7531 16.8119 15.6181C16.8337 15.599 16.8805 15.5584 16.9521 15.4963C17.2186 15.2652 17.829 14.7357 18.7749 13.9081C18.8949 13.8201 18.9549 13.7141 18.9549 13.5941C18.9549 13.4901 18.9089 13.3701 18.8189 13.2341L18.3089 12.5601C18.2039 12.4261 18.0989 12.199 17.9939 11.8861C17.8889 11.5701 17.8289 11.2261 17.8289 10.8501V5.57005C17.8289 5.54108 17.8266 5.48413 17.823 5.39775C17.8192 5.30522 17.8141 5.17892 17.8089 5.01705C17.7949 4.70205 17.7629 4.50605 17.7329 4.40205C17.7029 4.31205 17.6579 4.14605 17.5979 3.89205C17.5529 3.65205 17.4779 3.45605 17.4029 3.32205C17.3439 3.18605 17.2399 3.03705 17.1199 2.87205C16.9849 2.69206 16.8499 2.54207 16.7149 2.39209C15.7839 1.53609 14.4769 1.10205 12.8269 1.10205H12.2869C10.9969 1.17705 9.87289 1.53605 8.89689 2.15205C7.93189 2.78205 7.32389 3.74205 7.07689 5.03205C7.06189 5.09205 7.05489 5.13605 7.05489 5.18205C7.05489 5.39205 7.17889 5.51205 7.42689 5.57205L9.94689 5.88705C10.1759 5.84205 10.3219 5.67705 10.3819 5.37705C10.4819 4.91105 10.7069 4.55105 11.0569 4.28105C11.4069 4.01705 11.8229 3.86705 12.3029 3.82105H12.4849C13.1449 3.82105 13.6229 4.04105 13.9249 4.47105C14.1199 4.78805 14.2249 5.41605 14.2249 6.34605V6.71605C13.3379 6.78705 12.6949 6.84405 12.3049 6.89005C11.1489 7.03505 10.1889 7.27505 9.39289 7.61005C8.52289 7.97505 7.84789 8.51505 7.35289 9.22505ZM10.7879 12.7281C10.5029 12.3841 10.3629 11.9301 10.3629 11.3641V11.3541L10.3979 11.3741C10.3979 10.114 11.0429 9.30405 12.3179 8.94405C12.7539 8.82405 13.3979 8.76405 14.2379 8.76405V9.30405C14.2379 9.76905 14.2379 10.1141 14.2229 10.3091C14.2079 10.5191 14.1779 10.7891 14.0879 11.1091C14.0129 11.4391 13.8929 11.7391 13.7279 12.0191C13.3839 12.6441 12.9179 13.0371 12.3039 13.1971C12.2719 13.1971 12.2279 13.2041 12.1379 13.2201C12.0489 13.2331 11.9879 13.2401 11.9429 13.2401C11.4629 13.2401 11.0729 13.0681 10.7879 12.7281Z" fill="#687076"/>
<path d="M0.393 17.9981C0.232 17.8961 0.117 17.9041 0.045 18.0201L0.0509656 18.0121C0.0209839 18.0521 0 18.0951 0 18.1421C0 18.2121 0.051 18.2881 0.151 18.3621C1.74552 19.7953 3.58479 20.93 5.581 21.7121C9.07699 23.0646 12.9132 23.2667 16.532 22.2891C18.077 21.8791 19.473 21.3061 20.717 20.5631C21.123 20.3191 21.467 20.0991 21.723 19.9091C21.933 19.7651 21.963 19.6031 21.843 19.4291C21.708 19.2531 21.544 19.2111 21.318 19.2991C21.2731 19.3219 21.2068 19.3505 21.1168 19.3893C21.0886 19.4015 21.058 19.4147 21.025 19.4291L20.71 19.5691C17.931 20.6311 15.115 21.1641 12.263 21.1641C7.987 21.1641 4.029 20.1081 0.393 17.9981Z" fill="#687076"/>
<path d="M19.657 18.2211C19.6 18.2811 19.555 18.3311 19.525 18.3911L19.514 18.3951V18.4551L19.5115 18.4609C19.4993 18.4897 19.494 18.5021 19.494 18.5181C19.478 18.5481 19.484 18.5651 19.514 18.5951C19.546 18.6251 19.604 18.6391 19.694 18.6391C19.994 18.5941 20.331 18.5491 20.694 18.5041C21.031 18.4741 21.321 18.4581 21.564 18.4581C22.238 18.4581 22.643 18.5491 22.788 18.7151C22.845 18.7891 22.875 18.9091 22.875 19.0591C22.875 19.5561 22.609 20.4391 22.069 21.6991C22.026 21.8191 22.043 21.8951 22.133 21.9391C22.163 21.9511 22.193 21.9511 22.223 21.9511C22.28 21.9511 22.347 21.9211 22.42 21.8611C22.912 21.4291 23.298 20.8711 23.576 20.1811C23.851 19.4911 24 18.8911 24 18.3811V18.2311C24 18.0691 23.964 17.9311 23.901 17.8411C23.779 17.6791 23.379 17.5711 22.729 17.5111C22.599 17.4811 22.459 17.4691 22.319 17.4811C21.775 17.5066 21.2349 17.587 20.707 17.7211C20.371 17.8111 20.019 17.9781 19.657 18.2211Z" fill="#687076"/>
</svg>
