<svg width="56" height="32" viewBox="0 0 56 32" fill="none" xmlns="http://www.w3.org/2000/svg">
<rect width="56" height="32" rx="6" fill="#4D4D4D"/>
<path d="M19.6481 15.9843C19.6481 18.0584 21.2769 19.6667 23.3728 19.6667C23.9654 19.6667 24.4728 19.5502 25.0986 19.2556V17.6352C24.5482 18.186 24.0609 18.4081 23.437 18.4081C22.0507 18.4081 21.0668 17.403 21.0668 15.9739C21.0668 14.6192 22.0818 13.5503 23.373 13.5503C24.0295 13.5503 24.5264 13.7847 25.0988 14.3444V12.7248C24.4946 12.4183 23.9978 12.2913 23.4054 12.2913C21.3199 12.2916 19.6481 13.9327 19.6481 15.9843Z" fill="white"/>
<path d="M16.1157 14.2707C16.1157 14.6519 16.3582 14.8535 17.1842 15.1591C18.75 15.7316 19.2138 16.2392 19.2138 17.3604C19.2138 18.7264 18.2105 19.6774 16.7801 19.6774C15.7328 19.6774 14.9712 19.2648 14.337 18.334L15.2262 17.4777C15.543 18.0905 16.0718 18.4188 16.7283 18.4188C17.3425 18.4188 17.797 17.9952 17.797 17.4234C17.797 17.1272 17.6593 16.8728 17.3843 16.6933C17.2459 16.6082 16.9716 16.4815 16.4327 16.2915C15.14 15.8263 14.6966 15.3287 14.6966 14.3564C14.6966 13.2014 15.649 12.3344 16.8975 12.3344C17.6712 12.3344 18.3793 12.5991 18.9711 13.1168L18.251 14.0598C17.8923 13.6579 17.5535 13.4885 17.141 13.4885C16.5479 13.4885 16.1157 13.8261 16.1157 14.2707Z" fill="white"/>
<path fill-rule="evenodd" clip-rule="evenodd" d="M8.02047 12.4511H6V19.5077H8.00978C9.07845 19.5077 9.85016 19.2556 10.5275 18.693C11.3325 18.0269 11.8086 17.0228 11.8086 15.9843C11.8088 13.9019 10.2527 12.4511 8.02047 12.4511ZM9.62844 17.7521C9.19589 18.1426 8.63425 18.313 7.7449 18.313H7.37556V13.6468H7.7449C8.63425 13.6468 9.17393 13.8059 9.62844 14.2174C10.1045 14.6412 10.3908 15.2981 10.3908 15.9739C10.3908 16.6515 10.1045 17.3285 9.62844 17.7521Z" fill="white"/>
<path d="M13.8185 12.4511H12.442V19.5077H13.8185V12.4511Z" fill="white"/>
<path d="M34.1302 12.4511L36.012 17.191L37.9183 12.4511H39.4103L36.3619 19.6887H35.6213L32.6265 12.4511H34.1302Z" fill="white"/>
<path d="M40.0327 19.5077H43.9364V18.3131H41.4081V16.4084H43.8432V15.2131H41.4081V13.6468H43.9364V12.4511H40.0327V19.5077Z" fill="white"/>
<path fill-rule="evenodd" clip-rule="evenodd" d="M46.8887 12.4511C48.476 12.4511 49.386 13.2133 49.386 14.5344C49.386 15.6149 48.8152 16.324 47.7786 16.5348L50 19.5077H48.3072L46.4021 16.6729H46.2226V19.5077H44.8478V12.4511H46.8887ZM46.2228 15.6999H46.6248C47.5038 15.6999 47.9698 15.318 47.9698 14.6085C47.9698 13.9218 47.5038 13.5626 46.6465 13.5626H46.2228V15.6999Z" fill="white"/>
<path d="M29.3018 19.7578C31.375 19.7578 33.0557 18.0771 33.0557 16.0039C33.0557 13.9307 31.375 12.25 29.3018 12.25C27.2285 12.25 25.5479 13.9307 25.5479 16.0039C25.5479 18.0771 27.2285 19.7578 29.3018 19.7578Z" fill="#F48120"/>
<path d="M56 20C54.5081 21.0346 43.3389 28.4284 24 32H52.8506C54.5896 32 56 30.61 56 28.8957V20Z" fill="#F47216"/>
<rect x="0.5" y="0.5" width="55" height="31" rx="5.5" stroke="black" stroke-opacity="0.14"/>
</svg>
