<svg width="24" height="24" viewBox="0 0 24 24" fill="none" xmlns="http://www.w3.org/2000/svg">
<g clip-path="url(#clip0_1428_79881)">
<path fill-rule="evenodd" clip-rule="evenodd" d="M12 0C5.37258 0 0 5.37258 0 12C0 18.6274 5.37258 24 12 24C18.6274 24 24 18.6274 24 12C24 5.37258 18.6274 0 12 0ZM11.6745 15.723C12.6265 14.764 13.159 13.4663 13.155 12.115C13.159 10.7637 12.6265 9.46603 11.6745 8.507C10.7225 7.54796 9.42882 7.00596 8.07752 7C6.72621 7.00596 5.43251 7.54796 4.48051 8.507C3.52851 9.46603 2.99603 10.7637 3.00002 12.115C2.99603 13.4663 3.52851 14.764 4.48051 15.723C5.43251 16.682 6.72621 17.224 8.07752 17.23C9.42882 17.224 10.7225 16.682 11.6745 15.723ZM16.185 16.93C17.5875 16.93 18.72 14.77 18.72 12.115C18.72 9.46 17.5875 7.3 16.185 7.3C14.7825 7.3 13.6425 9.46 13.6425 12.115C13.6425 14.77 14.7825 16.93 16.185 16.93ZM20.1075 16.4275C20.6025 16.4275 21 14.4925 21 12.115C21 9.7375 20.6025 7.8025 20.1075 7.8025C19.6125 7.8025 19.215 9.7375 19.215 12.115C19.215 14.4925 19.6125 16.4275 20.1075 16.4275Z" fill="black"/>
</g>
<defs>
<clipPath id="clip0_1428_79881">
<rect width="24" height="24" fill="white"/>
</clipPath>
</defs>
</svg>
