<svg width="56" height="32" viewBox="0 0 56 32" fill="none" xmlns="http://www.w3.org/2000/svg">
<path d="M27.3591 21.5655V10.5227C30.4159 11.3052 32.3373 14.3485 31.5513 17.3918C31.0273 19.4786 29.4552 21.0438 27.3591 21.5655Z" fill="#0079BE"/>
<path d="M20.634 14.6094C19.848 17.6527 21.682 20.7829 24.7388 21.5655V10.5227C22.7301 11.0444 21.158 12.6095 20.634 14.6094Z" fill="#0079BE"/>
<path fill-rule="evenodd" clip-rule="evenodd" d="M25.787 26H29.3678C34.9574 26 39.4115 21.5655 39.5862 16.0876V16.0006C39.4989 10.4357 34.9574 5.91428 29.3678 6.00123H25.3503C20.0228 6.17514 15.8306 10.6966 16.0053 16.0876C16.0053 21.4785 20.3721 25.913 25.787 26ZM17.7521 16.0006C17.7521 11.4791 21.5076 7.74022 26.0491 7.74022C30.5906 7.74022 34.3461 11.4791 34.3461 16.0006C34.3461 20.522 30.5906 24.2609 26.0491 24.2609C21.5076 24.2609 17.7521 20.522 17.7521 16.0006Z" fill="#0079BE"/>
<rect x="0.5" y="0.5" width="55" height="31" rx="5.5" stroke="#DFE3E6"/>
</svg>
